  0
SECTION
  2
HEADER
  9
$ACADVER
  1
AC1027
  9
$ACADMAINTVER
 70
105
  9
$DWGCODEPAGE
  3
ANSI_1252
  9
$LASTSAVEDBY
  1
ezdxf
  9
$REQUIREDVERSIONS
160
0
  9
$INSBASE
 10
0.0
 20
0.0
 30
0.0
  9
$EXTMIN
 10
1e+20
 20
1e+20
 30
1e+20
  9
$EXTMAX
 10
-1e+20
 20
-1e+20
 30
-1e+20
  9
$LIMMIN
 10
0.0
 20
0.0
  9
$LIMMAX
 10
420.0
 20
297.0
  9
$ORTHOMODE
 70
0
  9
$REGENMODE
 70
1
  9
$FILLMODE
 70
1
  9
$QTEXTMODE
 70
0
  9
$MIRRTEXT
 70
1
  9
$LTSCALE
 40
1.0
  9
$ATTMODE
 70
1
  9
$TEXTSIZE
 40
2.5
  9
$TRACEWID
 40
1.0
  9
$TEXTSTYLE
  7
OpenSans
  9
$CLAYER
  8
0
  9
$CELTYPE
  6
ByLayer
  9
$CECOLOR
 62
256
  9
$CELTSCALE
 40
1.0
  9
$DISPSILH
 70
0
  9
$DIMSCALE
 40
1.0
  9
$DIMASZ
 40
0.175
  9
$DIMEXO
 40
0.125
  9
$DIMDLI
 40
3.75
  9
$DIMRND
 40
0.0
  9
$DIMDLE
 40
0.0
  9
$DIMEXE
 40
0.375
  9
$DIMTP
 40
0.0
  9
$DIMTM
 40
0.0
  9
$DIMTXT
 40
0.25
  9
$DIMCEN
 40
2.5
  9
$DIMTSZ
 40
0.0
  9
$DIMTOL
 70
0
  9
$DIMLIM
 70
0
  9
$DIMTIH
 70
0
  9
$DIMTOH
 70
0
  9
$DIMSE1
 70
0
  9
$DIMSE2
 70
0
  9
$DIMTAD
 70
1
  9
$DIMZIN
 70
12
  9
$DIMBLK
  1
ARCHTICK
  9
$DIMASO
 70
1
  9
$DIMSHO
 70
1
  9
$DIMPOST
  1

  9
$DIMAPOST
  1

  9
$DIMALT
 70
0
  9
$DIMALTD
 70
3
  9
$DIMALTF
 40
0.03937007874
  9
$DIMLFAC
 40
100.0
  9
$DIMTOFL
 70
1
  9
$DIMTVP
 40
0.0
  9
$DIMTIX
 70
0
  9
$DIMSOXD
 70
0
  9
$DIMSAH
 70
0
  9
$DIMBLK1
  1

  9
$DIMBLK2
  1

  9
$DIMSTYLE
  2
EZDXF
  9
$DIMCLRD
 70
0
  9
$DIMCLRE
 70
0
  9
$DIMCLRT
 70
0
  9
$DIMTFAC
 40
0.5
  9
$DIMGAP
 40
0.1
  9
$DIMJUST
 70
0
  9
$DIMSD1
 70
0
  9
$DIMSD2
 70
0
  9
$DIMTOLJ
 70
0
  9
$DIMTZIN
 70
8
  9
$DIMALTZ
 70
0
  9
$DIMALTTZ
 70
0
  9
$DIMUPT
 70
1
  9
$DIMDEC
 70
2
  9
$DIMTDEC
 70
2
  9
$DIMALTU
 70
2
  9
$DIMALTTD
 70
3
  9
$DIMTXSTY
  7
OpenSansCondensed-Light
  9
$DIMAUNIT
 70
0
  9
$DIMADEC
 70
2
  9
$DIMALTRND
 40
0.0
  9
$DIMAZIN
 70
3
  9
$DIMDSEP
 70
46
  9
$DIMATFIT
 70
3
  9
$DIMFRAC
 70
0
  9
$DIMLDRBLK
  1

  9
$DIMLUNIT
 70
2
  9
$DIMLWD
 70
-2
  9
$DIMLWE
 70
-2
  9
$DIMTMOVE
 70
2
  9
$DIMFXL
 40
1.0
  9
$DIMFXLON
 70
0
  9
$DIMJOGANG
 40
0.785398163397
  9
$DIMTFILL
 70
0
  9
$DIMTFILLCLR
 70
0
  9
$DIMARCSYM
 70
0
  9
$DIMLTYPE
  6

  9
$DIMLTEX1
  6

  9
$DIMLTEX2
  6

  9
$DIMTXTDIRECTION
 70
0
  9
$LUNITS
 70
2
  9
$LUPREC
 70
4
  9
$SKETCHINC
 40
1.0
  9
$FILLETRAD
 40
10.0
  9
$AUNITS
 70
0
  9
$AUPREC
 70
2
  9
$MENU
  1
.
  9
$ELEVATION
 40
0.0
  9
$PELEVATION
 40
0.0
  9
$THICKNESS
 40
0.0
  9
$LIMCHECK
 70
0
  9
$CHAMFERA
 40
0.0
  9
$CHAMFERB
 40
0.0
  9
$CHAMFERC
 40
0.0
  9
$CHAMFERD
 40
0.0
  9
$SKPOLY
 70
0
  9
$TDCREATE
 40
2460854.855196759
  9
$TDUCREATE
 40
2458532.153996898
  9
$TDUPDATE
 40
2460854.855196759
  9
$TDUUPDATE
 40
2458532.1544311
  9
$TDINDWG
 40
0.0
  9
$TDUSRTIMER
 40
0.0
  9
$USRTIMER
 70
1
  9
$ANGBASE
 50
0.0
  9
$ANGDIR
 70
0
  9
$PDMODE
 70
0
  9
$PDSIZE
 40
0.0
  9
$PLINEWID
 40
0.0
  9
$SPLFRAME
 70
0
  9
$SPLINETYPE
 70
6
  9
$SPLINESEGS
 70
8
  9
$HANDSEED
  5
310
  9
$SURFTAB1
 70
6
  9
$SURFTAB2
 70
6
  9
$SURFTYPE
 70
6
  9
$SURFU
 70
6
  9
$SURFV
 70
6
  9
$UCSBASE
  2

  9
$UCSNAME
  2

  9
$UCSORG
 10
0.0
 20
0.0
 30
0.0
  9
$UCSXDIR
 10
1.0
 20
0.0
 30
0.0
  9
$UCSYDIR
 10
0.0
 20
1.0
 30
0.0
  9
$UCSORTHOREF
  2

  9
$UCSORTHOVIEW
 70
0
  9
$UCSORGTOP
 10
0.0
 20
0.0
 30
0.0
  9
$UCSORGBOTTOM
 10
0.0
 20
0.0
 30
0.0
  9
$UCSORGLEFT
 10
0.0
 20
0.0
 30
0.0
  9
$UCSORGRIGHT
 10
0.0
 20
0.0
 30
0.0
  9
$UCSORGFRONT
 10
0.0
 20
0.0
 30
0.0
  9
$UCSORGBACK
 10
0.0
 20
0.0
 30
0.0
  9
$PUCSBASE
  2

  9
$PUCSNAME
  2

  9
$PUCSORG
 10
0.0
 20
0.0
 30
0.0
  9
$PUCSXDIR
 10
1.0
 20
0.0
 30
0.0
  9
$PUCSYDIR
 10
0.0
 20
1.0
 30
0.0
  9
$PUCSORTHOREF
  2

  9
$PUCSORTHOVIEW
 70
0
  9
$PUCSORGTOP
 10
0.0
 20
0.0
 30
0.0
  9
$PUCSORGBOTTOM
 10
0.0
 20
0.0
 30
0.0
  9
$PUCSORGLEFT
 10
0.0
 20
0.0
 30
0.0
  9
$PUCSORGRIGHT
 10
0.0
 20
0.0
 30
0.0
  9
$PUCSORGFRONT
 10
0.0
 20
0.0
 30
0.0
  9
$PUCSORGBACK
 10
0.0
 20
0.0
 30
0.0
  9
$USERI1
 70
0
  9
$USERI2
 70
0
  9
$USERI3
 70
0
  9
$USERI4
 70
0
  9
$USERI5
 70
0
  9
$USERR1
 40
0.0
  9
$USERR2
 40
0.0
  9
$USERR3
 40
0.0
  9
$USERR4
 40
0.0
  9
$USERR5
 40
0.0
  9
$WORLDVIEW
 70
1
  9
$SHADEDGE
 70
3
  9
$SHADEDIF
 70
70
  9
$TILEMODE
 70
1
  9
$MAXACTVP
 70
64
  9
$PINSBASE
 10
0.0
 20
0.0
 30
0.0
  9
$PLIMCHECK
 70
0
  9
$PEXTMIN
 10
1e+20
 20
1e+20
 30
1e+20
  9
$PEXTMAX
 10
-1e+20
 20
-1e+20
 30
-1e+20
  9
$PLIMMIN
 10
0.0
 20
0.0
  9
$PLIMMAX
 10
420.0
 20
297.0
  9
$UNITMODE
 70
0
  9
$VISRETAIN
 70
1
  9
$PLINEGEN
 70
0
  9
$PSLTSCALE
 70
1
  9
$TREEDEPTH
 70
3020
  9
$CMLSTYLE
  2
Standard
  9
$CMLJUST
 70
0
  9
$CMLSCALE
 40
20.0
  9
$PROXYGRAPHICS
 70
1
  9
$MEASUREMENT
 70
1
  9
$CELWEIGHT
370
-1
  9
$ENDCAPS
280
0
  9
$JOINSTYLE
280
0
  9
$LWDISPLAY
290
0
  9
$INSUNITS
 70
6
  9
$HYPERLINKBASE
  1

  9
$STYLESHEET
  1

  9
$XEDIT
290
1
  9
$CEPSNTYPE
380
0
  9
$PSTYLEMODE
290
1
  9
$FINGERPRINTGUID
  2
{F2F52BB5-36DD-4031-857B-333B78460CFD}
  9
$VERSIONGUID
  2
{D77ACB58-0D63-4B5D-8B2F-3D750855A138}
  9
$EXTNAMES
290
1
  9
$PSVPSCALE
 40
0.0
  9
$OLESTARTUP
290
0
  9
$SORTENTS
280
127
  9
$INDEXCTL
280
0
  9
$HIDETEXT
280
1
  9
$XCLIPFRAME
280
1
  9
$HALOGAP
280
0
  9
$OBSCOLOR
 70
257
  9
$OBSLTYPE
280
0
  9
$INTERSECTIONDISPLAY
280
0
  9
$INTERSECTIONCOLOR
 70
257
  9
$DIMASSOC
280
2
  9
$PROJECTNAME
  1

  9
$CAMERADISPLAY
290
0
  9
$LENSLENGTH
 40
50.0
  9
$CAMERAHEIGHT
 40
0.0
  9
$STEPSPERSEC
 40
24.0
  9
$STEPSIZE
 40
100.0
  9
$3DDWFPREC
 40
2.0
  9
$PSOLWIDTH
 40
0.005
  9
$PSOLHEIGHT
 40
0.08
  9
$LOFTANG1
 40
1.570796326795
  9
$LOFTANG2
 40
1.570796326795
  9
$LOFTMAG1
 40
0.0
  9
$LOFTMAG2
 40
0.0
  9
$LOFTPARAM
 70
7
  9
$LOFTNORMALS
280
1
  9
$LATITUDE
 40
37.795
  9
$LONGITUDE
 40
-122.394
  9
$NORTHDIRECTION
 40
0.0
  9
$TIMEZONE
 70
-8000
  9
$LIGHTGLYPHDISPLAY
280
1
  9
$TILEMODELIGHTSYNCH
280
1
  9
$CMATERIAL
347
20
  9
$SOLIDHIST
280
0
  9
$SHOWHIST
280
1
  9
$DWFFRAME
280
2
  9
$DGNFRAME
280
2
  9
$REALWORLDSCALE
290
1
  9
$INTERFERECOLOR
 62
256
  9
$CSHADOW
280
0
  9
$SHADOWPLANELOCATION
 40
0.0
  0
ENDSEC
  0
SECTION
  2
CLASSES
  0
CLASS
  1
ACDBDICTIONARYWDFLT
  2
AcDbDictionaryWithDefault
  3
ObjectDBX Classes
 90
0
 91
0
280
0
281
0
  0
CLASS
  1
SUN
  2
AcDbSun
  3
SCENEOE
 90
1153
 91
0
280
0
281
0
  0
CLASS
  1
VISUALSTYLE
  2
AcDbVisualStyle
  3
ObjectDBX Classes
 90
4095
 91
0
280
0
281
0
  0
CLASS
  1
MATERIAL
  2
AcDbMaterial
  3
ObjectDBX Classes
 90
1153
 91
0
280
0
281
0
  0
CLASS
  1
SCALE
  2
AcDbScale
  3
ObjectDBX Classes
 90
1153
 91
0
280
0
281
0
  0
CLASS
  1
TABLESTYLE
  2
AcDbTableStyle
  3
ObjectDBX Classes
 90
4095
 91
0
280
0
281
0
  0
CLASS
  1
MLEADERSTYLE
  2
AcDbMLeaderStyle
  3
ACDB_MLEADERSTYLE_CLASS
 90
4095
 91
0
280
0
281
0
  0
CLASS
  1
DICTIONARYVAR
  2
AcDbDictionaryVar
  3
ObjectDBX Classes
 90
0
 91
0
280
0
281
0
  0
CLASS
  1
CELLSTYLEMAP
  2
AcDbCellStyleMap
  3
ObjectDBX Classes
 90
1152
 91
0
280
0
281
0
  0
CLASS
  1
MENTALRAYRENDERSETTINGS
  2
AcDbMentalRayRenderSettings
  3
SCENEOE
 90
1024
 91
0
280
0
281
0
  0
CLASS
  1
ACDBDETAILVIEWSTYLE
  2
AcDbDetailViewStyle
  3
ObjectDBX Classes
 90
1025
 91
0
280
0
281
0
  0
CLASS
  1
ACDBSECTIONVIEWSTYLE
  2
AcDbSectionViewStyle
  3
ObjectDBX Classes
 90
1025
 91
0
280
0
281
0
  0
CLASS
  1
RASTERVARIABLES
  2
AcDbRasterVariables
  3
ISM
 90
0
 91
0
280
0
281
0
  0
CLASS
  1
LAYOUT
  2
AcDbLayout
  3
ObjectDBX Classes
 90
0
 91
0
280
0
281
0
  0
CLASS
  1
ACDBPLACEHOLDER
  2
AcDbPlaceHolder
  3
ObjectDBX Classes
 90
0
 91
0
280
0
281
0
  0
ENDSEC
  0
SECTION
  2
TABLES
  0
TABLE
  2
VPORT
  5
8
330
0
100
AcDbSymbolTable
 70
1
  0
VPORT
  5
30C
330
8
100
AcDbSymbolTableRecord
100
AcDbViewportTableRecord
  2
*Active
 70
0
 10
0.0
 20
0.0
 11
1.0
 21
1.0
 12
4.942526432469305
 22
-2.893298788694482
 13
0.0
 23
0.0
 14
0.5
 24
0.5
 15
0.5
 25
0.5
 16
0.0
 26
0.0
 36
1.0
 17
0.0
 27
0.0
 37
0.0
 40
6.965117092866755
 41
1.34
 42
50.0
 43
0.0
 44
0.0
 50
0.0
 51
0.0
 71
0
 72
1000
 73
1
 74
3
 75
0
 76
0
 77
0
 78
0
281
0
 65
1
110
0.0
120
0.0
130
0.0
111
1.0
121
0.0
131
0.0
112
0.0
122
1.0
132
0.0
 79
0
146
0.0
  0
ENDTAB
  0
TABLE
  2
LTYPE
  5
2
330
0
100
AcDbSymbolTable
 70
21
  0
LTYPE
  5
24
330
2
100
AcDbSymbolTableRecord
100
AcDbLinetypeTableRecord
  2
ByBlock
 70
0
  3

 72
65
 73
0
 40
0.0
  0
LTYPE
  5
25
330
2
100
AcDbSymbolTableRecord
100
AcDbLinetypeTableRecord
  2
ByLayer
 70
0
  3

 72
65
 73
0
 40
0.0
  0
LTYPE
  5
26
330
2
100
AcDbSymbolTableRecord
100
AcDbLinetypeTableRecord
  2
Continuous
 70
0
  3

 72
65
 73
0
 40
0.0
  0
LTYPE
  5
2F
330
2
100
AcDbSymbolTableRecord
100
AcDbLinetypeTableRecord
  2
CENTER
 70
0
  3
Center ____ _ ____ _ ____ _ ____ _ ____ _ ____
 72
65
 73
4
 40
5.08
 49
3.175
 74
0
 49
-0.635
 74
0
 49
0.635
 74
0
 49
-0.635
 74
0
  0
LTYPE
  5
30
330
2
100
AcDbSymbolTableRecord
100
AcDbLinetypeTableRecord
  2
CENTERX2
 70
0
  3
Center (2x) ________  __  ________  __  ________
 72
65
 73
4
 40
8.89
 49
6.35
 74
0
 49
-0.635
 74
0
 49
1.27
 74
0
 49
-0.635
 74
0
  0
LTYPE
  5
31
330
2
100
AcDbSymbolTableRecord
100
AcDbLinetypeTableRecord
  2
CENTER2
 70
0
  3
Center (.5x) ____ _ ____ _ ____ _ ____ _ ____
 72
65
 73
4
 40
2.54
 49
1.587
 74
0
 49
-0.318
 74
0
 49
0.318
 74
0
 49
-0.318
 74
0
  0
LTYPE
  5
32
330
2
100
AcDbSymbolTableRecord
100
AcDbLinetypeTableRecord
  2
DASHED
 70
0
  3
Dashed __ __ __ __ __ __ __ __ __ __ __ __ __ _
 72
65
 73
2
 40
1.524
 49
1.27
 74
0
 49
-0.254
 74
0
  0
LTYPE
  5
33
330
2
100
AcDbSymbolTableRecord
100
AcDbLinetypeTableRecord
  2
DASHEDX2
 70
0
  3
Dashed (2x) ____  ____  ____  ____  ____  ____
 72
65
 73
2
 40
3.048
 49
2.54
 74
0
 49
-0.508
 74
0
  0
LTYPE
  5
34
330
2
100
AcDbSymbolTableRecord
100
AcDbLinetypeTableRecord
  2
DASHED2
 70
0
  3
Dashed (.5x) _ _ _ _ _ _ _ _ _ _ _ _ _ _
 72
65
 73
2
 40
0.762
 49
0.635
 74
0
 49
-0.127
 74
0
  0
LTYPE
  5
35
330
2
100
AcDbSymbolTableRecord
100
AcDbLinetypeTableRecord
  2
PHANTOM
 70
0
  3
Phantom ______  __  __  ______  __  __  ______
 72
65
 73
6
 40
6.35
 49
3.175
 74
0
 49
-0.635
 74
0
 49
0.635
 74
0
 49
-0.635
 74
0
 49
0.635
 74
0
 49
-0.635
 74
0
  0
LTYPE
  5
36
330
2
100
AcDbSymbolTableRecord
100
AcDbLinetypeTableRecord
  2
PHANTOMX2
 70
0
  3
Phantom (2x)____________    ____    ____    ____________
 72
65
 73
6
 40
10.795
 49
6.35
 74
0
 49
-0.635
 74
0
 49
1.27
 74
0
 49
-0.635
 74
0
 49
1.27
 74
0
 49
-0.635
 74
0
  0
LTYPE
  5
37
330
2
100
AcDbSymbolTableRecord
100
AcDbLinetypeTableRecord
  2
PHANTOM2
 70
0
  3
Phantom (.5x) ___ _ _ ___ _ _ ___ _ _ ___ _ _ ___
 72
65
 73
6
 40
3.175
 49
1.587
 74
0
 49
-0.318
 74
0
 49
0.318
 74
0
 49
-0.318
 74
0
 49
0.318
 74
0
 49
-0.318
 74
0
  0
LTYPE
  5
38
330
2
100
AcDbSymbolTableRecord
100
AcDbLinetypeTableRecord
  2
DASHDOT
 70
0
  3
Dash dot __ . __ . __ . __ . __ . __ . __ . __
 72
65
 73
4
 40
3.556
 49
2.54
 74
0
 49
-0.508
 74
0
 49
0.0
 74
0
 49
-0.508
 74
0
  0
LTYPE
  5
39
330
2
100
AcDbSymbolTableRecord
100
AcDbLinetypeTableRecord
  2
DASHDOTX2
 70
0
  3
Dash dot (2x) ____  .  ____  .  ____  .  ____
 72
65
 73
4
 40
6.096
 49
5.08
 74
0
 49
-0.508
 74
0
 49
0.0
 74
0
 49
-0.508
 74
0
  0
LTYPE
  5
3A
330
2
100
AcDbSymbolTableRecord
100
AcDbLinetypeTableRecord
  2
DASHDOT2
 70
0
  3
Dash dot (.5x) _ . _ . _ . _ . _ . _ . _ . _
 72
65
 73
4
 40
1.778
 49
1.27
 74
0
 49
-0.254
 74
0
 49
0.0
 74
0
 49
-0.254
 74
0
  0
LTYPE
  5
3B
330
2
100
AcDbSymbolTableRecord
100
AcDbLinetypeTableRecord
  2
DOT
 70
0
  3
Dot .  .  .  .  .  .  .  .  .  .  .  .  .  .  .  .
 72
65
 73
2
 40
0.508
 49
0.0
 74
0
 49
-0.508
 74
0
  0
LTYPE
  5
3C
330
2
100
AcDbSymbolTableRecord
100
AcDbLinetypeTableRecord
  2
DOTX2
 70
0
  3
Dot (2x) .    .    .    .    .    .    .    . 
 72
65
 73
2
 40
1.016
 49
0.0
 74
0
 49
-1.016
 74
0
  0
LTYPE
  5
3D
330
2
100
AcDbSymbolTableRecord
100
AcDbLinetypeTableRecord
  2
DOT2
 70
0
  3
Dot (.5) . . . . . . . . . . . . . . . . . . . 
 72
65
 73
2
 40
0.254
 49
0.0
 74
0
 49
-0.254
 74
0
  0
LTYPE
  5
3E
330
2
100
AcDbSymbolTableRecord
100
AcDbLinetypeTableRecord
  2
DIVIDE
 70
0
  3
Divide __ . . __ . . __ . . __ . . __ . . __
 72
65
 73
6
 40
4.064
 49
2.54
 74
0
 49
-0.508
 74
0
 49
0.0
 74
0
 49
-0.508
 74
0
 49
0.0
 74
0
 49
-0.508
 74
0
  0
LTYPE
  5
3F
330
2
100
AcDbSymbolTableRecord
100
AcDbLinetypeTableRecord
  2
DIVIDEX2
 70
0
  3
Divide (2x) ____  . .  ____  . .  ____  . .  ____
 72
65
 73
6
 40
6.604
 49
5.08
 74
0
 49
-0.508
 74
0
 49
0.0
 74
0
 49
-0.508
 74
0
 49
0.0
 74
0
 49
-0.508
 74
0
  0
LTYPE
  5
40
330
2
100
AcDbSymbolTableRecord
100
AcDbLinetypeTableRecord
  2
DIVIDE2
 70
0
  3
Divide(.5x) _ . _ . _ . _ . _ . _ . _ . _
 72
65
 73
6
 40
2.032
 49
1.27
 74
0
 49
-0.254
 74
0
 49
0.0
 74
0
 49
-0.254
 74
0
 49
0.0
 74
0
 49
-0.254
 74
0
  0
ENDTAB
  0
TABLE
  2
LAYER
  5
1
330
0
100
AcDbSymbolTable
 70
2
  0
LAYER
  5
27
330
1
100
AcDbSymbolTableRecord
100
AcDbLayerTableRecord
  2
0
 70
0
 62
7
  6
Continuous
370
-3
390
13
347
21
  0
LAYER
  5
28
330
1
100
AcDbSymbolTableRecord
100
AcDbLayerTableRecord
  2
Defpoints
 70
0
 62
7
  6
Continuous
290
0
370
-3
390
13
347
21
  0
ENDTAB
  0
TABLE
  2
STYLE
  5
5
330
0
100
AcDbSymbolTable
 70
26
  0
STYLE
  5
29
330
5
100
AcDbSymbolTableRecord
100
AcDbTextStyleTableRecord
  2
Standard
 70
0
 40
0.0
 41
1.0
 50
0.0
 71
0
 42
2.5
  3
txt
  4

  0
STYLE
  5
41
330
5
100
AcDbSymbolTableRecord
100
AcDbTextStyleTableRecord
  2
OpenSans-Light
 70
0
 40
0.0
 41
1.0
 50
0.0
 71
0
 42
2.5
  3
OpenSans-Light.ttf
  4

  0
STYLE
  5
42
330
5
100
AcDbSymbolTableRecord
100
AcDbTextStyleTableRecord
  2
OpenSans-Light-Italic
 70
0
 40
0.0
 41
1.0
 50
0.0
 71
0
 42
2.5
  3
OpenSans-LightItalic.ttf
  4

  0
STYLE
  5
43
330
5
100
AcDbSymbolTableRecord
100
AcDbTextStyleTableRecord
  2
OpenSans
 70
0
 40
0.0
 41
1.0
 50
0.0
 71
0
 42
2.5
  3
OpenSans-Regular.ttf
  4

  0
STYLE
  5
44
330
5
100
AcDbSymbolTableRecord
100
AcDbTextStyleTableRecord
  2
OpenSans-Italic
 70
0
 40
0.0
 41
1.0
 50
0.0
 71
0
 42
2.5
  3
OpenSans-Italic.ttf
  4

  0
STYLE
  5
45
330
5
100
AcDbSymbolTableRecord
100
AcDbTextStyleTableRecord
  2
OpenSans-SemiBold
 70
0
 40
0.0
 41
1.0
 50
0.0
 71
0
 42
2.5
  3
OpenSans-SemiBold.ttf
  4

  0
STYLE
  5
46
330
5
100
AcDbSymbolTableRecord
100
AcDbTextStyleTableRecord
  2
OpenSans-SemiBoldItalic
 70
0
 40
0.0
 41
1.0
 50
0.0
 71
0
 42
2.5
  3
OpenSans-SemiBoldItalic.ttf
  4

  0
STYLE
  5
47
330
5
100
AcDbSymbolTableRecord
100
AcDbTextStyleTableRecord
  2
OpenSans-Bold
 70
0
 40
0.0
 41
1.0
 50
0.0
 71
0
 42
2.5
  3
OpenSans-Bold.ttf
  4

  0
STYLE
  5
48
330
5
100
AcDbSymbolTableRecord
100
AcDbTextStyleTableRecord
  2
OpenSans-BoldItalic
 70
0
 40
0.0
 41
1.0
 50
0.0
 71
0
 42
2.5
  3
OpenSans-BoldItalic.ttf
  4

  0
STYLE
  5
49
330
5
100
AcDbSymbolTableRecord
100
AcDbTextStyleTableRecord
  2
OpenSans-ExtraBold
 70
0
 40
0.0
 41
1.0
 50
0.0
 71
0
 42
2.5
  3
OpenSans-ExtraBold.ttf
  4

  0
STYLE
  5
4A
330
5
100
AcDbSymbolTableRecord
100
AcDbTextStyleTableRecord
  2
OpenSans-ExtraBoldItalic
 70
0
 40
0.0
 41
1.0
 50
0.0
 71
0
 42
2.5
  3
OpenSans-ExtraBoldItalic.ttf
  4

  0
STYLE
  5
4B
330
5
100
AcDbSymbolTableRecord
100
AcDbTextStyleTableRecord
  2
OpenSansCondensed-Bold
 70
0
 40
0.0
 41
1.0
 50
0.0
 71
0
 42
2.5
  3
OpenSansCondensed-Bold.ttf
  4

  0
STYLE
  5
4C
330
5
100
AcDbSymbolTableRecord
100
AcDbTextStyleTableRecord
  2
OpenSansCondensed-Light
 70
0
 40
0.0
 41
1.0
 50
0.0
 71
0
 42
2.5
  3
OpenSansCondensed-Light.ttf
  4

  0
STYLE
  5
4D
330
5
100
AcDbSymbolTableRecord
100
AcDbTextStyleTableRecord
  2
OpenSansCondensed-Italic
 70
0
 40
0.0
 41
1.0
 50
0.0
 71
0
 42
2.5
  3
OpenSansCondensed-LightItalic.ttf
  4

  0
STYLE
  5
4E
330
5
100
AcDbSymbolTableRecord
100
AcDbTextStyleTableRecord
  2
LiberationSans
 70
0
 40
0.0
 41
1.0
 50
0.0
 71
0
 42
2.5
  3
LiberationSans-Regular.ttf
  4

  0
STYLE
  5
4F
330
5
100
AcDbSymbolTableRecord
100
AcDbTextStyleTableRecord
  2
LiberationSans-Bold
 70
0
 40
0.0
 41
1.0
 50
0.0
 71
0
 42
2.5
  3
LiberationSans-Bold.ttf
  4

  0
STYLE
  5
50
330
5
100
AcDbSymbolTableRecord
100
AcDbTextStyleTableRecord
  2
LiberationSans-BoldItalic
 70
0
 40
0.0
 41
1.0
 50
0.0
 71
0
 42
2.5
  3
LiberationSans-BoldItalic.ttf
  4

  0
STYLE
  5
51
330
5
100
AcDbSymbolTableRecord
100
AcDbTextStyleTableRecord
  2
LiberationSans-Italic
 70
0
 40
0.0
 41
1.0
 50
0.0
 71
0
 42
2.5
  3
LiberationSans-Italic.ttf
  4

  0
STYLE
  5
52
330
5
100
AcDbSymbolTableRecord
100
AcDbTextStyleTableRecord
  2
LiberationSerif
 70
0
 40
0.0
 41
1.0
 50
0.0
 71
0
 42
2.5
  3
LiberationSerif-Regular.ttf
  4

  0
STYLE
  5
53
330
5
100
AcDbSymbolTableRecord
100
AcDbTextStyleTableRecord
  2
LiberationSerif-Bold
 70
0
 40
0.0
 41
1.0
 50
0.0
 71
0
 42
2.5
  3
LiberationSerif-Bold.ttf
  4

  0
STYLE
  5
54
330
5
100
AcDbSymbolTableRecord
100
AcDbTextStyleTableRecord
  2
LiberationSerif-BoldItalic
 70
0
 40
0.0
 41
1.0
 50
0.0
 71
0
 42
2.5
  3
LiberationSerif-BoldItalic.ttf
  4

  0
STYLE
  5
55
330
5
100
AcDbSymbolTableRecord
100
AcDbTextStyleTableRecord
  2
LiberationSerif-Italic
 70
0
 40
0.0
 41
1.0
 50
0.0
 71
0
 42
2.5
  3
LiberationSerif-Italic.ttf
  4

  0
STYLE
  5
56
330
5
100
AcDbSymbolTableRecord
100
AcDbTextStyleTableRecord
  2
LiberationMono
 70
0
 40
0.0
 41
1.0
 50
0.0
 71
0
 42
2.5
  3
LiberationMono-Regular.ttf
  4

  0
STYLE
  5
57
330
5
100
AcDbSymbolTableRecord
100
AcDbTextStyleTableRecord
  2
LiberationMono-Bold
 70
0
 40
0.0
 41
1.0
 50
0.0
 71
0
 42
2.5
  3
LiberationMono-Bold.ttf
  4

  0
STYLE
  5
58
330
5
100
AcDbSymbolTableRecord
100
AcDbTextStyleTableRecord
  2
LiberationMono-BoldItalic
 70
0
 40
0.0
 41
1.0
 50
0.0
 71
0
 42
2.5
  3
LiberationMono-BoldItalic.ttf
  4

  0
STYLE
  5
59
330
5
100
AcDbSymbolTableRecord
100
AcDbTextStyleTableRecord
  2
LiberationMono-Italic
 70
0
 40
0.0
 41
1.0
 50
0.0
 71
0
 42
2.5
  3
LiberationMono-Italic.ttf
  4

  0
ENDTAB
  0
TABLE
  2
VIEW
  5
7
330
0
100
AcDbSymbolTable
 70
0
  0
ENDTAB
  0
TABLE
  2
UCS
  5
6
330
0
100
AcDbSymbolTable
 70
0
  0
ENDTAB
  0
TABLE
  2
APPID
  5
3
330
0
100
AcDbSymbolTable
 70
3
  0
APPID
  5
2A
330
3
100
AcDbSymbolTableRecord
100
AcDbRegAppTableRecord
  2
ACAD
 70
0
  0
APPID
  5
30D
330
3
100
AcDbSymbolTableRecord
100
AcDbRegAppTableRecord
  2
HATCHBACKGROUNDCOLOR
 70
0
  0
APPID
  5
30E
330
3
100
AcDbSymbolTableRecord
100
AcDbRegAppTableRecord
  2
EZDXF
 70
0
  0
ENDTAB
  0
TABLE
  2
DIMSTYLE
  5
4
330
0
100
AcDbSymbolTable
 70
12
100
AcDbDimStyleTable
  0
DIMSTYLE
105
2B
330
4
100
AcDbSymbolTableRecord
100
AcDbDimStyleTableRecord
  2
Standard
 70
0
 40
1.0
 41
2.5
 42
0.625
 43
3.75
 44
1.25
 45
0.0
 46
0.0
 47
0.0
 48
0.0
 49
2.5
140
2.5
141
2.5
142
0.0
143
0.03937007874
144
1.0
145
0.0
146
1.0
147
0.625
148
0.0
 69
0
 70
0
 71
0
 72
0
 73
0
 74
0
 75
0
 76
0
 77
1
 78
8
 79
3
170
0
171
3
172
1
173
0
174
0
175
0
176
0
177
0
178
0
179
2
271
2
272
2
273
2
274
3
275
0
276
0
277
2
278
44
279
0
280
0
281
0
282
0
283
0
284
8
285
0
286
0
288
0
289
3
290
0
371
-2
372
-2
  0
DIMSTYLE
105
73
330
4
100
AcDbSymbolTableRecord
100
AcDbDimStyleTableRecord
  2
EZDXF
 70
0
 40
1.0
 41
0.175
 42
0.125
 43
3.75
 44
0.375
 45
0.0
 46
0.0
 47
0.0
 48
0.0
 49
2.5
140
0.25
141
2.5
142
0.0
143
0.03937007874
144
100.0
145
0.0
146
0.5
147
0.1
148
0.0
 69
0
 70
0
 71
0
 72
0
 73
0
 74
0
 75
0
 76
0
 77
1
 78
12
 79
3
170
0
171
3
172
1
173
0
174
0
175
0
176
0
177
0
178
0
179
2
271
2
272
2
273
2
274
3
275
0
276
0
277
2
278
46
279
2
280
0
281
0
282
0
283
0
284
8
285
0
286
0
288
1
289
3
290
0
340
4C
342
74
371
-2
372
-2
  0
DIMSTYLE
105
7C
330
4
100
AcDbSymbolTableRecord
100
AcDbDimStyleTableRecord
  2
EZ_M_100_H25_CM
 70
0
 40
1.0
 41
0.25
 42
0.125
 43
3.75
 44
0.375
 45
0.0
 46
0.0
 47
0.0
 48
0.0
 49
2.5
140
0.25
141
2.5
142
0.125
143
0.03937007874
144
100.0
145
0.0
146
0.5
147
0.1
148
0.0
 69
0
 70
0
 71
0
 72
0
 73
0
 74
0
 75
0
 76
0
 77
1
 78
12
 79
3
170
0
171
3
172
1
173
0
174
0
175
0
176
0
177
0
178
0
179
2
271
2
272
2
273
2
274
3
275
0
276
0
277
2
278
46
279
2
280
0
281
0
282
0
283
0
284
8
285
0
286
0
288
1
289
3
290
0
340
4C
371
-2
372
-2
  0
DIMSTYLE
105
7D
330
4
100
AcDbSymbolTableRecord
100
AcDbDimStyleTableRecord
  2
EZ_M_50_H25_CM
 70
0
 40
1.0
 41
0.125
 42
0.0625
 43
3.75
 44
0.1875
 45
0.0
 46
0.0
 47
0.0
 48
0.0
 49
2.5
140
0.125
141
2.5
142
0.0625
143
0.03937007874
144
100.0
145
0.0
146
0.5
147
0.05
148
0.0
 69
0
 70
0
 71
0
 72
0
 73
0
 74
0
 75
0
 76
0
 77
1
 78
12
 79
3
170
0
171
3
172
1
173
0
174
0
175
0
176
0
177
0
178
0
179
2
271
2
272
2
273
2
274
3
275
0
276
0
277
2
278
46
279
2
280
0
281
0
282
0
283
0
284
8
285
0
286
0
288
1
289
3
290
0
340
4C
371
-2
372
-2
  0
DIMSTYLE
105
7E
330
4
100
AcDbSymbolTableRecord
100
AcDbDimStyleTableRecord
  2
EZ_M_25_H25_CM
 70
0
 40
1.0
 41
0.0625
 42
0.03125
 43
3.75
 44
0.09375
 45
0.0
 46
0.0
 47
0.0
 48
0.0
 49
2.5
140
0.0625
141
2.5
142
0.03125
143
0.03937007874
144
100.0
145
0.0
146
0.5
147
0.025
148
0.0
 69
0
 70
0
 71
0
 72
0
 73
0
 74
0
 75
0
 76
0
 77
1
 78
12
 79
3
170
0
171
3
172
1
173
0
174
0
175
0
176
0
177
0
178
0
179
2
271
2
272
2
273
2
274
3
275
0
276
0
277
2
278
46
279
2
280
0
281
0
282
0
283
0
284
8
285
0
286
0
288
1
289
3
290
0
340
4C
371
-2
372
-2
  0
DIMSTYLE
105
7F
330
4
100
AcDbSymbolTableRecord
100
AcDbDimStyleTableRecord
  2
EZ_M_20_H25_CM
 70
0
 40
1.0
 41
0.05
 42
0.025
 43
3.75
 44
0.07500000000000001
 45
0.0
 46
0.0
 47
0.0
 48
0.0
 49
2.5
140
0.05
141
2.5
142
0.025
143
0.03937007874
144
100.0
145
0.0
146
0.5
147
0.020000000000000004
148
0.0
 69
0
 70
0
 71
0
 72
0
 73
0
 74
0
 75
0
 76
0
 77
1
 78
12
 79
3
170
0
171
3
172
1
173
0
174
0
175
0
176
0
177
0
178
0
179
2
271
2
272
2
273
2
274
3
275
0
276
0
277
2
278
46
279
2
280
0
281
0
282
0
283
0
284
8
285
0
286
0
288
1
289
3
290
0
340
4C
371
-2
372
-2
  0
DIMSTYLE
105
80
330
4
100
AcDbSymbolTableRecord
100
AcDbDimStyleTableRecord
  2
EZ_M_10_H25_CM
 70
0
 40
1.0
 41
0.025
 42
0.0125
 43
3.75
 44
0.037500000000000006
 45
0.0
 46
0.0
 47
0.0
 48
0.0
 49
2.5
140
0.025
141
2.5
142
0.0125
143
0.03937007874
144
100.0
145
0.0
146
0.5
147
0.010000000000000002
148
0.0
 69
0
 70
0
 71
0
 72
0
 73
0
 74
0
 75
0
 76
0
 77
1
 78
12
 79
3
170
0
171
3
172
1
173
0
174
0
175
0
176
0
177
0
178
0
179
2
271
2
272
2
273
2
274
3
275
0
276
0
277
2
278
46
279
2
280
0
281
0
282
0
283
0
284
8
285
0
286
0
288
1
289
3
290
0
340
4C
371
-2
372
-2
  0
DIMSTYLE
105
81
330
4
100
AcDbSymbolTableRecord
100
AcDbDimStyleTableRecord
  2
EZ_M_5_H25_CM
 70
0
 40
1.0
 41
0.0125
 42
0.00625
 43
3.75
 44
0.018750000000000003
 45
0.0
 46
0.0
 47
0.0
 48
0.0
 49
2.5
140
0.0125
141
2.5
142
0.00625
143
0.03937007874
144
100.0
145
0.0
146
0.5
147
0.005000000000000001
148
0.0
 69
0
 70
0
 71
0
 72
0
 73
0
 74
0
 75
0
 76
0
 77
1
 78
12
 79
3
170
0
171
3
172
1
173
0
174
0
175
0
176
0
177
0
178
0
179
2
271
2
272
2
273
2
274
3
275
0
276
0
277
2
278
46
279
2
280
0
281
0
282
0
283
0
284
8
285
0
286
0
288
1
289
3
290
0
340
4C
371
-2
372
-2
  0
DIMSTYLE
105
82
330
4
100
AcDbSymbolTableRecord
100
AcDbDimStyleTableRecord
  2
EZ_M_1_H25_CM
 70
0
 40
1.0
 41
0.0025
 42
0.00125
 43
3.75
 44
0.00375
 45
0.0
 46
0.0
 47
0.0
 48
0.0
 49
2.5
140
0.0025
141
2.5
142
0.00125
143
0.03937007874
144
100.0
145
0.0
146
0.5
147
0.001
148
0.0
 69
0
 70
0
 71
0
 72
0
 73
0
 74
0
 75
0
 76
0
 77
1
 78
12
 79
3
170
0
171
3
172
1
173
0
174
0
175
0
176
0
177
0
178
0
179
2
271
2
272
2
273
2
274
3
275
0
276
0
277
2
278
46
279
2
280
0
281
0
282
0
283
0
284
8
285
0
286
0
288
1
289
3
290
0
340
4C
371
-2
372
-2
  0
DIMSTYLE
105
83
330
4
100
AcDbSymbolTableRecord
100
AcDbDimStyleTableRecord
  2
EZ_RADIUS
 70
0
 40
1.0
 41
0.25
 42
0.125
 43
3.75
 44
0.375
 45
0.0
 46
0.0
 47
0.0
 48
0.0
 49
2.5
140
0.25
141
0.0
142
0.0
143
0.03937007874
144
100.0
145
0.0
146
0.5
147
0.1
148
0.0
 69
0
 70
0
 71
0
 72
0
 73
0
 74
0
 75
0
 76
0
 77
1
 78
12
 79
3
170
0
171
3
172
0
173
0
174
0
175
0
176
0
177
0
178
0
179
2
271
2
272
2
273
2
274
3
275
0
276
0
277
2
278
46
279
1
280
0
281
0
282
0
283
0
284
8
285
0
286
0
288
1
289
3
290
0
340
4C
342
84
371
-2
372
-2
  0
DIMSTYLE
105
88
330
4
100
AcDbSymbolTableRecord
100
AcDbDimStyleTableRecord
  2
EZ_RADIUS_INSIDE
 70
0
 40
1.0
 41
0.25
 42
0.125
 43
3.75
 44
0.375
 45
0.0
 46
0.0
 47
0.0
 48
0.0
 49
2.5
140
0.25
141
0.0
142
0.0
143
0.03937007874
144
100.0
145
0.0
146
0.5
147
0.1
148
0.0
 69
0
 70
0
 71
0
 72
0
 73
0
 74
0
 75
0
 76
0
 77
0
 78
12
 79
3
170
0
171
3
172
0
173
0
174
1
175
0
176
0
177
0
178
0
179
2
271
2
272
2
273
2
274
3
275
0
276
0
277
2
278
46
279
0
280
0
281
0
282
0
283
0
284
8
285
0
286
0
288
1
289
0
290
0
340
4C
342
84
371
-2
372
-2
  0
DIMSTYLE
105
89
330
4
100
AcDbSymbolTableRecord
100
AcDbDimStyleTableRecord
  2
EZ_CURVED
 70
0
 40
1.0
 41
0.25
 42
0.125
 43
3.75
 44
0.375
 45
0.0
 46
0.0
 47
0.0
 48
0.0
 49
2.5
140
0.25
141
2.5
142
0.0
143
0.03937007874
144
100.0
145
0.0
146
0.5
147
0.1
148
0.0
 69
0
 70
0
 71
0
 72
0
 73
0
 74
0
 75
0
 76
0
 77
1
 78
12
 79
2
 90
2
170
0
171
3
172
1
173
0
174
0
175
0
176
0
177
0
178
0
179
2
271
2
272
2
273
2
274
3
275
0
276
0
277
2
278
46
279
2
280
0
281
0
282
0
283
0
284
8
285
0
286
0
288
1
289
3
290
0
340
4C
371
-2
372
-2
  0
ENDTAB
  0
TABLE
  2
BLOCK_RECORD
  5
9
330
0
100
AcDbSymbolTable
 70
14
  0
BLOCK_RECORD
  5
17
330
9
100
AcDbSymbolTableRecord
100
AcDbBlockTableRecord
  2
*Model_Space
340
1A
 70
0
280
1
281
0
  0
BLOCK_RECORD
  5
1B
330
9
100
AcDbSymbolTableRecord
100
AcDbBlockTableRecord
  2
*Paper_Space
340
1E
 70
0
280
1
281
0
  0
BLOCK_RECORD
  5
74
330
9
100
AcDbSymbolTableRecord
100
AcDbBlockTableRecord
  2
_ARCHTICK
340
0
 70
0
280
1
281
0
  0
BLOCK_RECORD
  5
78
330
9
100
AcDbSymbolTableRecord
100
AcDbBlockTableRecord
  2
_CLOSEDFILLED
340
0
 70
0
280
1
281
0
  0
BLOCK_RECORD
  5
84
330
9
100
AcDbSymbolTableRecord
100
AcDbBlockTableRecord
  2
_CLOSEDBLANK
340
0
 70
0
280
1
281
0
  0
BLOCK_RECORD
  5
8F
330
9
100
AcDbSymbolTableRecord
100
AcDbBlockTableRecord
  2
*D1
340
0
 70
0
280
1
281
0
  0
BLOCK_RECORD
  5
94
330
9
100
AcDbSymbolTableRecord
100
AcDbBlockTableRecord
  2
_OBLIQUE
340
0
 70
0
280
1
281
0
  0
BLOCK_RECORD
  5
A2
330
9
100
AcDbSymbolTableRecord
100
AcDbBlockTableRecord
  2
*D2
340
0
 70
0
280
1
281
0
  0
BLOCK_RECORD
  5
110
330
9
100
AcDbSymbolTableRecord
100
AcDbBlockTableRecord
  2
*D3
340
0
 70
0
280
1
281
0
  0
BLOCK_RECORD
  5
11F
330
9
100
AcDbSymbolTableRecord
100
AcDbBlockTableRecord
  2
*D4
340
0
 70
0
280
1
281
0
  0
BLOCK_RECORD
  5
187
330
9
100
AcDbSymbolTableRecord
100
AcDbBlockTableRecord
  2
*D5
340
0
 70
0
280
1
281
0
  0
BLOCK_RECORD
  5
196
330
9
100
AcDbSymbolTableRecord
100
AcDbBlockTableRecord
  2
*D6
340
0
 70
0
280
1
281
0
  0
BLOCK_RECORD
  5
24F
330
9
100
AcDbSymbolTableRecord
100
AcDbBlockTableRecord
  2
*D7
340
0
 70
0
280
1
281
0
  0
BLOCK_RECORD
  5
25E
330
9
100
AcDbSymbolTableRecord
100
AcDbBlockTableRecord
  2
*D8
340
0
 70
0
280
1
281
0
  0
ENDTAB
  0
ENDSEC
  0
SECTION
  2
BLOCKS
  0
BLOCK
  5
18
330
17
100
AcDbEntity
  8
0
100
AcDbBlockBegin
  2
*Model_Space
 70
0
 10
0.0
 20
0.0
 30
0.0
  3
*Model_Space
  1

  0
ENDBLK
  5
19
330
17
100
AcDbEntity
  8
0
100
AcDbBlockEnd
  0
BLOCK
  5
1C
330
1B
100
AcDbEntity
  8
0
100
AcDbBlockBegin
  2
*Paper_Space
 70
0
 10
0.0
 20
0.0
 30
0.0
  3
*Paper_Space
  1

  0
ENDBLK
  5
1D
330
1B
100
AcDbEntity
  8
0
100
AcDbBlockEnd
  0
BLOCK
  5
75
330
74
100
AcDbEntity
  8
0
100
AcDbBlockBegin
  2
_ARCHTICK
 70
0
 10
0.0
 20
0.0
 30
0.0
  3
_ARCHTICK
  1

  0
LWPOLYLINE
  5
77
330
74
100
AcDbEntity
  8
0
  6
BYBLOCK
 62
0
100
AcDbPolyline
 90
2
 70
0
 43
0.15
 10
-0.5
 20
-0.5
 10
0.5
 20
0.5
  0
ENDBLK
  5
76
330
74
100
AcDbEntity
  8
0
100
AcDbBlockEnd
  0
BLOCK
  5
79
330
78
100
AcDbEntity
  8
0
100
AcDbBlockBegin
  2
_CLOSEDFILLED
 70
0
 10
0.0
 20
0.0
 30
0.0
  3
_CLOSEDFILLED
  1

  0
SOLID
  5
7B
330
78
100
AcDbEntity
  8
0
  6
BYBLOCK
 62
0
100
AcDbTrace
 10
-1.0
 20
0.16439898372402537
 30
0.0
 11
0.0
 21
0.0
 31
0.0
 12
-1.0
 22
-0.16439898372402537
 32
0.0
 13
-1.0
 23
-0.16439898372402537
 33
0.0
  0
ENDBLK
  5
7A
330
78
100
AcDbEntity
  8
0
100
AcDbBlockEnd
  0
BLOCK
  5
85
330
84
100
AcDbEntity
  8
0
100
AcDbBlockBegin
  2
_CLOSEDBLANK
 70
0
 10
0.0
 20
0.0
 30
0.0
  3
_CLOSEDBLANK
  1

  0
LWPOLYLINE
  5
87
330
84
100
AcDbEntity
  8
0
  6
BYBLOCK
 62
0
100
AcDbPolyline
 90
3
 70
1
 10
-1.0
 20
0.16439898372402537
 10
0.0
 20
0.0
 10
-1.0
 20
-0.16439898372402537
  0
ENDBLK
  5
86
330
84
100
AcDbEntity
  8
0
100
AcDbBlockEnd
  0
BLOCK
  5
90
330
8F
100
AcDbEntity
  8
0
100
AcDbBlockBegin
  2
*D1
 70
1
 10
0.0
 20
0.0
 30
0.0
  3
*D1
  1

  0
LINE
  5
92
330
8F
100
AcDbEntity
  8
0
100
AcDbLine
 10
0.0
 20
0.21125
 30
0.0
 11
0.0
 21
0.32375
 31
0.0
  0
LINE
  5
93
330
8F
100
AcDbEntity
  8
0
100
AcDbLine
 10
5.0
 20
0.21125
 30
0.0
 11
5.0
 21
0.32375
 31
0.0
  0
INSERT
  5
98
330
8F
100
AcDbEntity
  8
0
100
AcDbBlockReference
  2
_OBLIQUE
 10
0.0
 20
0.22999999999999998
 30
0.0
 41
0.0625
 42
0.0625
  0
INSERT
  5
9A
330
8F
100
AcDbEntity
  8
0
100
AcDbBlockReference
  2
_OBLIQUE
 10
5.0
 20
0.22999999999999998
 30
0.0
 41
0.0625
 42
0.0625
  0
LINE
  5
9C
330
8F
100
AcDbEntity
  8
0
100
AcDbLine
 10
0.0
 20
0.22999999999999998
 30
0.0
 11
5.0
 21
0.22999999999999998
 31
0.0
  0
MTEXT
  5
9D
330
8F
100
AcDbEntity
  8
0
100
AcDbMText
 10
2.5
 20
0.28625
 30
0.0
 40
0.0625
 71
5
  1
500
  7
OpenSansCondensed-Light
  0
POINT
  5
9E
330
8F
100
AcDbEntity
  8
Defpoints
100
AcDbPoint
 10
0.0
 20
0.22999999999999998
 30
0.0
  0
POINT
  5
9F
330
8F
100
AcDbEntity
  8
Defpoints
100
AcDbPoint
 10
0.0
 20
0.18
 30
0.0
  0
POINT
  5
A0
330
8F
100
AcDbEntity
  8
Defpoints
100
AcDbPoint
 10
5.0
 20
0.18
 30
0.0
  0
ENDBLK
  5
91
330
8F
100
AcDbEntity
  8
0
100
AcDbBlockEnd
  0
BLOCK
  5
95
330
94
100
AcDbEntity
  8
0
100
AcDbBlockBegin
  2
_OBLIQUE
 70
0
 10
0.0
 20
0.0
 30
0.0
  3
_OBLIQUE
  1

  0
LINE
  5
97
330
94
100
AcDbEntity
  8
0
  6
BYBLOCK
 62
0
100
AcDbLine
 10
-0.5
 20
-0.5
 30
0.0
 11
0.5
 21
0.5
 31
0.0
  0
ENDBLK
  5
96
330
94
100
AcDbEntity
  8
0
100
AcDbBlockEnd
  0
BLOCK
  5
A3
330
A2
100
AcDbEntity
  8
0
100
AcDbBlockBegin
  2
*D2
 70
1
 10
0.0
 20
0.0
 30
0.0
  3
*D2
  1

  0
LINE
  5
A5
330
A2
100
AcDbEntity
  8
0
100
AcDbLine
 10
-0.03125
 20
0.0
 30
0.0
 11
-0.14375
 21
0.0
 31
0.0
  0
LINE
  5
A6
330
A2
100
AcDbEntity
  8
0
100
AcDbLine
 10
-0.03125
 20
0.18
 30
0.0
 11
-0.14375
 21
0.18
 31
0.0
  0
INSERT
  5
A7
330
A2
100
AcDbEntity
  8
0
100
AcDbBlockReference
  2
_OBLIQUE
 10
-0.05
 20
0.0
 30
0.0
 41
0.0625
 42
0.0625
 50
90.0
  0
INSERT
  5
A9
330
A2
100
AcDbEntity
  8
0
100
AcDbBlockReference
  2
_OBLIQUE
 10
-0.05
 20
0.18
 30
0.0
 41
0.0625
 42
0.0625
 50
90.0
  0
LINE
  5
AB
330
A2
100
AcDbEntity
  8
0
100
AcDbLine
 10
-0.05
 20
0.0
 30
0.0
 11
-0.05
 21
0.18
 31
0.0
  0
MTEXT
  5
AC
330
A2
100
AcDbEntity
  8
0
100
AcDbMText
 10
-0.10625000000000001
 20
0.09
 30
0.0
 40
0.0625
 71
5
  1
18
  7
OpenSansCondensed-Light
 50
90.0
  0
POINT
  5
AD
330
A2
100
AcDbEntity
  8
Defpoints
100
AcDbPoint
 10
-0.05
 20
0.0
 30
0.0
  0
POINT
  5
AE
330
A2
100
AcDbEntity
  8
Defpoints
100
AcDbPoint
 10
0.0
 20
0.0
 30
0.0
  0
POINT
  5
AF
330
A2
100
AcDbEntity
  8
Defpoints
100
AcDbPoint
 10
0.0
 20
0.18
 30
0.0
  0
ENDBLK
  5
A4
330
A2
100
AcDbEntity
  8
0
100
AcDbBlockEnd
  0
BLOCK
  5
111
330
110
100
AcDbEntity
  8
0
100
AcDbBlockBegin
  2
*D3
 70
1
 10
0.0
 20
0.0
 30
0.0
  3
*D3
  1

  0
LINE
  5
113
330
110
100
AcDbEntity
  8
0
100
AcDbLine
 10
0.0
 20
-1.78875
 30
0.0
 11
0.0
 21
-1.67625
 31
0.0
  0
LINE
  5
114
330
110
100
AcDbEntity
  8
0
100
AcDbLine
 10
5.0
 20
-1.78875
 30
0.0
 11
5.0
 21
-1.67625
 31
0.0
  0
INSERT
  5
115
330
110
100
AcDbEntity
  8
0
100
AcDbBlockReference
  2
_OBLIQUE
 10
0.0
 20
-1.77
 30
0.0
 41
0.0625
 42
0.0625
  0
INSERT
  5
117
330
110
100
AcDbEntity
  8
0
100
AcDbBlockReference
  2
_OBLIQUE
 10
5.0
 20
-1.77
 30
0.0
 41
0.0625
 42
0.0625
  0
LINE
  5
119
330
110
100
AcDbEntity
  8
0
100
AcDbLine
 10
0.0
 20
-1.77
 30
0.0
 11
5.0
 21
-1.77
 31
0.0
  0
MTEXT
  5
11A
330
110
100
AcDbEntity
  8
0
100
AcDbMText
 10
2.5
 20
-1.71375
 30
0.0
 40
0.0625
 71
5
  1
500
  7
OpenSansCondensed-Light
  0
POINT
  5
11B
330
110
100
AcDbEntity
  8
Defpoints
100
AcDbPoint
 10
0.0
 20
-1.77
 30
0.0
  0
POINT
  5
11C
330
110
100
AcDbEntity
  8
Defpoints
100
AcDbPoint
 10
0.0
 20
-1.82
 30
0.0
  0
POINT
  5
11D
330
110
100
AcDbEntity
  8
Defpoints
100
AcDbPoint
 10
5.0
 20
-1.82
 30
0.0
  0
ENDBLK
  5
112
330
110
100
AcDbEntity
  8
0
100
AcDbBlockEnd
  0
BLOCK
  5
120
330
11F
100
AcDbEntity
  8
0
100
AcDbBlockBegin
  2
*D4
 70
1
 10
0.0
 20
0.0
 30
0.0
  3
*D4
  1

  0
LINE
  5
122
330
11F
100
AcDbEntity
  8
0
100
AcDbLine
 10
-0.03125
 20
-2.0
 30
0.0
 11
-0.14375
 21
-2.0
 31
0.0
  0
LINE
  5
123
330
11F
100
AcDbEntity
  8
0
100
AcDbLine
 10
-0.03125
 20
-1.82
 30
0.0
 11
-0.14375
 21
-1.82
 31
0.0
  0
INSERT
  5
124
330
11F
100
AcDbEntity
  8
0
100
AcDbBlockReference
  2
_OBLIQUE
 10
-0.05
 20
-2.0
 30
0.0
 41
0.0625
 42
0.0625
 50
90.0
  0
INSERT
  5
126
330
11F
100
AcDbEntity
  8
0
100
AcDbBlockReference
  2
_OBLIQUE
 10
-0.05
 20
-1.82
 30
0.0
 41
0.0625
 42
0.0625
 50
90.0
  0
LINE
  5
128
330
11F
100
AcDbEntity
  8
0
100
AcDbLine
 10
-0.05
 20
-2.0
 30
0.0
 11
-0.05
 21
-1.82
 31
0.0
  0
MTEXT
  5
129
330
11F
100
AcDbEntity
  8
0
100
AcDbMText
 10
-0.10625000000000001
 20
-1.9100000000000001
 30
0.0
 40
0.0625
 71
5
  1
18
  7
OpenSansCondensed-Light
 50
90.0
  0
POINT
  5
12A
330
11F
100
AcDbEntity
  8
Defpoints
100
AcDbPoint
 10
-0.05
 20
-2.0
 30
0.0
  0
POINT
  5
12B
330
11F
100
AcDbEntity
  8
Defpoints
100
AcDbPoint
 10
0.0
 20
-2.0
 30
0.0
  0
POINT
  5
12C
330
11F
100
AcDbEntity
  8
Defpoints
100
AcDbPoint
 10
0.0
 20
-1.82
 30
0.0
  0
ENDBLK
  5
121
330
11F
100
AcDbEntity
  8
0
100
AcDbBlockEnd
  0
BLOCK
  5
188
330
187
100
AcDbEntity
  8
0
100
AcDbBlockBegin
  2
*D5
 70
1
 10
0.0
 20
0.0
 30
0.0
  3
*D5
  1

  0
LINE
  5
18A
330
187
100
AcDbEntity
  8
0
100
AcDbLine
 10
0.0
 20
-3.78875
 30
0.0
 11
0.0
 21
-3.67625
 31
0.0
  0
LINE
  5
18B
330
187
100
AcDbEntity
  8
0
100
AcDbLine
 10
10.0
 20
-3.78875
 30
0.0
 11
10.0
 21
-3.67625
 31
0.0
  0
INSERT
  5
18C
330
187
100
AcDbEntity
  8
0
100
AcDbBlockReference
  2
_OBLIQUE
 10
0.0
 20
-3.77
 30
0.0
 41
0.0625
 42
0.0625
  0
INSERT
  5
18E
330
187
100
AcDbEntity
  8
0
100
AcDbBlockReference
  2
_OBLIQUE
 10
10.0
 20
-3.77
 30
0.0
 41
0.0625
 42
0.0625
  0
LINE
  5
190
330
187
100
AcDbEntity
  8
0
100
AcDbLine
 10
0.0
 20
-3.77
 30
0.0
 11
10.0
 21
-3.77
 31
0.0
  0
MTEXT
  5
191
330
187
100
AcDbEntity
  8
0
100
AcDbMText
 10
5.0
 20
-3.71375
 30
0.0
 40
0.0625
 71
5
  1
1000
  7
OpenSansCondensed-Light
  0
POINT
  5
192
330
187
100
AcDbEntity
  8
Defpoints
100
AcDbPoint
 10
0.0
 20
-3.77
 30
0.0
  0
POINT
  5
193
330
187
100
AcDbEntity
  8
Defpoints
100
AcDbPoint
 10
0.0
 20
-3.82
 30
0.0
  0
POINT
  5
194
330
187
100
AcDbEntity
  8
Defpoints
100
AcDbPoint
 10
10.0
 20
-3.82
 30
0.0
  0
ENDBLK
  5
189
330
187
100
AcDbEntity
  8
0
100
AcDbBlockEnd
  0
BLOCK
  5
197
330
196
100
AcDbEntity
  8
0
100
AcDbBlockBegin
  2
*D6
 70
1
 10
0.0
 20
0.0
 30
0.0
  3
*D6
  1

  0
LINE
  5
199
330
196
100
AcDbEntity
  8
0
100
AcDbLine
 10
-0.03125
 20
-4.0
 30
0.0
 11
-0.14375
 21
-4.0
 31
0.0
  0
LINE
  5
19A
330
196
100
AcDbEntity
  8
0
100
AcDbLine
 10
-0.03125
 20
-3.82
 30
0.0
 11
-0.14375
 21
-3.82
 31
0.0
  0
INSERT
  5
19B
330
196
100
AcDbEntity
  8
0
100
AcDbBlockReference
  2
_OBLIQUE
 10
-0.05
 20
-4.0
 30
0.0
 41
0.0625
 42
0.0625
 50
90.0
  0
INSERT
  5
19D
330
196
100
AcDbEntity
  8
0
100
AcDbBlockReference
  2
_OBLIQUE
 10
-0.05
 20
-3.82
 30
0.0
 41
0.0625
 42
0.0625
 50
90.0
  0
LINE
  5
19F
330
196
100
AcDbEntity
  8
0
100
AcDbLine
 10
-0.05
 20
-4.0
 30
0.0
 11
-0.05
 21
-3.82
 31
0.0
  0
MTEXT
  5
1A0
330
196
100
AcDbEntity
  8
0
100
AcDbMText
 10
-0.10625000000000001
 20
-3.91
 30
0.0
 40
0.0625
 71
5
  1
18
  7
OpenSansCondensed-Light
 50
90.0
  0
POINT
  5
1A1
330
196
100
AcDbEntity
  8
Defpoints
100
AcDbPoint
 10
-0.05
 20
-4.0
 30
0.0
  0
POINT
  5
1A2
330
196
100
AcDbEntity
  8
Defpoints
100
AcDbPoint
 10
0.0
 20
-4.0
 30
0.0
  0
POINT
  5
1A3
330
196
100
AcDbEntity
  8
Defpoints
100
AcDbPoint
 10
0.0
 20
-3.82
 30
0.0
  0
ENDBLK
  5
198
330
196
100
AcDbEntity
  8
0
100
AcDbBlockEnd
  0
BLOCK
  5
250
330
24F
100
AcDbEntity
  8
0
100
AcDbBlockBegin
  2
*D7
 70
1
 10
0.0
 20
0.0
 30
0.0
  3
*D7
  1

  0
LINE
  5
252
330
24F
100
AcDbEntity
  8
0
100
AcDbLine
 10
0.0
 20
-5.78875
 30
0.0
 11
0.0
 21
-5.6762500000000005
 31
0.0
  0
LINE
  5
253
330
24F
100
AcDbEntity
  8
0
100
AcDbLine
 10
10.0
 20
-5.78875
 30
0.0
 11
10.0
 21
-5.6762500000000005
 31
0.0
  0
INSERT
  5
254
330
24F
100
AcDbEntity
  8
0
100
AcDbBlockReference
  2
_OBLIQUE
 10
0.0
 20
-5.7700000000000005
 30
0.0
 41
0.0625
 42
0.0625
  0
INSERT
  5
256
330
24F
100
AcDbEntity
  8
0
100
AcDbBlockReference
  2
_OBLIQUE
 10
10.0
 20
-5.7700000000000005
 30
0.0
 41
0.0625
 42
0.0625
  0
LINE
  5
258
330
24F
100
AcDbEntity
  8
0
100
AcDbLine
 10
0.0
 20
-5.7700000000000005
 30
0.0
 11
10.0
 21
-5.7700000000000005
 31
0.0
  0
MTEXT
  5
259
330
24F
100
AcDbEntity
  8
0
100
AcDbMText
 10
5.0
 20
-5.71375
 30
0.0
 40
0.0625
 71
5
  1
1000
  7
OpenSansCondensed-Light
  0
POINT
  5
25A
330
24F
100
AcDbEntity
  8
Defpoints
100
AcDbPoint
 10
0.0
 20
-5.7700000000000005
 30
0.0
  0
POINT
  5
25B
330
24F
100
AcDbEntity
  8
Defpoints
100
AcDbPoint
 10
0.0
 20
-5.82
 30
0.0
  0
POINT
  5
25C
330
24F
100
AcDbEntity
  8
Defpoints
100
AcDbPoint
 10
10.0
 20
-5.82
 30
0.0
  0
ENDBLK
  5
251
330
24F
100
AcDbEntity
  8
0
100
AcDbBlockEnd
  0
BLOCK
  5
25F
330
25E
100
AcDbEntity
  8
0
100
AcDbBlockBegin
  2
*D8
 70
1
 10
0.0
 20
0.0
 30
0.0
  3
*D8
  1

  0
LINE
  5
261
330
25E
100
AcDbEntity
  8
0
100
AcDbLine
 10
-0.03125
 20
-6.0
 30
0.0
 11
-0.14375
 21
-6.0
 31
0.0
  0
LINE
  5
262
330
25E
100
AcDbEntity
  8
0
100
AcDbLine
 10
-0.03125
 20
-5.82
 30
0.0
 11
-0.14375
 21
-5.82
 31
0.0
  0
INSERT
  5
263
330
25E
100
AcDbEntity
  8
0
100
AcDbBlockReference
  2
_OBLIQUE
 10
-0.05
 20
-6.0
 30
0.0
 41
0.0625
 42
0.0625
 50
90.0
  0
INSERT
  5
265
330
25E
100
AcDbEntity
  8
0
100
AcDbBlockReference
  2
_OBLIQUE
 10
-0.05
 20
-5.82
 30
0.0
 41
0.0625
 42
0.0625
 50
90.0
  0
LINE
  5
267
330
25E
100
AcDbEntity
  8
0
100
AcDbLine
 10
-0.05
 20
-6.0
 30
0.0
 11
-0.05
 21
-5.82
 31
0.0
  0
MTEXT
  5
268
330
25E
100
AcDbEntity
  8
0
100
AcDbMText
 10
-0.10625000000000001
 20
-5.91
 30
0.0
 40
0.0625
 71
5
  1
18
  7
OpenSansCondensed-Light
 50
90.0
  0
POINT
  5
269
330
25E
100
AcDbEntity
  8
Defpoints
100
AcDbPoint
 10
-0.05
 20
-6.0
 30
0.0
  0
POINT
  5
26A
330
25E
100
AcDbEntity
  8
Defpoints
100
AcDbPoint
 10
0.0
 20
-6.0
 30
0.0
  0
POINT
  5
26B
330
25E
100
AcDbEntity
  8
Defpoints
100
AcDbPoint
 10
0.0
 20
-5.82
 30
0.0
  0
ENDBLK
  5
260
330
25E
100
AcDbEntity
  8
0
100
AcDbBlockEnd
  0
ENDSEC
  0
SECTION
  2
ENTITIES
  0
LINE
  5
8A
330
17
100
AcDbEntity
  8
0
100
AcDbLine
 10
5.0
 20
0.0
 30
0.0
 11
5.0
 21
0.18
 31
0.0
  0
LINE
  5
8B
330
17
100
AcDbEntity
  8
0
100
AcDbLine
 10
0.0
 20
0.0
 30
0.0
 11
0.0
 21
0.18
 31
0.0
  0
LINE
  5
8C
330
17
100
AcDbEntity
  8
0
100
AcDbLine
 10
0.0
 20
0.0
 30
0.0
 11
5.0
 21
0.0
 31
0.0
  0
LINE
  5
8D
330
17
100
AcDbEntity
  8
0
100
AcDbLine
 10
0.0
 20
0.18
 30
0.0
 11
5.0
 21
0.18
 31
0.0
  0
DIMENSION
  5
8E
330
17
100
AcDbEntity
  8
0
100
AcDbDimension
280
0
  2
*D1
  3
EZ_M_25_H25_CM
 10
0.0
 20
0.22999999999999998
 30
0.0
 11
2.5
 21
0.28625
 31
0.0
 70
32
 71
5
  1
<>
100
AcDbAlignedDimension
 13
0.0
 23
0.18
 33
0.0
 14
5.0
 24
0.18
 34
0.0
 50
0.0
100
AcDbRotatedDimension
  0
DIMENSION
  5
A1
330
17
100
AcDbEntity
  8
0
100
AcDbDimension
280
0
  2
*D2
  3
EZ_M_25_H25_CM
 10
-0.05
 20
0.0
 30
0.0
 11
-0.10625000000000001
 21
0.09
 31
0.0
 70
32
 71
5
  1
<>
100
AcDbAlignedDimension
 13
0.0
 23
0.0
 33
0.0
 14
0.0
 24
0.18
 34
0.0
 50
90.0
100
AcDbRotatedDimension
  0
CIRCLE
  5
B0
330
17
100
AcDbEntity
  8
0
100
AcDbCircle
 10
4.931
 20
0.14599999999999969
 30
0.0
 40
0.006
  0
CIRCLE
  5
B1
330
17
100
AcDbEntity
  8
0
100
AcDbCircle
 10
4.8309999999999995
 20
0.14599999999999969
 30
0.0
 40
0.006
  0
CIRCLE
  5
B2
330
17
100
AcDbEntity
  8
0
100
AcDbCircle
 10
4.731
 20
0.14599999999999969
 30
0.0
 40
0.006
  0
CIRCLE
  5
B3
330
17
100
AcDbEntity
  8
0
100
AcDbCircle
 10
4.631
 20
0.14599999999999969
 30
0.0
 40
0.006
  0
CIRCLE
  5
B4
330
17
100
AcDbEntity
  8
0
100
AcDbCircle
 10
4.531
 20
0.1459999999999997
 30
0.0
 40
0.006
  0
CIRCLE
  5
B5
330
17
100
AcDbEntity
  8
0
100
AcDbCircle
 10
4.431
 20
0.1459999999999997
 30
0.0
 40
0.006
  0
CIRCLE
  5
B6
330
17
100
AcDbEntity
  8
0
100
AcDbCircle
 10
4.3309999999999995
 20
0.1459999999999997
 30
0.0
 40
0.006
  0
CIRCLE
  5
B7
330
17
100
AcDbEntity
  8
0
100
AcDbCircle
 10
4.231
 20
0.1459999999999997
 30
0.0
 40
0.006
  0
CIRCLE
  5
B8
330
17
100
AcDbEntity
  8
0
100
AcDbCircle
 10
4.131
 20
0.14599999999999974
 30
0.0
 40
0.006
  0
CIRCLE
  5
B9
330
17
100
AcDbEntity
  8
0
100
AcDbCircle
 10
4.031
 20
0.14599999999999974
 30
0.0
 40
0.006
  0
CIRCLE
  5
BA
330
17
100
AcDbEntity
  8
0
100
AcDbCircle
 10
3.931
 20
0.14599999999999974
 30
0.0
 40
0.006
  0
CIRCLE
  5
BB
330
17
100
AcDbEntity
  8
0
100
AcDbCircle
 10
3.831
 20
0.14599999999999974
 30
0.0
 40
0.006
  0
CIRCLE
  5
BC
330
17
100
AcDbEntity
  8
0
100
AcDbCircle
 10
3.731
 20
0.14599999999999974
 30
0.0
 40
0.006
  0
CIRCLE
  5
BD
330
17
100
AcDbEntity
  8
0
100
AcDbCircle
 10
3.6310000000000002
 20
0.14599999999999977
 30
0.0
 40
0.006
  0
CIRCLE
  5
BE
330
17
100
AcDbEntity
  8
0
100
AcDbCircle
 10
3.5309999999999997
 20
0.14599999999999977
 30
0.0
 40
0.006
  0
CIRCLE
  5
BF
330
17
100
AcDbEntity
  8
0
100
AcDbCircle
 10
3.431
 20
0.14599999999999977
 30
0.0
 40
0.006
  0
CIRCLE
  5
C0
330
17
100
AcDbEntity
  8
0
100
AcDbCircle
 10
3.331
 20
0.14599999999999977
 30
0.0
 40
0.006
  0
CIRCLE
  5
C1
330
17
100
AcDbEntity
  8
0
100
AcDbCircle
 10
3.231
 20
0.1459999999999998
 30
0.0
 40
0.006
  0
CIRCLE
  5
C2
330
17
100
AcDbEntity
  8
0
100
AcDbCircle
 10
3.1310000000000002
 20
0.1459999999999998
 30
0.0
 40
0.006
  0
CIRCLE
  5
C3
330
17
100
AcDbEntity
  8
0
100
AcDbCircle
 10
3.031
 20
0.1459999999999998
 30
0.0
 40
0.006
  0
CIRCLE
  5
C4
330
17
100
AcDbEntity
  8
0
100
AcDbCircle
 10
2.931
 20
0.1459999999999998
 30
0.0
 40
0.006
  0
CIRCLE
  5
C5
330
17
100
AcDbEntity
  8
0
100
AcDbCircle
 10
2.831
 20
0.1459999999999998
 30
0.0
 40
0.006
  0
CIRCLE
  5
C6
330
17
100
AcDbEntity
  8
0
100
AcDbCircle
 10
2.731
 20
0.14599999999999982
 30
0.0
 40
0.006
  0
CIRCLE
  5
C7
330
17
100
AcDbEntity
  8
0
100
AcDbCircle
 10
2.631
 20
0.14599999999999982
 30
0.0
 40
0.006
  0
CIRCLE
  5
C8
330
17
100
AcDbEntity
  8
0
100
AcDbCircle
 10
2.5309999999999997
 20
0.14599999999999982
 30
0.0
 40
0.006
  0
CIRCLE
  5
C9
330
17
100
AcDbEntity
  8
0
100
AcDbCircle
 10
2.431
 20
0.14599999999999982
 30
0.0
 40
0.006
  0
CIRCLE
  5
CA
330
17
100
AcDbEntity
  8
0
100
AcDbCircle
 10
2.331
 20
0.14599999999999985
 30
0.0
 40
0.006
  0
CIRCLE
  5
CB
330
17
100
AcDbEntity
  8
0
100
AcDbCircle
 10
2.231
 20
0.14599999999999985
 30
0.0
 40
0.006
  0
CIRCLE
  5
CC
330
17
100
AcDbEntity
  8
0
100
AcDbCircle
 10
2.131
 20
0.14599999999999985
 30
0.0
 40
0.006
  0
CIRCLE
  5
CD
330
17
100
AcDbEntity
  8
0
100
AcDbCircle
 10
2.0309999999999997
 20
0.14599999999999985
 30
0.0
 40
0.006
  0
CIRCLE
  5
CE
330
17
100
AcDbEntity
  8
0
100
AcDbCircle
 10
1.931
 20
0.14599999999999985
 30
0.0
 40
0.006
  0
CIRCLE
  5
CF
330
17
100
AcDbEntity
  8
0
100
AcDbCircle
 10
1.831
 20
0.14599999999999988
 30
0.0
 40
0.006
  0
CIRCLE
  5
D0
330
17
100
AcDbEntity
  8
0
100
AcDbCircle
 10
1.7309999999999999
 20
0.14599999999999988
 30
0.0
 40
0.006
  0
CIRCLE
  5
D1
330
17
100
AcDbEntity
  8
0
100
AcDbCircle
 10
1.6309999999999998
 20
0.14599999999999988
 30
0.0
 40
0.006
  0
CIRCLE
  5
D2
330
17
100
AcDbEntity
  8
0
100
AcDbCircle
 10
1.5309999999999997
 20
0.14599999999999988
 30
0.0
 40
0.006
  0
CIRCLE
  5
D3
330
17
100
AcDbEntity
  8
0
100
AcDbCircle
 10
1.431
 20
0.1459999999999999
 30
0.0
 40
0.006
  0
CIRCLE
  5
D4
330
17
100
AcDbEntity
  8
0
100
AcDbCircle
 10
1.331
 20
0.1459999999999999
 30
0.0
 40
0.006
  0
CIRCLE
  5
D5
330
17
100
AcDbEntity
  8
0
100
AcDbCircle
 10
1.2309999999999999
 20
0.1459999999999999
 30
0.0
 40
0.006
  0
CIRCLE
  5
D6
330
17
100
AcDbEntity
  8
0
100
AcDbCircle
 10
1.1309999999999998
 20
0.1459999999999999
 30
0.0
 40
0.006
  0
CIRCLE
  5
D7
330
17
100
AcDbEntity
  8
0
100
AcDbCircle
 10
1.0309999999999997
 20
0.1459999999999999
 30
0.0
 40
0.006
  0
CIRCLE
  5
D8
330
17
100
AcDbEntity
  8
0
100
AcDbCircle
 10
0.931
 20
0.14599999999999994
 30
0.0
 40
0.006
  0
CIRCLE
  5
D9
330
17
100
AcDbEntity
  8
0
100
AcDbCircle
 10
0.8309999999999995
 20
0.14599999999999994
 30
0.0
 40
0.006
  0
CIRCLE
  5
DA
330
17
100
AcDbEntity
  8
0
100
AcDbCircle
 10
0.7309999999999999
 20
0.14599999999999994
 30
0.0
 40
0.006
  0
CIRCLE
  5
DB
330
17
100
AcDbEntity
  8
0
100
AcDbCircle
 10
0.6310000000000002
 20
0.14599999999999994
 30
0.0
 40
0.006
  0
CIRCLE
  5
DC
330
17
100
AcDbEntity
  8
0
100
AcDbCircle
 10
0.5309999999999997
 20
0.14599999999999996
 30
0.0
 40
0.006
  0
CIRCLE
  5
DD
330
17
100
AcDbEntity
  8
0
100
AcDbCircle
 10
0.43100000000000005
 20
0.14599999999999996
 30
0.0
 40
0.006
  0
CIRCLE
  5
DE
330
17
100
AcDbEntity
  8
0
100
AcDbCircle
 10
0.3309999999999995
 20
0.14599999999999996
 30
0.0
 40
0.006
  0
CIRCLE
  5
DF
330
17
100
AcDbEntity
  8
0
100
AcDbCircle
 10
0.23099999999999987
 20
0.14599999999999996
 30
0.0
 40
0.006
  0
CIRCLE
  5
E0
330
17
100
AcDbEntity
  8
0
100
AcDbCircle
 10
0.13099999999999934
 20
0.14599999999999996
 30
0.0
 40
0.006
  0
CIRCLE
  5
E1
330
17
100
AcDbEntity
  8
0
100
AcDbCircle
 10
0.030999999999999694
 20
0.146
 30
0.0
 40
0.006
  0
LINE
  5
E2
330
17
100
AcDbEntity
  8
0
100
AcDbLine
 10
4.3309999999999995
 20
0.1459999999999997
 30
0.0
 11
4.137
 21
0.5399999999999998
 31
0.0
  0
LINE
  5
E3
330
17
100
AcDbEntity
  8
0
100
AcDbLine
 10
4.231
 20
0.1459999999999997
 30
0.0
 11
4.137
 21
0.5399999999999998
 31
0.0
  0
LINE
  5
E4
330
17
100
AcDbEntity
  8
0
100
AcDbLine
 10
4.131
 20
0.14599999999999974
 30
0.0
 11
4.137
 21
0.5399999999999998
 31
0.0
  0
TEXT
  5
E5
330
17
100
AcDbEntity
  8
0
100
AcDbText
 10
4.137
 20
0.5399999999999998
 30
0.0
 40
0.05
  1
Ø0.012/ 0.1m.
 11
4.137
 21
0.5399999999999998
 31
0.0
100
AcDbText
  0
CIRCLE
  5
E6
330
17
100
AcDbEntity
  8
0
100
AcDbCircle
 10
4.835000000000001
 20
0.042999999999999705
 30
0.0
 40
0.01
  0
CIRCLE
  5
E7
330
17
100
AcDbEntity
  8
0
100
AcDbCircle
 10
4.635000000000001
 20
0.04299999999999972
 30
0.0
 40
0.01
  0
CIRCLE
  5
E8
330
17
100
AcDbEntity
  8
0
100
AcDbCircle
 10
4.4350000000000005
 20
0.04299999999999973
 30
0.0
 40
0.01
  0
CIRCLE
  5
E9
330
17
100
AcDbEntity
  8
0
100
AcDbCircle
 10
4.235000000000001
 20
0.04299999999999975
 30
0.0
 40
0.01
  0
CIRCLE
  5
EA
330
17
100
AcDbEntity
  8
0
100
AcDbCircle
 10
4.035000000000001
 20
0.042999999999999754
 30
0.0
 40
0.01
  0
CIRCLE
  5
EB
330
17
100
AcDbEntity
  8
0
100
AcDbCircle
 10
3.835000000000001
 20
0.04299999999999977
 30
0.0
 40
0.01
  0
CIRCLE
  5
EC
330
17
100
AcDbEntity
  8
0
100
AcDbCircle
 10
3.6350000000000007
 20
0.04299999999999978
 30
0.0
 40
0.01
  0
CIRCLE
  5
ED
330
17
100
AcDbEntity
  8
0
100
AcDbCircle
 10
3.435000000000001
 20
0.042999999999999795
 30
0.0
 40
0.01
  0
CIRCLE
  5
EE
330
17
100
AcDbEntity
  8
0
100
AcDbCircle
 10
3.235000000000001
 20
0.0429999999999998
 30
0.0
 40
0.01
  0
CIRCLE
  5
EF
330
17
100
AcDbEntity
  8
0
100
AcDbCircle
 10
3.035000000000001
 20
0.042999999999999816
 30
0.0
 40
0.01
  0
CIRCLE
  5
F0
330
17
100
AcDbEntity
  8
0
100
AcDbCircle
 10
2.8350000000000013
 20
0.04299999999999983
 30
0.0
 40
0.01
  0
CIRCLE
  5
F1
330
17
100
AcDbEntity
  8
0
100
AcDbCircle
 10
2.635000000000001
 20
0.042999999999999844
 30
0.0
 40
0.01
  0
CIRCLE
  5
F2
330
17
100
AcDbEntity
  8
0
100
AcDbCircle
 10
2.435000000000001
 20
0.04299999999999986
 30
0.0
 40
0.01
  0
CIRCLE
  5
F3
330
17
100
AcDbEntity
  8
0
100
AcDbCircle
 10
2.235000000000001
 20
0.042999999999999865
 30
0.0
 40
0.01
  0
CIRCLE
  5
F4
330
17
100
AcDbEntity
  8
0
100
AcDbCircle
 10
2.035000000000001
 20
0.04299999999999988
 30
0.0
 40
0.01
  0
CIRCLE
  5
F5
330
17
100
AcDbEntity
  8
0
100
AcDbCircle
 10
1.8350000000000013
 20
0.04299999999999989
 30
0.0
 40
0.01
  0
CIRCLE
  5
F6
330
17
100
AcDbEntity
  8
0
100
AcDbCircle
 10
1.6350000000000011
 20
0.042999999999999906
 30
0.0
 40
0.01
  0
CIRCLE
  5
F7
330
17
100
AcDbEntity
  8
0
100
AcDbCircle
 10
1.435000000000001
 20
0.04299999999999991
 30
0.0
 40
0.01
  0
CIRCLE
  5
F8
330
17
100
AcDbEntity
  8
0
100
AcDbCircle
 10
1.2350000000000012
 20
0.04299999999999993
 30
0.0
 40
0.01
  0
CIRCLE
  5
F9
330
17
100
AcDbEntity
  8
0
100
AcDbCircle
 10
1.035000000000001
 20
0.04299999999999994
 30
0.0
 40
0.01
  0
CIRCLE
  5
FA
330
17
100
AcDbEntity
  8
0
100
AcDbCircle
 10
0.8350000000000009
 20
0.042999999999999955
 30
0.0
 40
0.01
  0
CIRCLE
  5
FB
330
17
100
AcDbEntity
  8
0
100
AcDbCircle
 10
0.6350000000000007
 20
0.04299999999999996
 30
0.0
 40
0.01
  0
CIRCLE
  5
FC
330
17
100
AcDbEntity
  8
0
100
AcDbCircle
 10
0.4350000000000005
 20
0.042999999999999976
 30
0.0
 40
0.01
  0
CIRCLE
  5
FD
330
17
100
AcDbEntity
  8
0
100
AcDbCircle
 10
0.23500000000000032
 20
0.04299999999999999
 30
0.0
 40
0.01
  0
CIRCLE
  5
FE
330
17
100
AcDbEntity
  8
0
100
AcDbCircle
 10
0.03500000000000014
 20
0.043000000000000003
 30
0.0
 40
0.01
  0
LINE
  5
FF
330
17
100
AcDbEntity
  8
0
100
AcDbLine
 10
3.235000000000001
 20
0.0429999999999998
 30
0.0
 11
3.045000000000001
 21
0.43299999999999983
 31
0.0
  0
LINE
  5
100
330
17
100
AcDbEntity
  8
0
100
AcDbLine
 10
3.035000000000001
 20
0.042999999999999816
 30
0.0
 11
3.045000000000001
 21
0.43299999999999983
 31
0.0
  0
LINE
  5
101
330
17
100
AcDbEntity
  8
0
100
AcDbLine
 10
2.8350000000000013
 20
0.04299999999999983
 30
0.0
 11
3.045000000000001
 21
0.43299999999999983
 31
0.0
  0
TEXT
  5
102
330
17
100
AcDbEntity
  8
0
100
AcDbText
 10
3.045000000000001
 20
0.43299999999999983
 30
0.0
 40
0.05
  1
Ø0.02/ 0.2m.
 11
3.045000000000001
 21
0.43299999999999983
 31
0.0
100
AcDbText
  0
LINE
  5
103
330
17
100
AcDbEntity
  8
0
100
AcDbLine
 10
0.025
 20
0.158
 30
0.0
 11
4.9750000000000005
 21
0.158
 31
0.0
  0
LINE
  5
104
330
17
100
AcDbEntity
  8
0
100
AcDbLine
 10
0.025
 20
0.152
 30
0.0
 11
4.9750000000000005
 21
0.152
 31
0.0
  0
LINE
  5
105
330
17
100
AcDbEntity
  8
0
100
AcDbLine
 10
4.9750000000000005
 20
0.152
 30
0.0
 11
4.9750000000000005
 21
0.158
 31
0.0
  0
LINE
  5
106
330
17
100
AcDbEntity
  8
0
100
AcDbLine
 10
0.025
 20
0.152
 30
0.0
 11
0.025
 21
0.158
 31
0.0
  0
LINE
  5
107
330
17
100
AcDbEntity
  8
0
100
AcDbLine
 10
0.025
 20
0.017
 30
0.0
 11
4.9750000000000005
 21
0.017
 31
0.0
  0
LINE
  5
108
330
17
100
AcDbEntity
  8
0
100
AcDbLine
 10
0.025
 20
0.033
 30
0.0
 11
4.9750000000000005
 21
0.033
 31
0.0
  0
LINE
  5
109
330
17
100
AcDbEntity
  8
0
100
AcDbLine
 10
4.9750000000000005
 20
0.033
 30
0.0
 11
4.9750000000000005
 21
0.017
 31
0.0
  0
LINE
  5
10A
330
17
100
AcDbEntity
  8
0
100
AcDbLine
 10
0.025
 20
0.033
 30
0.0
 11
0.025
 21
0.017
 31
0.0
  0
LINE
  5
10B
330
17
100
AcDbEntity
  8
0
100
AcDbLine
 10
5.0
 20
-2.0
 30
0.0
 11
5.0
 21
-1.82
 31
0.0
  0
LINE
  5
10C
330
17
100
AcDbEntity
  8
0
100
AcDbLine
 10
0.0
 20
-2.0
 30
0.0
 11
0.0
 21
-1.82
 31
0.0
  0
LINE
  5
10D
330
17
100
AcDbEntity
  8
0
100
AcDbLine
 10
0.0
 20
-2.0
 30
0.0
 11
5.0
 21
-2.0
 31
0.0
  0
LINE
  5
10E
330
17
100
AcDbEntity
  8
0
100
AcDbLine
 10
0.0
 20
-1.82
 30
0.0
 11
5.0
 21
-1.82
 31
0.0
  0
DIMENSION
  5
10F
330
17
100
AcDbEntity
  8
0
100
AcDbDimension
280
0
  2
*D3
  3
EZ_M_25_H25_CM
 10
0.0
 20
-1.77
 30
0.0
 11
2.5
 21
-1.71375
 31
0.0
 70
32
 71
5
  1
<>
100
AcDbAlignedDimension
 13
0.0
 23
-1.82
 33
0.0
 14
5.0
 24
-1.82
 34
0.0
 50
0.0
100
AcDbRotatedDimension
  0
DIMENSION
  5
11E
330
17
100
AcDbEntity
  8
0
100
AcDbDimension
280
0
  2
*D4
  3
EZ_M_25_H25_CM
 10
-0.05
 20
-2.0
 30
0.0
 11
-0.10625000000000001
 21
-1.9100000000000001
 31
0.0
 70
32
 71
5
  1
<>
100
AcDbAlignedDimension
 13
0.0
 23
-2.0
 33
0.0
 14
0.0
 24
-1.82
 34
0.0
 50
90.0
100
AcDbRotatedDimension
  0
CIRCLE
  5
12D
330
17
100
AcDbEntity
  8
0
100
AcDbCircle
 10
4.931
 20
-1.8510000000000004
 30
0.0
 40
0.006
  0
CIRCLE
  5
12E
330
17
100
AcDbEntity
  8
0
100
AcDbCircle
 10
4.8309999999999995
 20
-1.8510000000000004
 30
0.0
 40
0.006
  0
CIRCLE
  5
12F
330
17
100
AcDbEntity
  8
0
100
AcDbCircle
 10
4.731
 20
-1.8510000000000004
 30
0.0
 40
0.006
  0
CIRCLE
  5
130
330
17
100
AcDbEntity
  8
0
100
AcDbCircle
 10
4.631
 20
-1.8510000000000004
 30
0.0
 40
0.006
  0
CIRCLE
  5
131
330
17
100
AcDbEntity
  8
0
100
AcDbCircle
 10
4.531
 20
-1.8510000000000004
 30
0.0
 40
0.006
  0
CIRCLE
  5
132
330
17
100
AcDbEntity
  8
0
100
AcDbCircle
 10
4.431
 20
-1.8510000000000004
 30
0.0
 40
0.006
  0
CIRCLE
  5
133
330
17
100
AcDbEntity
  8
0
100
AcDbCircle
 10
4.3309999999999995
 20
-1.8510000000000004
 30
0.0
 40
0.006
  0
CIRCLE
  5
134
330
17
100
AcDbEntity
  8
0
100
AcDbCircle
 10
4.231
 20
-1.8510000000000004
 30
0.0
 40
0.006
  0
CIRCLE
  5
135
330
17
100
AcDbEntity
  8
0
100
AcDbCircle
 10
4.131
 20
-1.8510000000000004
 30
0.0
 40
0.006
  0
CIRCLE
  5
136
330
17
100
AcDbEntity
  8
0
100
AcDbCircle
 10
4.031
 20
-1.8510000000000004
 30
0.0
 40
0.006
  0
CIRCLE
  5
137
330
17
100
AcDbEntity
  8
0
100
AcDbCircle
 10
3.931
 20
-1.8510000000000004
 30
0.0
 40
0.006
  0
CIRCLE
  5
138
330
17
100
AcDbEntity
  8
0
100
AcDbCircle
 10
3.8309999999999995
 20
-1.8510000000000004
 30
0.0
 40
0.006
  0
CIRCLE
  5
139
330
17
100
AcDbEntity
  8
0
100
AcDbCircle
 10
3.731
 20
-1.8510000000000004
 30
0.0
 40
0.006
  0
CIRCLE
  5
13A
330
17
100
AcDbEntity
  8
0
100
AcDbCircle
 10
3.631
 20
-1.8510000000000004
 30
0.0
 40
0.006
  0
CIRCLE
  5
13B
330
17
100
AcDbEntity
  8
0
100
AcDbCircle
 10
3.5309999999999997
 20
-1.8510000000000004
 30
0.0
 40
0.006
  0
CIRCLE
  5
13C
330
17
100
AcDbEntity
  8
0
100
AcDbCircle
 10
3.431
 20
-1.8510000000000004
 30
0.0
 40
0.006
  0
CIRCLE
  5
13D
330
17
100
AcDbEntity
  8
0
100
AcDbCircle
 10
3.3309999999999995
 20
-1.8510000000000004
 30
0.0
 40
0.006
  0
CIRCLE
  5
13E
330
17
100
AcDbEntity
  8
0
100
AcDbCircle
 10
3.231
 20
-1.8510000000000004
 30
0.0
 40
0.006
  0
CIRCLE
  5
13F
330
17
100
AcDbEntity
  8
0
100
AcDbCircle
 10
3.131
 20
-1.8510000000000004
 30
0.0
 40
0.006
  0
CIRCLE
  5
140
330
17
100
AcDbEntity
  8
0
100
AcDbCircle
 10
3.0309999999999997
 20
-1.8510000000000004
 30
0.0
 40
0.006
  0
CIRCLE
  5
141
330
17
100
AcDbEntity
  8
0
100
AcDbCircle
 10
2.931
 20
-1.8510000000000004
 30
0.0
 40
0.006
  0
CIRCLE
  5
142
330
17
100
AcDbEntity
  8
0
100
AcDbCircle
 10
2.8309999999999995
 20
-1.8510000000000004
 30
0.0
 40
0.006
  0
CIRCLE
  5
143
330
17
100
AcDbEntity
  8
0
100
AcDbCircle
 10
2.731
 20
-1.8510000000000004
 30
0.0
 40
0.006
  0
CIRCLE
  5
144
330
17
100
AcDbEntity
  8
0
100
AcDbCircle
 10
2.6309999999999993
 20
-1.8510000000000004
 30
0.0
 40
0.006
  0
CIRCLE
  5
145
330
17
100
AcDbEntity
  8
0
100
AcDbCircle
 10
2.5309999999999997
 20
-1.8510000000000002
 30
0.0
 40
0.006
  0
CIRCLE
  5
146
330
17
100
AcDbEntity
  8
0
100
AcDbCircle
 10
2.431
 20
-1.8510000000000002
 30
0.0
 40
0.006
  0
CIRCLE
  5
147
330
17
100
AcDbEntity
  8
0
100
AcDbCircle
 10
2.3309999999999995
 20
-1.8510000000000002
 30
0.0
 40
0.006
  0
CIRCLE
  5
148
330
17
100
AcDbEntity
  8
0
100
AcDbCircle
 10
2.231
 20
-1.8510000000000002
 30
0.0
 40
0.006
  0
CIRCLE
  5
149
330
17
100
AcDbEntity
  8
0
100
AcDbCircle
 10
2.1309999999999993
 20
-1.8510000000000002
 30
0.0
 40
0.006
  0
CIRCLE
  5
14A
330
17
100
AcDbEntity
  8
0
100
AcDbCircle
 10
2.0309999999999997
 20
-1.8510000000000002
 30
0.0
 40
0.006
  0
CIRCLE
  5
14B
330
17
100
AcDbEntity
  8
0
100
AcDbCircle
 10
1.9309999999999998
 20
-1.8510000000000002
 30
0.0
 40
0.006
  0
CIRCLE
  5
14C
330
17
100
AcDbEntity
  8
0
100
AcDbCircle
 10
1.8309999999999997
 20
-1.8510000000000002
 30
0.0
 40
0.006
  0
CIRCLE
  5
14D
330
17
100
AcDbEntity
  8
0
100
AcDbCircle
 10
1.7309999999999997
 20
-1.8510000000000002
 30
0.0
 40
0.006
  0
CIRCLE
  5
14E
330
17
100
AcDbEntity
  8
0
100
AcDbCircle
 10
1.6309999999999996
 20
-1.8510000000000002
 30
0.0
 40
0.006
  0
CIRCLE
  5
14F
330
17
100
AcDbEntity
  8
0
100
AcDbCircle
 10
1.5309999999999995
 20
-1.8510000000000002
 30
0.0
 40
0.006
  0
CIRCLE
  5
150
330
17
100
AcDbEntity
  8
0
100
AcDbCircle
 10
1.4309999999999998
 20
-1.8510000000000002
 30
0.0
 40
0.006
  0
CIRCLE
  5
151
330
17
100
AcDbEntity
  8
0
100
AcDbCircle
 10
1.3309999999999997
 20
-1.8510000000000002
 30
0.0
 40
0.006
  0
CIRCLE
  5
152
330
17
100
AcDbEntity
  8
0
100
AcDbCircle
 10
1.2309999999999997
 20
-1.8510000000000002
 30
0.0
 40
0.006
  0
CIRCLE
  5
153
330
17
100
AcDbEntity
  8
0
100
AcDbCircle
 10
1.1309999999999996
 20
-1.8510000000000002
 30
0.0
 40
0.006
  0
CIRCLE
  5
154
330
17
100
AcDbEntity
  8
0
100
AcDbCircle
 10
1.0309999999999997
 20
-1.8510000000000002
 30
0.0
 40
0.006
  0
CIRCLE
  5
155
330
17
100
AcDbEntity
  8
0
100
AcDbCircle
 10
0.931
 20
-1.8510000000000002
 30
0.0
 40
0.006
  0
CIRCLE
  5
156
330
17
100
AcDbEntity
  8
0
100
AcDbCircle
 10
0.8309999999999995
 20
-1.8510000000000002
 30
0.0
 40
0.006
  0
CIRCLE
  5
157
330
17
100
AcDbEntity
  8
0
100
AcDbCircle
 10
0.7309999999999999
 20
-1.8510000000000002
 30
0.0
 40
0.006
  0
CIRCLE
  5
158
330
17
100
AcDbEntity
  8
0
100
AcDbCircle
 10
0.6310000000000002
 20
-1.8510000000000002
 30
0.0
 40
0.006
  0
CIRCLE
  5
159
330
17
100
AcDbEntity
  8
0
100
AcDbCircle
 10
0.5309999999999997
 20
-1.8510000000000002
 30
0.0
 40
0.006
  0
CIRCLE
  5
15A
330
17
100
AcDbEntity
  8
0
100
AcDbCircle
 10
0.43100000000000005
 20
-1.8510000000000002
 30
0.0
 40
0.006
  0
CIRCLE
  5
15B
330
17
100
AcDbEntity
  8
0
100
AcDbCircle
 10
0.3309999999999995
 20
-1.8510000000000002
 30
0.0
 40
0.006
  0
CIRCLE
  5
15C
330
17
100
AcDbEntity
  8
0
100
AcDbCircle
 10
0.23099999999999987
 20
-1.8510000000000002
 30
0.0
 40
0.006
  0
CIRCLE
  5
15D
330
17
100
AcDbEntity
  8
0
100
AcDbCircle
 10
0.13099999999999934
 20
-1.8510000000000002
 30
0.0
 40
0.006
  0
CIRCLE
  5
15E
330
17
100
AcDbEntity
  8
0
100
AcDbCircle
 10
0.030999999999999694
 20
-1.8510000000000002
 30
0.0
 40
0.006
  0
LINE
  5
15F
330
17
100
AcDbEntity
  8
0
100
AcDbLine
 10
4.3309999999999995
 20
-1.8510000000000004
 30
0.0
 11
4.137
 21
-1.4570000000000003
 31
0.0
  0
LINE
  5
160
330
17
100
AcDbEntity
  8
0
100
AcDbLine
 10
4.231
 20
-1.8510000000000004
 30
0.0
 11
4.137
 21
-1.4570000000000003
 31
0.0
  0
LINE
  5
161
330
17
100
AcDbEntity
  8
0
100
AcDbLine
 10
4.131
 20
-1.8510000000000004
 30
0.0
 11
4.137
 21
-1.4570000000000003
 31
0.0
  0
TEXT
  5
162
330
17
100
AcDbEntity
  8
0
100
AcDbText
 10
4.137
 20
-1.4570000000000003
 30
0.0
 40
0.05
  1
Ø0.012/ 0.1m.
 11
4.137
 21
-1.4570000000000003
 31
0.0
100
AcDbText
  0
CIRCLE
  5
163
330
17
100
AcDbEntity
  8
0
100
AcDbCircle
 10
4.835
 20
-1.9650000000000005
 30
0.0
 40
0.01
  0
CIRCLE
  5
164
330
17
100
AcDbEntity
  8
0
100
AcDbCircle
 10
4.635
 20
-1.9650000000000005
 30
0.0
 40
0.01
  0
CIRCLE
  5
165
330
17
100
AcDbEntity
  8
0
100
AcDbCircle
 10
4.4350000000000005
 20
-1.9650000000000005
 30
0.0
 40
0.01
  0
CIRCLE
  5
166
330
17
100
AcDbEntity
  8
0
100
AcDbCircle
 10
4.235
 20
-1.9650000000000005
 30
0.0
 40
0.01
  0
CIRCLE
  5
167
330
17
100
AcDbEntity
  8
0
100
AcDbCircle
 10
4.035
 20
-1.9650000000000005
 30
0.0
 40
0.01
  0
CIRCLE
  5
168
330
17
100
AcDbEntity
  8
0
100
AcDbCircle
 10
3.835
 20
-1.9650000000000005
 30
0.0
 40
0.01
  0
CIRCLE
  5
169
330
17
100
AcDbEntity
  8
0
100
AcDbCircle
 10
3.635
 20
-1.9650000000000005
 30
0.0
 40
0.01
  0
CIRCLE
  5
16A
330
17
100
AcDbEntity
  8
0
100
AcDbCircle
 10
3.435
 20
-1.9650000000000005
 30
0.0
 40
0.01
  0
CIRCLE
  5
16B
330
17
100
AcDbEntity
  8
0
100
AcDbCircle
 10
3.2350000000000003
 20
-1.9650000000000005
 30
0.0
 40
0.01
  0
CIRCLE
  5
16C
330
17
100
AcDbEntity
  8
0
100
AcDbCircle
 10
3.035
 20
-1.9650000000000005
 30
0.0
 40
0.01
  0
CIRCLE
  5
16D
330
17
100
AcDbEntity
  8
0
100
AcDbCircle
 10
2.8350000000000004
 20
-1.9650000000000005
 30
0.0
 40
0.01
  0
CIRCLE
  5
16E
330
17
100
AcDbEntity
  8
0
100
AcDbCircle
 10
2.635
 20
-1.9650000000000005
 30
0.0
 40
0.01
  0
CIRCLE
  5
16F
330
17
100
AcDbEntity
  8
0
100
AcDbCircle
 10
2.4349999999999996
 20
-1.9650000000000003
 30
0.0
 40
0.01
  0
CIRCLE
  5
170
330
17
100
AcDbEntity
  8
0
100
AcDbCircle
 10
2.2350000000000003
 20
-1.9650000000000003
 30
0.0
 40
0.01
  0
CIRCLE
  5
171
330
17
100
AcDbEntity
  8
0
100
AcDbCircle
 10
2.035
 20
-1.9650000000000003
 30
0.0
 40
0.01
  0
CIRCLE
  5
172
330
17
100
AcDbEntity
  8
0
100
AcDbCircle
 10
1.8350000000000002
 20
-1.9650000000000003
 30
0.0
 40
0.01
  0
CIRCLE
  5
173
330
17
100
AcDbEntity
  8
0
100
AcDbCircle
 10
1.635
 20
-1.9650000000000003
 30
0.0
 40
0.01
  0
CIRCLE
  5
174
330
17
100
AcDbEntity
  8
0
100
AcDbCircle
 10
1.4349999999999998
 20
-1.9650000000000003
 30
0.0
 40
0.01
  0
CIRCLE
  5
175
330
17
100
AcDbEntity
  8
0
100
AcDbCircle
 10
1.235
 20
-1.9650000000000003
 30
0.0
 40
0.01
  0
CIRCLE
  5
176
330
17
100
AcDbEntity
  8
0
100
AcDbCircle
 10
1.035
 20
-1.9650000000000003
 30
0.0
 40
0.01
  0
CIRCLE
  5
177
330
17
100
AcDbEntity
  8
0
100
AcDbCircle
 10
0.8350000000000004
 20
-1.9650000000000003
 30
0.0
 40
0.01
  0
CIRCLE
  5
178
330
17
100
AcDbEntity
  8
0
100
AcDbCircle
 10
0.6350000000000002
 20
-1.9650000000000003
 30
0.0
 40
0.01
  0
CIRCLE
  5
179
330
17
100
AcDbEntity
  8
0
100
AcDbCircle
 10
0.43500000000000005
 20
-1.9650000000000003
 30
0.0
 40
0.01
  0
CIRCLE
  5
17A
330
17
100
AcDbEntity
  8
0
100
AcDbCircle
 10
0.23499999999999988
 20
-1.9650000000000003
 30
0.0
 40
0.01
  0
CIRCLE
  5
17B
330
17
100
AcDbEntity
  8
0
100
AcDbCircle
 10
0.0349999999999997
 20
-1.9650000000000003
 30
0.0
 40
0.01
  0
LINE
  5
17C
330
17
100
AcDbEntity
  8
0
100
AcDbLine
 10
3.2350000000000003
 20
-1.9650000000000005
 30
0.0
 11
3.045
 21
-1.5750000000000004
 31
0.0
  0
LINE
  5
17D
330
17
100
AcDbEntity
  8
0
100
AcDbLine
 10
3.035
 20
-1.9650000000000005
 30
0.0
 11
3.045
 21
-1.5750000000000004
 31
0.0
  0
LINE
  5
17E
330
17
100
AcDbEntity
  8
0
100
AcDbLine
 10
2.8350000000000004
 20
-1.9650000000000005
 30
0.0
 11
3.045
 21
-1.5750000000000004
 31
0.0
  0
TEXT
  5
17F
330
17
100
AcDbEntity
  8
0
100
AcDbText
 10
3.045
 20
-1.5750000000000004
 30
0.0
 40
0.05
  1
Ø0.02/ 0.2m.
 11
3.045
 21
-1.5750000000000004
 31
0.0
100
AcDbText
  0
LINE
  5
180
330
17
100
AcDbEntity
  8
0
100
AcDbLine
 10
0.025
 20
-1.845
 30
0.0
 11
4.9750000000000005
 21
-1.845
 31
0.0
  0
LINE
  5
181
330
17
100
AcDbEntity
  8
0
100
AcDbLine
 10
0.025
 20
-1.975
 30
0.0
 11
4.9750000000000005
 21
-1.975
 31
0.0
  0
LINE
  5
182
330
17
100
AcDbEntity
  8
0
100
AcDbLine
 10
10.0
 20
-4.0
 30
0.0
 11
10.0
 21
-3.82
 31
0.0
  0
LINE
  5
183
330
17
100
AcDbEntity
  8
0
100
AcDbLine
 10
0.0
 20
-4.0
 30
0.0
 11
0.0
 21
-3.82
 31
0.0
  0
LINE
  5
184
330
17
100
AcDbEntity
  8
0
100
AcDbLine
 10
0.0
 20
-4.0
 30
0.0
 11
10.0
 21
-4.0
 31
0.0
  0
LINE
  5
185
330
17
100
AcDbEntity
  8
0
100
AcDbLine
 10
0.0
 20
-3.82
 30
0.0
 11
10.0
 21
-3.82
 31
0.0
  0
DIMENSION
  5
186
330
17
100
AcDbEntity
  8
0
100
AcDbDimension
280
0
  2
*D5
  3
EZ_M_25_H25_CM
 10
0.0
 20
-3.77
 30
0.0
 11
5.0
 21
-3.71375
 31
0.0
 70
32
 71
5
  1
<>
100
AcDbAlignedDimension
 13
0.0
 23
-3.82
 33
0.0
 14
10.0
 24
-3.82
 34
0.0
 50
0.0
100
AcDbRotatedDimension
  0
DIMENSION
  5
195
330
17
100
AcDbEntity
  8
0
100
AcDbDimension
280
0
  2
*D6
  3
EZ_M_25_H25_CM
 10
-0.05
 20
-4.0
 30
0.0
 11
-0.10625000000000001
 21
-3.91
 31
0.0
 70
32
 71
5
  1
<>
100
AcDbAlignedDimension
 13
0.0
 23
-4.0
 33
0.0
 14
0.0
 24
-3.82
 34
0.0
 50
90.0
100
AcDbRotatedDimension
  0
CIRCLE
  5
1A4
330
17
100
AcDbEntity
  8
0
100
AcDbCircle
 10
0.028000000000000025
 20
-3.8539999999999996
 30
0.0
 40
0.003
  0
CIRCLE
  5
1A5
330
17
100
AcDbEntity
  8
0
100
AcDbCircle
 10
0.1280000000000001
 20
-3.8539999999999996
 30
0.0
 40
0.003
  0
CIRCLE
  5
1A6
330
17
100
AcDbEntity
  8
0
100
AcDbCircle
 10
0.2280000000000002
 20
-3.8539999999999996
 30
0.0
 40
0.003
  0
CIRCLE
  5
1A7
330
17
100
AcDbEntity
  8
0
100
AcDbCircle
 10
0.32799999999999985
 20
-3.8539999999999996
 30
0.0
 40
0.003
  0
CIRCLE
  5
1A8
330
17
100
AcDbEntity
  8
0
100
AcDbCircle
 10
0.42799999999999994
 20
-3.8539999999999996
 30
0.0
 40
0.003
  0
CIRCLE
  5
1A9
330
17
100
AcDbEntity
  8
0
100
AcDbCircle
 10
0.528
 20
-3.8539999999999996
 30
0.0
 40
0.003
  0
CIRCLE
  5
1AA
330
17
100
AcDbEntity
  8
0
100
AcDbCircle
 10
0.6280000000000001
 20
-3.8539999999999996
 30
0.0
 40
0.003
  0
CIRCLE
  5
1AB
330
17
100
AcDbEntity
  8
0
100
AcDbCircle
 10
0.7280000000000002
 20
-3.8539999999999996
 30
0.0
 40
0.003
  0
CIRCLE
  5
1AC
330
17
100
AcDbEntity
  8
0
100
AcDbCircle
 10
0.8279999999999998
 20
-3.8539999999999996
 30
0.0
 40
0.003
  0
CIRCLE
  5
1AD
330
17
100
AcDbEntity
  8
0
100
AcDbCircle
 10
0.9279999999999999
 20
-3.8539999999999996
 30
0.0
 40
0.003
  0
CIRCLE
  5
1AE
330
17
100
AcDbEntity
  8
0
100
AcDbCircle
 10
1.028
 20
-3.8539999999999996
 30
0.0
 40
0.003
  0
CIRCLE
  5
1AF
330
17
100
AcDbEntity
  8
0
100
AcDbCircle
 10
1.1280000000000001
 20
-3.8539999999999996
 30
0.0
 40
0.003
  0
CIRCLE
  5
1B0
330
17
100
AcDbEntity
  8
0
100
AcDbCircle
 10
1.2280000000000002
 20
-3.8539999999999996
 30
0.0
 40
0.003
  0
CIRCLE
  5
1B1
330
17
100
AcDbEntity
  8
0
100
AcDbCircle
 10
1.3279999999999998
 20
-3.8539999999999996
 30
0.0
 40
0.003
  0
CIRCLE
  5
1B2
330
17
100
AcDbEntity
  8
0
100
AcDbCircle
 10
1.4280000000000004
 20
-3.8539999999999996
 30
0.0
 40
0.003
  0
CIRCLE
  5
1B3
330
17
100
AcDbEntity
  8
0
100
AcDbCircle
 10
1.528
 20
-3.8539999999999996
 30
0.0
 40
0.003
  0
CIRCLE
  5
1B4
330
17
100
AcDbEntity
  8
0
100
AcDbCircle
 10
1.6280000000000001
 20
-3.8539999999999996
 30
0.0
 40
0.003
  0
CIRCLE
  5
1B5
330
17
100
AcDbEntity
  8
0
100
AcDbCircle
 10
1.7280000000000002
 20
-3.8539999999999996
 30
0.0
 40
0.003
  0
CIRCLE
  5
1B6
330
17
100
AcDbEntity
  8
0
100
AcDbCircle
 10
1.8279999999999998
 20
-3.8539999999999996
 30
0.0
 40
0.003
  0
CIRCLE
  5
1B7
330
17
100
AcDbEntity
  8
0
100
AcDbCircle
 10
1.928
 20
-3.8539999999999996
 30
0.0
 40
0.003
  0
CIRCLE
  5
1B8
330
17
100
AcDbEntity
  8
0
100
AcDbCircle
 10
2.0279999999999996
 20
-3.8539999999999996
 30
0.0
 40
0.003
  0
CIRCLE
  5
1B9
330
17
100
AcDbEntity
  8
0
100
AcDbCircle
 10
2.128
 20
-3.8539999999999996
 30
0.0
 40
0.003
  0
CIRCLE
  5
1BA
330
17
100
AcDbEntity
  8
0
100
AcDbCircle
 10
2.2279999999999998
 20
-3.8539999999999996
 30
0.0
 40
0.003
  0
CIRCLE
  5
1BB
330
17
100
AcDbEntity
  8
0
100
AcDbCircle
 10
2.3280000000000003
 20
-3.8539999999999996
 30
0.0
 40
0.003
  0
CIRCLE
  5
1BC
330
17
100
AcDbEntity
  8
0
100
AcDbCircle
 10
2.428
 20
-3.8539999999999996
 30
0.0
 40
0.003
  0
CIRCLE
  5
1BD
330
17
100
AcDbEntity
  8
0
100
AcDbCircle
 10
2.5279999999999996
 20
-3.8539999999999996
 30
0.0
 40
0.003
  0
CIRCLE
  5
1BE
330
17
100
AcDbEntity
  8
0
100
AcDbCircle
 10
2.628
 20
-3.8539999999999996
 30
0.0
 40
0.003
  0
CIRCLE
  5
1BF
330
17
100
AcDbEntity
  8
0
100
AcDbCircle
 10
2.7279999999999998
 20
-3.8539999999999996
 30
0.0
 40
0.003
  0
CIRCLE
  5
1C0
330
17
100
AcDbEntity
  8
0
100
AcDbCircle
 10
2.8280000000000003
 20
-3.8539999999999996
 30
0.0
 40
0.003
  0
CIRCLE
  5
1C1
330
17
100
AcDbEntity
  8
0
100
AcDbCircle
 10
2.9280000000000004
 20
-3.8539999999999996
 30
0.0
 40
0.003
  0
CIRCLE
  5
1C2
330
17
100
AcDbEntity
  8
0
100
AcDbCircle
 10
3.028
 20
-3.8539999999999996
 30
0.0
 40
0.003
  0
CIRCLE
  5
1C3
330
17
100
AcDbEntity
  8
0
100
AcDbCircle
 10
3.128
 20
-3.8539999999999996
 30
0.0
 40
0.003
  0
CIRCLE
  5
1C4
330
17
100
AcDbEntity
  8
0
100
AcDbCircle
 10
3.228
 20
-3.8539999999999996
 30
0.0
 40
0.003
  0
CIRCLE
  5
1C5
330
17
100
AcDbEntity
  8
0
100
AcDbCircle
 10
3.3280000000000003
 20
-3.8539999999999996
 30
0.0
 40
0.003
  0
CIRCLE
  5
1C6
330
17
100
AcDbEntity
  8
0
100
AcDbCircle
 10
3.4280000000000004
 20
-3.8539999999999996
 30
0.0
 40
0.003
  0
CIRCLE
  5
1C7
330
17
100
AcDbEntity
  8
0
100
AcDbCircle
 10
3.528
 20
-3.8539999999999996
 30
0.0
 40
0.003
  0
CIRCLE
  5
1C8
330
17
100
AcDbEntity
  8
0
100
AcDbCircle
 10
3.628
 20
-3.8539999999999996
 30
0.0
 40
0.003
  0
CIRCLE
  5
1C9
330
17
100
AcDbEntity
  8
0
100
AcDbCircle
 10
3.728
 20
-3.8539999999999996
 30
0.0
 40
0.003
  0
CIRCLE
  5
1CA
330
17
100
AcDbEntity
  8
0
100
AcDbCircle
 10
3.8280000000000003
 20
-3.8539999999999996
 30
0.0
 40
0.003
  0
CIRCLE
  5
1CB
330
17
100
AcDbEntity
  8
0
100
AcDbCircle
 10
3.9280000000000004
 20
-3.8539999999999996
 30
0.0
 40
0.003
  0
CIRCLE
  5
1CC
330
17
100
AcDbEntity
  8
0
100
AcDbCircle
 10
4.028
 20
-3.8539999999999996
 30
0.0
 40
0.003
  0
CIRCLE
  5
1CD
330
17
100
AcDbEntity
  8
0
100
AcDbCircle
 10
4.128
 20
-3.8539999999999996
 30
0.0
 40
0.003
  0
CIRCLE
  5
1CE
330
17
100
AcDbEntity
  8
0
100
AcDbCircle
 10
4.228
 20
-3.8539999999999996
 30
0.0
 40
0.003
  0
CIRCLE
  5
1CF
330
17
100
AcDbEntity
  8
0
100
AcDbCircle
 10
4.327999999999999
 20
-3.8539999999999996
 30
0.0
 40
0.003
  0
CIRCLE
  5
1D0
330
17
100
AcDbEntity
  8
0
100
AcDbCircle
 10
4.428
 20
-3.8539999999999996
 30
0.0
 40
0.003
  0
CIRCLE
  5
1D1
330
17
100
AcDbEntity
  8
0
100
AcDbCircle
 10
4.528
 20
-3.8539999999999996
 30
0.0
 40
0.003
  0
CIRCLE
  5
1D2
330
17
100
AcDbEntity
  8
0
100
AcDbCircle
 10
4.628
 20
-3.8539999999999996
 30
0.0
 40
0.003
  0
CIRCLE
  5
1D3
330
17
100
AcDbEntity
  8
0
100
AcDbCircle
 10
4.728
 20
-3.8539999999999996
 30
0.0
 40
0.003
  0
CIRCLE
  5
1D4
330
17
100
AcDbEntity
  8
0
100
AcDbCircle
 10
4.828
 20
-3.8539999999999996
 30
0.0
 40
0.003
  0
CIRCLE
  5
1D5
330
17
100
AcDbEntity
  8
0
100
AcDbCircle
 10
4.928
 20
-3.8539999999999996
 30
0.0
 40
0.003
  0
CIRCLE
  5
1D6
330
17
100
AcDbEntity
  8
0
100
AcDbCircle
 10
5.028
 20
-3.8539999999999996
 30
0.0
 40
0.003
  0
CIRCLE
  5
1D7
330
17
100
AcDbEntity
  8
0
100
AcDbCircle
 10
5.128
 20
-3.8539999999999996
 30
0.0
 40
0.003
  0
CIRCLE
  5
1D8
330
17
100
AcDbEntity
  8
0
100
AcDbCircle
 10
5.228
 20
-3.8539999999999996
 30
0.0
 40
0.003
  0
CIRCLE
  5
1D9
330
17
100
AcDbEntity
  8
0
100
AcDbCircle
 10
5.328
 20
-3.8539999999999996
 30
0.0
 40
0.003
  0
CIRCLE
  5
1DA
330
17
100
AcDbEntity
  8
0
100
AcDbCircle
 10
5.428
 20
-3.8539999999999996
 30
0.0
 40
0.003
  0
CIRCLE
  5
1DB
330
17
100
AcDbEntity
  8
0
100
AcDbCircle
 10
5.528
 20
-3.8539999999999996
 30
0.0
 40
0.003
  0
CIRCLE
  5
1DC
330
17
100
AcDbEntity
  8
0
100
AcDbCircle
 10
5.628
 20
-3.8539999999999996
 30
0.0
 40
0.003
  0
CIRCLE
  5
1DD
330
17
100
AcDbEntity
  8
0
100
AcDbCircle
 10
5.728
 20
-3.8539999999999996
 30
0.0
 40
0.003
  0
CIRCLE
  5
1DE
330
17
100
AcDbEntity
  8
0
100
AcDbCircle
 10
5.828
 20
-3.8539999999999996
 30
0.0
 40
0.003
  0
CIRCLE
  5
1DF
330
17
100
AcDbEntity
  8
0
100
AcDbCircle
 10
5.928000000000001
 20
-3.8539999999999996
 30
0.0
 40
0.003
  0
CIRCLE
  5
1E0
330
17
100
AcDbEntity
  8
0
100
AcDbCircle
 10
6.0280000000000005
 20
-3.8539999999999996
 30
0.0
 40
0.003
  0
CIRCLE
  5
1E1
330
17
100
AcDbEntity
  8
0
100
AcDbCircle
 10
6.128
 20
-3.8539999999999996
 30
0.0
 40
0.003
  0
CIRCLE
  5
1E2
330
17
100
AcDbEntity
  8
0
100
AcDbCircle
 10
6.228
 20
-3.8539999999999996
 30
0.0
 40
0.003
  0
CIRCLE
  5
1E3
330
17
100
AcDbEntity
  8
0
100
AcDbCircle
 10
6.328000000000001
 20
-3.8539999999999996
 30
0.0
 40
0.003
  0
CIRCLE
  5
1E4
330
17
100
AcDbEntity
  8
0
100
AcDbCircle
 10
6.428000000000001
 20
-3.8539999999999996
 30
0.0
 40
0.003
  0
CIRCLE
  5
1E5
330
17
100
AcDbEntity
  8
0
100
AcDbCircle
 10
6.5280000000000005
 20
-3.8539999999999996
 30
0.0
 40
0.003
  0
CIRCLE
  5
1E6
330
17
100
AcDbEntity
  8
0
100
AcDbCircle
 10
6.628
 20
-3.8539999999999996
 30
0.0
 40
0.003
  0
CIRCLE
  5
1E7
330
17
100
AcDbEntity
  8
0
100
AcDbCircle
 10
6.728
 20
-3.8539999999999996
 30
0.0
 40
0.003
  0
CIRCLE
  5
1E8
330
17
100
AcDbEntity
  8
0
100
AcDbCircle
 10
6.828000000000001
 20
-3.8539999999999996
 30
0.0
 40
0.003
  0
CIRCLE
  5
1E9
330
17
100
AcDbEntity
  8
0
100
AcDbCircle
 10
6.928000000000001
 20
-3.8539999999999996
 30
0.0
 40
0.003
  0
CIRCLE
  5
1EA
330
17
100
AcDbEntity
  8
0
100
AcDbCircle
 10
7.0280000000000005
 20
-3.8539999999999996
 30
0.0
 40
0.003
  0
CIRCLE
  5
1EB
330
17
100
AcDbEntity
  8
0
100
AcDbCircle
 10
7.128
 20
-3.853999999999999
 30
0.0
 40
0.003
  0
CIRCLE
  5
1EC
330
17
100
AcDbEntity
  8
0
100
AcDbCircle
 10
7.228
 20
-3.853999999999999
 30
0.0
 40
0.003
  0
CIRCLE
  5
1ED
330
17
100
AcDbEntity
  8
0
100
AcDbCircle
 10
7.328000000000001
 20
-3.853999999999999
 30
0.0
 40
0.003
  0
CIRCLE
  5
1EE
330
17
100
AcDbEntity
  8
0
100
AcDbCircle
 10
7.428000000000001
 20
-3.853999999999999
 30
0.0
 40
0.003
  0
CIRCLE
  5
1EF
330
17
100
AcDbEntity
  8
0
100
AcDbCircle
 10
7.5280000000000005
 20
-3.853999999999999
 30
0.0
 40
0.003
  0
CIRCLE
  5
1F0
330
17
100
AcDbEntity
  8
0
100
AcDbCircle
 10
7.628
 20
-3.853999999999999
 30
0.0
 40
0.003
  0
CIRCLE
  5
1F1
330
17
100
AcDbEntity
  8
0
100
AcDbCircle
 10
7.728
 20
-3.853999999999999
 30
0.0
 40
0.003
  0
CIRCLE
  5
1F2
330
17
100
AcDbEntity
  8
0
100
AcDbCircle
 10
7.828000000000001
 20
-3.853999999999999
 30
0.0
 40
0.003
  0
CIRCLE
  5
1F3
330
17
100
AcDbEntity
  8
0
100
AcDbCircle
 10
7.928000000000001
 20
-3.853999999999999
 30
0.0
 40
0.003
  0
CIRCLE
  5
1F4
330
17
100
AcDbEntity
  8
0
100
AcDbCircle
 10
8.028
 20
-3.853999999999999
 30
0.0
 40
0.003
  0
CIRCLE
  5
1F5
330
17
100
AcDbEntity
  8
0
100
AcDbCircle
 10
8.128
 20
-3.853999999999999
 30
0.0
 40
0.003
  0
CIRCLE
  5
1F6
330
17
100
AcDbEntity
  8
0
100
AcDbCircle
 10
8.228000000000002
 20
-3.853999999999999
 30
0.0
 40
0.003
  0
CIRCLE
  5
1F7
330
17
100
AcDbEntity
  8
0
100
AcDbCircle
 10
8.328000000000001
 20
-3.853999999999999
 30
0.0
 40
0.003
  0
CIRCLE
  5
1F8
330
17
100
AcDbEntity
  8
0
100
AcDbCircle
 10
8.428
 20
-3.853999999999999
 30
0.0
 40
0.003
  0
CIRCLE
  5
1F9
330
17
100
AcDbEntity
  8
0
100
AcDbCircle
 10
8.528
 20
-3.853999999999999
 30
0.0
 40
0.003
  0
CIRCLE
  5
1FA
330
17
100
AcDbEntity
  8
0
100
AcDbCircle
 10
8.628
 20
-3.853999999999999
 30
0.0
 40
0.003
  0
CIRCLE
  5
1FB
330
17
100
AcDbEntity
  8
0
100
AcDbCircle
 10
8.728000000000002
 20
-3.853999999999999
 30
0.0
 40
0.003
  0
CIRCLE
  5
1FC
330
17
100
AcDbEntity
  8
0
100
AcDbCircle
 10
8.828000000000001
 20
-3.853999999999999
 30
0.0
 40
0.003
  0
CIRCLE
  5
1FD
330
17
100
AcDbEntity
  8
0
100
AcDbCircle
 10
8.928
 20
-3.853999999999999
 30
0.0
 40
0.003
  0
CIRCLE
  5
1FE
330
17
100
AcDbEntity
  8
0
100
AcDbCircle
 10
9.028
 20
-3.853999999999999
 30
0.0
 40
0.003
  0
CIRCLE
  5
1FF
330
17
100
AcDbEntity
  8
0
100
AcDbCircle
 10
9.128
 20
-3.853999999999999
 30
0.0
 40
0.003
  0
CIRCLE
  5
200
330
17
100
AcDbEntity
  8
0
100
AcDbCircle
 10
9.228000000000002
 20
-3.853999999999999
 30
0.0
 40
0.003
  0
CIRCLE
  5
201
330
17
100
AcDbEntity
  8
0
100
AcDbCircle
 10
9.328000000000001
 20
-3.853999999999999
 30
0.0
 40
0.003
  0
CIRCLE
  5
202
330
17
100
AcDbEntity
  8
0
100
AcDbCircle
 10
9.428
 20
-3.853999999999999
 30
0.0
 40
0.003
  0
CIRCLE
  5
203
330
17
100
AcDbEntity
  8
0
100
AcDbCircle
 10
9.528
 20
-3.853999999999999
 30
0.0
 40
0.003
  0
CIRCLE
  5
204
330
17
100
AcDbEntity
  8
0
100
AcDbCircle
 10
9.628000000000002
 20
-3.853999999999999
 30
0.0
 40
0.003
  0
CIRCLE
  5
205
330
17
100
AcDbEntity
  8
0
100
AcDbCircle
 10
9.728000000000002
 20
-3.853999999999999
 30
0.0
 40
0.003
  0
CIRCLE
  5
206
330
17
100
AcDbEntity
  8
0
100
AcDbCircle
 10
9.828000000000001
 20
-3.853999999999999
 30
0.0
 40
0.003
  0
CIRCLE
  5
207
330
17
100
AcDbEntity
  8
0
100
AcDbCircle
 10
9.928
 20
-3.853999999999999
 30
0.0
 40
0.003
  0
LINE
  5
208
330
17
100
AcDbEntity
  8
0
100
AcDbLine
 10
0.6280000000000001
 20
-3.8539999999999996
 30
0.0
 11
0.8250000000000002
 21
-4.2509999999999994
 31
0.0
  0
LINE
  5
209
330
17
100
AcDbEntity
  8
0
100
AcDbLine
 10
0.7280000000000002
 20
-3.8539999999999996
 30
0.0
 11
0.8250000000000002
 21
-4.2509999999999994
 31
0.0
  0
LINE
  5
20A
330
17
100
AcDbEntity
  8
0
100
AcDbLine
 10
0.8279999999999998
 20
-3.8539999999999996
 30
0.0
 11
0.8250000000000002
 21
-4.2509999999999994
 31
0.0
  0
TEXT
  5
20B
330
17
100
AcDbEntity
  8
0
100
AcDbText
 10
0.8250000000000002
 20
-4.2509999999999994
 30
0.0
 40
0.05
  1
Ø0.006/ 0.1m.
 11
0.8250000000000002
 21
-4.2509999999999994
 31
0.0
100
AcDbText
  0
CIRCLE
  5
20C
330
17
100
AcDbEntity
  8
0
100
AcDbCircle
 10
0.03299999999999992
 20
-3.957
 30
0.0
 40
0.008
  0
CIRCLE
  5
20D
330
17
100
AcDbEntity
  8
0
100
AcDbCircle
 10
0.2330000000000001
 20
-3.957
 30
0.0
 40
0.008
  0
CIRCLE
  5
20E
330
17
100
AcDbEntity
  8
0
100
AcDbCircle
 10
0.43299999999999983
 20
-3.957
 30
0.0
 40
0.008
  0
CIRCLE
  5
20F
330
17
100
AcDbEntity
  8
0
100
AcDbCircle
 10
0.633
 20
-3.957
 30
0.0
 40
0.008
  0
CIRCLE
  5
210
330
17
100
AcDbEntity
  8
0
100
AcDbCircle
 10
0.8329999999999997
 20
-3.957
 30
0.0
 40
0.008
  0
CIRCLE
  5
211
330
17
100
AcDbEntity
  8
0
100
AcDbCircle
 10
1.033
 20
-3.957
 30
0.0
 40
0.008
  0
CIRCLE
  5
212
330
17
100
AcDbEntity
  8
0
100
AcDbCircle
 10
1.233
 20
-3.957
 30
0.0
 40
0.008
  0
CIRCLE
  5
213
330
17
100
AcDbEntity
  8
0
100
AcDbCircle
 10
1.4330000000000003
 20
-3.957
 30
0.0
 40
0.008
  0
CIRCLE
  5
214
330
17
100
AcDbEntity
  8
0
100
AcDbCircle
 10
1.633
 20
-3.957
 30
0.0
 40
0.008
  0
CIRCLE
  5
215
330
17
100
AcDbEntity
  8
0
100
AcDbCircle
 10
1.8329999999999997
 20
-3.9569999999999994
 30
0.0
 40
0.008
  0
CIRCLE
  5
216
330
17
100
AcDbEntity
  8
0
100
AcDbCircle
 10
2.033
 20
-3.9569999999999994
 30
0.0
 40
0.008
  0
CIRCLE
  5
217
330
17
100
AcDbEntity
  8
0
100
AcDbCircle
 10
2.233
 20
-3.9569999999999994
 30
0.0
 40
0.008
  0
CIRCLE
  5
218
330
17
100
AcDbEntity
  8
0
100
AcDbCircle
 10
2.4330000000000003
 20
-3.9569999999999994
 30
0.0
 40
0.008
  0
CIRCLE
  5
219
330
17
100
AcDbEntity
  8
0
100
AcDbCircle
 10
2.633
 20
-3.9569999999999994
 30
0.0
 40
0.008
  0
CIRCLE
  5
21A
330
17
100
AcDbEntity
  8
0
100
AcDbCircle
 10
2.833
 20
-3.9569999999999994
 30
0.0
 40
0.008
  0
CIRCLE
  5
21B
330
17
100
AcDbEntity
  8
0
100
AcDbCircle
 10
3.033
 20
-3.9569999999999994
 30
0.0
 40
0.008
  0
CIRCLE
  5
21C
330
17
100
AcDbEntity
  8
0
100
AcDbCircle
 10
3.233
 20
-3.9569999999999994
 30
0.0
 40
0.008
  0
CIRCLE
  5
21D
330
17
100
AcDbEntity
  8
0
100
AcDbCircle
 10
3.4330000000000003
 20
-3.9569999999999994
 30
0.0
 40
0.008
  0
CIRCLE
  5
21E
330
17
100
AcDbEntity
  8
0
100
AcDbCircle
 10
3.633
 20
-3.9569999999999994
 30
0.0
 40
0.008
  0
CIRCLE
  5
21F
330
17
100
AcDbEntity
  8
0
100
AcDbCircle
 10
3.833
 20
-3.9569999999999994
 30
0.0
 40
0.008
  0
CIRCLE
  5
220
330
17
100
AcDbEntity
  8
0
100
AcDbCircle
 10
4.0329999999999995
 20
-3.9569999999999994
 30
0.0
 40
0.008
  0
CIRCLE
  5
221
330
17
100
AcDbEntity
  8
0
100
AcDbCircle
 10
4.2330000000000005
 20
-3.9569999999999994
 30
0.0
 40
0.008
  0
CIRCLE
  5
222
330
17
100
AcDbEntity
  8
0
100
AcDbCircle
 10
4.433
 20
-3.9569999999999994
 30
0.0
 40
0.008
  0
CIRCLE
  5
223
330
17
100
AcDbEntity
  8
0
100
AcDbCircle
 10
4.633000000000001
 20
-3.9569999999999994
 30
0.0
 40
0.008
  0
CIRCLE
  5
224
330
17
100
AcDbEntity
  8
0
100
AcDbCircle
 10
4.833
 20
-3.9569999999999994
 30
0.0
 40
0.008
  0
CIRCLE
  5
225
330
17
100
AcDbEntity
  8
0
100
AcDbCircle
 10
5.0329999999999995
 20
-3.9569999999999994
 30
0.0
 40
0.008
  0
CIRCLE
  5
226
330
17
100
AcDbEntity
  8
0
100
AcDbCircle
 10
5.2330000000000005
 20
-3.9569999999999994
 30
0.0
 40
0.008
  0
CIRCLE
  5
227
330
17
100
AcDbEntity
  8
0
100
AcDbCircle
 10
5.433
 20
-3.9569999999999994
 30
0.0
 40
0.008
  0
CIRCLE
  5
228
330
17
100
AcDbEntity
  8
0
100
AcDbCircle
 10
5.633000000000001
 20
-3.9569999999999994
 30
0.0
 40
0.008
  0
CIRCLE
  5
229
330
17
100
AcDbEntity
  8
0
100
AcDbCircle
 10
5.833
 20
-3.9569999999999994
 30
0.0
 40
0.008
  0
CIRCLE
  5
22A
330
17
100
AcDbEntity
  8
0
100
AcDbCircle
 10
6.0329999999999995
 20
-3.9569999999999994
 30
0.0
 40
0.008
  0
CIRCLE
  5
22B
330
17
100
AcDbEntity
  8
0
100
AcDbCircle
 10
6.2330000000000005
 20
-3.9569999999999994
 30
0.0
 40
0.008
  0
CIRCLE
  5
22C
330
17
100
AcDbEntity
  8
0
100
AcDbCircle
 10
6.433
 20
-3.9569999999999994
 30
0.0
 40
0.008
  0
CIRCLE
  5
22D
330
17
100
AcDbEntity
  8
0
100
AcDbCircle
 10
6.633000000000001
 20
-3.9569999999999994
 30
0.0
 40
0.008
  0
CIRCLE
  5
22E
330
17
100
AcDbEntity
  8
0
100
AcDbCircle
 10
6.833
 20
-3.9569999999999994
 30
0.0
 40
0.008
  0
CIRCLE
  5
22F
330
17
100
AcDbEntity
  8
0
100
AcDbCircle
 10
7.0329999999999995
 20
-3.9569999999999994
 30
0.0
 40
0.008
  0
CIRCLE
  5
230
330
17
100
AcDbEntity
  8
0
100
AcDbCircle
 10
7.2330000000000005
 20
-3.9569999999999994
 30
0.0
 40
0.008
  0
CIRCLE
  5
231
330
17
100
AcDbEntity
  8
0
100
AcDbCircle
 10
7.433
 20
-3.9569999999999994
 30
0.0
 40
0.008
  0
CIRCLE
  5
232
330
17
100
AcDbEntity
  8
0
100
AcDbCircle
 10
7.633000000000001
 20
-3.9569999999999994
 30
0.0
 40
0.008
  0
CIRCLE
  5
233
330
17
100
AcDbEntity
  8
0
100
AcDbCircle
 10
7.833
 20
-3.9569999999999994
 30
0.0
 40
0.008
  0
CIRCLE
  5
234
330
17
100
AcDbEntity
  8
0
100
AcDbCircle
 10
8.033
 20
-3.9569999999999994
 30
0.0
 40
0.008
  0
CIRCLE
  5
235
330
17
100
AcDbEntity
  8
0
100
AcDbCircle
 10
8.233
 20
-3.9569999999999994
 30
0.0
 40
0.008
  0
CIRCLE
  5
236
330
17
100
AcDbEntity
  8
0
100
AcDbCircle
 10
8.433
 20
-3.9569999999999994
 30
0.0
 40
0.008
  0
CIRCLE
  5
237
330
17
100
AcDbEntity
  8
0
100
AcDbCircle
 10
8.633
 20
-3.9569999999999994
 30
0.0
 40
0.008
  0
CIRCLE
  5
238
330
17
100
AcDbEntity
  8
0
100
AcDbCircle
 10
8.833
 20
-3.9569999999999994
 30
0.0
 40
0.008
  0
CIRCLE
  5
239
330
17
100
AcDbEntity
  8
0
100
AcDbCircle
 10
9.033
 20
-3.956999999999999
 30
0.0
 40
0.008
  0
CIRCLE
  5
23A
330
17
100
AcDbEntity
  8
0
100
AcDbCircle
 10
9.233
 20
-3.956999999999999
 30
0.0
 40
0.008
  0
CIRCLE
  5
23B
330
17
100
AcDbEntity
  8
0
100
AcDbCircle
 10
9.433
 20
-3.956999999999999
 30
0.0
 40
0.008
  0
CIRCLE
  5
23C
330
17
100
AcDbEntity
  8
0
100
AcDbCircle
 10
9.633000000000001
 20
-3.956999999999999
 30
0.0
 40
0.008
  0
CIRCLE
  5
23D
330
17
100
AcDbEntity
  8
0
100
AcDbCircle
 10
9.833
 20
-3.956999999999999
 30
0.0
 40
0.008
  0
LINE
  5
23E
330
17
100
AcDbEntity
  8
0
100
AcDbLine
 10
1.633
 20
-3.957
 30
0.0
 11
1.8250000000000002
 21
-4.348999999999999
 31
0.0
  0
LINE
  5
23F
330
17
100
AcDbEntity
  8
0
100
AcDbLine
 10
1.8329999999999997
 20
-3.9569999999999994
 30
0.0
 11
1.8250000000000002
 21
-4.348999999999999
 31
0.0
  0
LINE
  5
240
330
17
100
AcDbEntity
  8
0
100
AcDbLine
 10
2.033
 20
-3.9569999999999994
 30
0.0
 11
1.8250000000000002
 21
-4.348999999999999
 31
0.0
  0
TEXT
  5
241
330
17
100
AcDbEntity
  8
0
100
AcDbText
 10
1.8250000000000002
 20
-4.348999999999999
 30
0.0
 40
0.05
  1
Ø0.016/ 0.2m.
 11
1.8250000000000002
 21
-4.348999999999999
 31
0.0
100
AcDbText
  0
LINE
  5
242
330
17
100
AcDbEntity
  8
0
100
AcDbLine
 10
0.025
 20
-3.8389999999999995
 30
0.0
 11
9.975
 21
-3.8389999999999995
 31
0.0
  0
LINE
  5
243
330
17
100
AcDbEntity
  8
0
100
AcDbLine
 10
0.025
 20
-3.8509999999999995
 30
0.0
 11
9.975
 21
-3.8509999999999995
 31
0.0
  0
LINE
  5
244
330
17
100
AcDbEntity
  8
0
100
AcDbLine
 10
9.975
 20
-3.8509999999999995
 30
0.0
 11
9.975
 21
-3.8389999999999995
 31
0.0
  0
LINE
  5
245
330
17
100
AcDbEntity
  8
0
100
AcDbLine
 10
0.025
 20
-3.8509999999999995
 30
0.0
 11
0.025
 21
-3.8389999999999995
 31
0.0
  0
LINE
  5
246
330
17
100
AcDbEntity
  8
0
100
AcDbLine
 10
0.025
 20
-3.9850000000000003
 30
0.0
 11
9.975
 21
-3.9850000000000003
 31
0.0
  0
LINE
  5
247
330
17
100
AcDbEntity
  8
0
100
AcDbLine
 10
0.025
 20
-3.9650000000000003
 30
0.0
 11
9.975
 21
-3.9650000000000003
 31
0.0
  0
LINE
  5
248
330
17
100
AcDbEntity
  8
0
100
AcDbLine
 10
9.975
 20
-3.9650000000000003
 30
0.0
 11
9.975
 21
-3.9850000000000003
 31
0.0
  0
LINE
  5
249
330
17
100
AcDbEntity
  8
0
100
AcDbLine
 10
0.025
 20
-3.9650000000000003
 30
0.0
 11
0.025
 21
-3.9850000000000003
 31
0.0
  0
LINE
  5
24A
330
17
100
AcDbEntity
  8
0
100
AcDbLine
 10
10.0
 20
-6.0
 30
0.0
 11
10.0
 21
-5.82
 31
0.0
  0
LINE
  5
24B
330
17
100
AcDbEntity
  8
0
100
AcDbLine
 10
0.0
 20
-6.0
 30
0.0
 11
0.0
 21
-5.82
 31
0.0
  0
LINE
  5
24C
330
17
100
AcDbEntity
  8
0
100
AcDbLine
 10
0.0
 20
-6.0
 30
0.0
 11
10.0
 21
-6.0
 31
0.0
  0
LINE
  5
24D
330
17
100
AcDbEntity
  8
0
100
AcDbLine
 10
0.0
 20
-5.82
 30
0.0
 11
10.0
 21
-5.82
 31
0.0
  0
DIMENSION
  5
24E
330
17
100
AcDbEntity
  8
0
100
AcDbDimension
280
0
  2
*D7
  3
EZ_M_25_H25_CM
 10
0.0
 20
-5.7700000000000005
 30
0.0
 11
5.0
 21
-5.71375
 31
0.0
 70
32
 71
5
  1
<>
100
AcDbAlignedDimension
 13
0.0
 23
-5.82
 33
0.0
 14
10.0
 24
-5.82
 34
0.0
 50
0.0
100
AcDbRotatedDimension
  0
DIMENSION
  5
25D
330
17
100
AcDbEntity
  8
0
100
AcDbDimension
280
0
  2
*D8
  3
EZ_M_25_H25_CM
 10
-0.05
 20
-6.0
 30
0.0
 11
-0.10625000000000001
 21
-5.91
 31
0.0
 70
32
 71
5
  1
<>
100
AcDbAlignedDimension
 13
0.0
 23
-6.0
 33
0.0
 14
0.0
 24
-5.82
 34
0.0
 50
90.0
100
AcDbRotatedDimension
  0
CIRCLE
  5
26C
330
17
100
AcDbEntity
  8
0
100
AcDbCircle
 10
0.02800000000000047
 20
-5.848
 30
0.0
 40
0.003
  0
CIRCLE
  5
26D
330
17
100
AcDbEntity
  8
0
100
AcDbCircle
 10
0.1280000000000001
 20
-5.848
 30
0.0
 40
0.003
  0
CIRCLE
  5
26E
330
17
100
AcDbEntity
  8
0
100
AcDbCircle
 10
0.22800000000000065
 20
-5.848
 30
0.0
 40
0.003
  0
CIRCLE
  5
26F
330
17
100
AcDbEntity
  8
0
100
AcDbCircle
 10
0.3280000000000003
 20
-5.848
 30
0.0
 40
0.003
  0
CIRCLE
  5
270
330
17
100
AcDbEntity
  8
0
100
AcDbCircle
 10
0.4280000000000008
 20
-5.848
 30
0.0
 40
0.003
  0
CIRCLE
  5
271
330
17
100
AcDbEntity
  8
0
100
AcDbCircle
 10
0.5280000000000005
 20
-5.848
 30
0.0
 40
0.003
  0
CIRCLE
  5
272
330
17
100
AcDbEntity
  8
0
100
AcDbCircle
 10
0.628000000000001
 20
-5.848
 30
0.0
 40
0.003
  0
CIRCLE
  5
273
330
17
100
AcDbEntity
  8
0
100
AcDbCircle
 10
0.7280000000000006
 20
-5.848
 30
0.0
 40
0.003
  0
CIRCLE
  5
274
330
17
100
AcDbEntity
  8
0
100
AcDbCircle
 10
0.8280000000000003
 20
-5.848
 30
0.0
 40
0.003
  0
CIRCLE
  5
275
330
17
100
AcDbEntity
  8
0
100
AcDbCircle
 10
0.9280000000000008
 20
-5.848
 30
0.0
 40
0.003
  0
CIRCLE
  5
276
330
17
100
AcDbEntity
  8
0
100
AcDbCircle
 10
1.0280000000000005
 20
-5.848
 30
0.0
 40
0.003
  0
CIRCLE
  5
277
330
17
100
AcDbEntity
  8
0
100
AcDbCircle
 10
1.128000000000001
 20
-5.848
 30
0.0
 40
0.003
  0
CIRCLE
  5
278
330
17
100
AcDbEntity
  8
0
100
AcDbCircle
 10
1.2280000000000006
 20
-5.848
 30
0.0
 40
0.003
  0
CIRCLE
  5
279
330
17
100
AcDbEntity
  8
0
100
AcDbCircle
 10
1.3280000000000003
 20
-5.848
 30
0.0
 40
0.003
  0
CIRCLE
  5
27A
330
17
100
AcDbEntity
  8
0
100
AcDbCircle
 10
1.4280000000000008
 20
-5.848
 30
0.0
 40
0.003
  0
CIRCLE
  5
27B
330
17
100
AcDbEntity
  8
0
100
AcDbCircle
 10
1.5280000000000005
 20
-5.848
 30
0.0
 40
0.003
  0
CIRCLE
  5
27C
330
17
100
AcDbEntity
  8
0
100
AcDbCircle
 10
1.628000000000001
 20
-5.848
 30
0.0
 40
0.003
  0
CIRCLE
  5
27D
330
17
100
AcDbEntity
  8
0
100
AcDbCircle
 10
1.7280000000000006
 20
-5.848
 30
0.0
 40
0.003
  0
CIRCLE
  5
27E
330
17
100
AcDbEntity
  8
0
100
AcDbCircle
 10
1.8280000000000003
 20
-5.848
 30
0.0
 40
0.003
  0
CIRCLE
  5
27F
330
17
100
AcDbEntity
  8
0
100
AcDbCircle
 10
1.9280000000000008
 20
-5.848
 30
0.0
 40
0.003
  0
CIRCLE
  5
280
330
17
100
AcDbEntity
  8
0
100
AcDbCircle
 10
2.0280000000000005
 20
-5.848
 30
0.0
 40
0.003
  0
CIRCLE
  5
281
330
17
100
AcDbEntity
  8
0
100
AcDbCircle
 10
2.1280000000000006
 20
-5.848
 30
0.0
 40
0.003
  0
CIRCLE
  5
282
330
17
100
AcDbEntity
  8
0
100
AcDbCircle
 10
2.2280000000000006
 20
-5.848
 30
0.0
 40
0.003
  0
CIRCLE
  5
283
330
17
100
AcDbEntity
  8
0
100
AcDbCircle
 10
2.3280000000000007
 20
-5.848
 30
0.0
 40
0.003
  0
CIRCLE
  5
284
330
17
100
AcDbEntity
  8
0
100
AcDbCircle
 10
2.428000000000001
 20
-5.848
 30
0.0
 40
0.003
  0
CIRCLE
  5
285
330
17
100
AcDbEntity
  8
0
100
AcDbCircle
 10
2.5280000000000005
 20
-5.848
 30
0.0
 40
0.003
  0
CIRCLE
  5
286
330
17
100
AcDbEntity
  8
0
100
AcDbCircle
 10
2.6280000000000006
 20
-5.848
 30
0.0
 40
0.003
  0
CIRCLE
  5
287
330
17
100
AcDbEntity
  8
0
100
AcDbCircle
 10
2.7280000000000006
 20
-5.848
 30
0.0
 40
0.003
  0
CIRCLE
  5
288
330
17
100
AcDbEntity
  8
0
100
AcDbCircle
 10
2.8280000000000007
 20
-5.848
 30
0.0
 40
0.003
  0
CIRCLE
  5
289
330
17
100
AcDbEntity
  8
0
100
AcDbCircle
 10
2.928000000000001
 20
-5.848
 30
0.0
 40
0.003
  0
CIRCLE
  5
28A
330
17
100
AcDbEntity
  8
0
100
AcDbCircle
 10
3.0280000000000005
 20
-5.848
 30
0.0
 40
0.003
  0
CIRCLE
  5
28B
330
17
100
AcDbEntity
  8
0
100
AcDbCircle
 10
3.1280000000000006
 20
-5.848
 30
0.0
 40
0.003
  0
CIRCLE
  5
28C
330
17
100
AcDbEntity
  8
0
100
AcDbCircle
 10
3.2280000000000006
 20
-5.848
 30
0.0
 40
0.003
  0
CIRCLE
  5
28D
330
17
100
AcDbEntity
  8
0
100
AcDbCircle
 10
3.3280000000000007
 20
-5.848
 30
0.0
 40
0.003
  0
CIRCLE
  5
28E
330
17
100
AcDbEntity
  8
0
100
AcDbCircle
 10
3.428000000000001
 20
-5.848
 30
0.0
 40
0.003
  0
CIRCLE
  5
28F
330
17
100
AcDbEntity
  8
0
100
AcDbCircle
 10
3.5280000000000005
 20
-5.848
 30
0.0
 40
0.003
  0
CIRCLE
  5
290
330
17
100
AcDbEntity
  8
0
100
AcDbCircle
 10
3.6280000000000006
 20
-5.848
 30
0.0
 40
0.003
  0
CIRCLE
  5
291
330
17
100
AcDbEntity
  8
0
100
AcDbCircle
 10
3.7280000000000006
 20
-5.848
 30
0.0
 40
0.003
  0
CIRCLE
  5
292
330
17
100
AcDbEntity
  8
0
100
AcDbCircle
 10
3.8280000000000007
 20
-5.848
 30
0.0
 40
0.003
  0
CIRCLE
  5
293
330
17
100
AcDbEntity
  8
0
100
AcDbCircle
 10
3.928000000000001
 20
-5.848
 30
0.0
 40
0.003
  0
CIRCLE
  5
294
330
17
100
AcDbEntity
  8
0
100
AcDbCircle
 10
4.0280000000000005
 20
-5.848
 30
0.0
 40
0.003
  0
CIRCLE
  5
295
330
17
100
AcDbEntity
  8
0
100
AcDbCircle
 10
4.128000000000001
 20
-5.848
 30
0.0
 40
0.003
  0
CIRCLE
  5
296
330
17
100
AcDbEntity
  8
0
100
AcDbCircle
 10
4.228000000000001
 20
-5.848
 30
0.0
 40
0.003
  0
CIRCLE
  5
297
330
17
100
AcDbEntity
  8
0
100
AcDbCircle
 10
4.328
 20
-5.848
 30
0.0
 40
0.003
  0
CIRCLE
  5
298
330
17
100
AcDbEntity
  8
0
100
AcDbCircle
 10
4.428000000000001
 20
-5.848
 30
0.0
 40
0.003
  0
CIRCLE
  5
299
330
17
100
AcDbEntity
  8
0
100
AcDbCircle
 10
4.5280000000000005
 20
-5.848
 30
0.0
 40
0.003
  0
CIRCLE
  5
29A
330
17
100
AcDbEntity
  8
0
100
AcDbCircle
 10
4.628000000000001
 20
-5.848
 30
0.0
 40
0.003
  0
CIRCLE
  5
29B
330
17
100
AcDbEntity
  8
0
100
AcDbCircle
 10
4.728000000000001
 20
-5.848
 30
0.0
 40
0.003
  0
CIRCLE
  5
29C
330
17
100
AcDbEntity
  8
0
100
AcDbCircle
 10
4.828000000000001
 20
-5.848
 30
0.0
 40
0.003
  0
CIRCLE
  5
29D
330
17
100
AcDbEntity
  8
0
100
AcDbCircle
 10
4.928000000000001
 20
-5.848
 30
0.0
 40
0.003
  0
CIRCLE
  5
29E
330
17
100
AcDbEntity
  8
0
100
AcDbCircle
 10
5.0280000000000005
 20
-5.848
 30
0.0
 40
0.003
  0
CIRCLE
  5
29F
330
17
100
AcDbEntity
  8
0
100
AcDbCircle
 10
5.128000000000001
 20
-5.848
 30
0.0
 40
0.003
  0
CIRCLE
  5
2A0
330
17
100
AcDbEntity
  8
0
100
AcDbCircle
 10
5.228000000000001
 20
-5.848
 30
0.0
 40
0.003
  0
CIRCLE
  5
2A1
330
17
100
AcDbEntity
  8
0
100
AcDbCircle
 10
5.328000000000001
 20
-5.848
 30
0.0
 40
0.003
  0
CIRCLE
  5
2A2
330
17
100
AcDbEntity
  8
0
100
AcDbCircle
 10
5.428000000000001
 20
-5.848
 30
0.0
 40
0.003
  0
CIRCLE
  5
2A3
330
17
100
AcDbEntity
  8
0
100
AcDbCircle
 10
5.5280000000000005
 20
-5.847999999999999
 30
0.0
 40
0.003
  0
CIRCLE
  5
2A4
330
17
100
AcDbEntity
  8
0
100
AcDbCircle
 10
5.628000000000001
 20
-5.847999999999999
 30
0.0
 40
0.003
  0
CIRCLE
  5
2A5
330
17
100
AcDbEntity
  8
0
100
AcDbCircle
 10
5.728000000000001
 20
-5.847999999999999
 30
0.0
 40
0.003
  0
CIRCLE
  5
2A6
330
17
100
AcDbEntity
  8
0
100
AcDbCircle
 10
5.828000000000001
 20
-5.847999999999999
 30
0.0
 40
0.003
  0
CIRCLE
  5
2A7
330
17
100
AcDbEntity
  8
0
100
AcDbCircle
 10
5.928000000000001
 20
-5.847999999999999
 30
0.0
 40
0.003
  0
CIRCLE
  5
2A8
330
17
100
AcDbEntity
  8
0
100
AcDbCircle
 10
6.0280000000000005
 20
-5.847999999999999
 30
0.0
 40
0.003
  0
CIRCLE
  5
2A9
330
17
100
AcDbEntity
  8
0
100
AcDbCircle
 10
6.128000000000001
 20
-5.847999999999999
 30
0.0
 40
0.003
  0
CIRCLE
  5
2AA
330
17
100
AcDbEntity
  8
0
100
AcDbCircle
 10
6.228000000000001
 20
-5.847999999999999
 30
0.0
 40
0.003
  0
CIRCLE
  5
2AB
330
17
100
AcDbEntity
  8
0
100
AcDbCircle
 10
6.328000000000001
 20
-5.847999999999999
 30
0.0
 40
0.003
  0
CIRCLE
  5
2AC
330
17
100
AcDbEntity
  8
0
100
AcDbCircle
 10
6.428000000000001
 20
-5.847999999999999
 30
0.0
 40
0.003
  0
CIRCLE
  5
2AD
330
17
100
AcDbEntity
  8
0
100
AcDbCircle
 10
6.5280000000000005
 20
-5.847999999999999
 30
0.0
 40
0.003
  0
CIRCLE
  5
2AE
330
17
100
AcDbEntity
  8
0
100
AcDbCircle
 10
6.628000000000001
 20
-5.847999999999999
 30
0.0
 40
0.003
  0
CIRCLE
  5
2AF
330
17
100
AcDbEntity
  8
0
100
AcDbCircle
 10
6.728000000000001
 20
-5.847999999999999
 30
0.0
 40
0.003
  0
CIRCLE
  5
2B0
330
17
100
AcDbEntity
  8
0
100
AcDbCircle
 10
6.828000000000001
 20
-5.847999999999999
 30
0.0
 40
0.003
  0
CIRCLE
  5
2B1
330
17
100
AcDbEntity
  8
0
100
AcDbCircle
 10
6.928000000000001
 20
-5.847999999999999
 30
0.0
 40
0.003
  0
CIRCLE
  5
2B2
330
17
100
AcDbEntity
  8
0
100
AcDbCircle
 10
7.0280000000000005
 20
-5.847999999999999
 30
0.0
 40
0.003
  0
CIRCLE
  5
2B3
330
17
100
AcDbEntity
  8
0
100
AcDbCircle
 10
7.128000000000001
 20
-5.847999999999999
 30
0.0
 40
0.003
  0
CIRCLE
  5
2B4
330
17
100
AcDbEntity
  8
0
100
AcDbCircle
 10
7.228000000000001
 20
-5.847999999999999
 30
0.0
 40
0.003
  0
CIRCLE
  5
2B5
330
17
100
AcDbEntity
  8
0
100
AcDbCircle
 10
7.328000000000001
 20
-5.847999999999999
 30
0.0
 40
0.003
  0
CIRCLE
  5
2B6
330
17
100
AcDbEntity
  8
0
100
AcDbCircle
 10
7.428000000000001
 20
-5.847999999999999
 30
0.0
 40
0.003
  0
CIRCLE
  5
2B7
330
17
100
AcDbEntity
  8
0
100
AcDbCircle
 10
7.5280000000000005
 20
-5.847999999999999
 30
0.0
 40
0.003
  0
CIRCLE
  5
2B8
330
17
100
AcDbEntity
  8
0
100
AcDbCircle
 10
7.628000000000001
 20
-5.847999999999999
 30
0.0
 40
0.003
  0
CIRCLE
  5
2B9
330
17
100
AcDbEntity
  8
0
100
AcDbCircle
 10
7.728000000000001
 20
-5.847999999999999
 30
0.0
 40
0.003
  0
CIRCLE
  5
2BA
330
17
100
AcDbEntity
  8
0
100
AcDbCircle
 10
7.828000000000001
 20
-5.847999999999999
 30
0.0
 40
0.003
  0
CIRCLE
  5
2BB
330
17
100
AcDbEntity
  8
0
100
AcDbCircle
 10
7.928000000000001
 20
-5.847999999999999
 30
0.0
 40
0.003
  0
CIRCLE
  5
2BC
330
17
100
AcDbEntity
  8
0
100
AcDbCircle
 10
8.028
 20
-5.847999999999999
 30
0.0
 40
0.003
  0
CIRCLE
  5
2BD
330
17
100
AcDbEntity
  8
0
100
AcDbCircle
 10
8.128
 20
-5.847999999999999
 30
0.0
 40
0.003
  0
CIRCLE
  5
2BE
330
17
100
AcDbEntity
  8
0
100
AcDbCircle
 10
8.228000000000002
 20
-5.847999999999999
 30
0.0
 40
0.003
  0
CIRCLE
  5
2BF
330
17
100
AcDbEntity
  8
0
100
AcDbCircle
 10
8.328000000000001
 20
-5.847999999999999
 30
0.0
 40
0.003
  0
CIRCLE
  5
2C0
330
17
100
AcDbEntity
  8
0
100
AcDbCircle
 10
8.428
 20
-5.847999999999999
 30
0.0
 40
0.003
  0
CIRCLE
  5
2C1
330
17
100
AcDbEntity
  8
0
100
AcDbCircle
 10
8.528
 20
-5.847999999999999
 30
0.0
 40
0.003
  0
CIRCLE
  5
2C2
330
17
100
AcDbEntity
  8
0
100
AcDbCircle
 10
8.628
 20
-5.847999999999999
 30
0.0
 40
0.003
  0
CIRCLE
  5
2C3
330
17
100
AcDbEntity
  8
0
100
AcDbCircle
 10
8.728000000000002
 20
-5.847999999999999
 30
0.0
 40
0.003
  0
CIRCLE
  5
2C4
330
17
100
AcDbEntity
  8
0
100
AcDbCircle
 10
8.828000000000001
 20
-5.847999999999999
 30
0.0
 40
0.003
  0
CIRCLE
  5
2C5
330
17
100
AcDbEntity
  8
0
100
AcDbCircle
 10
8.928
 20
-5.847999999999999
 30
0.0
 40
0.003
  0
CIRCLE
  5
2C6
330
17
100
AcDbEntity
  8
0
100
AcDbCircle
 10
9.028
 20
-5.847999999999999
 30
0.0
 40
0.003
  0
CIRCLE
  5
2C7
330
17
100
AcDbEntity
  8
0
100
AcDbCircle
 10
9.128
 20
-5.847999999999999
 30
0.0
 40
0.003
  0
CIRCLE
  5
2C8
330
17
100
AcDbEntity
  8
0
100
AcDbCircle
 10
9.228000000000002
 20
-5.847999999999999
 30
0.0
 40
0.003
  0
CIRCLE
  5
2C9
330
17
100
AcDbEntity
  8
0
100
AcDbCircle
 10
9.328000000000001
 20
-5.847999999999999
 30
0.0
 40
0.003
  0
CIRCLE
  5
2CA
330
17
100
AcDbEntity
  8
0
100
AcDbCircle
 10
9.428
 20
-5.847999999999999
 30
0.0
 40
0.003
  0
CIRCLE
  5
2CB
330
17
100
AcDbEntity
  8
0
100
AcDbCircle
 10
9.528
 20
-5.847999999999999
 30
0.0
 40
0.003
  0
CIRCLE
  5
2CC
330
17
100
AcDbEntity
  8
0
100
AcDbCircle
 10
9.628000000000002
 20
-5.847999999999999
 30
0.0
 40
0.003
  0
CIRCLE
  5
2CD
330
17
100
AcDbEntity
  8
0
100
AcDbCircle
 10
9.728000000000002
 20
-5.847999999999999
 30
0.0
 40
0.003
  0
CIRCLE
  5
2CE
330
17
100
AcDbEntity
  8
0
100
AcDbCircle
 10
9.828000000000001
 20
-5.847999999999999
 30
0.0
 40
0.003
  0
CIRCLE
  5
2CF
330
17
100
AcDbEntity
  8
0
100
AcDbCircle
 10
9.928
 20
-5.847999999999999
 30
0.0
 40
0.003
  0
LINE
  5
2D0
330
17
100
AcDbEntity
  8
0
100
AcDbLine
 10
0.628000000000001
 20
-5.848
 30
0.0
 11
0.8250000000000011
 21
-6.245
 31
0.0
  0
LINE
  5
2D1
330
17
100
AcDbEntity
  8
0
100
AcDbLine
 10
0.7280000000000006
 20
-5.848
 30
0.0
 11
0.8250000000000011
 21
-6.245
 31
0.0
  0
LINE
  5
2D2
330
17
100
AcDbEntity
  8
0
100
AcDbLine
 10
0.8280000000000003
 20
-5.848
 30
0.0
 11
0.8250000000000011
 21
-6.245
 31
0.0
  0
TEXT
  5
2D3
330
17
100
AcDbEntity
  8
0
100
AcDbText
 10
0.8250000000000011
 20
-6.245
 30
0.0
 40
0.05
  1
Ø0.006/ 0.1m.
 11
0.8250000000000011
 21
-6.245
 31
0.0
100
AcDbText
  0
CIRCLE
  5
2D4
330
17
100
AcDbEntity
  8
0
100
AcDbCircle
 10
0.03300000000000036
 20
-5.967
 30
0.0
 40
0.008
  0
CIRCLE
  5
2D5
330
17
100
AcDbEntity
  8
0
100
AcDbCircle
 10
0.23300000000000054
 20
-5.967
 30
0.0
 40
0.008
  0
CIRCLE
  5
2D6
330
17
100
AcDbEntity
  8
0
100
AcDbCircle
 10
0.4330000000000007
 20
-5.967
 30
0.0
 40
0.008
  0
CIRCLE
  5
2D7
330
17
100
AcDbEntity
  8
0
100
AcDbCircle
 10
0.633
 20
-5.967
 30
0.0
 40
0.008
  0
CIRCLE
  5
2D8
330
17
100
AcDbEntity
  8
0
100
AcDbCircle
 10
0.8330000000000002
 20
-5.967
 30
0.0
 40
0.008
  0
CIRCLE
  5
2D9
330
17
100
AcDbEntity
  8
0
100
AcDbCircle
 10
1.0330000000000004
 20
-5.967
 30
0.0
 40
0.008
  0
CIRCLE
  5
2DA
330
17
100
AcDbEntity
  8
0
100
AcDbCircle
 10
1.2330000000000005
 20
-5.967
 30
0.0
 40
0.008
  0
CIRCLE
  5
2DB
330
17
100
AcDbEntity
  8
0
100
AcDbCircle
 10
1.4330000000000007
 20
-5.967
 30
0.0
 40
0.008
  0
CIRCLE
  5
2DC
330
17
100
AcDbEntity
  8
0
100
AcDbCircle
 10
1.633
 20
-5.967
 30
0.0
 40
0.008
  0
CIRCLE
  5
2DD
330
17
100
AcDbEntity
  8
0
100
AcDbCircle
 10
1.8330000000000002
 20
-5.967
 30
0.0
 40
0.008
  0
CIRCLE
  5
2DE
330
17
100
AcDbEntity
  8
0
100
AcDbCircle
 10
2.0330000000000004
 20
-5.967
 30
0.0
 40
0.008
  0
CIRCLE
  5
2DF
330
17
100
AcDbEntity
  8
0
100
AcDbCircle
 10
2.2330000000000005
 20
-5.967
 30
0.0
 40
0.008
  0
CIRCLE
  5
2E0
330
17
100
AcDbEntity
  8
0
100
AcDbCircle
 10
2.4330000000000007
 20
-5.967
 30
0.0
 40
0.008
  0
CIRCLE
  5
2E1
330
17
100
AcDbEntity
  8
0
100
AcDbCircle
 10
2.6330000000000005
 20
-5.967
 30
0.0
 40
0.008
  0
CIRCLE
  5
2E2
330
17
100
AcDbEntity
  8
0
100
AcDbCircle
 10
2.8330000000000006
 20
-5.967
 30
0.0
 40
0.008
  0
CIRCLE
  5
2E3
330
17
100
AcDbEntity
  8
0
100
AcDbCircle
 10
3.0330000000000004
 20
-5.967
 30
0.0
 40
0.008
  0
CIRCLE
  5
2E4
330
17
100
AcDbEntity
  8
0
100
AcDbCircle
 10
3.2330000000000005
 20
-5.967
 30
0.0
 40
0.008
  0
CIRCLE
  5
2E5
330
17
100
AcDbEntity
  8
0
100
AcDbCircle
 10
3.4330000000000007
 20
-5.967
 30
0.0
 40
0.008
  0
CIRCLE
  5
2E6
330
17
100
AcDbEntity
  8
0
100
AcDbCircle
 10
3.6330000000000005
 20
-5.967
 30
0.0
 40
0.008
  0
CIRCLE
  5
2E7
330
17
100
AcDbEntity
  8
0
100
AcDbCircle
 10
3.8330000000000006
 20
-5.967
 30
0.0
 40
0.008
  0
CIRCLE
  5
2E8
330
17
100
AcDbEntity
  8
0
100
AcDbCircle
 10
4.033
 20
-5.967
 30
0.0
 40
0.008
  0
CIRCLE
  5
2E9
330
17
100
AcDbEntity
  8
0
100
AcDbCircle
 10
4.2330000000000005
 20
-5.967
 30
0.0
 40
0.008
  0
CIRCLE
  5
2EA
330
17
100
AcDbEntity
  8
0
100
AcDbCircle
 10
4.433000000000001
 20
-5.967
 30
0.0
 40
0.008
  0
CIRCLE
  5
2EB
330
17
100
AcDbEntity
  8
0
100
AcDbCircle
 10
4.633000000000001
 20
-5.967
 30
0.0
 40
0.008
  0
CIRCLE
  5
2EC
330
17
100
AcDbEntity
  8
0
100
AcDbCircle
 10
4.833000000000001
 20
-5.967
 30
0.0
 40
0.008
  0
CIRCLE
  5
2ED
330
17
100
AcDbEntity
  8
0
100
AcDbCircle
 10
5.033
 20
-5.967
 30
0.0
 40
0.008
  0
CIRCLE
  5
2EE
330
17
100
AcDbEntity
  8
0
100
AcDbCircle
 10
5.2330000000000005
 20
-5.967
 30
0.0
 40
0.008
  0
CIRCLE
  5
2EF
330
17
100
AcDbEntity
  8
0
100
AcDbCircle
 10
5.433000000000001
 20
-5.967
 30
0.0
 40
0.008
  0
CIRCLE
  5
2F0
330
17
100
AcDbEntity
  8
0
100
AcDbCircle
 10
5.633000000000001
 20
-5.967
 30
0.0
 40
0.008
  0
CIRCLE
  5
2F1
330
17
100
AcDbEntity
  8
0
100
AcDbCircle
 10
5.833000000000001
 20
-5.967
 30
0.0
 40
0.008
  0
CIRCLE
  5
2F2
330
17
100
AcDbEntity
  8
0
100
AcDbCircle
 10
6.033
 20
-5.967
 30
0.0
 40
0.008
  0
CIRCLE
  5
2F3
330
17
100
AcDbEntity
  8
0
100
AcDbCircle
 10
6.2330000000000005
 20
-5.967
 30
0.0
 40
0.008
  0
CIRCLE
  5
2F4
330
17
100
AcDbEntity
  8
0
100
AcDbCircle
 10
6.433000000000001
 20
-5.967
 30
0.0
 40
0.008
  0
CIRCLE
  5
2F5
330
17
100
AcDbEntity
  8
0
100
AcDbCircle
 10
6.633000000000001
 20
-5.967
 30
0.0
 40
0.008
  0
CIRCLE
  5
2F6
330
17
100
AcDbEntity
  8
0
100
AcDbCircle
 10
6.833000000000001
 20
-5.967
 30
0.0
 40
0.008
  0
CIRCLE
  5
2F7
330
17
100
AcDbEntity
  8
0
100
AcDbCircle
 10
7.033
 20
-5.967
 30
0.0
 40
0.008
  0
CIRCLE
  5
2F8
330
17
100
AcDbEntity
  8
0
100
AcDbCircle
 10
7.2330000000000005
 20
-5.967
 30
0.0
 40
0.008
  0
CIRCLE
  5
2F9
330
17
100
AcDbEntity
  8
0
100
AcDbCircle
 10
7.433000000000001
 20
-5.966999999999999
 30
0.0
 40
0.008
  0
CIRCLE
  5
2FA
330
17
100
AcDbEntity
  8
0
100
AcDbCircle
 10
7.633000000000001
 20
-5.966999999999999
 30
0.0
 40
0.008
  0
CIRCLE
  5
2FB
330
17
100
AcDbEntity
  8
0
100
AcDbCircle
 10
7.833000000000001
 20
-5.966999999999999
 30
0.0
 40
0.008
  0
CIRCLE
  5
2FC
330
17
100
AcDbEntity
  8
0
100
AcDbCircle
 10
8.033000000000001
 20
-5.966999999999999
 30
0.0
 40
0.008
  0
CIRCLE
  5
2FD
330
17
100
AcDbEntity
  8
0
100
AcDbCircle
 10
8.233
 20
-5.966999999999999
 30
0.0
 40
0.008
  0
CIRCLE
  5
2FE
330
17
100
AcDbEntity
  8
0
100
AcDbCircle
 10
8.433
 20
-5.966999999999999
 30
0.0
 40
0.008
  0
CIRCLE
  5
2FF
330
17
100
AcDbEntity
  8
0
100
AcDbCircle
 10
8.633
 20
-5.966999999999999
 30
0.0
 40
0.008
  0
CIRCLE
  5
300
330
17
100
AcDbEntity
  8
0
100
AcDbCircle
 10
8.833000000000002
 20
-5.966999999999999
 30
0.0
 40
0.008
  0
CIRCLE
  5
301
330
17
100
AcDbEntity
  8
0
100
AcDbCircle
 10
9.033000000000001
 20
-5.966999999999999
 30
0.0
 40
0.008
  0
CIRCLE
  5
302
330
17
100
AcDbEntity
  8
0
100
AcDbCircle
 10
9.233
 20
-5.966999999999999
 30
0.0
 40
0.008
  0
CIRCLE
  5
303
330
17
100
AcDbEntity
  8
0
100
AcDbCircle
 10
9.433
 20
-5.966999999999999
 30
0.0
 40
0.008
  0
CIRCLE
  5
304
330
17
100
AcDbEntity
  8
0
100
AcDbCircle
 10
9.633000000000003
 20
-5.966999999999999
 30
0.0
 40
0.008
  0
CIRCLE
  5
305
330
17
100
AcDbEntity
  8
0
100
AcDbCircle
 10
9.833000000000002
 20
-5.966999999999999
 30
0.0
 40
0.008
  0
LINE
  5
306
330
17
100
AcDbEntity
  8
0
100
AcDbLine
 10
1.633
 20
-5.967
 30
0.0
 11
1.8250000000000002
 21
-6.359
 31
0.0
  0
LINE
  5
307
330
17
100
AcDbEntity
  8
0
100
AcDbLine
 10
1.8330000000000002
 20
-5.967
 30
0.0
 11
1.8250000000000002
 21
-6.359
 31
0.0
  0
LINE
  5
308
330
17
100
AcDbEntity
  8
0
100
AcDbLine
 10
2.0330000000000004
 20
-5.967
 30
0.0
 11
1.8250000000000002
 21
-6.359
 31
0.0
  0
TEXT
  5
309
330
17
100
AcDbEntity
  8
0
100
AcDbText
 10
1.8250000000000002
 20
-6.359
 30
0.0
 40
0.05
  1
Ø0.016/ 0.2m.
 11
1.8250000000000002
 21
-6.359
 31
0.0
100
AcDbText
  0
LINE
  5
30A
330
17
100
AcDbEntity
  8
0
100
AcDbLine
 10
0.025
 20
-5.845000000000001
 30
0.0
 11
9.975
 21
-5.845000000000001
 31
0.0
  0
LINE
  5
30B
330
17
100
AcDbEntity
  8
0
100
AcDbLine
 10
0.025
 20
-5.975
 30
0.0
 11
9.975
 21
-5.975
 31
0.0
  0
ENDSEC
  0
SECTION
  2
OBJECTS
  0
DICTIONARY
  5
A
330
0
100
AcDbDictionary
280
0
281
1
  3
ACAD_COLOR
350
B
  3
ACAD_GROUP
350
C
  3
ACAD_LAYOUT
350
D
  3
ACAD_MATERIAL
350
E
  3
ACAD_MLEADERSTYLE
350
F
  3
ACAD_MLINESTYLE
350
10
  3
ACAD_PLOTSETTINGS
350
11
  3
ACAD_PLOTSTYLENAME
350
12
  3
ACAD_SCALELIST
350
14
  3
ACAD_TABLESTYLE
350
15
  3
ACAD_VISUALSTYLE
350
16
  3
EZDXF_META
350
2D
  0
DICTIONARY
  5
B
330
A
100
AcDbDictionary
280
0
281
1
  0
DICTIONARY
  5
C
330
A
100
AcDbDictionary
280
0
281
1
  0
DICTIONARY
  5
D
330
A
100
AcDbDictionary
280
0
281
1
  3
Model
350
1A
  3
Layout1
350
1E
  0
DICTIONARY
  5
E
330
A
100
AcDbDictionary
280
0
281
1
  3
ByBlock
350
1F
  3
ByLayer
350
20
  3
Global
350
21
  0
DICTIONARY
  5
F
330
A
100
AcDbDictionary
280
0
281
1
  3
Standard
350
2C
  0
DICTIONARY
  5
10
330
A
100
AcDbDictionary
280
0
281
1
  3
Standard
350
22
  0
DICTIONARY
  5
11
330
A
100
AcDbDictionary
280
0
281
1
  0
ACDBDICTIONARYWDFLT
  5
12
330
A
100
AcDbDictionary
280
0
281
1
  3
Normal
350
13
100
AcDbDictionaryWithDefault
340
13
  0
ACDBPLACEHOLDER
  5
13
330
12
  0
DICTIONARY
  5
14
330
A
100
AcDbDictionary
280
0
281
1
  0
DICTIONARY
  5
15
330
A
100
AcDbDictionary
280
0
281
1
  0
DICTIONARY
  5
16
330
A
100
AcDbDictionary
280
0
281
1
  3
2dWireframe
350
5A
  3
Basic
350
5B
  3
Brighten
350
5C
  3
ColorChange
350
5D
  3
Conceptual
350
5E
  3
Dim
350
5F
  3
EdgeColorOff
350
60
  3
Facepattern
350
61
  3
Flat
350
62
  3
FlatWithEdges
350
63
  3
Gouraud
350
64
  3
GouraudWithEdges
350
65
  3
Hidden
350
66
  3
JitterOff
350
67
  3
Linepattern
350
68
  3
Modeling
350
69
  3
OverhangOff
350
6A
  3
Realistic
350
6B
  3
Shaded
350
6C
  3
Shaded with edges
350
6D
  3
Shades of Gray
350
6E
  3
Sketchy
350
6F
  3
Thicken
350
70
  3
Wireframe
350
71
  3
X-Ray
350
72
  0
LAYOUT
  5
1A
330
D
100
AcDbPlotSettings
  1

  4
A3
  6

 40
7.5
 41
20.0
 42
7.5
 43
20.0
 44
420.0
 45
297.0
 46
0.0
 47
0.0
 48
0.0
 49
0.0
140
0.0
141
0.0
142
1.0
143
1.0
 70
1024
 72
1
 73
0
 74
5
  7

 75
16
 76
0
 77
2
 78
300
147
1.0
148
0.0
149
0.0
100
AcDbLayout
  1
Model
 70
1
 71
0
 10
0.0
 20
0.0
 11
420.0
 21
297.0
 12
0.0
 22
0.0
 32
0.0
 14
1e+20
 24
1e+20
 34
1e+20
 15
-1e+20
 25
-1e+20
 35
-1e+20
146
0.0
 13
0.0
 23
0.0
 33
0.0
 16
1.0
 26
0.0
 36
0.0
 17
0.0
 27
1.0
 37
0.0
 76
1
330
17
  0
LAYOUT
  5
1E
330
D
100
AcDbPlotSettings
  1

  4
A3
  6

 40
7.5
 41
20.0
 42
7.5
 43
20.0
 44
420.0
 45
297.0
 46
0.0
 47
0.0
 48
0.0
 49
0.0
140
0.0
141
0.0
142
1.0
143
1.0
 70
0
 72
1
 73
0
 74
5
  7

 75
16
 76
0
 77
2
 78
300
147
1.0
148
0.0
149
0.0
100
AcDbLayout
  1
Layout1
 70
1
 71
1
 10
0.0
 20
0.0
 11
420.0
 21
297.0
 12
0.0
 22
0.0
 32
0.0
 14
1e+20
 24
1e+20
 34
1e+20
 15
-1e+20
 25
-1e+20
 35
-1e+20
146
0.0
 13
0.0
 23
0.0
 33
0.0
 16
1.0
 26
0.0
 36
0.0
 17
0.0
 27
1.0
 37
0.0
 76
1
330
1B
  0
MATERIAL
  5
1F
102
{ACAD_REACTORS
330
E
102
}
330
E
100
AcDbMaterial
  1
ByBlock
  2

 70
0
 40
1.0
 71
1
 41
1.0
 91
-1023410177
 42
1.0
 72
1
  3

 73
1
 74
1
 75
1
 44
0.5
 73
0
 45
1.0
 46
1.0
 77
1
  4

 78
1
 79
1
170
1
 48
1.0
171
1
  6

172
1
173
1
174
1
140
1.0
141
1.0
175
1
  7

176
1
177
1
178
1
143
1.0
179
1
  8

270
1
271
1
272
1
145
1.0
146
1.0
273
1
  9

274
1
275
1
276
1
 42
1.0
 72
1
  3

 73
1
 74
1
 75
1
 94
63
  0
MATERIAL
  5
20
102
{ACAD_REACTORS
330
E
102
}
330
E
100
AcDbMaterial
  1
ByLayer
  2

 70
0
 40
1.0
 71
1
 41
1.0
 91
-1023410177
 42
1.0
 72
1
  3

 73
1
 74
1
 75
1
 44
0.5
 73
0
 45
1.0
 46
1.0
 77
1
  4

 78
1
 79
1
170
1
 48
1.0
171
1
  6

172
1
173
1
174
1
140
1.0
141
1.0
175
1
  7

176
1
177
1
178
1
143
1.0
179
1
  8

270
1
271
1
272
1
145
1.0
146
1.0
273
1
  9

274
1
275
1
276
1
 42
1.0
 72
1
  3

 73
1
 74
1
 75
1
 94
63
  0
MATERIAL
  5
21
102
{ACAD_REACTORS
330
E
102
}
330
E
100
AcDbMaterial
  1
Global
  2

 70
0
 40
1.0
 71
1
 41
1.0
 91
-1023410177
 42
1.0
 72
1
  3

 73
1
 74
1
 75
1
 44
0.5
 73
0
 45
1.0
 46
1.0
 77
1
  4

 78
1
 79
1
170
1
 48
1.0
171
1
  6

172
1
173
1
174
1
140
1.0
141
1.0
175
1
  7

176
1
177
1
178
1
143
1.0
179
1
  8

270
1
271
1
272
1
145
1.0
146
1.0
273
1
  9

274
1
275
1
276
1
 42
1.0
 72
1
  3

 73
1
 74
1
 75
1
 94
63
  0
MLINESTYLE
  5
22
102
{ACAD_REACTORS
330
10
102
}
330
10
100
AcDbMlineStyle
  2
Standard
 70
0
  3

 62
256
 51
90.0
 52
90.0
 71
2
 49
0.5
 62
256
  6
BYLAYER
 49
-0.5
 62
256
  6
BYLAYER
  0
MLEADERSTYLE
  5
2C
102
{ACAD_REACTORS
330
F
102
}
330
F
100
AcDbMLeaderStyle
179
2
170
2
171
1
172
0
 90
2
 40
0.0
 41
0.0
173
1
 91
-1056964608
 92
-2
290
1
 42
2.0
291
1
 43
8.0
  3
Standard
 44
4.0
300

342
29
174
1
175
1
176
0
178
1
 93
-1056964608
 45
4.0
292
0
297
0
 46
4.0
 94
-1056964608
 47
1.0
 49
1.0
140
1.0
294
1
141
0.0
177
0
142
1.0
295
0
296
0
143
3.75
271
0
272
9
273
9
  0
DICTIONARY
  5
2D
330
A
100
AcDbDictionary
281
1
  3
CREATED_BY_EZDXF
350
2E
  3
WRITTEN_BY_EZDXF
350
30F
  0
DICTIONARYVAR
  5
2E
330
2D
100
DictionaryVariables
280
0
  1
1.3.1 @ 2025-06-27T23:31:29.305491+00:00
  0
VISUALSTYLE
  5
5A
102
{ACAD_REACTORS
330
16
102
}
330
16
100
AcDbVisualStyle
  2
2dWireframe
 70
4
177
3
291
0
 70
58
 90
2
176
1
 90
2
176
1
 90
0
176
1
 90
0
176
1
 40
0.6
176
1
 40
30.0
176
1
 62
7
420
16777215
176
1
 90
1
176
1
 90
4
176
1
 62
7
176
1
 62
257
176
1
 90
1
176
1
 90
1
176
1
 40
1.0
176
1
 90
8
176
1
 62
7
176
1
 40
1.0
176
1
 90
1
176
1
 90
6
176
1
 90
2
176
1
 62
7
176
1
 90
5
176
1
 90
0
176
1
 90
0
176
1
290
0
176
1
 90
1
176
1
 40
0.0
176
1
 90
0
176
1
290
1
176
1
290
1
176
1
290
0
176
1
290
0
176
1
290
0
176
1
290
0
176
1
290
0
176
1
290
0
176
1
290
0
176
1
 90
50
176
1
 40
0.0
176
1
 40
1.0
176
1
 90
0
176
1
 62
18
420
0
176
1
 90
50
176
1
 90
3
176
1
 62
5
420
255
176
1
290
0
176
1
 90
50
176
1
 90
50
176
1
 90
50
176
1
290
0
176
1
 90
50
176
1
 62
256
176
0
 40
1.0
176
0
 90
2
176
1
  1
strokes_ogs.tif
176
1
290
0
176
1
 40
1.0
176
1
 40
1.0
176
1
  0
VISUALSTYLE
  5
5B
102
{ACAD_REACTORS
330
16
102
}
330
16
100
AcDbVisualStyle
  2
Basic
 70
7
177
3
291
1
 70
58
 90
2
176
1
 90
2
176
1
 90
0
176
1
 90
1
176
1
 40
0.6
176
1
 40
30.0
176
1
 62
7
420
16777215
176
1
 90
1
176
1
 90
4
176
1
 62
7
176
1
 62
257
176
1
 90
1
176
1
 90
1
176
1
 40
1.0
176
1
 90
8
176
1
 62
7
176
1
 40
1.0
176
1
 90
1
176
1
 90
6
176
1
 90
2
176
1
 62
7
176
1
 90
5
176
1
 90
0
176
1
 90
0
176
1
290
0
176
1
 90
1
176
1
 40
0.0
176
1
 90
0
176
1
290
0
176
1
290
1
176
1
290
1
176
1
290
0
176
1
290
0
176
1
290
0
176
1
290
0
176
1
290
0
176
1
290
0
176
1
 90
50
176
1
 40
0.0
176
1
 40
1.0
176
1
 90
0
176
1
 62
18
420
0
176
1
 90
50
176
1
 90
3
176
1
 62
5
420
255
176
1
290
0
176
1
 90
50
176
1
 90
50
176
1
 90
50
176
1
290
0
176
1
 90
50
176
1
 62
256
176
0
 40
1.0
176
0
 90
2
176
1
  1
strokes_ogs.tif
176
1
290
0
176
1
 40
1.0
176
1
 40
1.0
176
1
  0
VISUALSTYLE
  5
5C
102
{ACAD_REACTORS
330
16
102
}
330
16
100
AcDbVisualStyle
  2
Brighten
 70
12
177
3
291
1
 70
58
 90
2
176
1
 90
2
176
1
 90
0
176
1
 90
2
176
1
 40
0.6
176
1
 40
30.0
176
1
 62
7
420
16777215
176
1
 90
1
176
1
 90
4
176
1
 62
7
176
1
 62
257
176
1
 90
1
176
1
 90
1
176
1
 40
1.0
176
1
 90
8
176
1
 62
7
176
1
 40
1.0
176
1
 90
1
176
1
 90
6
176
1
 90
2
176
1
 62
7
176
1
 90
5
176
1
 90
0
176
1
 90
0
176
1
290
0
176
1
 90
1
176
1
 40
0.0
176
1
 90
0
176
1
290
0
176
1
290
1
176
1
290
1
176
1
290
0
176
1
290
0
176
1
290
0
176
1
290
0
176
1
290
0
176
1
290
0
176
1
 90
50
176
1
 40
0.0
176
1
 40
1.0
176
1
 90
0
176
1
 62
18
420
0
176
1
 90
50
176
1
 90
3
176
1
 62
5
420
255
176
1
290
0
176
1
 90
50
176
1
 90
50
176
1
 90
50
176
1
290
0
176
1
 90
50
176
1
 62
256
176
0
 40
1.0
176
0
 90
2
176
1
  1
strokes_ogs.tif
176
1
290
0
176
1
 40
1.0
176
1
 40
1.0
176
1
  0
VISUALSTYLE
  5
5D
102
{ACAD_REACTORS
330
16
102
}
330
16
100
AcDbVisualStyle
  2
ColorChange
 70
16
177
3
291
1
 70
58
 90
2
176
1
 90
2
176
1
 90
0
176
1
 90
2
176
1
 40
0.6
176
1
 40
30.0
176
1
 62
7
420
16777215
176
1
 90
1
176
1
 90
4
176
1
 62
7
176
1
 62
257
176
1
 90
1
176
1
 90
1
176
1
 40
1.0
176
1
 90
8
176
1
 62
7
176
1
 40
1.0
176
1
 90
1
176
1
 90
6
176
1
 90
2
176
1
 62
7
176
1
 90
5
176
1
 90
0
176
1
 90
0
176
1
290
0
176
1
 90
1
176
1
 40
0.0
176
1
 90
0
176
1
290
0
176
1
290
1
176
1
290
1
176
1
290
0
176
1
290
0
176
1
290
0
176
1
290
0
176
1
290
0
176
1
290
0
176
1
 90
50
176
1
 40
0.0
176
1
 40
1.0
176
1
 90
0
176
1
 62
18
420
0
176
1
 90
50
176
1
 90
3
176
1
 62
5
420
255
176
1
290
0
176
1
 90
50
176
1
 90
50
176
1
 90
50
176
1
290
0
176
1
 90
50
176
1
 62
256
176
0
 40
1.0
176
0
 90
2
176
1
  1
strokes_ogs.tif
176
1
290
0
176
1
 40
1.0
176
1
 40
1.0
176
1
  0
VISUALSTYLE
  5
5E
102
{ACAD_REACTORS
330
16
102
}
330
16
100
AcDbVisualStyle
  2
Conceptual
 70
9
177
3
291
0
 70
58
 90
2
176
1
 90
2
176
1
 90
0
176
1
 90
3
176
1
 40
0.6
176
1
 40
30.0
176
1
 62
7
420
16777215
176
1
 90
1
176
1
 90
4
176
1
 62
7
176
1
 62
257
176
1
 90
1
176
1
 90
1
176
1
 40
1.0
176
1
 90
8
176
1
 62
7
176
1
 40
1.0
176
1
 90
1
176
1
 90
6
176
1
 90
2
176
1
 62
7
176
1
 90
5
176
1
 90
0
176
1
 90
0
176
1
290
0
176
1
 90
1
176
1
 40
0.0
176
1
 90
0
176
1
290
0
176
1
290
1
176
1
290
1
176
1
290
0
176
1
290
0
176
1
290
0
176
1
290
0
176
1
290
0
176
1
290
0
176
1
 90
50
176
1
 40
0.0
176
1
 40
1.0
176
1
 90
0
176
1
 62
18
420
0
176
1
 90
50
176
1
 90
3
176
1
 62
5
420
255
176
1
290
0
176
1
 90
50
176
1
 90
50
176
1
 90
50
176
1
290
0
176
1
 90
50
176
1
 62
256
176
0
 40
1.0
176
0
 90
2
176
1
  1
strokes_ogs.tif
176
1
290
0
176
1
 40
1.0
176
1
 40
1.0
176
1
  0
VISUALSTYLE
  5
5F
102
{ACAD_REACTORS
330
16
102
}
330
16
100
AcDbVisualStyle
  2
Dim
 70
11
177
3
291
1
 70
58
 90
2
176
1
 90
2
176
1
 90
0
176
1
 90
2
176
1
 40
0.6
176
1
 40
30.0
176
1
 62
7
420
16777215
176
1
 90
1
176
1
 90
4
176
1
 62
7
176
1
 62
257
176
1
 90
1
176
1
 90
1
176
1
 40
1.0
176
1
 90
8
176
1
 62
7
176
1
 40
1.0
176
1
 90
1
176
1
 90
6
176
1
 90
2
176
1
 62
7
176
1
 90
5
176
1
 90
0
176
1
 90
0
176
1
290
0
176
1
 90
1
176
1
 40
0.0
176
1
 90
0
176
1
290
0
176
1
290
1
176
1
290
1
176
1
290
0
176
1
290
0
176
1
290
0
176
1
290
0
176
1
290
0
176
1
290
0
176
1
 90
50
176
1
 40
0.0
176
1
 40
1.0
176
1
 90
0
176
1
 62
18
420
0
176
1
 90
50
176
1
 90
3
176
1
 62
5
420
255
176
1
290
0
176
1
 90
50
176
1
 90
50
176
1
 90
50
176
1
290
0
176
1
 90
50
176
1
 62
256
176
0
 40
1.0
176
0
 90
2
176
1
  1
strokes_ogs.tif
176
1
290
0
176
1
 40
1.0
176
1
 40
1.0
176
1
  0
VISUALSTYLE
  5
60
102
{ACAD_REACTORS
330
16
102
}
330
16
100
AcDbVisualStyle
  2
EdgeColorOff
 70
22
177
3
291
1
 70
58
 90
2
176
1
 90
2
176
1
 90
0
176
1
 90
2
176
1
 40
0.6
176
1
 40
30.0
176
1
 62
7
420
16777215
176
1
 90
1
176
1
 90
4
176
1
 62
7
176
1
 62
257
176
1
 90
1
176
1
 90
1
176
1
 40
1.0
176
1
 90
8
176
1
 62
7
176
1
 40
1.0
176
1
 90
1
176
1
 90
6
176
1
 90
2
176
1
 62
7
176
1
 90
5
176
1
 90
0
176
1
 90
0
176
1
290
0
176
1
 90
1
176
1
 40
0.0
176
1
 90
0
176
1
290
0
176
1
290
1
176
1
290
1
176
1
290
0
176
1
290
0
176
1
290
0
176
1
290
0
176
1
290
0
176
1
290
0
176
1
 90
50
176
1
 40
0.0
176
1
 40
1.0
176
1
 90
0
176
1
 62
18
420
0
176
1
 90
50
176
1
 90
3
176
1
 62
5
420
255
176
1
290
0
176
1
 90
50
176
1
 90
50
176
1
 90
50
176
1
290
0
176
1
 90
50
176
1
 62
256
176
0
 40
1.0
176
0
 90
2
176
1
  1
strokes_ogs.tif
176
1
290
0
176
1
 40
1.0
176
1
 40
1.0
176
1
  0
VISUALSTYLE
  5
61
102
{ACAD_REACTORS
330
16
102
}
330
16
100
AcDbVisualStyle
  2
Facepattern
 70
15
177
3
291
1
 70
58
 90
2
176
1
 90
2
176
1
 90
0
176
1
 90
2
176
1
 40
0.6
176
1
 40
30.0
176
1
 62
7
420
16777215
176
1
 90
1
176
1
 90
4
176
1
 62
7
176
1
 62
257
176
1
 90
1
176
1
 90
1
176
1
 40
1.0
176
1
 90
8
176
1
 62
7
176
1
 40
1.0
176
1
 90
1
176
1
 90
6
176
1
 90
2
176
1
 62
7
176
1
 90
5
176
1
 90
0
176
1
 90
0
176
1
290
0
176
1
 90
1
176
1
 40
0.0
176
1
 90
0
176
1
290
0
176
1
290
1
176
1
290
1
176
1
290
0
176
1
290
0
176
1
290
0
176
1
290
0
176
1
290
0
176
1
290
0
176
1
 90
50
176
1
 40
0.0
176
1
 40
1.0
176
1
 90
0
176
1
 62
18
420
0
176
1
 90
50
176
1
 90
3
176
1
 62
5
420
255
176
1
290
0
176
1
 90
50
176
1
 90
50
176
1
 90
50
176
1
290
0
176
1
 90
50
176
1
 62
256
176
0
 40
1.0
176
0
 90
2
176
1
  1
strokes_ogs.tif
176
1
290
0
176
1
 40
1.0
176
1
 40
1.0
176
1
  0
VISUALSTYLE
  5
62
102
{ACAD_REACTORS
330
16
102
}
330
16
100
AcDbVisualStyle
  2
Flat
 70
0
177
3
291
1
 70
58
 90
2
176
1
 90
2
176
1
 90
0
176
1
 90
2
176
1
 40
0.6
176
1
 40
30.0
176
1
 62
7
420
16777215
176
1
 90
1
176
1
 90
4
176
1
 62
7
176
1
 62
257
176
1
 90
1
176
1
 90
1
176
1
 40
1.0
176
1
 90
8
176
1
 62
7
176
1
 40
1.0
176
1
 90
1
176
1
 90
6
176
1
 90
2
176
1
 62
7
176
1
 90
5
176
1
 90
0
176
1
 90
0
176
1
290
0
176
1
 90
1
176
1
 40
0.0
176
1
 90
0
176
1
290
0
176
1
290
1
176
1
290
1
176
1
290
0
176
1
290
0
176
1
290
0
176
1
290
0
176
1
290
0
176
1
290
0
176
1
 90
50
176
1
 40
0.0
176
1
 40
1.0
176
1
 90
0
176
1
 62
18
420
0
176
1
 90
50
176
1
 90
3
176
1
 62
5
420
255
176
1
290
0
176
1
 90
50
176
1
 90
50
176
1
 90
50
176
1
290
0
176
1
 90
50
176
1
 62
256
176
0
 40
1.0
176
0
 90
2
176
1
  1
strokes_ogs.tif
176
1
290
0
176
1
 40
1.0
176
1
 40
1.0
176
1
  0
VISUALSTYLE
  5
63
102
{ACAD_REACTORS
330
16
102
}
330
16
100
AcDbVisualStyle
  2
FlatWithEdges
 70
1
177
3
291
1
 70
58
 90
2
176
1
 90
2
176
1
 90
0
176
1
 90
2
176
1
 40
0.6
176
1
 40
30.0
176
1
 62
7
420
16777215
176
1
 90
1
176
1
 90
4
176
1
 62
7
176
1
 62
257
176
1
 90
1
176
1
 90
1
176
1
 40
1.0
176
1
 90
8
176
1
 62
7
176
1
 40
1.0
176
1
 90
1
176
1
 90
6
176
1
 90
2
176
1
 62
7
176
1
 90
5
176
1
 90
0
176
1
 90
0
176
1
290
0
176
1
 90
1
176
1
 40
0.0
176
1
 90
0
176
1
290
0
176
1
290
1
176
1
290
1
176
1
290
0
176
1
290
0
176
1
290
0
176
1
290
0
176
1
290
0
176
1
290
0
176
1
 90
50
176
1
 40
0.0
176
1
 40
1.0
176
1
 90
0
176
1
 62
18
420
0
176
1
 90
50
176
1
 90
3
176
1
 62
5
420
255
176
1
290
0
176
1
 90
50
176
1
 90
50
176
1
 90
50
176
1
290
0
176
1
 90
50
176
1
 62
256
176
0
 40
1.0
176
0
 90
2
176
1
  1
strokes_ogs.tif
176
1
290
0
176
1
 40
1.0
176
1
 40
1.0
176
1
  0
VISUALSTYLE
  5
64
102
{ACAD_REACTORS
330
16
102
}
330
16
100
AcDbVisualStyle
  2
Gouraud
 70
2
177
3
291
1
 70
58
 90
2
176
1
 90
2
176
1
 90
0
176
1
 90
2
176
1
 40
0.6
176
1
 40
30.0
176
1
 62
7
420
16777215
176
1
 90
1
176
1
 90
4
176
1
 62
7
176
1
 62
257
176
1
 90
1
176
1
 90
1
176
1
 40
1.0
176
1
 90
8
176
1
 62
7
176
1
 40
1.0
176
1
 90
1
176
1
 90
6
176
1
 90
2
176
1
 62
7
176
1
 90
5
176
1
 90
0
176
1
 90
0
176
1
290
0
176
1
 90
1
176
1
 40
0.0
176
1
 90
0
176
1
290
0
176
1
290
1
176
1
290
1
176
1
290
0
176
1
290
0
176
1
290
0
176
1
290
0
176
1
290
0
176
1
290
0
176
1
 90
50
176
1
 40
0.0
176
1
 40
1.0
176
1
 90
0
176
1
 62
18
420
0
176
1
 90
50
176
1
 90
3
176
1
 62
5
420
255
176
1
290
0
176
1
 90
50
176
1
 90
50
176
1
 90
50
176
1
290
0
176
1
 90
50
176
1
 62
256
176
0
 40
1.0
176
0
 90
2
176
1
  1
strokes_ogs.tif
176
1
290
0
176
1
 40
1.0
176
1
 40
1.0
176
1
  0
VISUALSTYLE
  5
65
102
{ACAD_REACTORS
330
16
102
}
330
16
100
AcDbVisualStyle
  2
GouraudWithEdges
 70
3
177
3
291
1
 70
58
 90
2
176
1
 90
2
176
1
 90
0
176
1
 90
2
176
1
 40
0.6
176
1
 40
30.0
176
1
 62
7
420
16777215
176
1
 90
1
176
1
 90
4
176
1
 62
7
176
1
 62
257
176
1
 90
1
176
1
 90
1
176
1
 40
1.0
176
1
 90
8
176
1
 62
7
176
1
 40
1.0
176
1
 90
1
176
1
 90
6
176
1
 90
2
176
1
 62
7
176
1
 90
5
176
1
 90
0
176
1
 90
0
176
1
290
0
176
1
 90
1
176
1
 40
0.0
176
1
 90
0
176
1
290
0
176
1
290
1
176
1
290
1
176
1
290
0
176
1
290
0
176
1
290
0
176
1
290
0
176
1
290
0
176
1
290
0
176
1
 90
50
176
1
 40
0.0
176
1
 40
1.0
176
1
 90
0
176
1
 62
18
420
0
176
1
 90
50
176
1
 90
3
176
1
 62
5
420
255
176
1
290
0
176
1
 90
50
176
1
 90
50
176
1
 90
50
176
1
290
0
176
1
 90
50
176
1
 62
256
176
0
 40
1.0
176
0
 90
2
176
1
  1
strokes_ogs.tif
176
1
290
0
176
1
 40
1.0
176
1
 40
1.0
176
1
  0
VISUALSTYLE
  5
66
102
{ACAD_REACTORS
330
16
102
}
330
16
100
AcDbVisualStyle
  2
Hidden
 70
6
177
3
291
0
 70
58
 90
2
176
1
 90
2
176
1
 90
0
176
1
 90
1
176
1
 40
0.6
176
1
 40
30.0
176
1
 62
7
420
16777215
176
1
 90
1
176
1
 90
4
176
1
 62
7
176
1
 62
257
176
1
 90
1
176
1
 90
1
176
1
 40
1.0
176
1
 90
8
176
1
 62
7
176
1
 40
1.0
176
1
 90
1
176
1
 90
6
176
1
 90
2
176
1
 62
7
176
1
 90
5
176
1
 90
0
176
1
 90
0
176
1
290
0
176
1
 90
1
176
1
 40
0.0
176
1
 90
0
176
1
290
0
176
1
290
1
176
1
290
1
176
1
290
0
176
1
290
0
176
1
290
0
176
1
290
0
176
1
290
0
176
1
290
0
176
1
 90
50
176
1
 40
0.0
176
1
 40
1.0
176
1
 90
0
176
1
 62
18
420
0
176
1
 90
50
176
1
 90
3
176
1
 62
5
420
255
176
1
290
0
176
1
 90
50
176
1
 90
50
176
1
 90
50
176
1
290
0
176
1
 90
50
176
1
 62
256
176
0
 40
1.0
176
0
 90
2
176
1
  1
strokes_ogs.tif
176
1
290
0
176
1
 40
1.0
176
1
 40
1.0
176
1
  0
VISUALSTYLE
  5
67
102
{ACAD_REACTORS
330
16
102
}
330
16
100
AcDbVisualStyle
  2
JitterOff
 70
20
177
3
291
1
 70
58
 90
2
176
1
 90
2
176
1
 90
0
176
1
 90
2
176
1
 40
0.6
176
1
 40
30.0
176
1
 62
7
420
16777215
176
1
 90
1
176
1
 90
4
176
1
 62
7
176
1
 62
257
176
1
 90
1
176
1
 90
1
176
1
 40
1.0
176
1
 90
8
176
1
 62
7
176
1
 40
1.0
176
1
 90
1
176
1
 90
6
176
1
 90
2
176
1
 62
7
176
1
 90
5
176
1
 90
0
176
1
 90
0
176
1
290
0
176
1
 90
1
176
1
 40
0.0
176
1
 90
0
176
1
290
0
176
1
290
1
176
1
290
1
176
1
290
0
176
1
290
0
176
1
290
0
176
1
290
0
176
1
290
0
176
1
290
0
176
1
 90
50
176
1
 40
0.0
176
1
 40
1.0
176
1
 90
0
176
1
 62
18
420
0
176
1
 90
50
176
1
 90
3
176
1
 62
5
420
255
176
1
290
0
176
1
 90
50
176
1
 90
50
176
1
 90
50
176
1
290
0
176
1
 90
50
176
1
 62
256
176
0
 40
1.0
176
0
 90
2
176
1
  1
strokes_ogs.tif
176
1
290
0
176
1
 40
1.0
176
1
 40
1.0
176
1
  0
VISUALSTYLE
  5
68
102
{ACAD_REACTORS
330
16
102
}
330
16
100
AcDbVisualStyle
  2
Linepattern
 70
14
177
3
291
1
 70
58
 90
2
176
1
 90
2
176
1
 90
0
176
1
 90
2
176
1
 40
0.6
176
1
 40
30.0
176
1
 62
7
420
16777215
176
1
 90
1
176
1
 90
4
176
1
 62
7
176
1
 62
257
176
1
 90
1
176
1
 90
1
176
1
 40
1.0
176
1
 90
8
176
1
 62
7
176
1
 40
1.0
176
1
 90
1
176
1
 90
6
176
1
 90
2
176
1
 62
7
176
1
 90
5
176
1
 90
0
176
1
 90
0
176
1
290
0
176
1
 90
1
176
1
 40
0.0
176
1
 90
0
176
1
290
0
176
1
290
1
176
1
290
1
176
1
290
0
176
1
290
0
176
1
290
0
176
1
290
0
176
1
290
0
176
1
290
0
176
1
 90
50
176
1
 40
0.0
176
1
 40
1.0
176
1
 90
0
176
1
 62
18
420
0
176
1
 90
50
176
1
 90
3
176
1
 62
5
420
255
176
1
290
0
176
1
 90
50
176
1
 90
50
176
1
 90
50
176
1
290
0
176
1
 90
50
176
1
 62
256
176
0
 40
1.0
176
0
 90
2
176
1
  1
strokes_ogs.tif
176
1
290
0
176
1
 40
1.0
176
1
 40
1.0
176
1
  0
VISUALSTYLE
  5
69
102
{ACAD_REACTORS
330
16
102
}
330
16
100
AcDbVisualStyle
  2
Modeling
 70
10
177
3
291
0
 70
58
 90
2
176
1
 90
2
176
1
 90
0
176
1
 90
2
176
1
 40
0.6
176
1
 40
30.0
176
1
 62
7
420
16777215
176
1
 90
1
176
1
 90
4
176
1
 62
7
176
1
 62
257
176
1
 90
1
176
1
 90
1
176
1
 40
1.0
176
1
 90
8
176
1
 62
7
176
1
 40
1.0
176
1
 90
1
176
1
 90
6
176
1
 90
2
176
1
 62
7
176
1
 90
5
176
1
 90
0
176
1
 90
0
176
1
290
0
176
1
 90
1
176
1
 40
0.0
176
1
 90
0
176
1
290
0
176
1
290
1
176
1
290
1
176
1
290
0
176
1
290
0
176
1
290
0
176
1
290
0
176
1
290
0
176
1
290
0
176
1
 90
50
176
1
 40
0.0
176
1
 40
1.0
176
1
 90
0
176
1
 62
18
420
0
176
1
 90
50
176
1
 90
3
176
1
 62
5
420
255
176
1
290
0
176
1
 90
50
176
1
 90
50
176
1
 90
50
176
1
290
0
176
1
 90
50
176
1
 62
256
176
0
 40
1.0
176
0
 90
2
176
1
  1
strokes_ogs.tif
176
1
290
0
176
1
 40
1.0
176
1
 40
1.0
176
1
  0
VISUALSTYLE
  5
6A
102
{ACAD_REACTORS
330
16
102
}
330
16
100
AcDbVisualStyle
  2
OverhangOff
 70
21
177
3
291
1
 70
58
 90
2
176
1
 90
2
176
1
 90
0
176
1
 90
2
176
1
 40
0.6
176
1
 40
30.0
176
1
 62
7
420
16777215
176
1
 90
1
176
1
 90
4
176
1
 62
7
176
1
 62
257
176
1
 90
1
176
1
 90
1
176
1
 40
1.0
176
1
 90
8
176
1
 62
7
176
1
 40
1.0
176
1
 90
1
176
1
 90
6
176
1
 90
2
176
1
 62
7
176
1
 90
5
176
1
 90
0
176
1
 90
0
176
1
290
0
176
1
 90
1
176
1
 40
0.0
176
1
 90
0
176
1
290
0
176
1
290
1
176
1
290
1
176
1
290
0
176
1
290
0
176
1
290
0
176
1
290
0
176
1
290
0
176
1
290
0
176
1
 90
50
176
1
 40
0.0
176
1
 40
1.0
176
1
 90
0
176
1
 62
18
420
0
176
1
 90
50
176
1
 90
3
176
1
 62
5
420
255
176
1
290
0
176
1
 90
50
176
1
 90
50
176
1
 90
50
176
1
290
0
176
1
 90
50
176
1
 62
256
176
0
 40
1.0
176
0
 90
2
176
1
  1
strokes_ogs.tif
176
1
290
0
176
1
 40
1.0
176
1
 40
1.0
176
1
  0
VISUALSTYLE
  5
6B
102
{ACAD_REACTORS
330
16
102
}
330
16
100
AcDbVisualStyle
  2
Realistic
 70
8
177
3
291
0
 70
58
 90
2
176
1
 90
2
176
1
 90
0
176
1
 90
2
176
1
 40
0.6
176
1
 40
30.0
176
1
 62
7
420
16777215
176
1
 90
1
176
1
 90
4
176
1
 62
7
176
1
 62
257
176
1
 90
1
176
1
 90
1
176
1
 40
1.0
176
1
 90
8
176
1
 62
7
176
1
 40
1.0
176
1
 90
1
176
1
 90
6
176
1
 90
2
176
1
 62
7
176
1
 90
5
176
1
 90
0
176
1
 90
0
176
1
290
0
176
1
 90
1
176
1
 40
0.0
176
1
 90
0
176
1
290
0
176
1
290
1
176
1
290
1
176
1
290
0
176
1
290
0
176
1
290
0
176
1
290
0
176
1
290
0
176
1
290
0
176
1
 90
50
176
1
 40
0.0
176
1
 40
1.0
176
1
 90
0
176
1
 62
18
420
0
176
1
 90
50
176
1
 90
3
176
1
 62
5
420
255
176
1
290
0
176
1
 90
50
176
1
 90
50
176
1
 90
50
176
1
290
0
176
1
 90
50
176
1
 62
256
176
0
 40
1.0
176
0
 90
2
176
1
  1
strokes_ogs.tif
176
1
290
0
176
1
 40
1.0
176
1
 40
1.0
176
1
  0
VISUALSTYLE
  5
6C
102
{ACAD_REACTORS
330
16
102
}
330
16
100
AcDbVisualStyle
  2
Shaded
 70
27
177
3
291
0
 70
58
 90
2
176
1
 90
2
176
1
 90
0
176
1
 90
2
176
1
 40
0.6
176
1
 40
30.0
176
1
 62
7
420
16777215
176
1
 90
1
176
1
 90
4
176
1
 62
7
176
1
 62
257
176
1
 90
1
176
1
 90
1
176
1
 40
1.0
176
1
 90
8
176
1
 62
7
176
1
 40
1.0
176
1
 90
1
176
1
 90
6
176
1
 90
2
176
1
 62
7
176
1
 90
5
176
1
 90
0
176
1
 90
0
176
1
290
0
176
1
 90
1
176
1
 40
0.0
176
1
 90
0
176
1
290
0
176
1
290
1
176
1
290
1
176
1
290
0
176
1
290
0
176
1
290
0
176
1
290
0
176
1
290
0
176
1
290
0
176
1
 90
50
176
1
 40
0.0
176
1
 40
1.0
176
1
 90
0
176
1
 62
18
420
0
176
1
 90
50
176
1
 90
3
176
1
 62
5
420
255
176
1
290
0
176
1
 90
50
176
1
 90
50
176
1
 90
50
176
1
290
0
176
1
 90
50
176
1
 62
256
176
0
 40
1.0
176
0
 90
2
176
1
  1
strokes_ogs.tif
176
1
290
0
176
1
 40
1.0
176
1
 40
1.0
176
1
  0
VISUALSTYLE
  5
6D
102
{ACAD_REACTORS
330
16
102
}
330
16
100
AcDbVisualStyle
  2
Shaded with edges
 70
26
177
3
291
0
 70
58
 90
2
176
1
 90
2
176
1
 90
0
176
1
 90
2
176
1
 40
0.6
176
1
 40
30.0
176
1
 62
7
420
16777215
176
1
 90
1
176
1
 90
4
176
1
 62
7
176
1
 62
257
176
1
 90
1
176
1
 90
1
176
1
 40
1.0
176
1
 90
8
176
1
 62
7
176
1
 40
1.0
176
1
 90
1
176
1
 90
6
176
1
 90
2
176
1
 62
7
176
1
 90
5
176
1
 90
0
176
1
 90
0
176
1
290
0
176
1
 90
1
176
1
 40
0.0
176
1
 90
0
176
1
290
0
176
1
290
1
176
1
290
1
176
1
290
0
176
1
290
0
176
1
290
0
176
1
290
0
176
1
290
0
176
1
290
0
176
1
 90
50
176
1
 40
0.0
176
1
 40
1.0
176
1
 90
0
176
1
 62
18
420
0
176
1
 90
50
176
1
 90
3
176
1
 62
5
420
255
176
1
290
0
176
1
 90
50
176
1
 90
50
176
1
 90
50
176
1
290
0
176
1
 90
50
176
1
 62
256
176
0
 40
1.0
176
0
 90
2
176
1
  1
strokes_ogs.tif
176
1
290
0
176
1
 40
1.0
176
1
 40
1.0
176
1
  0
VISUALSTYLE
  5
6E
102
{ACAD_REACTORS
330
16
102
}
330
16
100
AcDbVisualStyle
  2
Shades of Gray
 70
23
177
3
291
0
 70
58
 90
2
176
1
 90
2
176
1
 90
0
176
1
 90
2
176
1
 40
0.6
176
1
 40
30.0
176
1
 62
7
420
16777215
176
1
 90
1
176
1
 90
4
176
1
 62
7
176
1
 62
257
176
1
 90
1
176
1
 90
1
176
1
 40
1.0
176
1
 90
8
176
1
 62
7
176
1
 40
1.0
176
1
 90
1
176
1
 90
6
176
1
 90
2
176
1
 62
7
176
1
 90
5
176
1
 90
0
176
1
 90
0
176
1
290
0
176
1
 90
1
176
1
 40
0.0
176
1
 90
0
176
1
290
0
176
1
290
1
176
1
290
1
176
1
290
0
176
1
290
0
176
1
290
0
176
1
290
0
176
1
290
0
176
1
290
0
176
1
 90
50
176
1
 40
0.0
176
1
 40
1.0
176
1
 90
0
176
1
 62
18
420
0
176
1
 90
50
176
1
 90
3
176
1
 62
5
420
255
176
1
290
0
176
1
 90
50
176
1
 90
50
176
1
 90
50
176
1
290
0
176
1
 90
50
176
1
 62
256
176
0
 40
1.0
176
0
 90
2
176
1
  1
strokes_ogs.tif
176
1
290
0
176
1
 40
1.0
176
1
 40
1.0
176
1
  0
VISUALSTYLE
  5
6F
102
{ACAD_REACTORS
330
16
102
}
330
16
100
AcDbVisualStyle
  2
Sketchy
 70
24
177
3
291
0
 70
58
 90
2
176
1
 90
2
176
1
 90
0
176
1
 90
1
176
1
 40
0.6
176
1
 40
30.0
176
1
 62
7
420
16777215
176
1
 90
1
176
1
 90
4
176
1
 62
7
176
1
 62
257
176
1
 90
1
176
1
 90
1
176
1
 40
1.0
176
1
 90
8
176
1
 62
7
176
1
 40
1.0
176
1
 90
1
176
1
 90
6
176
1
 90
2
176
1
 62
7
176
1
 90
5
176
1
 90
0
176
1
 90
0
176
1
290
0
176
1
 90
1
176
1
 40
0.0
176
1
 90
0
176
1
290
0
176
1
290
1
176
1
290
1
176
1
290
0
176
1
290
0
176
1
290
0
176
1
290
0
176
1
290
0
176
1
290
0
176
1
 90
50
176
1
 40
0.0
176
1
 40
1.0
176
1
 90
0
176
1
 62
18
420
0
176
1
 90
50
176
1
 90
3
176
1
 62
5
420
255
176
1
290
0
176
1
 90
50
176
1
 90
50
176
1
 90
50
176
1
290
0
176
1
 90
50
176
1
 62
256
176
0
 40
1.0
176
0
 90
2
176
1
  1
strokes_ogs.tif
176
1
290
0
176
1
 40
1.0
176
1
 40
1.0
176
1
  0
VISUALSTYLE
  5
70
102
{ACAD_REACTORS
330
16
102
}
330
16
100
AcDbVisualStyle
  2
Thicken
 70
13
177
3
291
1
 70
58
 90
2
176
1
 90
2
176
1
 90
0
176
1
 90
2
176
1
 40
0.6
176
1
 40
30.0
176
1
 62
7
420
16777215
176
1
 90
1
176
1
 90
4
176
1
 62
7
176
1
 62
257
176
1
 90
1
176
1
 90
1
176
1
 40
1.0
176
1
 90
8
176
1
 62
7
176
1
 40
1.0
176
1
 90
1
176
1
 90
6
176
1
 90
2
176
1
 62
7
176
1
 90
5
176
1
 90
0
176
1
 90
0
176
1
290
0
176
1
 90
1
176
1
 40
0.0
176
1
 90
0
176
1
290
0
176
1
290
1
176
1
290
1
176
1
290
0
176
1
290
0
176
1
290
0
176
1
290
0
176
1
290
0
176
1
290
0
176
1
 90
50
176
1
 40
0.0
176
1
 40
1.0
176
1
 90
0
176
1
 62
18
420
0
176
1
 90
50
176
1
 90
3
176
1
 62
5
420
255
176
1
290
0
176
1
 90
50
176
1
 90
50
176
1
 90
50
176
1
290
0
176
1
 90
50
176
1
 62
256
176
0
 40
1.0
176
0
 90
2
176
1
  1
strokes_ogs.tif
176
1
290
0
176
1
 40
1.0
176
1
 40
1.0
176
1
  0
VISUALSTYLE
  5
71
102
{ACAD_REACTORS
330
16
102
}
330
16
100
AcDbVisualStyle
  2
Wireframe
 70
5
177
3
291
0
 70
58
 90
2
176
1
 90
2
176
1
 90
0
176
1
 90
0
176
1
 40
0.6
176
1
 40
30.0
176
1
 62
7
420
16777215
176
1
 90
1
176
1
 90
4
176
1
 62
7
176
1
 62
257
176
1
 90
1
176
1
 90
1
176
1
 40
1.0
176
1
 90
8
176
1
 62
7
176
1
 40
1.0
176
1
 90
1
176
1
 90
6
176
1
 90
2
176
1
 62
7
176
1
 90
5
176
1
 90
0
176
1
 90
0
176
1
290
0
176
1
 90
1
176
1
 40
0.0
176
1
 90
0
176
1
290
0
176
1
290
1
176
1
290
1
176
1
290
0
176
1
290
0
176
1
290
0
176
1
290
0
176
1
290
0
176
1
290
0
176
1
 90
50
176
1
 40
0.0
176
1
 40
1.0
176
1
 90
0
176
1
 62
18
420
0
176
1
 90
50
176
1
 90
3
176
1
 62
5
420
255
176
1
290
0
176
1
 90
50
176
1
 90
50
176
1
 90
50
176
1
290
0
176
1
 90
50
176
1
 62
256
176
0
 40
1.0
176
0
 90
2
176
1
  1
strokes_ogs.tif
176
1
290
0
176
1
 40
1.0
176
1
 40
1.0
176
1
  0
VISUALSTYLE
  5
72
102
{ACAD_REACTORS
330
16
102
}
330
16
100
AcDbVisualStyle
  2
X-Ray
 70
25
177
3
291
0
 70
58
 90
2
176
1
 90
2
176
1
 90
0
176
1
 90
2
176
1
 40
0.5
176
1
 40
30.0
176
1
 62
7
420
16777215
176
1
 90
1
176
1
 90
4
176
1
 62
7
176
1
 62
257
176
1
 90
1
176
1
 90
1
176
1
 40
1.0
176
1
 90
8
176
1
 62
7
176
1
 40
1.0
176
1
 90
1
176
1
 90
6
176
1
 90
2
176
1
 62
7
176
1
 90
5
176
1
 90
0
176
1
 90
0
176
1
290
0
176
1
 90
1
176
1
 40
0.0
176
1
 90
0
176
1
290
0
176
1
290
1
176
1
290
1
176
1
290
0
176
1
290
0
176
1
290
0
176
1
290
0
176
1
290
0
176
1
290
0
176
1
 90
50
176
1
 40
0.0
176
1
 40
1.0
176
1
 90
0
176
1
 62
18
420
0
176
1
 90
50
176
1
 90
3
176
1
 62
5
420
255
176
1
290
0
176
1
 90
50
176
1
 90
50
176
1
 90
50
176
1
290
0
176
1
 90
50
176
1
 62
256
176
0
 40
1.0
176
0
 90
2
176
1
  1
strokes_ogs.tif
176
1
290
0
176
1
 40
1.0
176
1
 40
1.0
176
1
  0
DICTIONARYVAR
  5
30F
330
2D
100
DictionaryVariables
280
0
  1
1.3.1 @ 2025-06-27T23:31:29.399221+00:00
  0
ENDSEC
  0
EOF
