  0
SECTION
  2
HEADER
  9
$ACADVER
  1
AC1027
  9
$ACADMAINTVER
 70
105
  9
$DWGCODEPAGE
  3
ANSI_1252
  9
$LASTSAVEDBY
  1
ezdxf
  9
$REQUIREDVERSIONS
160
0
  9
$INSBASE
 10
0.0
 20
0.0
 30
0.0
  9
$EXTMIN
 10
1e+20
 20
1e+20
 30
1e+20
  9
$EXTMAX
 10
-1e+20
 20
-1e+20
 30
-1e+20
  9
$LIMMIN
 10
0.0
 20
0.0
  9
$LIMMAX
 10
420.0
 20
297.0
  9
$ORTHOMODE
 70
0
  9
$REGENMODE
 70
1
  9
$FILLMODE
 70
1
  9
$QTEXTMODE
 70
0
  9
$MIRRTEXT
 70
1
  9
$LTSCALE
 40
1.0
  9
$ATTMODE
 70
1
  9
$TEXTSIZE
 40
2.5
  9
$TRACEWID
 40
1.0
  9
$TEXTSTYLE
  7
OpenSans
  9
$CLAYER
  8
0
  9
$CELTYPE
  6
ByLayer
  9
$CECOLOR
 62
256
  9
$CELTSCALE
 40
1.0
  9
$DISPSILH
 70
0
  9
$DIMSCALE
 40
1.0
  9
$DIMASZ
 40
0.175
  9
$DIMEXO
 40
0.125
  9
$DIMDLI
 40
3.75
  9
$DIMRND
 40
0.0
  9
$DIMDLE
 40
0.0
  9
$DIMEXE
 40
0.375
  9
$DIMTP
 40
0.0
  9
$DIMTM
 40
0.0
  9
$DIMTXT
 40
0.25
  9
$DIMCEN
 40
2.5
  9
$DIMTSZ
 40
0.0
  9
$DIMTOL
 70
0
  9
$DIMLIM
 70
0
  9
$DIMTIH
 70
0
  9
$DIMTOH
 70
0
  9
$DIMSE1
 70
0
  9
$DIMSE2
 70
0
  9
$DIMTAD
 70
1
  9
$DIMZIN
 70
12
  9
$DIMBLK
  1
ARCHTICK
  9
$DIMASO
 70
1
  9
$DIMSHO
 70
1
  9
$DIMPOST
  1

  9
$DIMAPOST
  1

  9
$DIMALT
 70
0
  9
$DIMALTD
 70
3
  9
$DIMALTF
 40
0.03937007874
  9
$DIMLFAC
 40
100.0
  9
$DIMTOFL
 70
1
  9
$DIMTVP
 40
0.0
  9
$DIMTIX
 70
0
  9
$DIMSOXD
 70
0
  9
$DIMSAH
 70
0
  9
$DIMBLK1
  1

  9
$DIMBLK2
  1

  9
$DIMSTYLE
  2
EZDXF
  9
$DIMCLRD
 70
0
  9
$DIMCLRE
 70
0
  9
$DIMCLRT
 70
0
  9
$DIMTFAC
 40
0.5
  9
$DIMGAP
 40
0.1
  9
$DIMJUST
 70
0
  9
$DIMSD1
 70
0
  9
$DIMSD2
 70
0
  9
$DIMTOLJ
 70
0
  9
$DIMTZIN
 70
8
  9
$DIMALTZ
 70
0
  9
$DIMALTTZ
 70
0
  9
$DIMUPT
 70
1
  9
$DIMDEC
 70
2
  9
$DIMTDEC
 70
2
  9
$DIMALTU
 70
2
  9
$DIMALTTD
 70
3
  9
$DIMTXSTY
  7
OpenSansCondensed-Light
  9
$DIMAUNIT
 70
0
  9
$DIMADEC
 70
2
  9
$DIMALTRND
 40
0.0
  9
$DIMAZIN
 70
3
  9
$DIMDSEP
 70
46
  9
$DIMATFIT
 70
3
  9
$DIMFRAC
 70
0
  9
$DIMLDRBLK
  1

  9
$DIMLUNIT
 70
2
  9
$DIMLWD
 70
-2
  9
$DIMLWE
 70
-2
  9
$DIMTMOVE
 70
2
  9
$DIMFXL
 40
1.0
  9
$DIMFXLON
 70
0
  9
$DIMJOGANG
 40
0.785398163397
  9
$DIMTFILL
 70
0
  9
$DIMTFILLCLR
 70
0
  9
$DIMARCSYM
 70
0
  9
$DIMLTYPE
  6

  9
$DIMLTEX1
  6

  9
$DIMLTEX2
  6

  9
$DIMTXTDIRECTION
 70
0
  9
$LUNITS
 70
2
  9
$LUPREC
 70
4
  9
$SKETCHINC
 40
1.0
  9
$FILLETRAD
 40
10.0
  9
$AUNITS
 70
0
  9
$AUPREC
 70
2
  9
$MENU
  1
.
  9
$ELEVATION
 40
0.0
  9
$PELEVATION
 40
0.0
  9
$THICKNESS
 40
0.0
  9
$LIMCHECK
 70
0
  9
$CHAMFERA
 40
0.0
  9
$CHAMFERB
 40
0.0
  9
$CHAMFERC
 40
0.0
  9
$CHAMFERD
 40
0.0
  9
$SKPOLY
 70
0
  9
$TDCREATE
 40
2460838.819328704
  9
$TDUCREATE
 40
2458532.153996898
  9
$TDUPDATE
 40
2460838.819328704
  9
$TDUUPDATE
 40
2458532.1544311
  9
$TDINDWG
 40
0.0
  9
$TDUSRTIMER
 40
0.0
  9
$USRTIMER
 70
1
  9
$ANGBASE
 50
0.0
  9
$ANGDIR
 70
0
  9
$PDMODE
 70
0
  9
$PDSIZE
 40
0.0
  9
$PLINEWID
 40
0.0
  9
$SPLFRAME
 70
0
  9
$SPLINETYPE
 70
6
  9
$SPLINESEGS
 70
8
  9
$HANDSEED
  5
2B7
  9
$SURFTAB1
 70
6
  9
$SURFTAB2
 70
6
  9
$SURFTYPE
 70
6
  9
$SURFU
 70
6
  9
$SURFV
 70
6
  9
$UCSBASE
  2

  9
$UCSNAME
  2

  9
$UCSORG
 10
0.0
 20
0.0
 30
0.0
  9
$UCSXDIR
 10
1.0
 20
0.0
 30
0.0
  9
$UCSYDIR
 10
0.0
 20
1.0
 30
0.0
  9
$UCSORTHOREF
  2

  9
$UCSORTHOVIEW
 70
0
  9
$UCSORGTOP
 10
0.0
 20
0.0
 30
0.0
  9
$UCSORGBOTTOM
 10
0.0
 20
0.0
 30
0.0
  9
$UCSORGLEFT
 10
0.0
 20
0.0
 30
0.0
  9
$UCSORGRIGHT
 10
0.0
 20
0.0
 30
0.0
  9
$UCSORGFRONT
 10
0.0
 20
0.0
 30
0.0
  9
$UCSORGBACK
 10
0.0
 20
0.0
 30
0.0
  9
$PUCSBASE
  2

  9
$PUCSNAME
  2

  9
$PUCSORG
 10
0.0
 20
0.0
 30
0.0
  9
$PUCSXDIR
 10
1.0
 20
0.0
 30
0.0
  9
$PUCSYDIR
 10
0.0
 20
1.0
 30
0.0
  9
$PUCSORTHOREF
  2

  9
$PUCSORTHOVIEW
 70
0
  9
$PUCSORGTOP
 10
0.0
 20
0.0
 30
0.0
  9
$PUCSORGBOTTOM
 10
0.0
 20
0.0
 30
0.0
  9
$PUCSORGLEFT
 10
0.0
 20
0.0
 30
0.0
  9
$PUCSORGRIGHT
 10
0.0
 20
0.0
 30
0.0
  9
$PUCSORGFRONT
 10
0.0
 20
0.0
 30
0.0
  9
$PUCSORGBACK
 10
0.0
 20
0.0
 30
0.0
  9
$USERI1
 70
0
  9
$USERI2
 70
0
  9
$USERI3
 70
0
  9
$USERI4
 70
0
  9
$USERI5
 70
0
  9
$USERR1
 40
0.0
  9
$USERR2
 40
0.0
  9
$USERR3
 40
0.0
  9
$USERR4
 40
0.0
  9
$USERR5
 40
0.0
  9
$WORLDVIEW
 70
1
  9
$SHADEDGE
 70
3
  9
$SHADEDIF
 70
70
  9
$TILEMODE
 70
1
  9
$MAXACTVP
 70
64
  9
$PINSBASE
 10
0.0
 20
0.0
 30
0.0
  9
$PLIMCHECK
 70
0
  9
$PEXTMIN
 10
1e+20
 20
1e+20
 30
1e+20
  9
$PEXTMAX
 10
-1e+20
 20
-1e+20
 30
-1e+20
  9
$PLIMMIN
 10
0.0
 20
0.0
  9
$PLIMMAX
 10
420.0
 20
297.0
  9
$UNITMODE
 70
0
  9
$VISRETAIN
 70
1
  9
$PLINEGEN
 70
0
  9
$PSLTSCALE
 70
1
  9
$TREEDEPTH
 70
3020
  9
$CMLSTYLE
  2
Standard
  9
$CMLJUST
 70
0
  9
$CMLSCALE
 40
20.0
  9
$PROXYGRAPHICS
 70
1
  9
$MEASUREMENT
 70
1
  9
$CELWEIGHT
370
-1
  9
$ENDCAPS
280
0
  9
$JOINSTYLE
280
0
  9
$LWDISPLAY
290
0
  9
$INSUNITS
 70
6
  9
$HYPERLINKBASE
  1

  9
$STYLESHEET
  1

  9
$XEDIT
290
1
  9
$CEPSNTYPE
380
0
  9
$PSTYLEMODE
290
1
  9
$FINGERPRINTGUID
  2
{554D6A8E-6749-4415-A2AD-608FA4EFD25E}
  9
$VERSIONGUID
  2
{B52007BC-7A30-4AE2-9636-5A8EA86AD165}
  9
$EXTNAMES
290
1
  9
$PSVPSCALE
 40
0.0
  9
$OLESTARTUP
290
0
  9
$SORTENTS
280
127
  9
$INDEXCTL
280
0
  9
$HIDETEXT
280
1
  9
$XCLIPFRAME
280
1
  9
$HALOGAP
280
0
  9
$OBSCOLOR
 70
257
  9
$OBSLTYPE
280
0
  9
$INTERSECTIONDISPLAY
280
0
  9
$INTERSECTIONCOLOR
 70
257
  9
$DIMASSOC
280
2
  9
$PROJECTNAME
  1

  9
$CAMERADISPLAY
290
0
  9
$LENSLENGTH
 40
50.0
  9
$CAMERAHEIGHT
 40
0.0
  9
$STEPSPERSEC
 40
24.0
  9
$STEPSIZE
 40
100.0
  9
$3DDWFPREC
 40
2.0
  9
$PSOLWIDTH
 40
0.005
  9
$PSOLHEIGHT
 40
0.08
  9
$LOFTANG1
 40
1.570796326795
  9
$LOFTANG2
 40
1.570796326795
  9
$LOFTMAG1
 40
0.0
  9
$LOFTMAG2
 40
0.0
  9
$LOFTPARAM
 70
7
  9
$LOFTNORMALS
280
1
  9
$LATITUDE
 40
37.795
  9
$LONGITUDE
 40
-122.394
  9
$NORTHDIRECTION
 40
0.0
  9
$TIMEZONE
 70
-8000
  9
$LIGHTGLYPHDISPLAY
280
1
  9
$TILEMODELIGHTSYNCH
280
1
  9
$CMATERIAL
347
20
  9
$SOLIDHIST
280
0
  9
$SHOWHIST
280
1
  9
$DWFFRAME
280
2
  9
$DGNFRAME
280
2
  9
$REALWORLDSCALE
290
1
  9
$INTERFERECOLOR
 62
256
  9
$CSHADOW
280
0
  9
$SHADOWPLANELOCATION
 40
0.0
  0
ENDSEC
  0
SECTION
  2
CLASSES
  0
CLASS
  1
ACDBDICTIONARYWDFLT
  2
AcDbDictionaryWithDefault
  3
ObjectDBX Classes
 90
0
 91
0
280
0
281
0
  0
CLASS
  1
SUN
  2
AcDbSun
  3
SCENEOE
 90
1153
 91
0
280
0
281
0
  0
CLASS
  1
VISUALSTYLE
  2
AcDbVisualStyle
  3
ObjectDBX Classes
 90
4095
 91
0
280
0
281
0
  0
CLASS
  1
MATERIAL
  2
AcDbMaterial
  3
ObjectDBX Classes
 90
1153
 91
0
280
0
281
0
  0
CLASS
  1
SCALE
  2
AcDbScale
  3
ObjectDBX Classes
 90
1153
 91
0
280
0
281
0
  0
CLASS
  1
TABLESTYLE
  2
AcDbTableStyle
  3
ObjectDBX Classes
 90
4095
 91
0
280
0
281
0
  0
CLASS
  1
MLEADERSTYLE
  2
AcDbMLeaderStyle
  3
ACDB_MLEADERSTYLE_CLASS
 90
4095
 91
0
280
0
281
0
  0
CLASS
  1
DICTIONARYVAR
  2
AcDbDictionaryVar
  3
ObjectDBX Classes
 90
0
 91
0
280
0
281
0
  0
CLASS
  1
CELLSTYLEMAP
  2
AcDbCellStyleMap
  3
ObjectDBX Classes
 90
1152
 91
0
280
0
281
0
  0
CLASS
  1
MENTALRAYRENDERSETTINGS
  2
AcDbMentalRayRenderSettings
  3
SCENEOE
 90
1024
 91
0
280
0
281
0
  0
CLASS
  1
ACDBDETAILVIEWSTYLE
  2
AcDbDetailViewStyle
  3
ObjectDBX Classes
 90
1025
 91
0
280
0
281
0
  0
CLASS
  1
ACDBSECTIONVIEWSTYLE
  2
AcDbSectionViewStyle
  3
ObjectDBX Classes
 90
1025
 91
0
280
0
281
0
  0
CLASS
  1
RASTERVARIABLES
  2
AcDbRasterVariables
  3
ISM
 90
0
 91
0
280
0
281
0
  0
CLASS
  1
LAYOUT
  2
AcDbLayout
  3
ObjectDBX Classes
 90
0
 91
0
280
0
281
0
  0
CLASS
  1
ACDBPLACEHOLDER
  2
AcDbPlaceHolder
  3
ObjectDBX Classes
 90
0
 91
0
280
0
281
0
  0
ENDSEC
  0
SECTION
  2
TABLES
  0
TABLE
  2
VPORT
  5
8
330
0
100
AcDbSymbolTable
 70
1
  0
VPORT
  5
23
330
8
100
AcDbSymbolTableRecord
100
AcDbViewportTableRecord
  2
*Active
 70
0
 10
0.0
 20
0.0
 11
1.0
 21
1.0
 12
0.0
 22
0.0
 13
0.0
 23
0.0
 14
0.5
 24
0.5
 15
0.5
 25
0.5
 16
0.0
 26
0.0
 36
1.0
 17
0.0
 27
0.0
 37
0.0
 40
1000.0
 41
1.34
 42
50.0
 43
0.0
 44
0.0
 50
0.0
 51
0.0
 71
0
 72
1000
 73
1
 74
3
 75
0
 76
0
 77
0
 78
0
281
0
 65
0
146
0.0
  0
ENDTAB
  0
TABLE
  2
LTYPE
  5
2
330
0
100
AcDbSymbolTable
 70
21
  0
LTYPE
  5
24
330
2
100
AcDbSymbolTableRecord
100
AcDbLinetypeTableRecord
  2
ByBlock
 70
0
  3

 72
65
 73
0
 40
0.0
  0
LTYPE
  5
25
330
2
100
AcDbSymbolTableRecord
100
AcDbLinetypeTableRecord
  2
ByLayer
 70
0
  3

 72
65
 73
0
 40
0.0
  0
LTYPE
  5
26
330
2
100
AcDbSymbolTableRecord
100
AcDbLinetypeTableRecord
  2
Continuous
 70
0
  3

 72
65
 73
0
 40
0.0
  0
LTYPE
  5
2F
330
2
100
AcDbSymbolTableRecord
100
AcDbLinetypeTableRecord
  2
CENTER
 70
0
  3
Center ____ _ ____ _ ____ _ ____ _ ____ _ ____
 72
65
 73
4
 40
5.08
 49
3.175
 74
0
 49
-0.635
 74
0
 49
0.635
 74
0
 49
-0.635
 74
0
  0
LTYPE
  5
30
330
2
100
AcDbSymbolTableRecord
100
AcDbLinetypeTableRecord
  2
CENTERX2
 70
0
  3
Center (2x) ________  __  ________  __  ________
 72
65
 73
4
 40
8.89
 49
6.35
 74
0
 49
-0.635
 74
0
 49
1.27
 74
0
 49
-0.635
 74
0
  0
LTYPE
  5
31
330
2
100
AcDbSymbolTableRecord
100
AcDbLinetypeTableRecord
  2
CENTER2
 70
0
  3
Center (.5x) ____ _ ____ _ ____ _ ____ _ ____
 72
65
 73
4
 40
2.54
 49
1.587
 74
0
 49
-0.318
 74
0
 49
0.318
 74
0
 49
-0.318
 74
0
  0
LTYPE
  5
32
330
2
100
AcDbSymbolTableRecord
100
AcDbLinetypeTableRecord
  2
DASHED
 70
0
  3
Dashed __ __ __ __ __ __ __ __ __ __ __ __ __ _
 72
65
 73
2
 40
1.524
 49
1.27
 74
0
 49
-0.254
 74
0
  0
LTYPE
  5
33
330
2
100
AcDbSymbolTableRecord
100
AcDbLinetypeTableRecord
  2
DASHEDX2
 70
0
  3
Dashed (2x) ____  ____  ____  ____  ____  ____
 72
65
 73
2
 40
3.048
 49
2.54
 74
0
 49
-0.508
 74
0
  0
LTYPE
  5
34
330
2
100
AcDbSymbolTableRecord
100
AcDbLinetypeTableRecord
  2
DASHED2
 70
0
  3
Dashed (.5x) _ _ _ _ _ _ _ _ _ _ _ _ _ _
 72
65
 73
2
 40
0.762
 49
0.635
 74
0
 49
-0.127
 74
0
  0
LTYPE
  5
35
330
2
100
AcDbSymbolTableRecord
100
AcDbLinetypeTableRecord
  2
PHANTOM
 70
0
  3
Phantom ______  __  __  ______  __  __  ______
 72
65
 73
6
 40
6.35
 49
3.175
 74
0
 49
-0.635
 74
0
 49
0.635
 74
0
 49
-0.635
 74
0
 49
0.635
 74
0
 49
-0.635
 74
0
  0
LTYPE
  5
36
330
2
100
AcDbSymbolTableRecord
100
AcDbLinetypeTableRecord
  2
PHANTOMX2
 70
0
  3
Phantom (2x)____________    ____    ____    ____________
 72
65
 73
6
 40
10.795
 49
6.35
 74
0
 49
-0.635
 74
0
 49
1.27
 74
0
 49
-0.635
 74
0
 49
1.27
 74
0
 49
-0.635
 74
0
  0
LTYPE
  5
37
330
2
100
AcDbSymbolTableRecord
100
AcDbLinetypeTableRecord
  2
PHANTOM2
 70
0
  3
Phantom (.5x) ___ _ _ ___ _ _ ___ _ _ ___ _ _ ___
 72
65
 73
6
 40
3.175
 49
1.587
 74
0
 49
-0.318
 74
0
 49
0.318
 74
0
 49
-0.318
 74
0
 49
0.318
 74
0
 49
-0.318
 74
0
  0
LTYPE
  5
38
330
2
100
AcDbSymbolTableRecord
100
AcDbLinetypeTableRecord
  2
DASHDOT
 70
0
  3
Dash dot __ . __ . __ . __ . __ . __ . __ . __
 72
65
 73
4
 40
3.556
 49
2.54
 74
0
 49
-0.508
 74
0
 49
0.0
 74
0
 49
-0.508
 74
0
  0
LTYPE
  5
39
330
2
100
AcDbSymbolTableRecord
100
AcDbLinetypeTableRecord
  2
DASHDOTX2
 70
0
  3
Dash dot (2x) ____  .  ____  .  ____  .  ____
 72
65
 73
4
 40
6.096
 49
5.08
 74
0
 49
-0.508
 74
0
 49
0.0
 74
0
 49
-0.508
 74
0
  0
LTYPE
  5
3A
330
2
100
AcDbSymbolTableRecord
100
AcDbLinetypeTableRecord
  2
DASHDOT2
 70
0
  3
Dash dot (.5x) _ . _ . _ . _ . _ . _ . _ . _
 72
65
 73
4
 40
1.778
 49
1.27
 74
0
 49
-0.254
 74
0
 49
0.0
 74
0
 49
-0.254
 74
0
  0
LTYPE
  5
3B
330
2
100
AcDbSymbolTableRecord
100
AcDbLinetypeTableRecord
  2
DOT
 70
0
  3
Dot .  .  .  .  .  .  .  .  .  .  .  .  .  .  .  .
 72
65
 73
2
 40
0.508
 49
0.0
 74
0
 49
-0.508
 74
0
  0
LTYPE
  5
3C
330
2
100
AcDbSymbolTableRecord
100
AcDbLinetypeTableRecord
  2
DOTX2
 70
0
  3
Dot (2x) .    .    .    .    .    .    .    . 
 72
65
 73
2
 40
1.016
 49
0.0
 74
0
 49
-1.016
 74
0
  0
LTYPE
  5
3D
330
2
100
AcDbSymbolTableRecord
100
AcDbLinetypeTableRecord
  2
DOT2
 70
0
  3
Dot (.5) . . . . . . . . . . . . . . . . . . . 
 72
65
 73
2
 40
0.254
 49
0.0
 74
0
 49
-0.254
 74
0
  0
LTYPE
  5
3E
330
2
100
AcDbSymbolTableRecord
100
AcDbLinetypeTableRecord
  2
DIVIDE
 70
0
  3
Divide __ . . __ . . __ . . __ . . __ . . __
 72
65
 73
6
 40
4.064
 49
2.54
 74
0
 49
-0.508
 74
0
 49
0.0
 74
0
 49
-0.508
 74
0
 49
0.0
 74
0
 49
-0.508
 74
0
  0
LTYPE
  5
3F
330
2
100
AcDbSymbolTableRecord
100
AcDbLinetypeTableRecord
  2
DIVIDEX2
 70
0
  3
Divide (2x) ____  . .  ____  . .  ____  . .  ____
 72
65
 73
6
 40
6.604
 49
5.08
 74
0
 49
-0.508
 74
0
 49
0.0
 74
0
 49
-0.508
 74
0
 49
0.0
 74
0
 49
-0.508
 74
0
  0
LTYPE
  5
40
330
2
100
AcDbSymbolTableRecord
100
AcDbLinetypeTableRecord
  2
DIVIDE2
 70
0
  3
Divide(.5x) _ . _ . _ . _ . _ . _ . _ . _
 72
65
 73
6
 40
2.032
 49
1.27
 74
0
 49
-0.254
 74
0
 49
0.0
 74
0
 49
-0.254
 74
0
 49
0.0
 74
0
 49
-0.254
 74
0
  0
ENDTAB
  0
TABLE
  2
LAYER
  5
1
330
0
100
AcDbSymbolTable
 70
2
  0
LAYER
  5
27
330
1
100
AcDbSymbolTableRecord
100
AcDbLayerTableRecord
  2
0
 70
0
 62
7
  6
Continuous
370
-3
390
13
347
21
  0
LAYER
  5
28
330
1
100
AcDbSymbolTableRecord
100
AcDbLayerTableRecord
  2
Defpoints
 70
0
 62
7
  6
Continuous
290
0
370
-3
390
13
347
21
  0
ENDTAB
  0
TABLE
  2
STYLE
  5
5
330
0
100
AcDbSymbolTable
 70
26
  0
STYLE
  5
29
330
5
100
AcDbSymbolTableRecord
100
AcDbTextStyleTableRecord
  2
Standard
 70
0
 40
0.0
 41
1.0
 50
0.0
 71
0
 42
2.5
  3
txt
  4

  0
STYLE
  5
41
330
5
100
AcDbSymbolTableRecord
100
AcDbTextStyleTableRecord
  2
OpenSans-Light
 70
0
 40
0.0
 41
1.0
 50
0.0
 71
0
 42
2.5
  3
OpenSans-Light.ttf
  4

  0
STYLE
  5
42
330
5
100
AcDbSymbolTableRecord
100
AcDbTextStyleTableRecord
  2
OpenSans-Light-Italic
 70
0
 40
0.0
 41
1.0
 50
0.0
 71
0
 42
2.5
  3
OpenSans-LightItalic.ttf
  4

  0
STYLE
  5
43
330
5
100
AcDbSymbolTableRecord
100
AcDbTextStyleTableRecord
  2
OpenSans
 70
0
 40
0.0
 41
1.0
 50
0.0
 71
0
 42
2.5
  3
OpenSans-Regular.ttf
  4

  0
STYLE
  5
44
330
5
100
AcDbSymbolTableRecord
100
AcDbTextStyleTableRecord
  2
OpenSans-Italic
 70
0
 40
0.0
 41
1.0
 50
0.0
 71
0
 42
2.5
  3
OpenSans-Italic.ttf
  4

  0
STYLE
  5
45
330
5
100
AcDbSymbolTableRecord
100
AcDbTextStyleTableRecord
  2
OpenSans-SemiBold
 70
0
 40
0.0
 41
1.0
 50
0.0
 71
0
 42
2.5
  3
OpenSans-SemiBold.ttf
  4

  0
STYLE
  5
46
330
5
100
AcDbSymbolTableRecord
100
AcDbTextStyleTableRecord
  2
OpenSans-SemiBoldItalic
 70
0
 40
0.0
 41
1.0
 50
0.0
 71
0
 42
2.5
  3
OpenSans-SemiBoldItalic.ttf
  4

  0
STYLE
  5
47
330
5
100
AcDbSymbolTableRecord
100
AcDbTextStyleTableRecord
  2
OpenSans-Bold
 70
0
 40
0.0
 41
1.0
 50
0.0
 71
0
 42
2.5
  3
OpenSans-Bold.ttf
  4

  0
STYLE
  5
48
330
5
100
AcDbSymbolTableRecord
100
AcDbTextStyleTableRecord
  2
OpenSans-BoldItalic
 70
0
 40
0.0
 41
1.0
 50
0.0
 71
0
 42
2.5
  3
OpenSans-BoldItalic.ttf
  4

  0
STYLE
  5
49
330
5
100
AcDbSymbolTableRecord
100
AcDbTextStyleTableRecord
  2
OpenSans-ExtraBold
 70
0
 40
0.0
 41
1.0
 50
0.0
 71
0
 42
2.5
  3
OpenSans-ExtraBold.ttf
  4

  0
STYLE
  5
4A
330
5
100
AcDbSymbolTableRecord
100
AcDbTextStyleTableRecord
  2
OpenSans-ExtraBoldItalic
 70
0
 40
0.0
 41
1.0
 50
0.0
 71
0
 42
2.5
  3
OpenSans-ExtraBoldItalic.ttf
  4

  0
STYLE
  5
4B
330
5
100
AcDbSymbolTableRecord
100
AcDbTextStyleTableRecord
  2
OpenSansCondensed-Bold
 70
0
 40
0.0
 41
1.0
 50
0.0
 71
0
 42
2.5
  3
OpenSansCondensed-Bold.ttf
  4

  0
STYLE
  5
4C
330
5
100
AcDbSymbolTableRecord
100
AcDbTextStyleTableRecord
  2
OpenSansCondensed-Light
 70
0
 40
0.0
 41
1.0
 50
0.0
 71
0
 42
2.5
  3
OpenSansCondensed-Light.ttf
  4

  0
STYLE
  5
4D
330
5
100
AcDbSymbolTableRecord
100
AcDbTextStyleTableRecord
  2
OpenSansCondensed-Italic
 70
0
 40
0.0
 41
1.0
 50
0.0
 71
0
 42
2.5
  3
OpenSansCondensed-LightItalic.ttf
  4

  0
STYLE
  5
4E
330
5
100
AcDbSymbolTableRecord
100
AcDbTextStyleTableRecord
  2
LiberationSans
 70
0
 40
0.0
 41
1.0
 50
0.0
 71
0
 42
2.5
  3
LiberationSans-Regular.ttf
  4

  0
STYLE
  5
4F
330
5
100
AcDbSymbolTableRecord
100
AcDbTextStyleTableRecord
  2
LiberationSans-Bold
 70
0
 40
0.0
 41
1.0
 50
0.0
 71
0
 42
2.5
  3
LiberationSans-Bold.ttf
  4

  0
STYLE
  5
50
330
5
100
AcDbSymbolTableRecord
100
AcDbTextStyleTableRecord
  2
LiberationSans-BoldItalic
 70
0
 40
0.0
 41
1.0
 50
0.0
 71
0
 42
2.5
  3
LiberationSans-BoldItalic.ttf
  4

  0
STYLE
  5
51
330
5
100
AcDbSymbolTableRecord
100
AcDbTextStyleTableRecord
  2
LiberationSans-Italic
 70
0
 40
0.0
 41
1.0
 50
0.0
 71
0
 42
2.5
  3
LiberationSans-Italic.ttf
  4

  0
STYLE
  5
52
330
5
100
AcDbSymbolTableRecord
100
AcDbTextStyleTableRecord
  2
LiberationSerif
 70
0
 40
0.0
 41
1.0
 50
0.0
 71
0
 42
2.5
  3
LiberationSerif-Regular.ttf
  4

  0
STYLE
  5
53
330
5
100
AcDbSymbolTableRecord
100
AcDbTextStyleTableRecord
  2
LiberationSerif-Bold
 70
0
 40
0.0
 41
1.0
 50
0.0
 71
0
 42
2.5
  3
LiberationSerif-Bold.ttf
  4

  0
STYLE
  5
54
330
5
100
AcDbSymbolTableRecord
100
AcDbTextStyleTableRecord
  2
LiberationSerif-BoldItalic
 70
0
 40
0.0
 41
1.0
 50
0.0
 71
0
 42
2.5
  3
LiberationSerif-BoldItalic.ttf
  4

  0
STYLE
  5
55
330
5
100
AcDbSymbolTableRecord
100
AcDbTextStyleTableRecord
  2
LiberationSerif-Italic
 70
0
 40
0.0
 41
1.0
 50
0.0
 71
0
 42
2.5
  3
LiberationSerif-Italic.ttf
  4

  0
STYLE
  5
56
330
5
100
AcDbSymbolTableRecord
100
AcDbTextStyleTableRecord
  2
LiberationMono
 70
0
 40
0.0
 41
1.0
 50
0.0
 71
0
 42
2.5
  3
LiberationMono-Regular.ttf
  4

  0
STYLE
  5
57
330
5
100
AcDbSymbolTableRecord
100
AcDbTextStyleTableRecord
  2
LiberationMono-Bold
 70
0
 40
0.0
 41
1.0
 50
0.0
 71
0
 42
2.5
  3
LiberationMono-Bold.ttf
  4

  0
STYLE
  5
58
330
5
100
AcDbSymbolTableRecord
100
AcDbTextStyleTableRecord
  2
LiberationMono-BoldItalic
 70
0
 40
0.0
 41
1.0
 50
0.0
 71
0
 42
2.5
  3
LiberationMono-BoldItalic.ttf
  4

  0
STYLE
  5
59
330
5
100
AcDbSymbolTableRecord
100
AcDbTextStyleTableRecord
  2
LiberationMono-Italic
 70
0
 40
0.0
 41
1.0
 50
0.0
 71
0
 42
2.5
  3
LiberationMono-Italic.ttf
  4

  0
ENDTAB
  0
TABLE
  2
VIEW
  5
7
330
0
100
AcDbSymbolTable
 70
0
  0
ENDTAB
  0
TABLE
  2
UCS
  5
6
330
0
100
AcDbSymbolTable
 70
0
  0
ENDTAB
  0
TABLE
  2
APPID
  5
3
330
0
100
AcDbSymbolTable
 70
3
  0
APPID
  5
2A
330
3
100
AcDbSymbolTableRecord
100
AcDbRegAppTableRecord
  2
ACAD
 70
0
  0
APPID
  5
2B4
330
3
100
AcDbSymbolTableRecord
100
AcDbRegAppTableRecord
  2
HATCHBACKGROUNDCOLOR
 70
0
  0
APPID
  5
2B5
330
3
100
AcDbSymbolTableRecord
100
AcDbRegAppTableRecord
  2
EZDXF
 70
0
  0
ENDTAB
  0
TABLE
  2
DIMSTYLE
  5
4
330
0
100
AcDbSymbolTable
 70
12
100
AcDbDimStyleTable
  0
DIMSTYLE
105
2B
330
4
100
AcDbSymbolTableRecord
100
AcDbDimStyleTableRecord
  2
Standard
 70
0
 40
1.0
 41
2.5
 42
0.625
 43
3.75
 44
1.25
 45
0.0
 46
0.0
 47
0.0
 48
0.0
 49
2.5
140
2.5
141
2.5
142
0.0
143
0.03937007874
144
1.0
145
0.0
146
1.0
147
0.625
148
0.0
 69
0
 70
0
 71
0
 72
0
 73
0
 74
0
 75
0
 76
0
 77
1
 78
8
 79
3
170
0
171
3
172
1
173
0
174
0
175
0
176
0
177
0
178
0
179
2
271
2
272
2
273
2
274
3
275
0
276
0
277
2
278
44
279
0
280
0
281
0
282
0
283
0
284
8
285
0
286
0
288
0
289
3
290
0
371
-2
372
-2
  0
DIMSTYLE
105
73
330
4
100
AcDbSymbolTableRecord
100
AcDbDimStyleTableRecord
  2
EZDXF
 70
0
 40
1.0
 41
0.175
 42
0.125
 43
3.75
 44
0.375
 45
0.0
 46
0.0
 47
0.0
 48
0.0
 49
2.5
140
0.25
141
2.5
142
0.0
143
0.03937007874
144
100.0
145
0.0
146
0.5
147
0.1
148
0.0
 69
0
 70
0
 71
0
 72
0
 73
0
 74
0
 75
0
 76
0
 77
1
 78
12
 79
3
170
0
171
3
172
1
173
0
174
0
175
0
176
0
177
0
178
0
179
2
271
2
272
2
273
2
274
3
275
0
276
0
277
2
278
46
279
2
280
0
281
0
282
0
283
0
284
8
285
0
286
0
288
1
289
3
290
0
340
4C
342
74
371
-2
372
-2
  0
DIMSTYLE
105
7C
330
4
100
AcDbSymbolTableRecord
100
AcDbDimStyleTableRecord
  2
EZ_M_100_H25_CM
 70
0
 40
1.0
 41
0.25
 42
0.125
 43
3.75
 44
0.375
 45
0.0
 46
0.0
 47
0.0
 48
0.0
 49
2.5
140
0.25
141
2.5
142
0.125
143
0.03937007874
144
100.0
145
0.0
146
0.5
147
0.1
148
0.0
 69
0
 70
0
 71
0
 72
0
 73
0
 74
0
 75
0
 76
0
 77
1
 78
12
 79
3
170
0
171
3
172
1
173
0
174
0
175
0
176
0
177
0
178
0
179
2
271
2
272
2
273
2
274
3
275
0
276
0
277
2
278
46
279
2
280
0
281
0
282
0
283
0
284
8
285
0
286
0
288
1
289
3
290
0
340
4C
371
-2
372
-2
  0
DIMSTYLE
105
7D
330
4
100
AcDbSymbolTableRecord
100
AcDbDimStyleTableRecord
  2
EZ_M_50_H25_CM
 70
0
 40
1.0
 41
0.125
 42
0.0625
 43
3.75
 44
0.1875
 45
0.0
 46
0.0
 47
0.0
 48
0.0
 49
2.5
140
0.125
141
2.5
142
0.0625
143
0.03937007874
144
100.0
145
0.0
146
0.5
147
0.05
148
0.0
 69
0
 70
0
 71
0
 72
0
 73
0
 74
0
 75
0
 76
0
 77
1
 78
12
 79
3
170
0
171
3
172
1
173
0
174
0
175
0
176
0
177
0
178
0
179
2
271
2
272
2
273
2
274
3
275
0
276
0
277
2
278
46
279
2
280
0
281
0
282
0
283
0
284
8
285
0
286
0
288
1
289
3
290
0
340
4C
371
-2
372
-2
  0
DIMSTYLE
105
7E
330
4
100
AcDbSymbolTableRecord
100
AcDbDimStyleTableRecord
  2
EZ_M_25_H25_CM
 70
0
 40
1.0
 41
0.0625
 42
0.03125
 43
3.75
 44
0.09375
 45
0.0
 46
0.0
 47
0.0
 48
0.0
 49
2.5
140
0.0625
141
2.5
142
0.03125
143
0.03937007874
144
100.0
145
0.0
146
0.5
147
0.025
148
0.0
 69
0
 70
0
 71
0
 72
0
 73
0
 74
0
 75
0
 76
0
 77
1
 78
12
 79
3
170
0
171
3
172
1
173
0
174
0
175
0
176
0
177
0
178
0
179
2
271
2
272
2
273
2
274
3
275
0
276
0
277
2
278
46
279
2
280
0
281
0
282
0
283
0
284
8
285
0
286
0
288
1
289
3
290
0
340
4C
371
-2
372
-2
  0
DIMSTYLE
105
7F
330
4
100
AcDbSymbolTableRecord
100
AcDbDimStyleTableRecord
  2
EZ_M_20_H25_CM
 70
0
 40
1.0
 41
0.05
 42
0.025
 43
3.75
 44
0.07500000000000001
 45
0.0
 46
0.0
 47
0.0
 48
0.0
 49
2.5
140
0.05
141
2.5
142
0.025
143
0.03937007874
144
100.0
145
0.0
146
0.5
147
0.020000000000000004
148
0.0
 69
0
 70
0
 71
0
 72
0
 73
0
 74
0
 75
0
 76
0
 77
1
 78
12
 79
3
170
0
171
3
172
1
173
0
174
0
175
0
176
0
177
0
178
0
179
2
271
2
272
2
273
2
274
3
275
0
276
0
277
2
278
46
279
2
280
0
281
0
282
0
283
0
284
8
285
0
286
0
288
1
289
3
290
0
340
4C
371
-2
372
-2
  0
DIMSTYLE
105
80
330
4
100
AcDbSymbolTableRecord
100
AcDbDimStyleTableRecord
  2
EZ_M_10_H25_CM
 70
0
 40
1.0
 41
0.025
 42
0.0125
 43
3.75
 44
0.037500000000000006
 45
0.0
 46
0.0
 47
0.0
 48
0.0
 49
2.5
140
0.025
141
2.5
142
0.0125
143
0.03937007874
144
100.0
145
0.0
146
0.5
147
0.010000000000000002
148
0.0
 69
0
 70
0
 71
0
 72
0
 73
0
 74
0
 75
0
 76
0
 77
1
 78
12
 79
3
170
0
171
3
172
1
173
0
174
0
175
0
176
0
177
0
178
0
179
2
271
2
272
2
273
2
274
3
275
0
276
0
277
2
278
46
279
2
280
0
281
0
282
0
283
0
284
8
285
0
286
0
288
1
289
3
290
0
340
4C
371
-2
372
-2
  0
DIMSTYLE
105
81
330
4
100
AcDbSymbolTableRecord
100
AcDbDimStyleTableRecord
  2
EZ_M_5_H25_CM
 70
0
 40
1.0
 41
0.0125
 42
0.00625
 43
3.75
 44
0.018750000000000003
 45
0.0
 46
0.0
 47
0.0
 48
0.0
 49
2.5
140
0.0125
141
2.5
142
0.00625
143
0.03937007874
144
100.0
145
0.0
146
0.5
147
0.005000000000000001
148
0.0
 69
0
 70
0
 71
0
 72
0
 73
0
 74
0
 75
0
 76
0
 77
1
 78
12
 79
3
170
0
171
3
172
1
173
0
174
0
175
0
176
0
177
0
178
0
179
2
271
2
272
2
273
2
274
3
275
0
276
0
277
2
278
46
279
2
280
0
281
0
282
0
283
0
284
8
285
0
286
0
288
1
289
3
290
0
340
4C
371
-2
372
-2
  0
DIMSTYLE
105
82
330
4
100
AcDbSymbolTableRecord
100
AcDbDimStyleTableRecord
  2
EZ_M_1_H25_CM
 70
0
 40
1.0
 41
0.0025
 42
0.00125
 43
3.75
 44
0.00375
 45
0.0
 46
0.0
 47
0.0
 48
0.0
 49
2.5
140
0.0025
141
2.5
142
0.00125
143
0.03937007874
144
100.0
145
0.0
146
0.5
147
0.001
148
0.0
 69
0
 70
0
 71
0
 72
0
 73
0
 74
0
 75
0
 76
0
 77
1
 78
12
 79
3
170
0
171
3
172
1
173
0
174
0
175
0
176
0
177
0
178
0
179
2
271
2
272
2
273
2
274
3
275
0
276
0
277
2
278
46
279
2
280
0
281
0
282
0
283
0
284
8
285
0
286
0
288
1
289
3
290
0
340
4C
371
-2
372
-2
  0
DIMSTYLE
105
83
330
4
100
AcDbSymbolTableRecord
100
AcDbDimStyleTableRecord
  2
EZ_RADIUS
 70
0
 40
1.0
 41
0.25
 42
0.125
 43
3.75
 44
0.375
 45
0.0
 46
0.0
 47
0.0
 48
0.0
 49
2.5
140
0.25
141
0.0
142
0.0
143
0.03937007874
144
100.0
145
0.0
146
0.5
147
0.1
148
0.0
 69
0
 70
0
 71
0
 72
0
 73
0
 74
0
 75
0
 76
0
 77
1
 78
12
 79
3
170
0
171
3
172
0
173
0
174
0
175
0
176
0
177
0
178
0
179
2
271
2
272
2
273
2
274
3
275
0
276
0
277
2
278
46
279
1
280
0
281
0
282
0
283
0
284
8
285
0
286
0
288
1
289
3
290
0
340
4C
342
84
371
-2
372
-2
  0
DIMSTYLE
105
88
330
4
100
AcDbSymbolTableRecord
100
AcDbDimStyleTableRecord
  2
EZ_RADIUS_INSIDE
 70
0
 40
1.0
 41
0.25
 42
0.125
 43
3.75
 44
0.375
 45
0.0
 46
0.0
 47
0.0
 48
0.0
 49
2.5
140
0.25
141
0.0
142
0.0
143
0.03937007874
144
100.0
145
0.0
146
0.5
147
0.1
148
0.0
 69
0
 70
0
 71
0
 72
0
 73
0
 74
0
 75
0
 76
0
 77
0
 78
12
 79
3
170
0
171
3
172
0
173
0
174
1
175
0
176
0
177
0
178
0
179
2
271
2
272
2
273
2
274
3
275
0
276
0
277
2
278
46
279
0
280
0
281
0
282
0
283
0
284
8
285
0
286
0
288
1
289
0
290
0
340
4C
342
84
371
-2
372
-2
  0
DIMSTYLE
105
89
330
4
100
AcDbSymbolTableRecord
100
AcDbDimStyleTableRecord
  2
EZ_CURVED
 70
0
 40
1.0
 41
0.25
 42
0.125
 43
3.75
 44
0.375
 45
0.0
 46
0.0
 47
0.0
 48
0.0
 49
2.5
140
0.25
141
2.5
142
0.0
143
0.03937007874
144
100.0
145
0.0
146
0.5
147
0.1
148
0.0
 69
0
 70
0
 71
0
 72
0
 73
0
 74
0
 75
0
 76
0
 77
1
 78
12
 79
2
 90
2
170
0
171
3
172
1
173
0
174
0
175
0
176
0
177
0
178
0
179
2
271
2
272
2
273
2
274
3
275
0
276
0
277
2
278
46
279
2
280
0
281
0
282
0
283
0
284
8
285
0
286
0
288
1
289
3
290
0
340
4C
371
-2
372
-2
  0
ENDTAB
  0
TABLE
  2
BLOCK_RECORD
  5
9
330
0
100
AcDbSymbolTable
 70
22
  0
BLOCK_RECORD
  5
17
330
9
100
AcDbSymbolTableRecord
100
AcDbBlockTableRecord
  2
*Model_Space
340
1A
 70
0
280
1
281
0
  0
BLOCK_RECORD
  5
1B
330
9
100
AcDbSymbolTableRecord
100
AcDbBlockTableRecord
  2
*Paper_Space
340
1E
 70
0
280
1
281
0
  0
BLOCK_RECORD
  5
74
330
9
100
AcDbSymbolTableRecord
100
AcDbBlockTableRecord
  2
_ARCHTICK
340
0
 70
0
280
1
281
0
  0
BLOCK_RECORD
  5
78
330
9
100
AcDbSymbolTableRecord
100
AcDbBlockTableRecord
  2
_CLOSEDFILLED
340
0
 70
0
280
1
281
0
  0
BLOCK_RECORD
  5
84
330
9
100
AcDbSymbolTableRecord
100
AcDbBlockTableRecord
  2
_CLOSEDBLANK
340
0
 70
0
280
1
281
0
  0
BLOCK_RECORD
  5
181
330
9
100
AcDbSymbolTableRecord
100
AcDbBlockTableRecord
  2
*D1
340
0
 70
0
280
1
281
0
  0
BLOCK_RECORD
  5
186
330
9
100
AcDbSymbolTableRecord
100
AcDbBlockTableRecord
  2
_OBLIQUE
340
0
 70
0
280
1
281
0
  0
BLOCK_RECORD
  5
194
330
9
100
AcDbSymbolTableRecord
100
AcDbBlockTableRecord
  2
*D2
340
0
 70
0
280
1
281
0
  0
BLOCK_RECORD
  5
1A2
330
9
100
AcDbSymbolTableRecord
100
AcDbBlockTableRecord
  2
*D3
340
0
 70
0
280
1
281
0
  0
BLOCK_RECORD
  5
1B0
330
9
100
AcDbSymbolTableRecord
100
AcDbBlockTableRecord
  2
*D4
340
0
 70
0
280
1
281
0
  0
BLOCK_RECORD
  5
1FE
330
9
100
AcDbSymbolTableRecord
100
AcDbBlockTableRecord
  2
*D5
340
0
 70
0
280
1
281
0
  0
BLOCK_RECORD
  5
20D
330
9
100
AcDbSymbolTableRecord
100
AcDbBlockTableRecord
  2
*D6
340
0
 70
0
280
1
281
0
  0
BLOCK_RECORD
  5
21B
330
9
100
AcDbSymbolTableRecord
100
AcDbBlockTableRecord
  2
*D7
340
0
 70
0
280
1
281
0
  0
BLOCK_RECORD
  5
229
330
9
100
AcDbSymbolTableRecord
100
AcDbBlockTableRecord
  2
*D8
340
0
 70
0
280
1
281
0
  0
BLOCK_RECORD
  5
23E
330
9
100
AcDbSymbolTableRecord
100
AcDbBlockTableRecord
  2
*D9
340
0
 70
0
280
1
281
0
  0
BLOCK_RECORD
  5
24D
330
9
100
AcDbSymbolTableRecord
100
AcDbBlockTableRecord
  2
*D10
340
0
 70
0
280
1
281
0
  0
BLOCK_RECORD
  5
25B
330
9
100
AcDbSymbolTableRecord
100
AcDbBlockTableRecord
  2
*D11
340
0
 70
0
280
1
281
0
  0
BLOCK_RECORD
  5
269
330
9
100
AcDbSymbolTableRecord
100
AcDbBlockTableRecord
  2
*D12
340
0
 70
0
280
1
281
0
  0
BLOCK_RECORD
  5
27B
330
9
100
AcDbSymbolTableRecord
100
AcDbBlockTableRecord
  2
*D13
340
0
 70
0
280
1
281
0
  0
BLOCK_RECORD
  5
28A
330
9
100
AcDbSymbolTableRecord
100
AcDbBlockTableRecord
  2
*D14
340
0
 70
0
280
1
281
0
  0
BLOCK_RECORD
  5
298
330
9
100
AcDbSymbolTableRecord
100
AcDbBlockTableRecord
  2
*D15
340
0
 70
0
280
1
281
0
  0
BLOCK_RECORD
  5
2A6
330
9
100
AcDbSymbolTableRecord
100
AcDbBlockTableRecord
  2
*D16
340
0
 70
0
280
1
281
0
  0
ENDTAB
  0
ENDSEC
  0
SECTION
  2
BLOCKS
  0
BLOCK
  5
18
330
17
100
AcDbEntity
  8
0
100
AcDbBlockBegin
  2
*Model_Space
 70
0
 10
0.0
 20
0.0
 30
0.0
  3
*Model_Space
  1

  0
ENDBLK
  5
19
330
17
100
AcDbEntity
  8
0
100
AcDbBlockEnd
  0
BLOCK
  5
1C
330
1B
100
AcDbEntity
  8
0
100
AcDbBlockBegin
  2
*Paper_Space
 70
0
 10
0.0
 20
0.0
 30
0.0
  3
*Paper_Space
  1

  0
ENDBLK
  5
1D
330
1B
100
AcDbEntity
  8
0
100
AcDbBlockEnd
  0
BLOCK
  5
75
330
74
100
AcDbEntity
  8
0
100
AcDbBlockBegin
  2
_ARCHTICK
 70
0
 10
0.0
 20
0.0
 30
0.0
  3
_ARCHTICK
  1

  0
LWPOLYLINE
  5
77
330
74
100
AcDbEntity
  8
0
  6
BYBLOCK
 62
0
100
AcDbPolyline
 90
2
 70
0
 43
0.15
 10
-0.5
 20
-0.5
 10
0.5
 20
0.5
  0
ENDBLK
  5
76
330
74
100
AcDbEntity
  8
0
100
AcDbBlockEnd
  0
BLOCK
  5
79
330
78
100
AcDbEntity
  8
0
100
AcDbBlockBegin
  2
_CLOSEDFILLED
 70
0
 10
0.0
 20
0.0
 30
0.0
  3
_CLOSEDFILLED
  1

  0
SOLID
  5
7B
330
78
100
AcDbEntity
  8
0
  6
BYBLOCK
 62
0
100
AcDbTrace
 10
-1.0
 20
0.16439898372402537
 30
0.0
 11
0.0
 21
0.0
 31
0.0
 12
-1.0
 22
-0.16439898372402537
 32
0.0
 13
-1.0
 23
-0.16439898372402537
 33
0.0
  0
ENDBLK
  5
7A
330
78
100
AcDbEntity
  8
0
100
AcDbBlockEnd
  0
BLOCK
  5
85
330
84
100
AcDbEntity
  8
0
100
AcDbBlockBegin
  2
_CLOSEDBLANK
 70
0
 10
0.0
 20
0.0
 30
0.0
  3
_CLOSEDBLANK
  1

  0
LWPOLYLINE
  5
87
330
84
100
AcDbEntity
  8
0
  6
BYBLOCK
 62
0
100
AcDbPolyline
 90
3
 70
1
 10
-1.0
 20
0.16439898372402537
 10
0.0
 20
0.0
 10
-1.0
 20
-0.16439898372402537
  0
ENDBLK
  5
86
330
84
100
AcDbEntity
  8
0
100
AcDbBlockEnd
  0
BLOCK
  5
182
330
181
100
AcDbEntity
  8
0
100
AcDbBlockBegin
  2
*D1
 70
1
 10
0.0
 20
0.0
 30
0.0
  3
*D1
  1

  0
LINE
  5
184
330
181
100
AcDbEntity
  8
0
100
AcDbLine
 10
1.98475
 20
1.0
 30
0.0
 11
1.8722500000000002
 21
1.0
 31
0.0
  0
LINE
  5
185
330
181
100
AcDbEntity
  8
0
100
AcDbLine
 10
1.98475
 20
3.9999999999999996
 30
0.0
 11
1.8722500000000002
 21
3.9999999999999996
 31
0.0
  0
INSERT
  5
18A
330
181
100
AcDbEntity
  8
0
100
AcDbBlockReference
  2
_OBLIQUE
 10
1.9660000000000002
 20
1.0
 30
0.0
 41
0.0625
 42
0.0625
 50
90.0
  0
INSERT
  5
18C
330
181
100
AcDbEntity
  8
0
100
AcDbBlockReference
  2
_OBLIQUE
 10
1.9660000000000002
 20
3.9999999999999996
 30
0.0
 41
0.0625
 42
0.0625
 50
90.0
  0
LINE
  5
18E
330
181
100
AcDbEntity
  8
0
100
AcDbLine
 10
1.9660000000000002
 20
1.0
 30
0.0
 11
1.9660000000000002
 21
3.9999999999999996
 31
0.0
  0
MTEXT
  5
18F
330
181
100
AcDbEntity
  8
0
100
AcDbMText
 10
1.9097499999999998
 20
2.5
 30
0.0
 40
0.0625
 71
5
  1
300
  7
OpenSansCondensed-Light
 11
6.123233995736766e-17
 21
1.0
 31
0.0
  0
POINT
  5
190
330
181
100
AcDbEntity
  8
Defpoints
100
AcDbPoint
 10
1.9660000000000002
 20
1.0
 30
0.0
  0
POINT
  5
191
330
181
100
AcDbEntity
  8
Defpoints
100
AcDbPoint
 10
2.016
 20
1.0
 30
0.0
  0
POINT
  5
192
330
181
100
AcDbEntity
  8
Defpoints
100
AcDbPoint
 10
2.016
 20
3.9999999999999996
 30
0.0
  0
ENDBLK
  5
183
330
181
100
AcDbEntity
  8
0
100
AcDbBlockEnd
  0
BLOCK
  5
187
330
186
100
AcDbEntity
  8
0
100
AcDbBlockBegin
  2
_OBLIQUE
 70
0
 10
0.0
 20
0.0
 30
0.0
  3
_OBLIQUE
  1

  0
LINE
  5
189
330
186
100
AcDbEntity
  8
0
  6
BYBLOCK
 62
0
100
AcDbLine
 10
-0.5
 20
-0.5
 30
0.0
 11
0.5
 21
0.5
 31
0.0
  0
ENDBLK
  5
188
330
186
100
AcDbEntity
  8
0
100
AcDbBlockEnd
  0
BLOCK
  5
195
330
194
100
AcDbEntity
  8
0
100
AcDbBlockBegin
  2
*D2
 70
1
 10
0.0
 20
0.0
 30
0.0
  3
*D2
  1

  0
LINE
  5
197
330
194
100
AcDbEntity
  8
0
100
AcDbLine
 10
8.016
 20
0.9687499999999996
 30
0.0
 11
8.016
 21
0.8562499999999995
 31
0.0
  0
LINE
  5
198
330
194
100
AcDbEntity
  8
0
100
AcDbLine
 10
2.016
 20
0.96875
 30
0.0
 11
2.016
 21
0.85625
 31
0.0
  0
INSERT
  5
199
330
194
100
AcDbEntity
  8
0
100
AcDbBlockReference
  2
_OBLIQUE
 10
8.016
 20
0.9499999999999995
 30
0.0
 41
0.0625
 42
0.0625
 50
180.0
  0
INSERT
  5
19B
330
194
100
AcDbEntity
  8
0
100
AcDbBlockReference
  2
_OBLIQUE
 10
2.016
 20
0.95
 30
0.0
 41
0.0625
 42
0.0625
 50
180.0
  0
LINE
  5
19D
330
194
100
AcDbEntity
  8
0
100
AcDbLine
 10
8.016
 20
0.9499999999999995
 30
0.0
 11
2.016
 21
0.95
 31
0.0
  0
MTEXT
  5
19E
330
194
100
AcDbEntity
  8
0
100
AcDbMText
 10
5.016
 20
0.8937499999999998
 30
0.0
 40
0.0625
 71
5
  1
600
  7
OpenSansCondensed-Light
 11
-1.0
 21
1.2246467991473532e-16
 31
0.0
  0
POINT
  5
19F
330
194
100
AcDbEntity
  8
Defpoints
100
AcDbPoint
 10
8.016
 20
0.9499999999999995
 30
0.0
  0
POINT
  5
1A0
330
194
100
AcDbEntity
  8
Defpoints
100
AcDbPoint
 10
8.016
 20
0.9999999999999996
 30
0.0
  0
POINT
  5
1A1
330
194
100
AcDbEntity
  8
Defpoints
100
AcDbPoint
 10
2.016
 20
1.0
 30
0.0
  0
ENDBLK
  5
196
330
194
100
AcDbEntity
  8
0
100
AcDbBlockEnd
  0
BLOCK
  5
1A3
330
1A2
100
AcDbEntity
  8
0
100
AcDbBlockBegin
  2
*D3
 70
1
 10
0.0
 20
0.0
 30
0.0
  3
*D3
  1

  0
LINE
  5
1A5
330
1A2
100
AcDbEntity
  8
0
100
AcDbLine
 10
1.98475
 20
1.0
 30
0.0
 11
1.8722500000000002
 21
1.0
 31
0.0
  0
LINE
  5
1A6
330
1A2
100
AcDbEntity
  8
0
100
AcDbLine
 10
1.98475
 20
3.9999999999999996
 30
0.0
 11
1.8722500000000002
 21
3.9999999999999996
 31
0.0
  0
INSERT
  5
1A7
330
1A2
100
AcDbEntity
  8
0
100
AcDbBlockReference
  2
_OBLIQUE
 10
1.9660000000000002
 20
1.0
 30
0.0
 41
0.0625
 42
0.0625
 50
90.0
  0
INSERT
  5
1A9
330
1A2
100
AcDbEntity
  8
0
100
AcDbBlockReference
  2
_OBLIQUE
 10
1.9660000000000002
 20
3.9999999999999996
 30
0.0
 41
0.0625
 42
0.0625
 50
90.0
  0
LINE
  5
1AB
330
1A2
100
AcDbEntity
  8
0
100
AcDbLine
 10
1.9660000000000002
 20
1.0
 30
0.0
 11
1.9660000000000002
 21
3.9999999999999996
 31
0.0
  0
MTEXT
  5
1AC
330
1A2
100
AcDbEntity
  8
0
100
AcDbMText
 10
1.9097500000000003
 20
2.5
 30
0.0
 40
0.0625
 71
5
  1
300
  7
OpenSansCondensed-Light
 50
90.0
  0
POINT
  5
1AD
330
1A2
100
AcDbEntity
  8
Defpoints
100
AcDbPoint
 10
1.9660000000000002
 20
1.0
 30
0.0
  0
POINT
  5
1AE
330
1A2
100
AcDbEntity
  8
Defpoints
100
AcDbPoint
 10
2.016
 20
1.0
 30
0.0
  0
POINT
  5
1AF
330
1A2
100
AcDbEntity
  8
Defpoints
100
AcDbPoint
 10
2.016
 20
3.9999999999999996
 30
0.0
  0
ENDBLK
  5
1A4
330
1A2
100
AcDbEntity
  8
0
100
AcDbBlockEnd
  0
BLOCK
  5
1B1
330
1B0
100
AcDbEntity
  8
0
100
AcDbBlockBegin
  2
*D4
 70
1
 10
0.0
 20
0.0
 30
0.0
  3
*D4
  1

  0
LINE
  5
1B3
330
1B0
100
AcDbEntity
  8
0
100
AcDbLine
 10
8.016
 20
0.9687499999999996
 30
0.0
 11
8.016
 21
0.8562499999999995
 31
0.0
  0
LINE
  5
1B4
330
1B0
100
AcDbEntity
  8
0
100
AcDbLine
 10
2.016
 20
0.96875
 30
0.0
 11
2.016
 21
0.8562499999999995
 31
0.0
  0
INSERT
  5
1B5
330
1B0
100
AcDbEntity
  8
0
100
AcDbBlockReference
  2
_OBLIQUE
 10
8.016
 20
0.9499999999999995
 30
0.0
 41
0.0625
 42
0.0625
 50
180.0
  0
INSERT
  5
1B7
330
1B0
100
AcDbEntity
  8
0
100
AcDbBlockReference
  2
_OBLIQUE
 10
2.016
 20
0.9499999999999995
 30
0.0
 41
0.0625
 42
0.0625
 50
180.0
  0
LINE
  5
1B9
330
1B0
100
AcDbEntity
  8
0
100
AcDbLine
 10
8.016
 20
0.9499999999999995
 30
0.0
 11
2.016
 21
0.9499999999999995
 31
0.0
  0
MTEXT
  5
1BA
330
1B0
100
AcDbEntity
  8
0
100
AcDbMText
 10
5.016
 20
0.8937499999999995
 30
0.0
 40
0.0625
 71
5
  1
600
  7
OpenSansCondensed-Light
  0
POINT
  5
1BB
330
1B0
100
AcDbEntity
  8
Defpoints
100
AcDbPoint
 10
8.016
 20
0.9499999999999995
 30
0.0
  0
POINT
  5
1BC
330
1B0
100
AcDbEntity
  8
Defpoints
100
AcDbPoint
 10
8.016
 20
0.9999999999999996
 30
0.0
  0
POINT
  5
1BD
330
1B0
100
AcDbEntity
  8
Defpoints
100
AcDbPoint
 10
2.016
 20
1.0
 30
0.0
  0
ENDBLK
  5
1B2
330
1B0
100
AcDbEntity
  8
0
100
AcDbBlockEnd
  0
BLOCK
  5
1FF
330
1FE
100
AcDbEntity
  8
0
100
AcDbBlockBegin
  2
*D5
 70
1
 10
0.0
 20
0.0
 30
0.0
  3
*D5
  1

  0
LINE
  5
201
330
1FE
100
AcDbEntity
  8
0
100
AcDbLine
 10
8.968749999999998
 20
1.0
 30
0.0
 11
8.85625
 21
1.0
 31
0.0
  0
LINE
  5
202
330
1FE
100
AcDbEntity
  8
0
100
AcDbLine
 10
8.968749999999998
 20
4.0
 30
0.0
 11
8.85625
 21
4.0
 31
0.0
  0
INSERT
  5
203
330
1FE
100
AcDbEntity
  8
0
100
AcDbBlockReference
  2
_OBLIQUE
 10
8.95
 20
1.0
 30
0.0
 41
0.0625
 42
0.0625
 50
90.0
  0
INSERT
  5
205
330
1FE
100
AcDbEntity
  8
0
100
AcDbBlockReference
  2
_OBLIQUE
 10
8.95
 20
4.0
 30
0.0
 41
0.0625
 42
0.0625
 50
90.0
  0
LINE
  5
207
330
1FE
100
AcDbEntity
  8
0
100
AcDbLine
 10
8.95
 20
1.0
 30
0.0
 11
8.95
 21
4.0
 31
0.0
  0
MTEXT
  5
208
330
1FE
100
AcDbEntity
  8
0
100
AcDbMText
 10
8.893749999999999
 20
2.5
 30
0.0
 40
0.0625
 71
5
  1
300
  7
OpenSansCondensed-Light
 11
6.123233995736766e-17
 21
1.0
 31
0.0
  0
POINT
  5
209
330
1FE
100
AcDbEntity
  8
Defpoints
100
AcDbPoint
 10
8.95
 20
1.0
 30
0.0
  0
POINT
  5
20A
330
1FE
100
AcDbEntity
  8
Defpoints
100
AcDbPoint
 10
8.999999999999998
 20
1.0
 30
0.0
  0
POINT
  5
20B
330
1FE
100
AcDbEntity
  8
Defpoints
100
AcDbPoint
 10
8.999999999999998
 20
4.0
 30
0.0
  0
ENDBLK
  5
200
330
1FE
100
AcDbEntity
  8
0
100
AcDbBlockEnd
  0
BLOCK
  5
20E
330
20D
100
AcDbEntity
  8
0
100
AcDbBlockBegin
  2
*D6
 70
1
 10
0.0
 20
0.0
 30
0.0
  3
*D6
  1

  0
LINE
  5
210
330
20D
100
AcDbEntity
  8
0
100
AcDbLine
 10
14.999999999999998
 20
0.96875
 30
0.0
 11
14.999999999999998
 21
0.8562499999999993
 31
0.0
  0
LINE
  5
211
330
20D
100
AcDbEntity
  8
0
100
AcDbLine
 10
8.999999999999998
 20
0.96875
 30
0.0
 11
8.999999999999998
 21
0.8562499999999993
 31
0.0
  0
INSERT
  5
212
330
20D
100
AcDbEntity
  8
0
100
AcDbBlockReference
  2
_OBLIQUE
 10
14.999999999999998
 20
0.9499999999999993
 30
0.0
 41
0.0625
 42
0.0625
 50
180.0
  0
INSERT
  5
214
330
20D
100
AcDbEntity
  8
0
100
AcDbBlockReference
  2
_OBLIQUE
 10
8.999999999999998
 20
0.9499999999999993
 30
0.0
 41
0.0625
 42
0.0625
 50
180.0
  0
LINE
  5
216
330
20D
100
AcDbEntity
  8
0
100
AcDbLine
 10
14.999999999999998
 20
0.9499999999999993
 30
0.0
 11
8.999999999999998
 21
0.9499999999999993
 31
0.0
  0
MTEXT
  5
217
330
20D
100
AcDbEntity
  8
0
100
AcDbMText
 10
11.999999999999998
 20
0.8937499999999989
 30
0.0
 40
0.0625
 71
5
  1
600
  7
OpenSansCondensed-Light
 11
-1.0
 21
1.2246467991473532e-16
 31
0.0
  0
POINT
  5
218
330
20D
100
AcDbEntity
  8
Defpoints
100
AcDbPoint
 10
14.999999999999998
 20
0.9499999999999993
 30
0.0
  0
POINT
  5
219
330
20D
100
AcDbEntity
  8
Defpoints
100
AcDbPoint
 10
14.999999999999998
 20
1.0
 30
0.0
  0
POINT
  5
21A
330
20D
100
AcDbEntity
  8
Defpoints
100
AcDbPoint
 10
8.999999999999998
 20
1.0
 30
0.0
  0
ENDBLK
  5
20F
330
20D
100
AcDbEntity
  8
0
100
AcDbBlockEnd
  0
BLOCK
  5
21C
330
21B
100
AcDbEntity
  8
0
100
AcDbBlockBegin
  2
*D7
 70
1
 10
0.0
 20
0.0
 30
0.0
  3
*D7
  1

  0
LINE
  5
21E
330
21B
100
AcDbEntity
  8
0
100
AcDbLine
 10
8.968749999999998
 20
1.0
 30
0.0
 11
8.85625
 21
1.0
 31
0.0
  0
LINE
  5
21F
330
21B
100
AcDbEntity
  8
0
100
AcDbLine
 10
8.968749999999998
 20
4.0
 30
0.0
 11
8.85625
 21
4.0
 31
0.0
  0
INSERT
  5
220
330
21B
100
AcDbEntity
  8
0
100
AcDbBlockReference
  2
_OBLIQUE
 10
8.95
 20
1.0
 30
0.0
 41
0.0625
 42
0.0625
 50
90.0
  0
INSERT
  5
222
330
21B
100
AcDbEntity
  8
0
100
AcDbBlockReference
  2
_OBLIQUE
 10
8.95
 20
4.0
 30
0.0
 41
0.0625
 42
0.0625
 50
90.0
  0
LINE
  5
224
330
21B
100
AcDbEntity
  8
0
100
AcDbLine
 10
8.95
 20
1.0
 30
0.0
 11
8.95
 21
4.0
 31
0.0
  0
MTEXT
  5
225
330
21B
100
AcDbEntity
  8
0
100
AcDbMText
 10
8.893749999999999
 20
2.5
 30
0.0
 40
0.0625
 71
5
  1
300
  7
OpenSansCondensed-Light
 50
90.0
  0
POINT
  5
226
330
21B
100
AcDbEntity
  8
Defpoints
100
AcDbPoint
 10
8.95
 20
1.0
 30
0.0
  0
POINT
  5
227
330
21B
100
AcDbEntity
  8
Defpoints
100
AcDbPoint
 10
8.999999999999998
 20
1.0
 30
0.0
  0
POINT
  5
228
330
21B
100
AcDbEntity
  8
Defpoints
100
AcDbPoint
 10
8.999999999999998
 20
4.0
 30
0.0
  0
ENDBLK
  5
21D
330
21B
100
AcDbEntity
  8
0
100
AcDbBlockEnd
  0
BLOCK
  5
22A
330
229
100
AcDbEntity
  8
0
100
AcDbBlockBegin
  2
*D8
 70
1
 10
0.0
 20
0.0
 30
0.0
  3
*D8
  1

  0
LINE
  5
22C
330
229
100
AcDbEntity
  8
0
100
AcDbLine
 10
14.999999999999998
 20
0.96875
 30
0.0
 11
14.999999999999998
 21
0.8562499999999993
 31
0.0
  0
LINE
  5
22D
330
229
100
AcDbEntity
  8
0
100
AcDbLine
 10
8.999999999999998
 20
0.96875
 30
0.0
 11
8.999999999999998
 21
0.8562499999999993
 31
0.0
  0
INSERT
  5
22E
330
229
100
AcDbEntity
  8
0
100
AcDbBlockReference
  2
_OBLIQUE
 10
14.999999999999998
 20
0.9499999999999993
 30
0.0
 41
0.0625
 42
0.0625
 50
180.0
  0
INSERT
  5
230
330
229
100
AcDbEntity
  8
0
100
AcDbBlockReference
  2
_OBLIQUE
 10
8.999999999999998
 20
0.9499999999999993
 30
0.0
 41
0.0625
 42
0.0625
 50
180.0
  0
LINE
  5
232
330
229
100
AcDbEntity
  8
0
100
AcDbLine
 10
14.999999999999998
 20
0.9499999999999993
 30
0.0
 11
8.999999999999998
 21
0.9499999999999993
 31
0.0
  0
MTEXT
  5
233
330
229
100
AcDbEntity
  8
0
100
AcDbMText
 10
11.999999999999998
 20
0.8937499999999993
 30
0.0
 40
0.0625
 71
5
  1
600
  7
OpenSansCondensed-Light
  0
POINT
  5
234
330
229
100
AcDbEntity
  8
Defpoints
100
AcDbPoint
 10
14.999999999999998
 20
0.9499999999999993
 30
0.0
  0
POINT
  5
235
330
229
100
AcDbEntity
  8
Defpoints
100
AcDbPoint
 10
14.999999999999998
 20
1.0
 30
0.0
  0
POINT
  5
236
330
229
100
AcDbEntity
  8
Defpoints
100
AcDbPoint
 10
8.999999999999998
 20
1.0
 30
0.0
  0
ENDBLK
  5
22B
330
229
100
AcDbEntity
  8
0
100
AcDbBlockEnd
  0
BLOCK
  5
23F
330
23E
100
AcDbEntity
  8
0
100
AcDbBlockBegin
  2
*D9
 70
1
 10
0.0
 20
0.0
 30
0.0
  3
*D9
  1

  0
LINE
  5
241
330
23E
100
AcDbEntity
  8
0
100
AcDbLine
 10
1.9847500000000002
 20
-5.0
 30
0.0
 11
1.8722500000000002
 21
-5.0
 31
0.0
  0
LINE
  5
242
330
23E
100
AcDbEntity
  8
0
100
AcDbLine
 10
1.9847500000000002
 20
-2.0
 30
0.0
 11
1.8722500000000002
 21
-2.0
 31
0.0
  0
INSERT
  5
243
330
23E
100
AcDbEntity
  8
0
100
AcDbBlockReference
  2
_OBLIQUE
 10
1.9660000000000002
 20
-5.0
 30
0.0
 41
0.0625
 42
0.0625
 50
90.0
  0
INSERT
  5
245
330
23E
100
AcDbEntity
  8
0
100
AcDbBlockReference
  2
_OBLIQUE
 10
1.9660000000000002
 20
-2.0
 30
0.0
 41
0.0625
 42
0.0625
 50
90.0
  0
LINE
  5
247
330
23E
100
AcDbEntity
  8
0
100
AcDbLine
 10
1.9660000000000002
 20
-5.0
 30
0.0
 11
1.9660000000000002
 21
-2.0
 31
0.0
  0
MTEXT
  5
248
330
23E
100
AcDbEntity
  8
0
100
AcDbMText
 10
1.9097500000000003
 20
-3.5
 30
0.0
 40
0.0625
 71
5
  1
300
  7
OpenSansCondensed-Light
 11
6.123233995736766e-17
 21
1.0
 31
0.0
  0
POINT
  5
249
330
23E
100
AcDbEntity
  8
Defpoints
100
AcDbPoint
 10
1.9660000000000002
 20
-5.0
 30
0.0
  0
POINT
  5
24A
330
23E
100
AcDbEntity
  8
Defpoints
100
AcDbPoint
 10
2.016
 20
-5.0
 30
0.0
  0
POINT
  5
24B
330
23E
100
AcDbEntity
  8
Defpoints
100
AcDbPoint
 10
2.0160000000000005
 20
-2.0
 30
0.0
  0
ENDBLK
  5
240
330
23E
100
AcDbEntity
  8
0
100
AcDbBlockEnd
  0
BLOCK
  5
24E
330
24D
100
AcDbEntity
  8
0
100
AcDbBlockBegin
  2
*D10
 70
1
 10
0.0
 20
0.0
 30
0.0
  3
*D10
  1

  0
LINE
  5
250
330
24D
100
AcDbEntity
  8
0
100
AcDbLine
 10
8.016
 20
-5.03125
 30
0.0
 11
8.016
 21
-5.143750000000001
 31
0.0
  0
LINE
  5
251
330
24D
100
AcDbEntity
  8
0
100
AcDbLine
 10
2.016
 20
-5.03125
 30
0.0
 11
2.016
 21
-5.14375
 31
0.0
  0
INSERT
  5
252
330
24D
100
AcDbEntity
  8
0
100
AcDbBlockReference
  2
_OBLIQUE
 10
8.016
 20
-5.050000000000001
 30
0.0
 41
0.0625
 42
0.0625
 50
180.0
  0
INSERT
  5
254
330
24D
100
AcDbEntity
  8
0
100
AcDbBlockReference
  2
_OBLIQUE
 10
2.016
 20
-5.05
 30
0.0
 41
0.0625
 42
0.0625
 50
180.0
  0
LINE
  5
256
330
24D
100
AcDbEntity
  8
0
100
AcDbLine
 10
8.016
 20
-5.050000000000001
 30
0.0
 11
2.016
 21
-5.05
 31
0.0
  0
MTEXT
  5
257
330
24D
100
AcDbEntity
  8
0
100
AcDbMText
 10
5.016
 20
-5.10625
 30
0.0
 40
0.0625
 71
5
  1
600
  7
OpenSansCondensed-Light
 11
-1.0
 21
1.2246467991473532e-16
 31
0.0
  0
POINT
  5
258
330
24D
100
AcDbEntity
  8
Defpoints
100
AcDbPoint
 10
8.016
 20
-5.050000000000001
 30
0.0
  0
POINT
  5
259
330
24D
100
AcDbEntity
  8
Defpoints
100
AcDbPoint
 10
8.016
 20
-5.0
 30
0.0
  0
POINT
  5
25A
330
24D
100
AcDbEntity
  8
Defpoints
100
AcDbPoint
 10
2.016
 20
-5.0
 30
0.0
  0
ENDBLK
  5
24F
330
24D
100
AcDbEntity
  8
0
100
AcDbBlockEnd
  0
BLOCK
  5
25C
330
25B
100
AcDbEntity
  8
0
100
AcDbBlockBegin
  2
*D11
 70
1
 10
0.0
 20
0.0
 30
0.0
  3
*D11
  1

  0
LINE
  5
25E
330
25B
100
AcDbEntity
  8
0
100
AcDbLine
 10
1.98475
 20
-5.0
 30
0.0
 11
1.8722500000000002
 21
-5.0
 31
0.0
  0
LINE
  5
25F
330
25B
100
AcDbEntity
  8
0
100
AcDbLine
 10
1.9847500000000005
 20
-2.0
 30
0.0
 11
1.8722500000000002
 21
-2.0
 31
0.0
  0
INSERT
  5
260
330
25B
100
AcDbEntity
  8
0
100
AcDbBlockReference
  2
_OBLIQUE
 10
1.9660000000000002
 20
-5.0
 30
0.0
 41
0.0625
 42
0.0625
 50
90.0
  0
INSERT
  5
262
330
25B
100
AcDbEntity
  8
0
100
AcDbBlockReference
  2
_OBLIQUE
 10
1.9660000000000002
 20
-2.0
 30
0.0
 41
0.0625
 42
0.0625
 50
90.0
  0
LINE
  5
264
330
25B
100
AcDbEntity
  8
0
100
AcDbLine
 10
1.9660000000000002
 20
-5.0
 30
0.0
 11
1.9660000000000002
 21
-2.0
 31
0.0
  0
MTEXT
  5
265
330
25B
100
AcDbEntity
  8
0
100
AcDbMText
 10
1.9097500000000003
 20
-3.5
 30
0.0
 40
0.0625
 71
5
  1
300
  7
OpenSansCondensed-Light
 50
90.0
  0
POINT
  5
266
330
25B
100
AcDbEntity
  8
Defpoints
100
AcDbPoint
 10
1.9660000000000002
 20
-5.0
 30
0.0
  0
POINT
  5
267
330
25B
100
AcDbEntity
  8
Defpoints
100
AcDbPoint
 10
2.016
 20
-5.0
 30
0.0
  0
POINT
  5
268
330
25B
100
AcDbEntity
  8
Defpoints
100
AcDbPoint
 10
2.0160000000000005
 20
-2.0
 30
0.0
  0
ENDBLK
  5
25D
330
25B
100
AcDbEntity
  8
0
100
AcDbBlockEnd
  0
BLOCK
  5
26A
330
269
100
AcDbEntity
  8
0
100
AcDbBlockBegin
  2
*D12
 70
1
 10
0.0
 20
0.0
 30
0.0
  3
*D12
  1

  0
LINE
  5
26C
330
269
100
AcDbEntity
  8
0
100
AcDbLine
 10
8.016
 20
-5.03125
 30
0.0
 11
8.016
 21
-5.143750000000001
 31
0.0
  0
LINE
  5
26D
330
269
100
AcDbEntity
  8
0
100
AcDbLine
 10
2.016
 20
-5.03125
 30
0.0
 11
2.016
 21
-5.143750000000001
 31
0.0
  0
INSERT
  5
26E
330
269
100
AcDbEntity
  8
0
100
AcDbBlockReference
  2
_OBLIQUE
 10
8.016
 20
-5.050000000000001
 30
0.0
 41
0.0625
 42
0.0625
 50
180.0
  0
INSERT
  5
270
330
269
100
AcDbEntity
  8
0
100
AcDbBlockReference
  2
_OBLIQUE
 10
2.016
 20
-5.050000000000001
 30
0.0
 41
0.0625
 42
0.0625
 50
180.0
  0
LINE
  5
272
330
269
100
AcDbEntity
  8
0
100
AcDbLine
 10
8.016
 20
-5.050000000000001
 30
0.0
 11
2.016
 21
-5.050000000000001
 31
0.0
  0
MTEXT
  5
273
330
269
100
AcDbEntity
  8
0
100
AcDbMText
 10
5.016
 20
-5.106250000000001
 30
0.0
 40
0.0625
 71
5
  1
600
  7
OpenSansCondensed-Light
  0
POINT
  5
274
330
269
100
AcDbEntity
  8
Defpoints
100
AcDbPoint
 10
8.016
 20
-5.050000000000001
 30
0.0
  0
POINT
  5
275
330
269
100
AcDbEntity
  8
Defpoints
100
AcDbPoint
 10
8.016
 20
-5.0
 30
0.0
  0
POINT
  5
276
330
269
100
AcDbEntity
  8
Defpoints
100
AcDbPoint
 10
2.016
 20
-5.0
 30
0.0
  0
ENDBLK
  5
26B
330
269
100
AcDbEntity
  8
0
100
AcDbBlockEnd
  0
BLOCK
  5
27C
330
27B
100
AcDbEntity
  8
0
100
AcDbBlockBegin
  2
*D13
 70
1
 10
0.0
 20
0.0
 30
0.0
  3
*D13
  1

  0
LINE
  5
27E
330
27B
100
AcDbEntity
  8
0
100
AcDbLine
 10
8.96875
 20
-5.0
 30
0.0
 11
8.856250000000001
 21
-5.0
 31
0.0
  0
LINE
  5
27F
330
27B
100
AcDbEntity
  8
0
100
AcDbLine
 10
8.96875
 20
-2.0
 30
0.0
 11
8.856250000000001
 21
-2.0
 31
0.0
  0
INSERT
  5
280
330
27B
100
AcDbEntity
  8
0
100
AcDbBlockReference
  2
_OBLIQUE
 10
8.950000000000001
 20
-5.0
 30
0.0
 41
0.0625
 42
0.0625
 50
90.0
  0
INSERT
  5
282
330
27B
100
AcDbEntity
  8
0
100
AcDbBlockReference
  2
_OBLIQUE
 10
8.950000000000001
 20
-2.0
 30
0.0
 41
0.0625
 42
0.0625
 50
90.0
  0
LINE
  5
284
330
27B
100
AcDbEntity
  8
0
100
AcDbLine
 10
8.950000000000001
 20
-5.0
 30
0.0
 11
8.950000000000001
 21
-2.0
 31
0.0
  0
MTEXT
  5
285
330
27B
100
AcDbEntity
  8
0
100
AcDbMText
 10
8.89375
 20
-3.5
 30
0.0
 40
0.0625
 71
5
  1
300
  7
OpenSansCondensed-Light
 11
6.123233995736766e-17
 21
1.0
 31
0.0
  0
POINT
  5
286
330
27B
100
AcDbEntity
  8
Defpoints
100
AcDbPoint
 10
8.950000000000001
 20
-5.0
 30
0.0
  0
POINT
  5
287
330
27B
100
AcDbEntity
  8
Defpoints
100
AcDbPoint
 10
9.0
 20
-5.0
 30
0.0
  0
POINT
  5
288
330
27B
100
AcDbEntity
  8
Defpoints
100
AcDbPoint
 10
9.0
 20
-2.0
 30
0.0
  0
ENDBLK
  5
27D
330
27B
100
AcDbEntity
  8
0
100
AcDbBlockEnd
  0
BLOCK
  5
28B
330
28A
100
AcDbEntity
  8
0
100
AcDbBlockBegin
  2
*D14
 70
1
 10
0.0
 20
0.0
 30
0.0
  3
*D14
  1

  0
LINE
  5
28D
330
28A
100
AcDbEntity
  8
0
100
AcDbLine
 10
15.000000000000002
 20
-5.03125
 30
0.0
 11
15.000000000000002
 21
-5.143750000000001
 31
0.0
  0
LINE
  5
28E
330
28A
100
AcDbEntity
  8
0
100
AcDbLine
 10
9.0
 20
-5.03125
 30
0.0
 11
9.0
 21
-5.143750000000001
 31
0.0
  0
INSERT
  5
28F
330
28A
100
AcDbEntity
  8
0
100
AcDbBlockReference
  2
_OBLIQUE
 10
15.000000000000002
 20
-5.050000000000001
 30
0.0
 41
0.0625
 42
0.0625
 50
180.0
  0
INSERT
  5
291
330
28A
100
AcDbEntity
  8
0
100
AcDbBlockReference
  2
_OBLIQUE
 10
9.0
 20
-5.050000000000001
 30
0.0
 41
0.0625
 42
0.0625
 50
180.0
  0
LINE
  5
293
330
28A
100
AcDbEntity
  8
0
100
AcDbLine
 10
15.000000000000002
 20
-5.050000000000001
 30
0.0
 11
9.0
 21
-5.050000000000001
 31
0.0
  0
MTEXT
  5
294
330
28A
100
AcDbEntity
  8
0
100
AcDbMText
 10
12.0
 20
-5.106250000000001
 30
0.0
 40
0.0625
 71
5
  1
600
  7
OpenSansCondensed-Light
 11
-1.0
 21
1.2246467991473532e-16
 31
0.0
  0
POINT
  5
295
330
28A
100
AcDbEntity
  8
Defpoints
100
AcDbPoint
 10
15.000000000000002
 20
-5.050000000000001
 30
0.0
  0
POINT
  5
296
330
28A
100
AcDbEntity
  8
Defpoints
100
AcDbPoint
 10
15.000000000000002
 20
-5.0
 30
0.0
  0
POINT
  5
297
330
28A
100
AcDbEntity
  8
Defpoints
100
AcDbPoint
 10
9.0
 20
-5.0
 30
0.0
  0
ENDBLK
  5
28C
330
28A
100
AcDbEntity
  8
0
100
AcDbBlockEnd
  0
BLOCK
  5
299
330
298
100
AcDbEntity
  8
0
100
AcDbBlockBegin
  2
*D15
 70
1
 10
0.0
 20
0.0
 30
0.0
  3
*D15
  1

  0
LINE
  5
29B
330
298
100
AcDbEntity
  8
0
100
AcDbLine
 10
8.96875
 20
-5.0
 30
0.0
 11
8.856250000000001
 21
-5.0
 31
0.0
  0
LINE
  5
29C
330
298
100
AcDbEntity
  8
0
100
AcDbLine
 10
8.96875
 20
-2.0
 30
0.0
 11
8.856250000000001
 21
-2.0
 31
0.0
  0
INSERT
  5
29D
330
298
100
AcDbEntity
  8
0
100
AcDbBlockReference
  2
_OBLIQUE
 10
8.950000000000001
 20
-5.0
 30
0.0
 41
0.0625
 42
0.0625
 50
90.0
  0
INSERT
  5
29F
330
298
100
AcDbEntity
  8
0
100
AcDbBlockReference
  2
_OBLIQUE
 10
8.950000000000001
 20
-2.0
 30
0.0
 41
0.0625
 42
0.0625
 50
90.0
  0
LINE
  5
2A1
330
298
100
AcDbEntity
  8
0
100
AcDbLine
 10
8.950000000000001
 20
-5.0
 30
0.0
 11
8.950000000000001
 21
-2.0
 31
0.0
  0
MTEXT
  5
2A2
330
298
100
AcDbEntity
  8
0
100
AcDbMText
 10
8.89375
 20
-3.5
 30
0.0
 40
0.0625
 71
5
  1
300
  7
OpenSansCondensed-Light
 50
90.0
  0
POINT
  5
2A3
330
298
100
AcDbEntity
  8
Defpoints
100
AcDbPoint
 10
8.950000000000001
 20
-5.0
 30
0.0
  0
POINT
  5
2A4
330
298
100
AcDbEntity
  8
Defpoints
100
AcDbPoint
 10
9.0
 20
-5.0
 30
0.0
  0
POINT
  5
2A5
330
298
100
AcDbEntity
  8
Defpoints
100
AcDbPoint
 10
9.0
 20
-2.0
 30
0.0
  0
ENDBLK
  5
29A
330
298
100
AcDbEntity
  8
0
100
AcDbBlockEnd
  0
BLOCK
  5
2A7
330
2A6
100
AcDbEntity
  8
0
100
AcDbBlockBegin
  2
*D16
 70
1
 10
0.0
 20
0.0
 30
0.0
  3
*D16
  1

  0
LINE
  5
2A9
330
2A6
100
AcDbEntity
  8
0
100
AcDbLine
 10
15.000000000000002
 20
-5.03125
 30
0.0
 11
15.000000000000002
 21
-5.143750000000001
 31
0.0
  0
LINE
  5
2AA
330
2A6
100
AcDbEntity
  8
0
100
AcDbLine
 10
9.0
 20
-5.03125
 30
0.0
 11
9.0
 21
-5.143750000000001
 31
0.0
  0
INSERT
  5
2AB
330
2A6
100
AcDbEntity
  8
0
100
AcDbBlockReference
  2
_OBLIQUE
 10
15.000000000000002
 20
-5.050000000000001
 30
0.0
 41
0.0625
 42
0.0625
 50
180.0
  0
INSERT
  5
2AD
330
2A6
100
AcDbEntity
  8
0
100
AcDbBlockReference
  2
_OBLIQUE
 10
9.0
 20
-5.050000000000001
 30
0.0
 41
0.0625
 42
0.0625
 50
180.0
  0
LINE
  5
2AF
330
2A6
100
AcDbEntity
  8
0
100
AcDbLine
 10
15.000000000000002
 20
-5.050000000000001
 30
0.0
 11
9.0
 21
-5.050000000000001
 31
0.0
  0
MTEXT
  5
2B0
330
2A6
100
AcDbEntity
  8
0
100
AcDbMText
 10
12.0
 20
-5.106250000000001
 30
0.0
 40
0.0625
 71
5
  1
600
  7
OpenSansCondensed-Light
  0
POINT
  5
2B1
330
2A6
100
AcDbEntity
  8
Defpoints
100
AcDbPoint
 10
15.000000000000002
 20
-5.050000000000001
 30
0.0
  0
POINT
  5
2B2
330
2A6
100
AcDbEntity
  8
Defpoints
100
AcDbPoint
 10
15.000000000000002
 20
-5.0
 30
0.0
  0
POINT
  5
2B3
330
2A6
100
AcDbEntity
  8
Defpoints
100
AcDbPoint
 10
9.0
 20
-5.0
 30
0.0
  0
ENDBLK
  5
2A8
330
2A6
100
AcDbEntity
  8
0
100
AcDbBlockEnd
  0
ENDSEC
  0
SECTION
  2
ENTITIES
  0
LINE
  5
8A
330
17
100
AcDbEntity
  8
0
100
AcDbLine
 10
8.0
 20
0.9999999999999996
 30
0.0
 11
8.0
 21
3.9999999999999996
 31
0.0
  0
LINE
  5
8B
330
17
100
AcDbEntity
  8
0
100
AcDbLine
 10
8.016
 20
0.9999999999999996
 30
0.0
 11
8.016
 21
3.9999999999999996
 31
0.0
  0
LINE
  5
8C
330
17
100
AcDbEntity
  8
0
100
AcDbLine
 10
8.016
 20
3.9999999999999996
 30
0.0
 11
8.0
 21
3.9999999999999996
 31
0.0
  0
LINE
  5
8D
330
17
100
AcDbEntity
  8
0
100
AcDbLine
 10
8.016
 20
0.9999999999999996
 30
0.0
 11
8.0
 21
0.9999999999999996
 31
0.0
  0
LINE
  5
8E
330
17
100
AcDbEntity
  8
0
100
AcDbLine
 10
7.9
 20
0.9999999999999996
 30
0.0
 11
7.9
 21
3.9999999999999996
 31
0.0
  0
LINE
  5
8F
330
17
100
AcDbEntity
  8
0
100
AcDbLine
 10
7.916
 20
0.9999999999999996
 30
0.0
 11
7.916
 21
3.9999999999999996
 31
0.0
  0
LINE
  5
90
330
17
100
AcDbEntity
  8
0
100
AcDbLine
 10
7.916
 20
3.9999999999999996
 30
0.0
 11
7.9
 21
3.9999999999999996
 31
0.0
  0
LINE
  5
91
330
17
100
AcDbEntity
  8
0
100
AcDbLine
 10
7.916
 20
0.9999999999999996
 30
0.0
 11
7.9
 21
0.9999999999999996
 31
0.0
  0
LINE
  5
92
330
17
100
AcDbEntity
  8
0
100
AcDbLine
 10
7.800000000000001
 20
0.9999999999999996
 30
0.0
 11
7.800000000000001
 21
3.9999999999999996
 31
0.0
  0
LINE
  5
93
330
17
100
AcDbEntity
  8
0
100
AcDbLine
 10
7.816000000000001
 20
0.9999999999999996
 30
0.0
 11
7.816000000000001
 21
3.9999999999999996
 31
0.0
  0
LINE
  5
94
330
17
100
AcDbEntity
  8
0
100
AcDbLine
 10
7.816000000000001
 20
3.9999999999999996
 30
0.0
 11
7.800000000000001
 21
3.9999999999999996
 31
0.0
  0
LINE
  5
95
330
17
100
AcDbEntity
  8
0
100
AcDbLine
 10
7.816000000000001
 20
0.9999999999999996
 30
0.0
 11
7.800000000000001
 21
0.9999999999999996
 31
0.0
  0
LINE
  5
96
330
17
100
AcDbEntity
  8
0
100
AcDbLine
 10
7.7
 20
0.9999999999999996
 30
0.0
 11
7.7
 21
3.9999999999999996
 31
0.0
  0
LINE
  5
97
330
17
100
AcDbEntity
  8
0
100
AcDbLine
 10
7.716
 20
0.9999999999999996
 30
0.0
 11
7.716
 21
3.9999999999999996
 31
0.0
  0
LINE
  5
98
330
17
100
AcDbEntity
  8
0
100
AcDbLine
 10
7.716
 20
3.9999999999999996
 30
0.0
 11
7.7
 21
3.9999999999999996
 31
0.0
  0
LINE
  5
99
330
17
100
AcDbEntity
  8
0
100
AcDbLine
 10
7.716
 20
0.9999999999999996
 30
0.0
 11
7.7
 21
0.9999999999999996
 31
0.0
  0
LINE
  5
9A
330
17
100
AcDbEntity
  8
0
100
AcDbLine
 10
7.6000000000000005
 20
0.9999999999999996
 30
0.0
 11
7.6000000000000005
 21
3.9999999999999996
 31
0.0
  0
LINE
  5
9B
330
17
100
AcDbEntity
  8
0
100
AcDbLine
 10
7.6160000000000005
 20
0.9999999999999996
 30
0.0
 11
7.6160000000000005
 21
3.9999999999999996
 31
0.0
  0
LINE
  5
9C
330
17
100
AcDbEntity
  8
0
100
AcDbLine
 10
7.6160000000000005
 20
3.9999999999999996
 30
0.0
 11
7.6000000000000005
 21
3.9999999999999996
 31
0.0
  0
LINE
  5
9D
330
17
100
AcDbEntity
  8
0
100
AcDbLine
 10
7.6160000000000005
 20
0.9999999999999996
 30
0.0
 11
7.6000000000000005
 21
0.9999999999999996
 31
0.0
  0
LINE
  5
9E
330
17
100
AcDbEntity
  8
0
100
AcDbLine
 10
7.5
 20
0.9999999999999996
 30
0.0
 11
7.5
 21
3.9999999999999996
 31
0.0
  0
LINE
  5
9F
330
17
100
AcDbEntity
  8
0
100
AcDbLine
 10
7.516
 20
0.9999999999999996
 30
0.0
 11
7.516
 21
3.9999999999999996
 31
0.0
  0
LINE
  5
A0
330
17
100
AcDbEntity
  8
0
100
AcDbLine
 10
7.516
 20
3.9999999999999996
 30
0.0
 11
7.5
 21
3.9999999999999996
 31
0.0
  0
LINE
  5
A1
330
17
100
AcDbEntity
  8
0
100
AcDbLine
 10
7.516
 20
0.9999999999999996
 30
0.0
 11
7.5
 21
0.9999999999999996
 31
0.0
  0
LINE
  5
A2
330
17
100
AcDbEntity
  8
0
100
AcDbLine
 10
7.4
 20
0.9999999999999996
 30
0.0
 11
7.4
 21
3.9999999999999996
 31
0.0
  0
LINE
  5
A3
330
17
100
AcDbEntity
  8
0
100
AcDbLine
 10
7.416
 20
0.9999999999999996
 30
0.0
 11
7.416
 21
3.9999999999999996
 31
0.0
  0
LINE
  5
A4
330
17
100
AcDbEntity
  8
0
100
AcDbLine
 10
7.416
 20
3.9999999999999996
 30
0.0
 11
7.4
 21
3.9999999999999996
 31
0.0
  0
LINE
  5
A5
330
17
100
AcDbEntity
  8
0
100
AcDbLine
 10
7.416
 20
0.9999999999999996
 30
0.0
 11
7.4
 21
0.9999999999999996
 31
0.0
  0
LINE
  5
A6
330
17
100
AcDbEntity
  8
0
100
AcDbLine
 10
7.3
 20
0.9999999999999996
 30
0.0
 11
7.3
 21
3.9999999999999996
 31
0.0
  0
LINE
  5
A7
330
17
100
AcDbEntity
  8
0
100
AcDbLine
 10
7.316
 20
0.9999999999999996
 30
0.0
 11
7.316
 21
3.9999999999999996
 31
0.0
  0
LINE
  5
A8
330
17
100
AcDbEntity
  8
0
100
AcDbLine
 10
7.316
 20
3.9999999999999996
 30
0.0
 11
7.3
 21
3.9999999999999996
 31
0.0
  0
LINE
  5
A9
330
17
100
AcDbEntity
  8
0
100
AcDbLine
 10
7.316
 20
0.9999999999999996
 30
0.0
 11
7.3
 21
0.9999999999999996
 31
0.0
  0
LINE
  5
AA
330
17
100
AcDbEntity
  8
0
100
AcDbLine
 10
7.2
 20
0.9999999999999996
 30
0.0
 11
7.2
 21
3.9999999999999996
 31
0.0
  0
LINE
  5
AB
330
17
100
AcDbEntity
  8
0
100
AcDbLine
 10
7.216
 20
0.9999999999999996
 30
0.0
 11
7.216
 21
3.9999999999999996
 31
0.0
  0
LINE
  5
AC
330
17
100
AcDbEntity
  8
0
100
AcDbLine
 10
7.216
 20
3.9999999999999996
 30
0.0
 11
7.2
 21
3.9999999999999996
 31
0.0
  0
LINE
  5
AD
330
17
100
AcDbEntity
  8
0
100
AcDbLine
 10
7.216
 20
0.9999999999999996
 30
0.0
 11
7.2
 21
0.9999999999999996
 31
0.0
  0
LINE
  5
AE
330
17
100
AcDbEntity
  8
0
100
AcDbLine
 10
7.1000000000000005
 20
0.9999999999999996
 30
0.0
 11
7.1000000000000005
 21
3.9999999999999996
 31
0.0
  0
LINE
  5
AF
330
17
100
AcDbEntity
  8
0
100
AcDbLine
 10
7.1160000000000005
 20
0.9999999999999996
 30
0.0
 11
7.1160000000000005
 21
3.9999999999999996
 31
0.0
  0
LINE
  5
B0
330
17
100
AcDbEntity
  8
0
100
AcDbLine
 10
7.1160000000000005
 20
3.9999999999999996
 30
0.0
 11
7.1000000000000005
 21
3.9999999999999996
 31
0.0
  0
LINE
  5
B1
330
17
100
AcDbEntity
  8
0
100
AcDbLine
 10
7.1160000000000005
 20
0.9999999999999996
 30
0.0
 11
7.1000000000000005
 21
0.9999999999999996
 31
0.0
  0
LINE
  5
B2
330
17
100
AcDbEntity
  8
0
100
AcDbLine
 10
7.0
 20
0.9999999999999996
 30
0.0
 11
7.0
 21
3.9999999999999996
 31
0.0
  0
LINE
  5
B3
330
17
100
AcDbEntity
  8
0
100
AcDbLine
 10
7.016
 20
0.9999999999999996
 30
0.0
 11
7.016
 21
3.9999999999999996
 31
0.0
  0
LINE
  5
B4
330
17
100
AcDbEntity
  8
0
100
AcDbLine
 10
7.016
 20
3.9999999999999996
 30
0.0
 11
7.0
 21
3.9999999999999996
 31
0.0
  0
LINE
  5
B5
330
17
100
AcDbEntity
  8
0
100
AcDbLine
 10
7.016
 20
0.9999999999999996
 30
0.0
 11
7.0
 21
0.9999999999999996
 31
0.0
  0
LINE
  5
B6
330
17
100
AcDbEntity
  8
0
100
AcDbLine
 10
6.9
 20
0.9999999999999996
 30
0.0
 11
6.9
 21
3.9999999999999996
 31
0.0
  0
LINE
  5
B7
330
17
100
AcDbEntity
  8
0
100
AcDbLine
 10
6.916
 20
0.9999999999999996
 30
0.0
 11
6.916
 21
3.9999999999999996
 31
0.0
  0
LINE
  5
B8
330
17
100
AcDbEntity
  8
0
100
AcDbLine
 10
6.916
 20
3.9999999999999996
 30
0.0
 11
6.9
 21
3.9999999999999996
 31
0.0
  0
LINE
  5
B9
330
17
100
AcDbEntity
  8
0
100
AcDbLine
 10
6.916
 20
0.9999999999999996
 30
0.0
 11
6.9
 21
0.9999999999999996
 31
0.0
  0
LINE
  5
BA
330
17
100
AcDbEntity
  8
0
100
AcDbLine
 10
6.8
 20
0.9999999999999996
 30
0.0
 11
6.800000000000001
 21
3.9999999999999996
 31
0.0
  0
LINE
  5
BB
330
17
100
AcDbEntity
  8
0
100
AcDbLine
 10
6.816
 20
0.9999999999999996
 30
0.0
 11
6.816000000000001
 21
3.9999999999999996
 31
0.0
  0
LINE
  5
BC
330
17
100
AcDbEntity
  8
0
100
AcDbLine
 10
6.816000000000001
 20
3.9999999999999996
 30
0.0
 11
6.800000000000001
 21
3.9999999999999996
 31
0.0
  0
LINE
  5
BD
330
17
100
AcDbEntity
  8
0
100
AcDbLine
 10
6.816
 20
0.9999999999999996
 30
0.0
 11
6.8
 21
0.9999999999999996
 31
0.0
  0
LINE
  5
BE
330
17
100
AcDbEntity
  8
0
100
AcDbLine
 10
6.7
 20
0.9999999999999996
 30
0.0
 11
6.700000000000001
 21
3.9999999999999996
 31
0.0
  0
LINE
  5
BF
330
17
100
AcDbEntity
  8
0
100
AcDbLine
 10
6.716
 20
0.9999999999999996
 30
0.0
 11
6.716000000000001
 21
3.9999999999999996
 31
0.0
  0
LINE
  5
C0
330
17
100
AcDbEntity
  8
0
100
AcDbLine
 10
6.716000000000001
 20
3.9999999999999996
 30
0.0
 11
6.700000000000001
 21
3.9999999999999996
 31
0.0
  0
LINE
  5
C1
330
17
100
AcDbEntity
  8
0
100
AcDbLine
 10
6.716
 20
0.9999999999999996
 30
0.0
 11
6.7
 21
0.9999999999999996
 31
0.0
  0
LINE
  5
C2
330
17
100
AcDbEntity
  8
0
100
AcDbLine
 10
6.6
 20
0.9999999999999996
 30
0.0
 11
6.6
 21
3.9999999999999996
 31
0.0
  0
LINE
  5
C3
330
17
100
AcDbEntity
  8
0
100
AcDbLine
 10
6.616
 20
0.9999999999999996
 30
0.0
 11
6.616
 21
3.9999999999999996
 31
0.0
  0
LINE
  5
C4
330
17
100
AcDbEntity
  8
0
100
AcDbLine
 10
6.616
 20
3.9999999999999996
 30
0.0
 11
6.6
 21
3.9999999999999996
 31
0.0
  0
LINE
  5
C5
330
17
100
AcDbEntity
  8
0
100
AcDbLine
 10
6.616
 20
0.9999999999999996
 30
0.0
 11
6.6
 21
0.9999999999999996
 31
0.0
  0
LINE
  5
C6
330
17
100
AcDbEntity
  8
0
100
AcDbLine
 10
6.5
 20
0.9999999999999996
 30
0.0
 11
6.5
 21
3.9999999999999996
 31
0.0
  0
LINE
  5
C7
330
17
100
AcDbEntity
  8
0
100
AcDbLine
 10
6.516
 20
0.9999999999999996
 30
0.0
 11
6.516
 21
3.9999999999999996
 31
0.0
  0
LINE
  5
C8
330
17
100
AcDbEntity
  8
0
100
AcDbLine
 10
6.516
 20
3.9999999999999996
 30
0.0
 11
6.5
 21
3.9999999999999996
 31
0.0
  0
LINE
  5
C9
330
17
100
AcDbEntity
  8
0
100
AcDbLine
 10
6.516
 20
0.9999999999999996
 30
0.0
 11
6.5
 21
0.9999999999999996
 31
0.0
  0
LINE
  5
CA
330
17
100
AcDbEntity
  8
0
100
AcDbLine
 10
6.4
 20
0.9999999999999996
 30
0.0
 11
6.4
 21
3.9999999999999996
 31
0.0
  0
LINE
  5
CB
330
17
100
AcDbEntity
  8
0
100
AcDbLine
 10
6.416
 20
0.9999999999999996
 30
0.0
 11
6.416
 21
3.9999999999999996
 31
0.0
  0
LINE
  5
CC
330
17
100
AcDbEntity
  8
0
100
AcDbLine
 10
6.416
 20
3.9999999999999996
 30
0.0
 11
6.4
 21
3.9999999999999996
 31
0.0
  0
LINE
  5
CD
330
17
100
AcDbEntity
  8
0
100
AcDbLine
 10
6.416
 20
0.9999999999999996
 30
0.0
 11
6.4
 21
0.9999999999999996
 31
0.0
  0
LINE
  5
CE
330
17
100
AcDbEntity
  8
0
100
AcDbLine
 10
6.3
 20
0.9999999999999996
 30
0.0
 11
6.300000000000001
 21
3.9999999999999996
 31
0.0
  0
LINE
  5
CF
330
17
100
AcDbEntity
  8
0
100
AcDbLine
 10
6.316
 20
0.9999999999999996
 30
0.0
 11
6.316000000000001
 21
3.9999999999999996
 31
0.0
  0
LINE
  5
D0
330
17
100
AcDbEntity
  8
0
100
AcDbLine
 10
6.316000000000001
 20
3.9999999999999996
 30
0.0
 11
6.300000000000001
 21
3.9999999999999996
 31
0.0
  0
LINE
  5
D1
330
17
100
AcDbEntity
  8
0
100
AcDbLine
 10
6.316
 20
0.9999999999999996
 30
0.0
 11
6.3
 21
0.9999999999999996
 31
0.0
  0
LINE
  5
D2
330
17
100
AcDbEntity
  8
0
100
AcDbLine
 10
6.2
 20
0.9999999999999996
 30
0.0
 11
6.200000000000001
 21
3.9999999999999996
 31
0.0
  0
LINE
  5
D3
330
17
100
AcDbEntity
  8
0
100
AcDbLine
 10
6.216
 20
0.9999999999999996
 30
0.0
 11
6.216000000000001
 21
3.9999999999999996
 31
0.0
  0
LINE
  5
D4
330
17
100
AcDbEntity
  8
0
100
AcDbLine
 10
6.216000000000001
 20
3.9999999999999996
 30
0.0
 11
6.200000000000001
 21
3.9999999999999996
 31
0.0
  0
LINE
  5
D5
330
17
100
AcDbEntity
  8
0
100
AcDbLine
 10
6.216
 20
0.9999999999999996
 30
0.0
 11
6.2
 21
0.9999999999999996
 31
0.0
  0
LINE
  5
D6
330
17
100
AcDbEntity
  8
0
100
AcDbLine
 10
6.1
 20
0.9999999999999996
 30
0.0
 11
6.1
 21
3.9999999999999996
 31
0.0
  0
LINE
  5
D7
330
17
100
AcDbEntity
  8
0
100
AcDbLine
 10
6.116
 20
0.9999999999999996
 30
0.0
 11
6.116
 21
3.9999999999999996
 31
0.0
  0
LINE
  5
D8
330
17
100
AcDbEntity
  8
0
100
AcDbLine
 10
6.116
 20
3.9999999999999996
 30
0.0
 11
6.1
 21
3.9999999999999996
 31
0.0
  0
LINE
  5
D9
330
17
100
AcDbEntity
  8
0
100
AcDbLine
 10
6.116
 20
0.9999999999999996
 30
0.0
 11
6.1
 21
0.9999999999999996
 31
0.0
  0
LINE
  5
DA
330
17
100
AcDbEntity
  8
0
100
AcDbLine
 10
6.0
 20
0.9999999999999996
 30
0.0
 11
6.0
 21
3.9999999999999996
 31
0.0
  0
LINE
  5
DB
330
17
100
AcDbEntity
  8
0
100
AcDbLine
 10
6.016
 20
0.9999999999999996
 30
0.0
 11
6.016
 21
3.9999999999999996
 31
0.0
  0
LINE
  5
DC
330
17
100
AcDbEntity
  8
0
100
AcDbLine
 10
6.016
 20
3.9999999999999996
 30
0.0
 11
6.0
 21
3.9999999999999996
 31
0.0
  0
LINE
  5
DD
330
17
100
AcDbEntity
  8
0
100
AcDbLine
 10
6.016
 20
0.9999999999999996
 30
0.0
 11
6.0
 21
0.9999999999999996
 31
0.0
  0
TEXT
  5
DE
330
17
100
AcDbEntity
  8
0
100
AcDbText
 10
6.05
 20
2.4999999999999996
 30
0.0
 40
0.05
  1
R2
 50
90.0
 72
4
 11
6.05
 21
2.4999999999999996
 31
0.0
100
AcDbText
  0
TEXT
  5
DF
330
17
100
AcDbEntity
  8
0
100
AcDbText
 10
5.95
 20
2.4999999999999996
 30
0.0
 40
0.05
  1
0.016 s/0.1 
 50
90.0
 72
4
 11
5.95
 21
2.4999999999999996
 31
0.0
100
AcDbText
  0
LINE
  5
E0
330
17
100
AcDbEntity
  8
0
100
AcDbLine
 10
5.9
 20
0.9999999999999996
 30
0.0
 11
5.9
 21
3.9999999999999996
 31
0.0
  0
LINE
  5
E1
330
17
100
AcDbEntity
  8
0
100
AcDbLine
 10
5.916
 20
0.9999999999999996
 30
0.0
 11
5.916
 21
3.9999999999999996
 31
0.0
  0
LINE
  5
E2
330
17
100
AcDbEntity
  8
0
100
AcDbLine
 10
5.916
 20
3.9999999999999996
 30
0.0
 11
5.9
 21
3.9999999999999996
 31
0.0
  0
LINE
  5
E3
330
17
100
AcDbEntity
  8
0
100
AcDbLine
 10
5.916
 20
0.9999999999999996
 30
0.0
 11
5.9
 21
0.9999999999999996
 31
0.0
  0
LINE
  5
E4
330
17
100
AcDbEntity
  8
0
100
AcDbLine
 10
5.8
 20
0.9999999999999996
 30
0.0
 11
5.800000000000001
 21
3.9999999999999996
 31
0.0
  0
LINE
  5
E5
330
17
100
AcDbEntity
  8
0
100
AcDbLine
 10
5.816
 20
0.9999999999999996
 30
0.0
 11
5.816000000000001
 21
3.9999999999999996
 31
0.0
  0
LINE
  5
E6
330
17
100
AcDbEntity
  8
0
100
AcDbLine
 10
5.816000000000001
 20
3.9999999999999996
 30
0.0
 11
5.800000000000001
 21
3.9999999999999996
 31
0.0
  0
LINE
  5
E7
330
17
100
AcDbEntity
  8
0
100
AcDbLine
 10
5.816
 20
0.9999999999999996
 30
0.0
 11
5.8
 21
0.9999999999999996
 31
0.0
  0
LINE
  5
E8
330
17
100
AcDbEntity
  8
0
100
AcDbLine
 10
5.699999999999999
 20
0.9999999999999996
 30
0.0
 11
5.7
 21
3.9999999999999996
 31
0.0
  0
LINE
  5
E9
330
17
100
AcDbEntity
  8
0
100
AcDbLine
 10
5.715999999999999
 20
0.9999999999999996
 30
0.0
 11
5.716
 21
3.9999999999999996
 31
0.0
  0
LINE
  5
EA
330
17
100
AcDbEntity
  8
0
100
AcDbLine
 10
5.716
 20
3.9999999999999996
 30
0.0
 11
5.7
 21
3.9999999999999996
 31
0.0
  0
LINE
  5
EB
330
17
100
AcDbEntity
  8
0
100
AcDbLine
 10
5.715999999999999
 20
0.9999999999999996
 30
0.0
 11
5.699999999999999
 21
0.9999999999999996
 31
0.0
  0
LINE
  5
EC
330
17
100
AcDbEntity
  8
0
100
AcDbLine
 10
5.6
 20
0.9999999999999996
 30
0.0
 11
5.6
 21
3.9999999999999996
 31
0.0
  0
LINE
  5
ED
330
17
100
AcDbEntity
  8
0
100
AcDbLine
 10
5.616
 20
0.9999999999999996
 30
0.0
 11
5.616
 21
3.9999999999999996
 31
0.0
  0
LINE
  5
EE
330
17
100
AcDbEntity
  8
0
100
AcDbLine
 10
5.616
 20
3.9999999999999996
 30
0.0
 11
5.6
 21
3.9999999999999996
 31
0.0
  0
LINE
  5
EF
330
17
100
AcDbEntity
  8
0
100
AcDbLine
 10
5.616
 20
0.9999999999999996
 30
0.0
 11
5.6
 21
0.9999999999999996
 31
0.0
  0
LINE
  5
F0
330
17
100
AcDbEntity
  8
0
100
AcDbLine
 10
5.5
 20
0.9999999999999996
 30
0.0
 11
5.5
 21
3.9999999999999996
 31
0.0
  0
LINE
  5
F1
330
17
100
AcDbEntity
  8
0
100
AcDbLine
 10
5.516
 20
0.9999999999999996
 30
0.0
 11
5.516
 21
3.9999999999999996
 31
0.0
  0
LINE
  5
F2
330
17
100
AcDbEntity
  8
0
100
AcDbLine
 10
5.516
 20
3.9999999999999996
 30
0.0
 11
5.5
 21
3.9999999999999996
 31
0.0
  0
LINE
  5
F3
330
17
100
AcDbEntity
  8
0
100
AcDbLine
 10
5.516
 20
0.9999999999999996
 30
0.0
 11
5.5
 21
0.9999999999999996
 31
0.0
  0
LINE
  5
F4
330
17
100
AcDbEntity
  8
0
100
AcDbLine
 10
5.4
 20
0.9999999999999996
 30
0.0
 11
5.4
 21
3.9999999999999996
 31
0.0
  0
LINE
  5
F5
330
17
100
AcDbEntity
  8
0
100
AcDbLine
 10
5.416
 20
0.9999999999999996
 30
0.0
 11
5.416
 21
3.9999999999999996
 31
0.0
  0
LINE
  5
F6
330
17
100
AcDbEntity
  8
0
100
AcDbLine
 10
5.416
 20
3.9999999999999996
 30
0.0
 11
5.4
 21
3.9999999999999996
 31
0.0
  0
LINE
  5
F7
330
17
100
AcDbEntity
  8
0
100
AcDbLine
 10
5.416
 20
0.9999999999999996
 30
0.0
 11
5.4
 21
0.9999999999999996
 31
0.0
  0
LINE
  5
F8
330
17
100
AcDbEntity
  8
0
100
AcDbLine
 10
5.3
 20
1.0
 30
0.0
 11
5.300000000000001
 21
3.9999999999999996
 31
0.0
  0
LINE
  5
F9
330
17
100
AcDbEntity
  8
0
100
AcDbLine
 10
5.316
 20
1.0
 30
0.0
 11
5.316000000000001
 21
3.9999999999999996
 31
0.0
  0
LINE
  5
FA
330
17
100
AcDbEntity
  8
0
100
AcDbLine
 10
5.316000000000001
 20
3.9999999999999996
 30
0.0
 11
5.300000000000001
 21
3.9999999999999996
 31
0.0
  0
LINE
  5
FB
330
17
100
AcDbEntity
  8
0
100
AcDbLine
 10
5.316
 20
1.0
 30
0.0
 11
5.3
 21
1.0
 31
0.0
  0
LINE
  5
FC
330
17
100
AcDbEntity
  8
0
100
AcDbLine
 10
5.199999999999999
 20
1.0
 30
0.0
 11
5.2
 21
3.9999999999999996
 31
0.0
  0
LINE
  5
FD
330
17
100
AcDbEntity
  8
0
100
AcDbLine
 10
5.215999999999999
 20
1.0
 30
0.0
 11
5.216
 21
3.9999999999999996
 31
0.0
  0
LINE
  5
FE
330
17
100
AcDbEntity
  8
0
100
AcDbLine
 10
5.216
 20
3.9999999999999996
 30
0.0
 11
5.2
 21
3.9999999999999996
 31
0.0
  0
LINE
  5
FF
330
17
100
AcDbEntity
  8
0
100
AcDbLine
 10
5.215999999999999
 20
1.0
 30
0.0
 11
5.199999999999999
 21
1.0
 31
0.0
  0
LINE
  5
100
330
17
100
AcDbEntity
  8
0
100
AcDbLine
 10
5.1
 20
1.0
 30
0.0
 11
5.1
 21
3.9999999999999996
 31
0.0
  0
LINE
  5
101
330
17
100
AcDbEntity
  8
0
100
AcDbLine
 10
5.116
 20
1.0
 30
0.0
 11
5.116
 21
3.9999999999999996
 31
0.0
  0
LINE
  5
102
330
17
100
AcDbEntity
  8
0
100
AcDbLine
 10
5.116
 20
3.9999999999999996
 30
0.0
 11
5.1
 21
3.9999999999999996
 31
0.0
  0
LINE
  5
103
330
17
100
AcDbEntity
  8
0
100
AcDbLine
 10
5.116
 20
1.0
 30
0.0
 11
5.1
 21
1.0
 31
0.0
  0
LINE
  5
104
330
17
100
AcDbEntity
  8
0
100
AcDbLine
 10
5.0
 20
1.0
 30
0.0
 11
5.0
 21
3.9999999999999996
 31
0.0
  0
LINE
  5
105
330
17
100
AcDbEntity
  8
0
100
AcDbLine
 10
5.016
 20
1.0
 30
0.0
 11
5.016
 21
3.9999999999999996
 31
0.0
  0
LINE
  5
106
330
17
100
AcDbEntity
  8
0
100
AcDbLine
 10
5.016
 20
3.9999999999999996
 30
0.0
 11
5.0
 21
3.9999999999999996
 31
0.0
  0
LINE
  5
107
330
17
100
AcDbEntity
  8
0
100
AcDbLine
 10
5.016
 20
1.0
 30
0.0
 11
5.0
 21
1.0
 31
0.0
  0
LINE
  5
108
330
17
100
AcDbEntity
  8
0
100
AcDbLine
 10
4.9
 20
1.0
 30
0.0
 11
4.9
 21
3.9999999999999996
 31
0.0
  0
LINE
  5
109
330
17
100
AcDbEntity
  8
0
100
AcDbLine
 10
4.916
 20
1.0
 30
0.0
 11
4.916
 21
3.9999999999999996
 31
0.0
  0
LINE
  5
10A
330
17
100
AcDbEntity
  8
0
100
AcDbLine
 10
4.916
 20
3.9999999999999996
 30
0.0
 11
4.9
 21
3.9999999999999996
 31
0.0
  0
LINE
  5
10B
330
17
100
AcDbEntity
  8
0
100
AcDbLine
 10
4.916
 20
1.0
 30
0.0
 11
4.9
 21
1.0
 31
0.0
  0
LINE
  5
10C
330
17
100
AcDbEntity
  8
0
100
AcDbLine
 10
4.8
 20
1.0
 30
0.0
 11
4.8
 21
3.9999999999999996
 31
0.0
  0
LINE
  5
10D
330
17
100
AcDbEntity
  8
0
100
AcDbLine
 10
4.816
 20
1.0
 30
0.0
 11
4.816
 21
3.9999999999999996
 31
0.0
  0
LINE
  5
10E
330
17
100
AcDbEntity
  8
0
100
AcDbLine
 10
4.816
 20
3.9999999999999996
 30
0.0
 11
4.8
 21
3.9999999999999996
 31
0.0
  0
LINE
  5
10F
330
17
100
AcDbEntity
  8
0
100
AcDbLine
 10
4.816
 20
1.0
 30
0.0
 11
4.8
 21
1.0
 31
0.0
  0
LINE
  5
110
330
17
100
AcDbEntity
  8
0
100
AcDbLine
 10
4.699999999999999
 20
1.0
 30
0.0
 11
4.699999999999999
 21
3.9999999999999996
 31
0.0
  0
LINE
  5
111
330
17
100
AcDbEntity
  8
0
100
AcDbLine
 10
4.715999999999999
 20
1.0
 30
0.0
 11
4.715999999999999
 21
3.9999999999999996
 31
0.0
  0
LINE
  5
112
330
17
100
AcDbEntity
  8
0
100
AcDbLine
 10
4.715999999999999
 20
3.9999999999999996
 30
0.0
 11
4.699999999999999
 21
3.9999999999999996
 31
0.0
  0
LINE
  5
113
330
17
100
AcDbEntity
  8
0
100
AcDbLine
 10
4.715999999999999
 20
1.0
 30
0.0
 11
4.699999999999999
 21
1.0
 31
0.0
  0
LINE
  5
114
330
17
100
AcDbEntity
  8
0
100
AcDbLine
 10
4.6
 20
1.0
 30
0.0
 11
4.6
 21
3.9999999999999996
 31
0.0
  0
LINE
  5
115
330
17
100
AcDbEntity
  8
0
100
AcDbLine
 10
4.616
 20
1.0
 30
0.0
 11
4.616
 21
3.9999999999999996
 31
0.0
  0
LINE
  5
116
330
17
100
AcDbEntity
  8
0
100
AcDbLine
 10
4.616
 20
3.9999999999999996
 30
0.0
 11
4.6
 21
3.9999999999999996
 31
0.0
  0
LINE
  5
117
330
17
100
AcDbEntity
  8
0
100
AcDbLine
 10
4.616
 20
1.0
 30
0.0
 11
4.6
 21
1.0
 31
0.0
  0
LINE
  5
118
330
17
100
AcDbEntity
  8
0
100
AcDbLine
 10
4.5
 20
1.0
 30
0.0
 11
4.5
 21
3.9999999999999996
 31
0.0
  0
LINE
  5
119
330
17
100
AcDbEntity
  8
0
100
AcDbLine
 10
4.516
 20
1.0
 30
0.0
 11
4.516
 21
3.9999999999999996
 31
0.0
  0
LINE
  5
11A
330
17
100
AcDbEntity
  8
0
100
AcDbLine
 10
4.516
 20
3.9999999999999996
 30
0.0
 11
4.5
 21
3.9999999999999996
 31
0.0
  0
LINE
  5
11B
330
17
100
AcDbEntity
  8
0
100
AcDbLine
 10
4.516
 20
1.0
 30
0.0
 11
4.5
 21
1.0
 31
0.0
  0
LINE
  5
11C
330
17
100
AcDbEntity
  8
0
100
AcDbLine
 10
4.4
 20
1.0
 30
0.0
 11
4.4
 21
3.9999999999999996
 31
0.0
  0
LINE
  5
11D
330
17
100
AcDbEntity
  8
0
100
AcDbLine
 10
4.416
 20
1.0
 30
0.0
 11
4.416
 21
3.9999999999999996
 31
0.0
  0
LINE
  5
11E
330
17
100
AcDbEntity
  8
0
100
AcDbLine
 10
4.416
 20
3.9999999999999996
 30
0.0
 11
4.4
 21
3.9999999999999996
 31
0.0
  0
LINE
  5
11F
330
17
100
AcDbEntity
  8
0
100
AcDbLine
 10
4.416
 20
1.0
 30
0.0
 11
4.4
 21
1.0
 31
0.0
  0
LINE
  5
120
330
17
100
AcDbEntity
  8
0
100
AcDbLine
 10
4.3
 20
1.0
 30
0.0
 11
4.3
 21
3.9999999999999996
 31
0.0
  0
LINE
  5
121
330
17
100
AcDbEntity
  8
0
100
AcDbLine
 10
4.316
 20
1.0
 30
0.0
 11
4.316
 21
3.9999999999999996
 31
0.0
  0
LINE
  5
122
330
17
100
AcDbEntity
  8
0
100
AcDbLine
 10
4.316
 20
3.9999999999999996
 30
0.0
 11
4.3
 21
3.9999999999999996
 31
0.0
  0
LINE
  5
123
330
17
100
AcDbEntity
  8
0
100
AcDbLine
 10
4.316
 20
1.0
 30
0.0
 11
4.3
 21
1.0
 31
0.0
  0
LINE
  5
124
330
17
100
AcDbEntity
  8
0
100
AcDbLine
 10
4.199999999999999
 20
1.0
 30
0.0
 11
4.199999999999999
 21
3.9999999999999996
 31
0.0
  0
LINE
  5
125
330
17
100
AcDbEntity
  8
0
100
AcDbLine
 10
4.215999999999999
 20
1.0
 30
0.0
 11
4.215999999999999
 21
3.9999999999999996
 31
0.0
  0
LINE
  5
126
330
17
100
AcDbEntity
  8
0
100
AcDbLine
 10
4.215999999999999
 20
3.9999999999999996
 30
0.0
 11
4.199999999999999
 21
3.9999999999999996
 31
0.0
  0
LINE
  5
127
330
17
100
AcDbEntity
  8
0
100
AcDbLine
 10
4.215999999999999
 20
1.0
 30
0.0
 11
4.199999999999999
 21
1.0
 31
0.0
  0
LINE
  5
128
330
17
100
AcDbEntity
  8
0
100
AcDbLine
 10
4.1
 20
1.0
 30
0.0
 11
4.1
 21
3.9999999999999996
 31
0.0
  0
LINE
  5
129
330
17
100
AcDbEntity
  8
0
100
AcDbLine
 10
4.116
 20
1.0
 30
0.0
 11
4.116
 21
3.9999999999999996
 31
0.0
  0
LINE
  5
12A
330
17
100
AcDbEntity
  8
0
100
AcDbLine
 10
4.116
 20
3.9999999999999996
 30
0.0
 11
4.1
 21
3.9999999999999996
 31
0.0
  0
LINE
  5
12B
330
17
100
AcDbEntity
  8
0
100
AcDbLine
 10
4.116
 20
1.0
 30
0.0
 11
4.1
 21
1.0
 31
0.0
  0
LINE
  5
12C
330
17
100
AcDbEntity
  8
0
100
AcDbLine
 10
4.0
 20
1.0
 30
0.0
 11
4.0
 21
3.9999999999999996
 31
0.0
  0
LINE
  5
12D
330
17
100
AcDbEntity
  8
0
100
AcDbLine
 10
4.016
 20
1.0
 30
0.0
 11
4.016
 21
3.9999999999999996
 31
0.0
  0
LINE
  5
12E
330
17
100
AcDbEntity
  8
0
100
AcDbLine
 10
4.016
 20
3.9999999999999996
 30
0.0
 11
4.0
 21
3.9999999999999996
 31
0.0
  0
LINE
  5
12F
330
17
100
AcDbEntity
  8
0
100
AcDbLine
 10
4.016
 20
1.0
 30
0.0
 11
4.0
 21
1.0
 31
0.0
  0
LINE
  5
130
330
17
100
AcDbEntity
  8
0
100
AcDbLine
 10
3.8999999999999995
 20
1.0
 30
0.0
 11
3.8999999999999995
 21
3.9999999999999996
 31
0.0
  0
LINE
  5
131
330
17
100
AcDbEntity
  8
0
100
AcDbLine
 10
3.9159999999999995
 20
1.0
 30
0.0
 11
3.9159999999999995
 21
3.9999999999999996
 31
0.0
  0
LINE
  5
132
330
17
100
AcDbEntity
  8
0
100
AcDbLine
 10
3.9159999999999995
 20
3.9999999999999996
 30
0.0
 11
3.8999999999999995
 21
3.9999999999999996
 31
0.0
  0
LINE
  5
133
330
17
100
AcDbEntity
  8
0
100
AcDbLine
 10
3.9159999999999995
 20
1.0
 30
0.0
 11
3.8999999999999995
 21
1.0
 31
0.0
  0
LINE
  5
134
330
17
100
AcDbEntity
  8
0
100
AcDbLine
 10
3.8
 20
1.0
 30
0.0
 11
3.8
 21
3.9999999999999996
 31
0.0
  0
LINE
  5
135
330
17
100
AcDbEntity
  8
0
100
AcDbLine
 10
3.816
 20
1.0
 30
0.0
 11
3.816
 21
3.9999999999999996
 31
0.0
  0
LINE
  5
136
330
17
100
AcDbEntity
  8
0
100
AcDbLine
 10
3.816
 20
3.9999999999999996
 30
0.0
 11
3.8
 21
3.9999999999999996
 31
0.0
  0
LINE
  5
137
330
17
100
AcDbEntity
  8
0
100
AcDbLine
 10
3.816
 20
1.0
 30
0.0
 11
3.8
 21
1.0
 31
0.0
  0
LINE
  5
138
330
17
100
AcDbEntity
  8
0
100
AcDbLine
 10
3.7
 20
1.0
 30
0.0
 11
3.7
 21
3.9999999999999996
 31
0.0
  0
LINE
  5
139
330
17
100
AcDbEntity
  8
0
100
AcDbLine
 10
3.716
 20
1.0
 30
0.0
 11
3.716
 21
3.9999999999999996
 31
0.0
  0
LINE
  5
13A
330
17
100
AcDbEntity
  8
0
100
AcDbLine
 10
3.716
 20
3.9999999999999996
 30
0.0
 11
3.7
 21
3.9999999999999996
 31
0.0
  0
LINE
  5
13B
330
17
100
AcDbEntity
  8
0
100
AcDbLine
 10
3.716
 20
1.0
 30
0.0
 11
3.7
 21
1.0
 31
0.0
  0
LINE
  5
13C
330
17
100
AcDbEntity
  8
0
100
AcDbLine
 10
3.5999999999999996
 20
1.0
 30
0.0
 11
3.5999999999999996
 21
3.9999999999999996
 31
0.0
  0
LINE
  5
13D
330
17
100
AcDbEntity
  8
0
100
AcDbLine
 10
3.6159999999999997
 20
1.0
 30
0.0
 11
3.6159999999999997
 21
3.9999999999999996
 31
0.0
  0
LINE
  5
13E
330
17
100
AcDbEntity
  8
0
100
AcDbLine
 10
3.6159999999999997
 20
3.9999999999999996
 30
0.0
 11
3.5999999999999996
 21
3.9999999999999996
 31
0.0
  0
LINE
  5
13F
330
17
100
AcDbEntity
  8
0
100
AcDbLine
 10
3.6159999999999997
 20
1.0
 30
0.0
 11
3.5999999999999996
 21
1.0
 31
0.0
  0
LINE
  5
140
330
17
100
AcDbEntity
  8
0
100
AcDbLine
 10
3.5
 20
1.0
 30
0.0
 11
3.5
 21
3.9999999999999996
 31
0.0
  0
LINE
  5
141
330
17
100
AcDbEntity
  8
0
100
AcDbLine
 10
3.516
 20
1.0
 30
0.0
 11
3.516
 21
3.9999999999999996
 31
0.0
  0
LINE
  5
142
330
17
100
AcDbEntity
  8
0
100
AcDbLine
 10
3.516
 20
3.9999999999999996
 30
0.0
 11
3.5
 21
3.9999999999999996
 31
0.0
  0
LINE
  5
143
330
17
100
AcDbEntity
  8
0
100
AcDbLine
 10
3.516
 20
1.0
 30
0.0
 11
3.5
 21
1.0
 31
0.0
  0
LINE
  5
144
330
17
100
AcDbEntity
  8
0
100
AcDbLine
 10
3.3999999999999995
 20
1.0
 30
0.0
 11
3.3999999999999995
 21
3.9999999999999996
 31
0.0
  0
LINE
  5
145
330
17
100
AcDbEntity
  8
0
100
AcDbLine
 10
3.4159999999999995
 20
1.0
 30
0.0
 11
3.4159999999999995
 21
3.9999999999999996
 31
0.0
  0
LINE
  5
146
330
17
100
AcDbEntity
  8
0
100
AcDbLine
 10
3.4159999999999995
 20
3.9999999999999996
 30
0.0
 11
3.3999999999999995
 21
3.9999999999999996
 31
0.0
  0
LINE
  5
147
330
17
100
AcDbEntity
  8
0
100
AcDbLine
 10
3.4159999999999995
 20
1.0
 30
0.0
 11
3.3999999999999995
 21
1.0
 31
0.0
  0
LINE
  5
148
330
17
100
AcDbEntity
  8
0
100
AcDbLine
 10
3.3
 20
1.0
 30
0.0
 11
3.3
 21
3.9999999999999996
 31
0.0
  0
LINE
  5
149
330
17
100
AcDbEntity
  8
0
100
AcDbLine
 10
3.316
 20
1.0
 30
0.0
 11
3.316
 21
3.9999999999999996
 31
0.0
  0
LINE
  5
14A
330
17
100
AcDbEntity
  8
0
100
AcDbLine
 10
3.316
 20
3.9999999999999996
 30
0.0
 11
3.3
 21
3.9999999999999996
 31
0.0
  0
LINE
  5
14B
330
17
100
AcDbEntity
  8
0
100
AcDbLine
 10
3.316
 20
1.0
 30
0.0
 11
3.3
 21
1.0
 31
0.0
  0
LINE
  5
14C
330
17
100
AcDbEntity
  8
0
100
AcDbLine
 10
3.1999999999999993
 20
1.0
 30
0.0
 11
3.1999999999999993
 21
3.9999999999999996
 31
0.0
  0
LINE
  5
14D
330
17
100
AcDbEntity
  8
0
100
AcDbLine
 10
3.2159999999999993
 20
1.0
 30
0.0
 11
3.2159999999999993
 21
3.9999999999999996
 31
0.0
  0
LINE
  5
14E
330
17
100
AcDbEntity
  8
0
100
AcDbLine
 10
3.2159999999999993
 20
3.9999999999999996
 30
0.0
 11
3.1999999999999993
 21
3.9999999999999996
 31
0.0
  0
LINE
  5
14F
330
17
100
AcDbEntity
  8
0
100
AcDbLine
 10
3.2159999999999993
 20
1.0
 30
0.0
 11
3.1999999999999993
 21
1.0
 31
0.0
  0
LINE
  5
150
330
17
100
AcDbEntity
  8
0
100
AcDbLine
 10
3.0999999999999996
 20
1.0
 30
0.0
 11
3.0999999999999996
 21
3.9999999999999996
 31
0.0
  0
LINE
  5
151
330
17
100
AcDbEntity
  8
0
100
AcDbLine
 10
3.1159999999999997
 20
1.0
 30
0.0
 11
3.1159999999999997
 21
3.9999999999999996
 31
0.0
  0
LINE
  5
152
330
17
100
AcDbEntity
  8
0
100
AcDbLine
 10
3.1159999999999997
 20
3.9999999999999996
 30
0.0
 11
3.0999999999999996
 21
3.9999999999999996
 31
0.0
  0
LINE
  5
153
330
17
100
AcDbEntity
  8
0
100
AcDbLine
 10
3.1159999999999997
 20
1.0
 30
0.0
 11
3.0999999999999996
 21
1.0
 31
0.0
  0
LINE
  5
154
330
17
100
AcDbEntity
  8
0
100
AcDbLine
 10
3.0
 20
1.0
 30
0.0
 11
3.0
 21
3.9999999999999996
 31
0.0
  0
LINE
  5
155
330
17
100
AcDbEntity
  8
0
100
AcDbLine
 10
3.016
 20
1.0
 30
0.0
 11
3.016
 21
3.9999999999999996
 31
0.0
  0
LINE
  5
156
330
17
100
AcDbEntity
  8
0
100
AcDbLine
 10
3.016
 20
3.9999999999999996
 30
0.0
 11
3.0
 21
3.9999999999999996
 31
0.0
  0
LINE
  5
157
330
17
100
AcDbEntity
  8
0
100
AcDbLine
 10
3.016
 20
1.0
 30
0.0
 11
3.0
 21
1.0
 31
0.0
  0
LINE
  5
158
330
17
100
AcDbEntity
  8
0
100
AcDbLine
 10
2.8999999999999995
 20
1.0
 30
0.0
 11
2.8999999999999995
 21
3.9999999999999996
 31
0.0
  0
LINE
  5
159
330
17
100
AcDbEntity
  8
0
100
AcDbLine
 10
2.9159999999999995
 20
1.0
 30
0.0
 11
2.9159999999999995
 21
3.9999999999999996
 31
0.0
  0
LINE
  5
15A
330
17
100
AcDbEntity
  8
0
100
AcDbLine
 10
2.9159999999999995
 20
3.9999999999999996
 30
0.0
 11
2.8999999999999995
 21
3.9999999999999996
 31
0.0
  0
LINE
  5
15B
330
17
100
AcDbEntity
  8
0
100
AcDbLine
 10
2.9159999999999995
 20
1.0
 30
0.0
 11
2.8999999999999995
 21
1.0
 31
0.0
  0
LINE
  5
15C
330
17
100
AcDbEntity
  8
0
100
AcDbLine
 10
2.8
 20
1.0
 30
0.0
 11
2.8
 21
3.9999999999999996
 31
0.0
  0
LINE
  5
15D
330
17
100
AcDbEntity
  8
0
100
AcDbLine
 10
2.816
 20
1.0
 30
0.0
 11
2.816
 21
3.9999999999999996
 31
0.0
  0
LINE
  5
15E
330
17
100
AcDbEntity
  8
0
100
AcDbLine
 10
2.816
 20
3.9999999999999996
 30
0.0
 11
2.8
 21
3.9999999999999996
 31
0.0
  0
LINE
  5
15F
330
17
100
AcDbEntity
  8
0
100
AcDbLine
 10
2.816
 20
1.0
 30
0.0
 11
2.8
 21
1.0
 31
0.0
  0
LINE
  5
160
330
17
100
AcDbEntity
  8
0
100
AcDbLine
 10
2.6999999999999993
 20
1.0
 30
0.0
 11
2.6999999999999993
 21
3.9999999999999996
 31
0.0
  0
LINE
  5
161
330
17
100
AcDbEntity
  8
0
100
AcDbLine
 10
2.7159999999999993
 20
1.0
 30
0.0
 11
2.7159999999999993
 21
3.9999999999999996
 31
0.0
  0
LINE
  5
162
330
17
100
AcDbEntity
  8
0
100
AcDbLine
 10
2.7159999999999993
 20
3.9999999999999996
 30
0.0
 11
2.6999999999999993
 21
3.9999999999999996
 31
0.0
  0
LINE
  5
163
330
17
100
AcDbEntity
  8
0
100
AcDbLine
 10
2.7159999999999993
 20
1.0
 30
0.0
 11
2.6999999999999993
 21
1.0
 31
0.0
  0
LINE
  5
164
330
17
100
AcDbEntity
  8
0
100
AcDbLine
 10
2.5999999999999996
 20
1.0
 30
0.0
 11
2.5999999999999996
 21
3.9999999999999996
 31
0.0
  0
LINE
  5
165
330
17
100
AcDbEntity
  8
0
100
AcDbLine
 10
2.6159999999999997
 20
1.0
 30
0.0
 11
2.6159999999999997
 21
3.9999999999999996
 31
0.0
  0
LINE
  5
166
330
17
100
AcDbEntity
  8
0
100
AcDbLine
 10
2.6159999999999997
 20
3.9999999999999996
 30
0.0
 11
2.5999999999999996
 21
3.9999999999999996
 31
0.0
  0
LINE
  5
167
330
17
100
AcDbEntity
  8
0
100
AcDbLine
 10
2.6159999999999997
 20
1.0
 30
0.0
 11
2.5999999999999996
 21
1.0
 31
0.0
  0
LINE
  5
168
330
17
100
AcDbEntity
  8
0
100
AcDbLine
 10
2.5
 20
1.0
 30
0.0
 11
2.5
 21
3.9999999999999996
 31
0.0
  0
LINE
  5
169
330
17
100
AcDbEntity
  8
0
100
AcDbLine
 10
2.516
 20
1.0
 30
0.0
 11
2.516
 21
3.9999999999999996
 31
0.0
  0
LINE
  5
16A
330
17
100
AcDbEntity
  8
0
100
AcDbLine
 10
2.516
 20
3.9999999999999996
 30
0.0
 11
2.5
 21
3.9999999999999996
 31
0.0
  0
LINE
  5
16B
330
17
100
AcDbEntity
  8
0
100
AcDbLine
 10
2.516
 20
1.0
 30
0.0
 11
2.5
 21
1.0
 31
0.0
  0
LINE
  5
16C
330
17
100
AcDbEntity
  8
0
100
AcDbLine
 10
2.3999999999999995
 20
1.0
 30
0.0
 11
2.3999999999999995
 21
3.9999999999999996
 31
0.0
  0
LINE
  5
16D
330
17
100
AcDbEntity
  8
0
100
AcDbLine
 10
2.4159999999999995
 20
1.0
 30
0.0
 11
2.4159999999999995
 21
3.9999999999999996
 31
0.0
  0
LINE
  5
16E
330
17
100
AcDbEntity
  8
0
100
AcDbLine
 10
2.4159999999999995
 20
3.9999999999999996
 30
0.0
 11
2.3999999999999995
 21
3.9999999999999996
 31
0.0
  0
LINE
  5
16F
330
17
100
AcDbEntity
  8
0
100
AcDbLine
 10
2.4159999999999995
 20
1.0
 30
0.0
 11
2.3999999999999995
 21
1.0
 31
0.0
  0
LINE
  5
170
330
17
100
AcDbEntity
  8
0
100
AcDbLine
 10
2.3
 20
1.0
 30
0.0
 11
2.3
 21
3.9999999999999996
 31
0.0
  0
LINE
  5
171
330
17
100
AcDbEntity
  8
0
100
AcDbLine
 10
2.316
 20
1.0
 30
0.0
 11
2.316
 21
3.9999999999999996
 31
0.0
  0
LINE
  5
172
330
17
100
AcDbEntity
  8
0
100
AcDbLine
 10
2.316
 20
3.9999999999999996
 30
0.0
 11
2.3
 21
3.9999999999999996
 31
0.0
  0
LINE
  5
173
330
17
100
AcDbEntity
  8
0
100
AcDbLine
 10
2.316
 20
1.0
 30
0.0
 11
2.3
 21
1.0
 31
0.0
  0
LINE
  5
174
330
17
100
AcDbEntity
  8
0
100
AcDbLine
 10
2.1999999999999993
 20
1.0
 30
0.0
 11
2.1999999999999993
 21
3.9999999999999996
 31
0.0
  0
LINE
  5
175
330
17
100
AcDbEntity
  8
0
100
AcDbLine
 10
2.2159999999999993
 20
1.0
 30
0.0
 11
2.2159999999999993
 21
3.9999999999999996
 31
0.0
  0
LINE
  5
176
330
17
100
AcDbEntity
  8
0
100
AcDbLine
 10
2.2159999999999993
 20
3.9999999999999996
 30
0.0
 11
2.1999999999999993
 21
3.9999999999999996
 31
0.0
  0
LINE
  5
177
330
17
100
AcDbEntity
  8
0
100
AcDbLine
 10
2.2159999999999993
 20
1.0
 30
0.0
 11
2.1999999999999993
 21
1.0
 31
0.0
  0
LINE
  5
178
330
17
100
AcDbEntity
  8
0
100
AcDbLine
 10
2.0999999999999996
 20
1.0
 30
0.0
 11
2.0999999999999996
 21
3.9999999999999996
 31
0.0
  0
LINE
  5
179
330
17
100
AcDbEntity
  8
0
100
AcDbLine
 10
2.1159999999999997
 20
1.0
 30
0.0
 11
2.1159999999999997
 21
3.9999999999999996
 31
0.0
  0
LINE
  5
17A
330
17
100
AcDbEntity
  8
0
100
AcDbLine
 10
2.1159999999999997
 20
3.9999999999999996
 30
0.0
 11
2.0999999999999996
 21
3.9999999999999996
 31
0.0
  0
LINE
  5
17B
330
17
100
AcDbEntity
  8
0
100
AcDbLine
 10
2.1159999999999997
 20
1.0
 30
0.0
 11
2.0999999999999996
 21
1.0
 31
0.0
  0
LINE
  5
17C
330
17
100
AcDbEntity
  8
0
100
AcDbLine
 10
2.0
 20
1.0
 30
0.0
 11
2.0
 21
3.9999999999999996
 31
0.0
  0
LINE
  5
17D
330
17
100
AcDbEntity
  8
0
100
AcDbLine
 10
2.016
 20
1.0
 30
0.0
 11
2.016
 21
3.9999999999999996
 31
0.0
  0
LINE
  5
17E
330
17
100
AcDbEntity
  8
0
100
AcDbLine
 10
2.016
 20
3.9999999999999996
 30
0.0
 11
2.0
 21
3.9999999999999996
 31
0.0
  0
LINE
  5
17F
330
17
100
AcDbEntity
  8
0
100
AcDbLine
 10
2.016
 20
1.0
 30
0.0
 11
2.0
 21
1.0
 31
0.0
  0
DIMENSION
  5
180
330
17
100
AcDbEntity
  8
0
100
AcDbDimension
280
0
  2
*D3
  3
EZ_M_25_H25_CM
 10
1.9660000000000002
 20
1.0
 30
0.0
 11
1.9097500000000003
 21
2.5
 31
0.0
 70
32
 71
5
  1
<>
 53
90.0
100
AcDbAlignedDimension
 13
2.016
 23
1.0
 33
0.0
 14
2.016
 24
3.9999999999999996
 34
0.0
 50
90.0
100
AcDbRotatedDimension
  0
DIMENSION
  5
193
330
17
100
AcDbEntity
  8
0
100
AcDbDimension
280
0
  2
*D4
  3
EZ_M_25_H25_CM
 10
8.016
 20
0.9499999999999995
 30
0.0
 11
5.016
 21
0.8937499999999995
 31
0.0
 70
32
 71
5
  1
<>
100
AcDbAlignedDimension
 13
8.016
 23
0.9999999999999996
 33
0.0
 14
2.016
 24
1.0
 34
0.0
 50
180.0
100
AcDbRotatedDimension
  0
LINE
  5
1BE
330
17
100
AcDbEntity
  8
0
100
AcDbLine
 10
14.999999999999998
 20
1.0
 30
0.0
 11
14.999999999999998
 21
4.0
 31
0.0
  0
LINE
  5
1BF
330
17
100
AcDbEntity
  8
0
100
AcDbLine
 10
14.899999999999999
 20
1.0
 30
0.0
 11
14.899999999999999
 21
4.0
 31
0.0
  0
LINE
  5
1C0
330
17
100
AcDbEntity
  8
0
100
AcDbLine
 10
14.799999999999999
 20
1.0
 30
0.0
 11
14.799999999999999
 21
4.0
 31
0.0
  0
LINE
  5
1C1
330
17
100
AcDbEntity
  8
0
100
AcDbLine
 10
14.7
 20
1.0
 30
0.0
 11
14.7
 21
4.0
 31
0.0
  0
LINE
  5
1C2
330
17
100
AcDbEntity
  8
0
100
AcDbLine
 10
14.6
 20
1.0
 30
0.0
 11
14.6
 21
4.0
 31
0.0
  0
LINE
  5
1C3
330
17
100
AcDbEntity
  8
0
100
AcDbLine
 10
14.499999999999998
 20
1.0
 30
0.0
 11
14.499999999999998
 21
4.0
 31
0.0
  0
LINE
  5
1C4
330
17
100
AcDbEntity
  8
0
100
AcDbLine
 10
14.399999999999999
 20
1.0
 30
0.0
 11
14.399999999999999
 21
4.0
 31
0.0
  0
LINE
  5
1C5
330
17
100
AcDbEntity
  8
0
100
AcDbLine
 10
14.299999999999999
 20
1.0
 30
0.0
 11
14.299999999999999
 21
4.0
 31
0.0
  0
LINE
  5
1C6
330
17
100
AcDbEntity
  8
0
100
AcDbLine
 10
14.2
 20
1.0
 30
0.0
 11
14.2
 21
4.0
 31
0.0
  0
LINE
  5
1C7
330
17
100
AcDbEntity
  8
0
100
AcDbLine
 10
14.1
 20
1.0
 30
0.0
 11
14.1
 21
4.0
 31
0.0
  0
LINE
  5
1C8
330
17
100
AcDbEntity
  8
0
100
AcDbLine
 10
13.999999999999998
 20
1.0
 30
0.0
 11
13.999999999999998
 21
4.0
 31
0.0
  0
LINE
  5
1C9
330
17
100
AcDbEntity
  8
0
100
AcDbLine
 10
13.899999999999999
 20
1.0
 30
0.0
 11
13.899999999999999
 21
4.0
 31
0.0
  0
LINE
  5
1CA
330
17
100
AcDbEntity
  8
0
100
AcDbLine
 10
13.799999999999999
 20
1.0
 30
0.0
 11
13.799999999999999
 21
4.0
 31
0.0
  0
LINE
  5
1CB
330
17
100
AcDbEntity
  8
0
100
AcDbLine
 10
13.7
 20
1.0
 30
0.0
 11
13.7
 21
4.0
 31
0.0
  0
LINE
  5
1CC
330
17
100
AcDbEntity
  8
0
100
AcDbLine
 10
13.599999999999998
 20
1.0
 30
0.0
 11
13.6
 21
4.0
 31
0.0
  0
LINE
  5
1CD
330
17
100
AcDbEntity
  8
0
100
AcDbLine
 10
13.499999999999998
 20
1.0
 30
0.0
 11
13.499999999999998
 21
4.0
 31
0.0
  0
LINE
  5
1CE
330
17
100
AcDbEntity
  8
0
100
AcDbLine
 10
13.399999999999999
 20
1.0
 30
0.0
 11
13.399999999999999
 21
4.0
 31
0.0
  0
LINE
  5
1CF
330
17
100
AcDbEntity
  8
0
100
AcDbLine
 10
13.299999999999999
 20
1.0
 30
0.0
 11
13.299999999999999
 21
4.0
 31
0.0
  0
LINE
  5
1D0
330
17
100
AcDbEntity
  8
0
100
AcDbLine
 10
13.2
 20
1.0
 30
0.0
 11
13.2
 21
4.0
 31
0.0
  0
LINE
  5
1D1
330
17
100
AcDbEntity
  8
0
100
AcDbLine
 10
13.099999999999998
 20
1.0
 30
0.0
 11
13.1
 21
4.0
 31
0.0
  0
LINE
  5
1D2
330
17
100
AcDbEntity
  8
0
100
AcDbLine
 10
12.999999999999998
 20
1.0
 30
0.0
 11
12.999999999999998
 21
4.0
 31
0.0
  0
TEXT
  5
1D3
330
17
100
AcDbEntity
  8
0
100
AcDbText
 10
13.049999999999999
 20
2.5
 30
0.0
 40
0.05
  1
R2
 50
90.0
 72
4
 11
13.049999999999999
 21
2.5
 31
0.0
100
AcDbText
  0
TEXT
  5
1D4
330
17
100
AcDbEntity
  8
0
100
AcDbText
 10
12.934
 20
2.5
 30
0.0
 40
0.05
  1
0.016 s/0.1 
 50
90.0
 72
4
 11
12.934
 21
2.5
 31
0.0
100
AcDbText
  0
LINE
  5
1D5
330
17
100
AcDbEntity
  8
0
100
AcDbLine
 10
12.899999999999999
 20
1.0
 30
0.0
 11
12.899999999999999
 21
4.0
 31
0.0
  0
LINE
  5
1D6
330
17
100
AcDbEntity
  8
0
100
AcDbLine
 10
12.799999999999999
 20
1.0
 30
0.0
 11
12.799999999999999
 21
4.0
 31
0.0
  0
LINE
  5
1D7
330
17
100
AcDbEntity
  8
0
100
AcDbLine
 10
12.699999999999998
 20
1.0
 30
0.0
 11
12.7
 21
4.0
 31
0.0
  0
LINE
  5
1D8
330
17
100
AcDbEntity
  8
0
100
AcDbLine
 10
12.599999999999998
 20
1.0
 30
0.0
 11
12.6
 21
4.0
 31
0.0
  0
LINE
  5
1D9
330
17
100
AcDbEntity
  8
0
100
AcDbLine
 10
12.499999999999998
 20
1.0
 30
0.0
 11
12.499999999999998
 21
4.0
 31
0.0
  0
LINE
  5
1DA
330
17
100
AcDbEntity
  8
0
100
AcDbLine
 10
12.399999999999999
 20
1.0
 30
0.0
 11
12.399999999999999
 21
4.0
 31
0.0
  0
LINE
  5
1DB
330
17
100
AcDbEntity
  8
0
100
AcDbLine
 10
12.299999999999999
 20
1.0
 30
0.0
 11
12.299999999999999
 21
4.0
 31
0.0
  0
LINE
  5
1DC
330
17
100
AcDbEntity
  8
0
100
AcDbLine
 10
12.199999999999998
 20
1.0
 30
0.0
 11
12.2
 21
4.0
 31
0.0
  0
LINE
  5
1DD
330
17
100
AcDbEntity
  8
0
100
AcDbLine
 10
12.099999999999998
 20
1.0
 30
0.0
 11
12.1
 21
4.0
 31
0.0
  0
LINE
  5
1DE
330
17
100
AcDbEntity
  8
0
100
AcDbLine
 10
11.999999999999998
 20
1.0
 30
0.0
 11
11.999999999999998
 21
4.0
 31
0.0
  0
LINE
  5
1DF
330
17
100
AcDbEntity
  8
0
100
AcDbLine
 10
11.9
 20
1.0
 30
0.0
 11
11.9
 21
4.0
 31
0.0
  0
LINE
  5
1E0
330
17
100
AcDbEntity
  8
0
100
AcDbLine
 10
11.799999999999999
 20
1.0
 30
0.0
 11
11.799999999999999
 21
4.0
 31
0.0
  0
LINE
  5
1E1
330
17
100
AcDbEntity
  8
0
100
AcDbLine
 10
11.699999999999998
 20
1.0
 30
0.0
 11
11.699999999999998
 21
4.0
 31
0.0
  0
LINE
  5
1E2
330
17
100
AcDbEntity
  8
0
100
AcDbLine
 10
11.6
 20
1.0
 30
0.0
 11
11.6
 21
4.0
 31
0.0
  0
LINE
  5
1E3
330
17
100
AcDbEntity
  8
0
100
AcDbLine
 10
11.499999999999998
 20
1.0
 30
0.0
 11
11.499999999999998
 21
4.0
 31
0.0
  0
LINE
  5
1E4
330
17
100
AcDbEntity
  8
0
100
AcDbLine
 10
11.4
 20
1.0
 30
0.0
 11
11.4
 21
4.0
 31
0.0
  0
LINE
  5
1E5
330
17
100
AcDbEntity
  8
0
100
AcDbLine
 10
11.299999999999999
 20
1.0
 30
0.0
 11
11.299999999999999
 21
4.0
 31
0.0
  0
LINE
  5
1E6
330
17
100
AcDbEntity
  8
0
100
AcDbLine
 10
11.199999999999998
 20
1.0
 30
0.0
 11
11.199999999999998
 21
4.0
 31
0.0
  0
LINE
  5
1E7
330
17
100
AcDbEntity
  8
0
100
AcDbLine
 10
11.1
 20
1.0
 30
0.0
 11
11.1
 21
4.0
 31
0.0
  0
LINE
  5
1E8
330
17
100
AcDbEntity
  8
0
100
AcDbLine
 10
10.999999999999998
 20
1.0
 30
0.0
 11
10.999999999999998
 21
4.0
 31
0.0
  0
LINE
  5
1E9
330
17
100
AcDbEntity
  8
0
100
AcDbLine
 10
10.899999999999999
 20
1.0
 30
0.0
 11
10.899999999999999
 21
4.0
 31
0.0
  0
LINE
  5
1EA
330
17
100
AcDbEntity
  8
0
100
AcDbLine
 10
10.799999999999999
 20
1.0
 30
0.0
 11
10.799999999999999
 21
4.0
 31
0.0
  0
LINE
  5
1EB
330
17
100
AcDbEntity
  8
0
100
AcDbLine
 10
10.7
 20
1.0
 30
0.0
 11
10.7
 21
4.0
 31
0.0
  0
LINE
  5
1EC
330
17
100
AcDbEntity
  8
0
100
AcDbLine
 10
10.6
 20
1.0
 30
0.0
 11
10.6
 21
4.0
 31
0.0
  0
LINE
  5
1ED
330
17
100
AcDbEntity
  8
0
100
AcDbLine
 10
10.499999999999998
 20
1.0
 30
0.0
 11
10.499999999999998
 21
4.0
 31
0.0
  0
LINE
  5
1EE
330
17
100
AcDbEntity
  8
0
100
AcDbLine
 10
10.399999999999999
 20
1.0
 30
0.0
 11
10.399999999999999
 21
4.0
 31
0.0
  0
LINE
  5
1EF
330
17
100
AcDbEntity
  8
0
100
AcDbLine
 10
10.299999999999999
 20
1.0
 30
0.0
 11
10.299999999999999
 21
4.0
 31
0.0
  0
LINE
  5
1F0
330
17
100
AcDbEntity
  8
0
100
AcDbLine
 10
10.199999999999998
 20
1.0
 30
0.0
 11
10.199999999999998
 21
4.0
 31
0.0
  0
LINE
  5
1F1
330
17
100
AcDbEntity
  8
0
100
AcDbLine
 10
10.1
 20
1.0
 30
0.0
 11
10.1
 21
4.0
 31
0.0
  0
LINE
  5
1F2
330
17
100
AcDbEntity
  8
0
100
AcDbLine
 10
9.999999999999998
 20
1.0
 30
0.0
 11
9.999999999999998
 21
4.0
 31
0.0
  0
LINE
  5
1F3
330
17
100
AcDbEntity
  8
0
100
AcDbLine
 10
9.899999999999999
 20
1.0
 30
0.0
 11
9.899999999999999
 21
4.0
 31
0.0
  0
LINE
  5
1F4
330
17
100
AcDbEntity
  8
0
100
AcDbLine
 10
9.799999999999999
 20
1.0
 30
0.0
 11
9.799999999999999
 21
4.0
 31
0.0
  0
LINE
  5
1F5
330
17
100
AcDbEntity
  8
0
100
AcDbLine
 10
9.699999999999998
 20
1.0
 30
0.0
 11
9.699999999999998
 21
4.0
 31
0.0
  0
LINE
  5
1F6
330
17
100
AcDbEntity
  8
0
100
AcDbLine
 10
9.6
 20
1.0
 30
0.0
 11
9.6
 21
4.0
 31
0.0
  0
LINE
  5
1F7
330
17
100
AcDbEntity
  8
0
100
AcDbLine
 10
9.499999999999998
 20
1.0
 30
0.0
 11
9.499999999999998
 21
4.0
 31
0.0
  0
LINE
  5
1F8
330
17
100
AcDbEntity
  8
0
100
AcDbLine
 10
9.399999999999999
 20
1.0
 30
0.0
 11
9.399999999999999
 21
4.0
 31
0.0
  0
LINE
  5
1F9
330
17
100
AcDbEntity
  8
0
100
AcDbLine
 10
9.299999999999999
 20
1.0
 30
0.0
 11
9.299999999999999
 21
4.0
 31
0.0
  0
LINE
  5
1FA
330
17
100
AcDbEntity
  8
0
100
AcDbLine
 10
9.199999999999998
 20
1.0
 30
0.0
 11
9.199999999999998
 21
4.0
 31
0.0
  0
LINE
  5
1FB
330
17
100
AcDbEntity
  8
0
100
AcDbLine
 10
9.1
 20
1.0
 30
0.0
 11
9.1
 21
4.0
 31
0.0
  0
LINE
  5
1FC
330
17
100
AcDbEntity
  8
0
100
AcDbLine
 10
8.999999999999998
 20
1.0
 30
0.0
 11
8.999999999999998
 21
4.0
 31
0.0
  0
DIMENSION
  5
1FD
330
17
100
AcDbEntity
  8
0
100
AcDbDimension
280
0
  2
*D7
  3
EZ_M_25_H25_CM
 10
8.95
 20
1.0
 30
0.0
 11
8.893749999999999
 21
2.5
 31
0.0
 70
32
 71
5
  1
<>
 53
90.0
100
AcDbAlignedDimension
 13
8.999999999999998
 23
1.0
 33
0.0
 14
8.999999999999998
 24
4.0
 34
0.0
 50
90.0
100
AcDbRotatedDimension
  0
DIMENSION
  5
20C
330
17
100
AcDbEntity
  8
0
100
AcDbDimension
280
0
  2
*D8
  3
EZ_M_25_H25_CM
 10
14.999999999999998
 20
0.9499999999999993
 30
0.0
 11
11.999999999999998
 21
0.8937499999999993
 31
0.0
 70
32
 71
5
  1
<>
100
AcDbAlignedDimension
 13
14.999999999999998
 23
1.0
 33
0.0
 14
8.999999999999998
 24
1.0
 34
0.0
 50
180.0
100
AcDbRotatedDimension
  0
LINE
  5
237
330
17
100
AcDbEntity
  8
0
100
AcDbLine
 10
6.0
 20
-5.0
 30
0.0
 11
6.0
 21
-2.0
 31
0.0
  0
LINE
  5
238
330
17
100
AcDbEntity
  8
0
100
AcDbLine
 10
6.016
 20
-5.0
 30
0.0
 11
6.016
 21
-2.0
 31
0.0
  0
LINE
  5
239
330
17
100
AcDbEntity
  8
0
100
AcDbLine
 10
6.016
 20
-2.0
 30
0.0
 11
6.0
 21
-2.0
 31
0.0
  0
LINE
  5
23A
330
17
100
AcDbEntity
  8
0
100
AcDbLine
 10
6.016
 20
-5.0
 30
0.0
 11
6.0
 21
-5.0
 31
0.0
  0
TEXT
  5
23B
330
17
100
AcDbEntity
  8
0
100
AcDbText
 10
6.05
 20
-3.5
 30
0.0
 40
0.05
  1
R2
 50
90.0
 72
4
 11
6.05
 21
-3.5
 31
0.0
100
AcDbText
  0
TEXT
  5
23C
330
17
100
AcDbEntity
  8
0
100
AcDbText
 10
5.95
 20
-3.5
 30
0.0
 40
0.05
  1
0.016 s/0.1 
 50
90.0
 72
4
 11
5.95
 21
-3.5
 31
0.0
100
AcDbText
  0
DIMENSION
  5
23D
330
17
100
AcDbEntity
  8
0
100
AcDbDimension
280
0
  2
*D11
  3
EZ_M_25_H25_CM
 10
1.9660000000000002
 20
-5.0
 30
0.0
 11
1.9097500000000003
 21
-3.5
 31
0.0
 70
32
 71
5
  1
<>
 53
90.0
100
AcDbAlignedDimension
 13
2.016
 23
-5.0
 33
0.0
 14
2.0160000000000005
 24
-2.0
 34
0.0
 50
90.0
100
AcDbRotatedDimension
  0
DIMENSION
  5
24C
330
17
100
AcDbEntity
  8
0
100
AcDbDimension
280
0
  2
*D12
  3
EZ_M_25_H25_CM
 10
8.016
 20
-5.050000000000001
 30
0.0
 11
5.016
 21
-5.106250000000001
 31
0.0
 70
32
 71
5
  1
<>
100
AcDbAlignedDimension
 13
8.016
 23
-5.0
 33
0.0
 14
2.016
 24
-5.0
 34
0.0
 50
180.0
100
AcDbRotatedDimension
  0
LINE
  5
277
330
17
100
AcDbEntity
  8
0
100
AcDbLine
 10
13.0
 20
-5.0
 30
0.0
 11
13.000000000000002
 21
-2.0
 31
0.0
  0
TEXT
  5
278
330
17
100
AcDbEntity
  8
0
100
AcDbText
 10
13.05
 20
-3.5
 30
0.0
 40
0.05
  1
R2
 50
90.0
 72
4
 11
13.05
 21
-3.5
 31
0.0
100
AcDbText
  0
TEXT
  5
279
330
17
100
AcDbEntity
  8
0
100
AcDbText
 10
12.934000000000001
 20
-3.5
 30
0.0
 40
0.05
  1
0.016 s/0.1 
 50
90.0
 72
4
 11
12.934000000000001
 21
-3.5
 31
0.0
100
AcDbText
  0
DIMENSION
  5
27A
330
17
100
AcDbEntity
  8
0
100
AcDbDimension
280
0
  2
*D15
  3
EZ_M_25_H25_CM
 10
8.950000000000001
 20
-5.0
 30
0.0
 11
8.89375
 21
-3.5
 31
0.0
 70
32
 71
5
  1
<>
 53
90.0
100
AcDbAlignedDimension
 13
9.0
 23
-5.0
 33
0.0
 14
9.0
 24
-2.0
 34
0.0
 50
90.0
100
AcDbRotatedDimension
  0
DIMENSION
  5
289
330
17
100
AcDbEntity
  8
0
100
AcDbDimension
280
0
  2
*D16
  3
EZ_M_25_H25_CM
 10
15.000000000000002
 20
-5.050000000000001
 30
0.0
 11
12.0
 21
-5.106250000000001
 31
0.0
 70
32
 71
5
  1
<>
100
AcDbAlignedDimension
 13
15.000000000000002
 23
-5.0
 33
0.0
 14
9.0
 24
-5.0
 34
0.0
 50
180.0
100
AcDbRotatedDimension
  0
ENDSEC
  0
SECTION
  2
OBJECTS
  0
DICTIONARY
  5
A
330
0
100
AcDbDictionary
280
0
281
1
  3
ACAD_COLOR
350
B
  3
ACAD_GROUP
350
C
  3
ACAD_LAYOUT
350
D
  3
ACAD_MATERIAL
350
E
  3
ACAD_MLEADERSTYLE
350
F
  3
ACAD_MLINESTYLE
350
10
  3
ACAD_PLOTSETTINGS
350
11
  3
ACAD_PLOTSTYLENAME
350
12
  3
ACAD_SCALELIST
350
14
  3
ACAD_TABLESTYLE
350
15
  3
ACAD_VISUALSTYLE
350
16
  3
EZDXF_META
350
2D
  0
DICTIONARY
  5
B
330
A
100
AcDbDictionary
280
0
281
1
  0
DICTIONARY
  5
C
330
A
100
AcDbDictionary
280
0
281
1
  0
DICTIONARY
  5
D
330
A
100
AcDbDictionary
280
0
281
1
  3
Model
350
1A
  3
Layout1
350
1E
  0
DICTIONARY
  5
E
330
A
100
AcDbDictionary
280
0
281
1
  3
ByBlock
350
1F
  3
ByLayer
350
20
  3
Global
350
21
  0
DICTIONARY
  5
F
330
A
100
AcDbDictionary
280
0
281
1
  3
Standard
350
2C
  0
DICTIONARY
  5
10
330
A
100
AcDbDictionary
280
0
281
1
  3
Standard
350
22
  0
DICTIONARY
  5
11
330
A
100
AcDbDictionary
280
0
281
1
  0
ACDBDICTIONARYWDFLT
  5
12
330
A
100
AcDbDictionary
280
0
281
1
  3
Normal
350
13
100
AcDbDictionaryWithDefault
340
13
  0
ACDBPLACEHOLDER
  5
13
330
12
  0
DICTIONARY
  5
14
330
A
100
AcDbDictionary
280
0
281
1
  0
DICTIONARY
  5
15
330
A
100
AcDbDictionary
280
0
281
1
  0
DICTIONARY
  5
16
330
A
100
AcDbDictionary
280
0
281
1
  3
2dWireframe
350
5A
  3
Basic
350
5B
  3
Brighten
350
5C
  3
ColorChange
350
5D
  3
Conceptual
350
5E
  3
Dim
350
5F
  3
EdgeColorOff
350
60
  3
Facepattern
350
61
  3
Flat
350
62
  3
FlatWithEdges
350
63
  3
Gouraud
350
64
  3
GouraudWithEdges
350
65
  3
Hidden
350
66
  3
JitterOff
350
67
  3
Linepattern
350
68
  3
Modeling
350
69
  3
OverhangOff
350
6A
  3
Realistic
350
6B
  3
Shaded
350
6C
  3
Shaded with edges
350
6D
  3
Shades of Gray
350
6E
  3
Sketchy
350
6F
  3
Thicken
350
70
  3
Wireframe
350
71
  3
X-Ray
350
72
  0
LAYOUT
  5
1A
330
D
100
AcDbPlotSettings
  1

  4
A3
  6

 40
7.5
 41
20.0
 42
7.5
 43
20.0
 44
420.0
 45
297.0
 46
0.0
 47
0.0
 48
0.0
 49
0.0
140
0.0
141
0.0
142
1.0
143
1.0
 70
1024
 72
1
 73
0
 74
5
  7

 75
16
 76
0
 77
2
 78
300
147
1.0
148
0.0
149
0.0
100
AcDbLayout
  1
Model
 70
1
 71
0
 10
0.0
 20
0.0
 11
420.0
 21
297.0
 12
0.0
 22
0.0
 32
0.0
 14
1e+20
 24
1e+20
 34
1e+20
 15
-1e+20
 25
-1e+20
 35
-1e+20
146
0.0
 13
0.0
 23
0.0
 33
0.0
 16
1.0
 26
0.0
 36
0.0
 17
0.0
 27
1.0
 37
0.0
 76
1
330
17
  0
LAYOUT
  5
1E
330
D
100
AcDbPlotSettings
  1

  4
A3
  6

 40
7.5
 41
20.0
 42
7.5
 43
20.0
 44
420.0
 45
297.0
 46
0.0
 47
0.0
 48
0.0
 49
0.0
140
0.0
141
0.0
142
1.0
143
1.0
 70
0
 72
1
 73
0
 74
5
  7

 75
16
 76
0
 77
2
 78
300
147
1.0
148
0.0
149
0.0
100
AcDbLayout
  1
Layout1
 70
1
 71
1
 10
0.0
 20
0.0
 11
420.0
 21
297.0
 12
0.0
 22
0.0
 32
0.0
 14
1e+20
 24
1e+20
 34
1e+20
 15
-1e+20
 25
-1e+20
 35
-1e+20
146
0.0
 13
0.0
 23
0.0
 33
0.0
 16
1.0
 26
0.0
 36
0.0
 17
0.0
 27
1.0
 37
0.0
 76
1
330
1B
  0
MATERIAL
  5
1F
102
{ACAD_REACTORS
330
E
102
}
330
E
100
AcDbMaterial
  1
ByBlock
  2

 70
0
 40
1.0
 71
1
 41
1.0
 91
-1023410177
 42
1.0
 72
1
  3

 73
1
 74
1
 75
1
 44
0.5
 73
0
 45
1.0
 46
1.0
 77
1
  4

 78
1
 79
1
170
1
 48
1.0
171
1
  6

172
1
173
1
174
1
140
1.0
141
1.0
175
1
  7

176
1
177
1
178
1
143
1.0
179
1
  8

270
1
271
1
272
1
145
1.0
146
1.0
273
1
  9

274
1
275
1
276
1
 42
1.0
 72
1
  3

 73
1
 74
1
 75
1
 94
63
  0
MATERIAL
  5
20
102
{ACAD_REACTORS
330
E
102
}
330
E
100
AcDbMaterial
  1
ByLayer
  2

 70
0
 40
1.0
 71
1
 41
1.0
 91
-1023410177
 42
1.0
 72
1
  3

 73
1
 74
1
 75
1
 44
0.5
 73
0
 45
1.0
 46
1.0
 77
1
  4

 78
1
 79
1
170
1
 48
1.0
171
1
  6

172
1
173
1
174
1
140
1.0
141
1.0
175
1
  7

176
1
177
1
178
1
143
1.0
179
1
  8

270
1
271
1
272
1
145
1.0
146
1.0
273
1
  9

274
1
275
1
276
1
 42
1.0
 72
1
  3

 73
1
 74
1
 75
1
 94
63
  0
MATERIAL
  5
21
102
{ACAD_REACTORS
330
E
102
}
330
E
100
AcDbMaterial
  1
Global
  2

 70
0
 40
1.0
 71
1
 41
1.0
 91
-1023410177
 42
1.0
 72
1
  3

 73
1
 74
1
 75
1
 44
0.5
 73
0
 45
1.0
 46
1.0
 77
1
  4

 78
1
 79
1
170
1
 48
1.0
171
1
  6

172
1
173
1
174
1
140
1.0
141
1.0
175
1
  7

176
1
177
1
178
1
143
1.0
179
1
  8

270
1
271
1
272
1
145
1.0
146
1.0
273
1
  9

274
1
275
1
276
1
 42
1.0
 72
1
  3

 73
1
 74
1
 75
1
 94
63
  0
MLINESTYLE
  5
22
102
{ACAD_REACTORS
330
10
102
}
330
10
100
AcDbMlineStyle
  2
Standard
 70
0
  3

 62
256
 51
90.0
 52
90.0
 71
2
 49
0.5
 62
256
  6
BYLAYER
 49
-0.5
 62
256
  6
BYLAYER
  0
MLEADERSTYLE
  5
2C
102
{ACAD_REACTORS
330
F
102
}
330
F
100
AcDbMLeaderStyle
179
2
170
2
171
1
172
0
 90
2
 40
0.0
 41
0.0
173
1
 91
-1056964608
 92
-2
290
1
 42
2.0
291
1
 43
8.0
  3
Standard
 44
4.0
300

342
29
174
1
175
1
176
0
178
1
 93
-1056964608
 45
4.0
292
0
297
0
 46
4.0
 94
-1056964608
 47
1.0
 49
1.0
140
1.0
294
1
141
0.0
177
0
142
1.0
295
0
296
0
143
3.75
271
0
272
9
273
9
  0
DICTIONARY
  5
2D
330
A
100
AcDbDictionary
281
1
  3
CREATED_BY_EZDXF
350
2E
  3
WRITTEN_BY_EZDXF
350
2B6
  0
DICTIONARYVAR
  5
2E
330
2D
100
DictionaryVariables
280
0
  1
1.3.1 @ 2025-06-11T22:39:50.676080+00:00
  0
VISUALSTYLE
  5
5A
102
{ACAD_REACTORS
330
16
102
}
330
16
100
AcDbVisualStyle
  2
2dWireframe
 70
4
177
3
291
0
 70
58
 90
2
176
1
 90
2
176
1
 90
0
176
1
 90
0
176
1
 40
0.6
176
1
 40
30.0
176
1
 62
7
420
16777215
176
1
 90
1
176
1
 90
4
176
1
 62
7
176
1
 62
257
176
1
 90
1
176
1
 90
1
176
1
 40
1.0
176
1
 90
8
176
1
 62
7
176
1
 40
1.0
176
1
 90
1
176
1
 90
6
176
1
 90
2
176
1
 62
7
176
1
 90
5
176
1
 90
0
176
1
 90
0
176
1
290
0
176
1
 90
1
176
1
 40
0.0
176
1
 90
0
176
1
290
1
176
1
290
1
176
1
290
0
176
1
290
0
176
1
290
0
176
1
290
0
176
1
290
0
176
1
290
0
176
1
290
0
176
1
 90
50
176
1
 40
0.0
176
1
 40
1.0
176
1
 90
0
176
1
 62
18
420
0
176
1
 90
50
176
1
 90
3
176
1
 62
5
420
255
176
1
290
0
176
1
 90
50
176
1
 90
50
176
1
 90
50
176
1
290
0
176
1
 90
50
176
1
 62
256
176
0
 40
1.0
176
0
 90
2
176
1
  1
strokes_ogs.tif
176
1
290
0
176
1
 40
1.0
176
1
 40
1.0
176
1
  0
VISUALSTYLE
  5
5B
102
{ACAD_REACTORS
330
16
102
}
330
16
100
AcDbVisualStyle
  2
Basic
 70
7
177
3
291
1
 70
58
 90
2
176
1
 90
2
176
1
 90
0
176
1
 90
1
176
1
 40
0.6
176
1
 40
30.0
176
1
 62
7
420
16777215
176
1
 90
1
176
1
 90
4
176
1
 62
7
176
1
 62
257
176
1
 90
1
176
1
 90
1
176
1
 40
1.0
176
1
 90
8
176
1
 62
7
176
1
 40
1.0
176
1
 90
1
176
1
 90
6
176
1
 90
2
176
1
 62
7
176
1
 90
5
176
1
 90
0
176
1
 90
0
176
1
290
0
176
1
 90
1
176
1
 40
0.0
176
1
 90
0
176
1
290
0
176
1
290
1
176
1
290
1
176
1
290
0
176
1
290
0
176
1
290
0
176
1
290
0
176
1
290
0
176
1
290
0
176
1
 90
50
176
1
 40
0.0
176
1
 40
1.0
176
1
 90
0
176
1
 62
18
420
0
176
1
 90
50
176
1
 90
3
176
1
 62
5
420
255
176
1
290
0
176
1
 90
50
176
1
 90
50
176
1
 90
50
176
1
290
0
176
1
 90
50
176
1
 62
256
176
0
 40
1.0
176
0
 90
2
176
1
  1
strokes_ogs.tif
176
1
290
0
176
1
 40
1.0
176
1
 40
1.0
176
1
  0
VISUALSTYLE
  5
5C
102
{ACAD_REACTORS
330
16
102
}
330
16
100
AcDbVisualStyle
  2
Brighten
 70
12
177
3
291
1
 70
58
 90
2
176
1
 90
2
176
1
 90
0
176
1
 90
2
176
1
 40
0.6
176
1
 40
30.0
176
1
 62
7
420
16777215
176
1
 90
1
176
1
 90
4
176
1
 62
7
176
1
 62
257
176
1
 90
1
176
1
 90
1
176
1
 40
1.0
176
1
 90
8
176
1
 62
7
176
1
 40
1.0
176
1
 90
1
176
1
 90
6
176
1
 90
2
176
1
 62
7
176
1
 90
5
176
1
 90
0
176
1
 90
0
176
1
290
0
176
1
 90
1
176
1
 40
0.0
176
1
 90
0
176
1
290
0
176
1
290
1
176
1
290
1
176
1
290
0
176
1
290
0
176
1
290
0
176
1
290
0
176
1
290
0
176
1
290
0
176
1
 90
50
176
1
 40
0.0
176
1
 40
1.0
176
1
 90
0
176
1
 62
18
420
0
176
1
 90
50
176
1
 90
3
176
1
 62
5
420
255
176
1
290
0
176
1
 90
50
176
1
 90
50
176
1
 90
50
176
1
290
0
176
1
 90
50
176
1
 62
256
176
0
 40
1.0
176
0
 90
2
176
1
  1
strokes_ogs.tif
176
1
290
0
176
1
 40
1.0
176
1
 40
1.0
176
1
  0
VISUALSTYLE
  5
5D
102
{ACAD_REACTORS
330
16
102
}
330
16
100
AcDbVisualStyle
  2
ColorChange
 70
16
177
3
291
1
 70
58
 90
2
176
1
 90
2
176
1
 90
0
176
1
 90
2
176
1
 40
0.6
176
1
 40
30.0
176
1
 62
7
420
16777215
176
1
 90
1
176
1
 90
4
176
1
 62
7
176
1
 62
257
176
1
 90
1
176
1
 90
1
176
1
 40
1.0
176
1
 90
8
176
1
 62
7
176
1
 40
1.0
176
1
 90
1
176
1
 90
6
176
1
 90
2
176
1
 62
7
176
1
 90
5
176
1
 90
0
176
1
 90
0
176
1
290
0
176
1
 90
1
176
1
 40
0.0
176
1
 90
0
176
1
290
0
176
1
290
1
176
1
290
1
176
1
290
0
176
1
290
0
176
1
290
0
176
1
290
0
176
1
290
0
176
1
290
0
176
1
 90
50
176
1
 40
0.0
176
1
 40
1.0
176
1
 90
0
176
1
 62
18
420
0
176
1
 90
50
176
1
 90
3
176
1
 62
5
420
255
176
1
290
0
176
1
 90
50
176
1
 90
50
176
1
 90
50
176
1
290
0
176
1
 90
50
176
1
 62
256
176
0
 40
1.0
176
0
 90
2
176
1
  1
strokes_ogs.tif
176
1
290
0
176
1
 40
1.0
176
1
 40
1.0
176
1
  0
VISUALSTYLE
  5
5E
102
{ACAD_REACTORS
330
16
102
}
330
16
100
AcDbVisualStyle
  2
Conceptual
 70
9
177
3
291
0
 70
58
 90
2
176
1
 90
2
176
1
 90
0
176
1
 90
3
176
1
 40
0.6
176
1
 40
30.0
176
1
 62
7
420
16777215
176
1
 90
1
176
1
 90
4
176
1
 62
7
176
1
 62
257
176
1
 90
1
176
1
 90
1
176
1
 40
1.0
176
1
 90
8
176
1
 62
7
176
1
 40
1.0
176
1
 90
1
176
1
 90
6
176
1
 90
2
176
1
 62
7
176
1
 90
5
176
1
 90
0
176
1
 90
0
176
1
290
0
176
1
 90
1
176
1
 40
0.0
176
1
 90
0
176
1
290
0
176
1
290
1
176
1
290
1
176
1
290
0
176
1
290
0
176
1
290
0
176
1
290
0
176
1
290
0
176
1
290
0
176
1
 90
50
176
1
 40
0.0
176
1
 40
1.0
176
1
 90
0
176
1
 62
18
420
0
176
1
 90
50
176
1
 90
3
176
1
 62
5
420
255
176
1
290
0
176
1
 90
50
176
1
 90
50
176
1
 90
50
176
1
290
0
176
1
 90
50
176
1
 62
256
176
0
 40
1.0
176
0
 90
2
176
1
  1
strokes_ogs.tif
176
1
290
0
176
1
 40
1.0
176
1
 40
1.0
176
1
  0
VISUALSTYLE
  5
5F
102
{ACAD_REACTORS
330
16
102
}
330
16
100
AcDbVisualStyle
  2
Dim
 70
11
177
3
291
1
 70
58
 90
2
176
1
 90
2
176
1
 90
0
176
1
 90
2
176
1
 40
0.6
176
1
 40
30.0
176
1
 62
7
420
16777215
176
1
 90
1
176
1
 90
4
176
1
 62
7
176
1
 62
257
176
1
 90
1
176
1
 90
1
176
1
 40
1.0
176
1
 90
8
176
1
 62
7
176
1
 40
1.0
176
1
 90
1
176
1
 90
6
176
1
 90
2
176
1
 62
7
176
1
 90
5
176
1
 90
0
176
1
 90
0
176
1
290
0
176
1
 90
1
176
1
 40
0.0
176
1
 90
0
176
1
290
0
176
1
290
1
176
1
290
1
176
1
290
0
176
1
290
0
176
1
290
0
176
1
290
0
176
1
290
0
176
1
290
0
176
1
 90
50
176
1
 40
0.0
176
1
 40
1.0
176
1
 90
0
176
1
 62
18
420
0
176
1
 90
50
176
1
 90
3
176
1
 62
5
420
255
176
1
290
0
176
1
 90
50
176
1
 90
50
176
1
 90
50
176
1
290
0
176
1
 90
50
176
1
 62
256
176
0
 40
1.0
176
0
 90
2
176
1
  1
strokes_ogs.tif
176
1
290
0
176
1
 40
1.0
176
1
 40
1.0
176
1
  0
VISUALSTYLE
  5
60
102
{ACAD_REACTORS
330
16
102
}
330
16
100
AcDbVisualStyle
  2
EdgeColorOff
 70
22
177
3
291
1
 70
58
 90
2
176
1
 90
2
176
1
 90
0
176
1
 90
2
176
1
 40
0.6
176
1
 40
30.0
176
1
 62
7
420
16777215
176
1
 90
1
176
1
 90
4
176
1
 62
7
176
1
 62
257
176
1
 90
1
176
1
 90
1
176
1
 40
1.0
176
1
 90
8
176
1
 62
7
176
1
 40
1.0
176
1
 90
1
176
1
 90
6
176
1
 90
2
176
1
 62
7
176
1
 90
5
176
1
 90
0
176
1
 90
0
176
1
290
0
176
1
 90
1
176
1
 40
0.0
176
1
 90
0
176
1
290
0
176
1
290
1
176
1
290
1
176
1
290
0
176
1
290
0
176
1
290
0
176
1
290
0
176
1
290
0
176
1
290
0
176
1
 90
50
176
1
 40
0.0
176
1
 40
1.0
176
1
 90
0
176
1
 62
18
420
0
176
1
 90
50
176
1
 90
3
176
1
 62
5
420
255
176
1
290
0
176
1
 90
50
176
1
 90
50
176
1
 90
50
176
1
290
0
176
1
 90
50
176
1
 62
256
176
0
 40
1.0
176
0
 90
2
176
1
  1
strokes_ogs.tif
176
1
290
0
176
1
 40
1.0
176
1
 40
1.0
176
1
  0
VISUALSTYLE
  5
61
102
{ACAD_REACTORS
330
16
102
}
330
16
100
AcDbVisualStyle
  2
Facepattern
 70
15
177
3
291
1
 70
58
 90
2
176
1
 90
2
176
1
 90
0
176
1
 90
2
176
1
 40
0.6
176
1
 40
30.0
176
1
 62
7
420
16777215
176
1
 90
1
176
1
 90
4
176
1
 62
7
176
1
 62
257
176
1
 90
1
176
1
 90
1
176
1
 40
1.0
176
1
 90
8
176
1
 62
7
176
1
 40
1.0
176
1
 90
1
176
1
 90
6
176
1
 90
2
176
1
 62
7
176
1
 90
5
176
1
 90
0
176
1
 90
0
176
1
290
0
176
1
 90
1
176
1
 40
0.0
176
1
 90
0
176
1
290
0
176
1
290
1
176
1
290
1
176
1
290
0
176
1
290
0
176
1
290
0
176
1
290
0
176
1
290
0
176
1
290
0
176
1
 90
50
176
1
 40
0.0
176
1
 40
1.0
176
1
 90
0
176
1
 62
18
420
0
176
1
 90
50
176
1
 90
3
176
1
 62
5
420
255
176
1
290
0
176
1
 90
50
176
1
 90
50
176
1
 90
50
176
1
290
0
176
1
 90
50
176
1
 62
256
176
0
 40
1.0
176
0
 90
2
176
1
  1
strokes_ogs.tif
176
1
290
0
176
1
 40
1.0
176
1
 40
1.0
176
1
  0
VISUALSTYLE
  5
62
102
{ACAD_REACTORS
330
16
102
}
330
16
100
AcDbVisualStyle
  2
Flat
 70
0
177
3
291
1
 70
58
 90
2
176
1
 90
2
176
1
 90
0
176
1
 90
2
176
1
 40
0.6
176
1
 40
30.0
176
1
 62
7
420
16777215
176
1
 90
1
176
1
 90
4
176
1
 62
7
176
1
 62
257
176
1
 90
1
176
1
 90
1
176
1
 40
1.0
176
1
 90
8
176
1
 62
7
176
1
 40
1.0
176
1
 90
1
176
1
 90
6
176
1
 90
2
176
1
 62
7
176
1
 90
5
176
1
 90
0
176
1
 90
0
176
1
290
0
176
1
 90
1
176
1
 40
0.0
176
1
 90
0
176
1
290
0
176
1
290
1
176
1
290
1
176
1
290
0
176
1
290
0
176
1
290
0
176
1
290
0
176
1
290
0
176
1
290
0
176
1
 90
50
176
1
 40
0.0
176
1
 40
1.0
176
1
 90
0
176
1
 62
18
420
0
176
1
 90
50
176
1
 90
3
176
1
 62
5
420
255
176
1
290
0
176
1
 90
50
176
1
 90
50
176
1
 90
50
176
1
290
0
176
1
 90
50
176
1
 62
256
176
0
 40
1.0
176
0
 90
2
176
1
  1
strokes_ogs.tif
176
1
290
0
176
1
 40
1.0
176
1
 40
1.0
176
1
  0
VISUALSTYLE
  5
63
102
{ACAD_REACTORS
330
16
102
}
330
16
100
AcDbVisualStyle
  2
FlatWithEdges
 70
1
177
3
291
1
 70
58
 90
2
176
1
 90
2
176
1
 90
0
176
1
 90
2
176
1
 40
0.6
176
1
 40
30.0
176
1
 62
7
420
16777215
176
1
 90
1
176
1
 90
4
176
1
 62
7
176
1
 62
257
176
1
 90
1
176
1
 90
1
176
1
 40
1.0
176
1
 90
8
176
1
 62
7
176
1
 40
1.0
176
1
 90
1
176
1
 90
6
176
1
 90
2
176
1
 62
7
176
1
 90
5
176
1
 90
0
176
1
 90
0
176
1
290
0
176
1
 90
1
176
1
 40
0.0
176
1
 90
0
176
1
290
0
176
1
290
1
176
1
290
1
176
1
290
0
176
1
290
0
176
1
290
0
176
1
290
0
176
1
290
0
176
1
290
0
176
1
 90
50
176
1
 40
0.0
176
1
 40
1.0
176
1
 90
0
176
1
 62
18
420
0
176
1
 90
50
176
1
 90
3
176
1
 62
5
420
255
176
1
290
0
176
1
 90
50
176
1
 90
50
176
1
 90
50
176
1
290
0
176
1
 90
50
176
1
 62
256
176
0
 40
1.0
176
0
 90
2
176
1
  1
strokes_ogs.tif
176
1
290
0
176
1
 40
1.0
176
1
 40
1.0
176
1
  0
VISUALSTYLE
  5
64
102
{ACAD_REACTORS
330
16
102
}
330
16
100
AcDbVisualStyle
  2
Gouraud
 70
2
177
3
291
1
 70
58
 90
2
176
1
 90
2
176
1
 90
0
176
1
 90
2
176
1
 40
0.6
176
1
 40
30.0
176
1
 62
7
420
16777215
176
1
 90
1
176
1
 90
4
176
1
 62
7
176
1
 62
257
176
1
 90
1
176
1
 90
1
176
1
 40
1.0
176
1
 90
8
176
1
 62
7
176
1
 40
1.0
176
1
 90
1
176
1
 90
6
176
1
 90
2
176
1
 62
7
176
1
 90
5
176
1
 90
0
176
1
 90
0
176
1
290
0
176
1
 90
1
176
1
 40
0.0
176
1
 90
0
176
1
290
0
176
1
290
1
176
1
290
1
176
1
290
0
176
1
290
0
176
1
290
0
176
1
290
0
176
1
290
0
176
1
290
0
176
1
 90
50
176
1
 40
0.0
176
1
 40
1.0
176
1
 90
0
176
1
 62
18
420
0
176
1
 90
50
176
1
 90
3
176
1
 62
5
420
255
176
1
290
0
176
1
 90
50
176
1
 90
50
176
1
 90
50
176
1
290
0
176
1
 90
50
176
1
 62
256
176
0
 40
1.0
176
0
 90
2
176
1
  1
strokes_ogs.tif
176
1
290
0
176
1
 40
1.0
176
1
 40
1.0
176
1
  0
VISUALSTYLE
  5
65
102
{ACAD_REACTORS
330
16
102
}
330
16
100
AcDbVisualStyle
  2
GouraudWithEdges
 70
3
177
3
291
1
 70
58
 90
2
176
1
 90
2
176
1
 90
0
176
1
 90
2
176
1
 40
0.6
176
1
 40
30.0
176
1
 62
7
420
16777215
176
1
 90
1
176
1
 90
4
176
1
 62
7
176
1
 62
257
176
1
 90
1
176
1
 90
1
176
1
 40
1.0
176
1
 90
8
176
1
 62
7
176
1
 40
1.0
176
1
 90
1
176
1
 90
6
176
1
 90
2
176
1
 62
7
176
1
 90
5
176
1
 90
0
176
1
 90
0
176
1
290
0
176
1
 90
1
176
1
 40
0.0
176
1
 90
0
176
1
290
0
176
1
290
1
176
1
290
1
176
1
290
0
176
1
290
0
176
1
290
0
176
1
290
0
176
1
290
0
176
1
290
0
176
1
 90
50
176
1
 40
0.0
176
1
 40
1.0
176
1
 90
0
176
1
 62
18
420
0
176
1
 90
50
176
1
 90
3
176
1
 62
5
420
255
176
1
290
0
176
1
 90
50
176
1
 90
50
176
1
 90
50
176
1
290
0
176
1
 90
50
176
1
 62
256
176
0
 40
1.0
176
0
 90
2
176
1
  1
strokes_ogs.tif
176
1
290
0
176
1
 40
1.0
176
1
 40
1.0
176
1
  0
VISUALSTYLE
  5
66
102
{ACAD_REACTORS
330
16
102
}
330
16
100
AcDbVisualStyle
  2
Hidden
 70
6
177
3
291
0
 70
58
 90
2
176
1
 90
2
176
1
 90
0
176
1
 90
1
176
1
 40
0.6
176
1
 40
30.0
176
1
 62
7
420
16777215
176
1
 90
1
176
1
 90
4
176
1
 62
7
176
1
 62
257
176
1
 90
1
176
1
 90
1
176
1
 40
1.0
176
1
 90
8
176
1
 62
7
176
1
 40
1.0
176
1
 90
1
176
1
 90
6
176
1
 90
2
176
1
 62
7
176
1
 90
5
176
1
 90
0
176
1
 90
0
176
1
290
0
176
1
 90
1
176
1
 40
0.0
176
1
 90
0
176
1
290
0
176
1
290
1
176
1
290
1
176
1
290
0
176
1
290
0
176
1
290
0
176
1
290
0
176
1
290
0
176
1
290
0
176
1
 90
50
176
1
 40
0.0
176
1
 40
1.0
176
1
 90
0
176
1
 62
18
420
0
176
1
 90
50
176
1
 90
3
176
1
 62
5
420
255
176
1
290
0
176
1
 90
50
176
1
 90
50
176
1
 90
50
176
1
290
0
176
1
 90
50
176
1
 62
256
176
0
 40
1.0
176
0
 90
2
176
1
  1
strokes_ogs.tif
176
1
290
0
176
1
 40
1.0
176
1
 40
1.0
176
1
  0
VISUALSTYLE
  5
67
102
{ACAD_REACTORS
330
16
102
}
330
16
100
AcDbVisualStyle
  2
JitterOff
 70
20
177
3
291
1
 70
58
 90
2
176
1
 90
2
176
1
 90
0
176
1
 90
2
176
1
 40
0.6
176
1
 40
30.0
176
1
 62
7
420
16777215
176
1
 90
1
176
1
 90
4
176
1
 62
7
176
1
 62
257
176
1
 90
1
176
1
 90
1
176
1
 40
1.0
176
1
 90
8
176
1
 62
7
176
1
 40
1.0
176
1
 90
1
176
1
 90
6
176
1
 90
2
176
1
 62
7
176
1
 90
5
176
1
 90
0
176
1
 90
0
176
1
290
0
176
1
 90
1
176
1
 40
0.0
176
1
 90
0
176
1
290
0
176
1
290
1
176
1
290
1
176
1
290
0
176
1
290
0
176
1
290
0
176
1
290
0
176
1
290
0
176
1
290
0
176
1
 90
50
176
1
 40
0.0
176
1
 40
1.0
176
1
 90
0
176
1
 62
18
420
0
176
1
 90
50
176
1
 90
3
176
1
 62
5
420
255
176
1
290
0
176
1
 90
50
176
1
 90
50
176
1
 90
50
176
1
290
0
176
1
 90
50
176
1
 62
256
176
0
 40
1.0
176
0
 90
2
176
1
  1
strokes_ogs.tif
176
1
290
0
176
1
 40
1.0
176
1
 40
1.0
176
1
  0
VISUALSTYLE
  5
68
102
{ACAD_REACTORS
330
16
102
}
330
16
100
AcDbVisualStyle
  2
Linepattern
 70
14
177
3
291
1
 70
58
 90
2
176
1
 90
2
176
1
 90
0
176
1
 90
2
176
1
 40
0.6
176
1
 40
30.0
176
1
 62
7
420
16777215
176
1
 90
1
176
1
 90
4
176
1
 62
7
176
1
 62
257
176
1
 90
1
176
1
 90
1
176
1
 40
1.0
176
1
 90
8
176
1
 62
7
176
1
 40
1.0
176
1
 90
1
176
1
 90
6
176
1
 90
2
176
1
 62
7
176
1
 90
5
176
1
 90
0
176
1
 90
0
176
1
290
0
176
1
 90
1
176
1
 40
0.0
176
1
 90
0
176
1
290
0
176
1
290
1
176
1
290
1
176
1
290
0
176
1
290
0
176
1
290
0
176
1
290
0
176
1
290
0
176
1
290
0
176
1
 90
50
176
1
 40
0.0
176
1
 40
1.0
176
1
 90
0
176
1
 62
18
420
0
176
1
 90
50
176
1
 90
3
176
1
 62
5
420
255
176
1
290
0
176
1
 90
50
176
1
 90
50
176
1
 90
50
176
1
290
0
176
1
 90
50
176
1
 62
256
176
0
 40
1.0
176
0
 90
2
176
1
  1
strokes_ogs.tif
176
1
290
0
176
1
 40
1.0
176
1
 40
1.0
176
1
  0
VISUALSTYLE
  5
69
102
{ACAD_REACTORS
330
16
102
}
330
16
100
AcDbVisualStyle
  2
Modeling
 70
10
177
3
291
0
 70
58
 90
2
176
1
 90
2
176
1
 90
0
176
1
 90
2
176
1
 40
0.6
176
1
 40
30.0
176
1
 62
7
420
16777215
176
1
 90
1
176
1
 90
4
176
1
 62
7
176
1
 62
257
176
1
 90
1
176
1
 90
1
176
1
 40
1.0
176
1
 90
8
176
1
 62
7
176
1
 40
1.0
176
1
 90
1
176
1
 90
6
176
1
 90
2
176
1
 62
7
176
1
 90
5
176
1
 90
0
176
1
 90
0
176
1
290
0
176
1
 90
1
176
1
 40
0.0
176
1
 90
0
176
1
290
0
176
1
290
1
176
1
290
1
176
1
290
0
176
1
290
0
176
1
290
0
176
1
290
0
176
1
290
0
176
1
290
0
176
1
 90
50
176
1
 40
0.0
176
1
 40
1.0
176
1
 90
0
176
1
 62
18
420
0
176
1
 90
50
176
1
 90
3
176
1
 62
5
420
255
176
1
290
0
176
1
 90
50
176
1
 90
50
176
1
 90
50
176
1
290
0
176
1
 90
50
176
1
 62
256
176
0
 40
1.0
176
0
 90
2
176
1
  1
strokes_ogs.tif
176
1
290
0
176
1
 40
1.0
176
1
 40
1.0
176
1
  0
VISUALSTYLE
  5
6A
102
{ACAD_REACTORS
330
16
102
}
330
16
100
AcDbVisualStyle
  2
OverhangOff
 70
21
177
3
291
1
 70
58
 90
2
176
1
 90
2
176
1
 90
0
176
1
 90
2
176
1
 40
0.6
176
1
 40
30.0
176
1
 62
7
420
16777215
176
1
 90
1
176
1
 90
4
176
1
 62
7
176
1
 62
257
176
1
 90
1
176
1
 90
1
176
1
 40
1.0
176
1
 90
8
176
1
 62
7
176
1
 40
1.0
176
1
 90
1
176
1
 90
6
176
1
 90
2
176
1
 62
7
176
1
 90
5
176
1
 90
0
176
1
 90
0
176
1
290
0
176
1
 90
1
176
1
 40
0.0
176
1
 90
0
176
1
290
0
176
1
290
1
176
1
290
1
176
1
290
0
176
1
290
0
176
1
290
0
176
1
290
0
176
1
290
0
176
1
290
0
176
1
 90
50
176
1
 40
0.0
176
1
 40
1.0
176
1
 90
0
176
1
 62
18
420
0
176
1
 90
50
176
1
 90
3
176
1
 62
5
420
255
176
1
290
0
176
1
 90
50
176
1
 90
50
176
1
 90
50
176
1
290
0
176
1
 90
50
176
1
 62
256
176
0
 40
1.0
176
0
 90
2
176
1
  1
strokes_ogs.tif
176
1
290
0
176
1
 40
1.0
176
1
 40
1.0
176
1
  0
VISUALSTYLE
  5
6B
102
{ACAD_REACTORS
330
16
102
}
330
16
100
AcDbVisualStyle
  2
Realistic
 70
8
177
3
291
0
 70
58
 90
2
176
1
 90
2
176
1
 90
0
176
1
 90
2
176
1
 40
0.6
176
1
 40
30.0
176
1
 62
7
420
16777215
176
1
 90
1
176
1
 90
4
176
1
 62
7
176
1
 62
257
176
1
 90
1
176
1
 90
1
176
1
 40
1.0
176
1
 90
8
176
1
 62
7
176
1
 40
1.0
176
1
 90
1
176
1
 90
6
176
1
 90
2
176
1
 62
7
176
1
 90
5
176
1
 90
0
176
1
 90
0
176
1
290
0
176
1
 90
1
176
1
 40
0.0
176
1
 90
0
176
1
290
0
176
1
290
1
176
1
290
1
176
1
290
0
176
1
290
0
176
1
290
0
176
1
290
0
176
1
290
0
176
1
290
0
176
1
 90
50
176
1
 40
0.0
176
1
 40
1.0
176
1
 90
0
176
1
 62
18
420
0
176
1
 90
50
176
1
 90
3
176
1
 62
5
420
255
176
1
290
0
176
1
 90
50
176
1
 90
50
176
1
 90
50
176
1
290
0
176
1
 90
50
176
1
 62
256
176
0
 40
1.0
176
0
 90
2
176
1
  1
strokes_ogs.tif
176
1
290
0
176
1
 40
1.0
176
1
 40
1.0
176
1
  0
VISUALSTYLE
  5
6C
102
{ACAD_REACTORS
330
16
102
}
330
16
100
AcDbVisualStyle
  2
Shaded
 70
27
177
3
291
0
 70
58
 90
2
176
1
 90
2
176
1
 90
0
176
1
 90
2
176
1
 40
0.6
176
1
 40
30.0
176
1
 62
7
420
16777215
176
1
 90
1
176
1
 90
4
176
1
 62
7
176
1
 62
257
176
1
 90
1
176
1
 90
1
176
1
 40
1.0
176
1
 90
8
176
1
 62
7
176
1
 40
1.0
176
1
 90
1
176
1
 90
6
176
1
 90
2
176
1
 62
7
176
1
 90
5
176
1
 90
0
176
1
 90
0
176
1
290
0
176
1
 90
1
176
1
 40
0.0
176
1
 90
0
176
1
290
0
176
1
290
1
176
1
290
1
176
1
290
0
176
1
290
0
176
1
290
0
176
1
290
0
176
1
290
0
176
1
290
0
176
1
 90
50
176
1
 40
0.0
176
1
 40
1.0
176
1
 90
0
176
1
 62
18
420
0
176
1
 90
50
176
1
 90
3
176
1
 62
5
420
255
176
1
290
0
176
1
 90
50
176
1
 90
50
176
1
 90
50
176
1
290
0
176
1
 90
50
176
1
 62
256
176
0
 40
1.0
176
0
 90
2
176
1
  1
strokes_ogs.tif
176
1
290
0
176
1
 40
1.0
176
1
 40
1.0
176
1
  0
VISUALSTYLE
  5
6D
102
{ACAD_REACTORS
330
16
102
}
330
16
100
AcDbVisualStyle
  2
Shaded with edges
 70
26
177
3
291
0
 70
58
 90
2
176
1
 90
2
176
1
 90
0
176
1
 90
2
176
1
 40
0.6
176
1
 40
30.0
176
1
 62
7
420
16777215
176
1
 90
1
176
1
 90
4
176
1
 62
7
176
1
 62
257
176
1
 90
1
176
1
 90
1
176
1
 40
1.0
176
1
 90
8
176
1
 62
7
176
1
 40
1.0
176
1
 90
1
176
1
 90
6
176
1
 90
2
176
1
 62
7
176
1
 90
5
176
1
 90
0
176
1
 90
0
176
1
290
0
176
1
 90
1
176
1
 40
0.0
176
1
 90
0
176
1
290
0
176
1
290
1
176
1
290
1
176
1
290
0
176
1
290
0
176
1
290
0
176
1
290
0
176
1
290
0
176
1
290
0
176
1
 90
50
176
1
 40
0.0
176
1
 40
1.0
176
1
 90
0
176
1
 62
18
420
0
176
1
 90
50
176
1
 90
3
176
1
 62
5
420
255
176
1
290
0
176
1
 90
50
176
1
 90
50
176
1
 90
50
176
1
290
0
176
1
 90
50
176
1
 62
256
176
0
 40
1.0
176
0
 90
2
176
1
  1
strokes_ogs.tif
176
1
290
0
176
1
 40
1.0
176
1
 40
1.0
176
1
  0
VISUALSTYLE
  5
6E
102
{ACAD_REACTORS
330
16
102
}
330
16
100
AcDbVisualStyle
  2
Shades of Gray
 70
23
177
3
291
0
 70
58
 90
2
176
1
 90
2
176
1
 90
0
176
1
 90
2
176
1
 40
0.6
176
1
 40
30.0
176
1
 62
7
420
16777215
176
1
 90
1
176
1
 90
4
176
1
 62
7
176
1
 62
257
176
1
 90
1
176
1
 90
1
176
1
 40
1.0
176
1
 90
8
176
1
 62
7
176
1
 40
1.0
176
1
 90
1
176
1
 90
6
176
1
 90
2
176
1
 62
7
176
1
 90
5
176
1
 90
0
176
1
 90
0
176
1
290
0
176
1
 90
1
176
1
 40
0.0
176
1
 90
0
176
1
290
0
176
1
290
1
176
1
290
1
176
1
290
0
176
1
290
0
176
1
290
0
176
1
290
0
176
1
290
0
176
1
290
0
176
1
 90
50
176
1
 40
0.0
176
1
 40
1.0
176
1
 90
0
176
1
 62
18
420
0
176
1
 90
50
176
1
 90
3
176
1
 62
5
420
255
176
1
290
0
176
1
 90
50
176
1
 90
50
176
1
 90
50
176
1
290
0
176
1
 90
50
176
1
 62
256
176
0
 40
1.0
176
0
 90
2
176
1
  1
strokes_ogs.tif
176
1
290
0
176
1
 40
1.0
176
1
 40
1.0
176
1
  0
VISUALSTYLE
  5
6F
102
{ACAD_REACTORS
330
16
102
}
330
16
100
AcDbVisualStyle
  2
Sketchy
 70
24
177
3
291
0
 70
58
 90
2
176
1
 90
2
176
1
 90
0
176
1
 90
1
176
1
 40
0.6
176
1
 40
30.0
176
1
 62
7
420
16777215
176
1
 90
1
176
1
 90
4
176
1
 62
7
176
1
 62
257
176
1
 90
1
176
1
 90
1
176
1
 40
1.0
176
1
 90
8
176
1
 62
7
176
1
 40
1.0
176
1
 90
1
176
1
 90
6
176
1
 90
2
176
1
 62
7
176
1
 90
5
176
1
 90
0
176
1
 90
0
176
1
290
0
176
1
 90
1
176
1
 40
0.0
176
1
 90
0
176
1
290
0
176
1
290
1
176
1
290
1
176
1
290
0
176
1
290
0
176
1
290
0
176
1
290
0
176
1
290
0
176
1
290
0
176
1
 90
50
176
1
 40
0.0
176
1
 40
1.0
176
1
 90
0
176
1
 62
18
420
0
176
1
 90
50
176
1
 90
3
176
1
 62
5
420
255
176
1
290
0
176
1
 90
50
176
1
 90
50
176
1
 90
50
176
1
290
0
176
1
 90
50
176
1
 62
256
176
0
 40
1.0
176
0
 90
2
176
1
  1
strokes_ogs.tif
176
1
290
0
176
1
 40
1.0
176
1
 40
1.0
176
1
  0
VISUALSTYLE
  5
70
102
{ACAD_REACTORS
330
16
102
}
330
16
100
AcDbVisualStyle
  2
Thicken
 70
13
177
3
291
1
 70
58
 90
2
176
1
 90
2
176
1
 90
0
176
1
 90
2
176
1
 40
0.6
176
1
 40
30.0
176
1
 62
7
420
16777215
176
1
 90
1
176
1
 90
4
176
1
 62
7
176
1
 62
257
176
1
 90
1
176
1
 90
1
176
1
 40
1.0
176
1
 90
8
176
1
 62
7
176
1
 40
1.0
176
1
 90
1
176
1
 90
6
176
1
 90
2
176
1
 62
7
176
1
 90
5
176
1
 90
0
176
1
 90
0
176
1
290
0
176
1
 90
1
176
1
 40
0.0
176
1
 90
0
176
1
290
0
176
1
290
1
176
1
290
1
176
1
290
0
176
1
290
0
176
1
290
0
176
1
290
0
176
1
290
0
176
1
290
0
176
1
 90
50
176
1
 40
0.0
176
1
 40
1.0
176
1
 90
0
176
1
 62
18
420
0
176
1
 90
50
176
1
 90
3
176
1
 62
5
420
255
176
1
290
0
176
1
 90
50
176
1
 90
50
176
1
 90
50
176
1
290
0
176
1
 90
50
176
1
 62
256
176
0
 40
1.0
176
0
 90
2
176
1
  1
strokes_ogs.tif
176
1
290
0
176
1
 40
1.0
176
1
 40
1.0
176
1
  0
VISUALSTYLE
  5
71
102
{ACAD_REACTORS
330
16
102
}
330
16
100
AcDbVisualStyle
  2
Wireframe
 70
5
177
3
291
0
 70
58
 90
2
176
1
 90
2
176
1
 90
0
176
1
 90
0
176
1
 40
0.6
176
1
 40
30.0
176
1
 62
7
420
16777215
176
1
 90
1
176
1
 90
4
176
1
 62
7
176
1
 62
257
176
1
 90
1
176
1
 90
1
176
1
 40
1.0
176
1
 90
8
176
1
 62
7
176
1
 40
1.0
176
1
 90
1
176
1
 90
6
176
1
 90
2
176
1
 62
7
176
1
 90
5
176
1
 90
0
176
1
 90
0
176
1
290
0
176
1
 90
1
176
1
 40
0.0
176
1
 90
0
176
1
290
0
176
1
290
1
176
1
290
1
176
1
290
0
176
1
290
0
176
1
290
0
176
1
290
0
176
1
290
0
176
1
290
0
176
1
 90
50
176
1
 40
0.0
176
1
 40
1.0
176
1
 90
0
176
1
 62
18
420
0
176
1
 90
50
176
1
 90
3
176
1
 62
5
420
255
176
1
290
0
176
1
 90
50
176
1
 90
50
176
1
 90
50
176
1
290
0
176
1
 90
50
176
1
 62
256
176
0
 40
1.0
176
0
 90
2
176
1
  1
strokes_ogs.tif
176
1
290
0
176
1
 40
1.0
176
1
 40
1.0
176
1
  0
VISUALSTYLE
  5
72
102
{ACAD_REACTORS
330
16
102
}
330
16
100
AcDbVisualStyle
  2
X-Ray
 70
25
177
3
291
0
 70
58
 90
2
176
1
 90
2
176
1
 90
0
176
1
 90
2
176
1
 40
0.5
176
1
 40
30.0
176
1
 62
7
420
16777215
176
1
 90
1
176
1
 90
4
176
1
 62
7
176
1
 62
257
176
1
 90
1
176
1
 90
1
176
1
 40
1.0
176
1
 90
8
176
1
 62
7
176
1
 40
1.0
176
1
 90
1
176
1
 90
6
176
1
 90
2
176
1
 62
7
176
1
 90
5
176
1
 90
0
176
1
 90
0
176
1
290
0
176
1
 90
1
176
1
 40
0.0
176
1
 90
0
176
1
290
0
176
1
290
1
176
1
290
1
176
1
290
0
176
1
290
0
176
1
290
0
176
1
290
0
176
1
290
0
176
1
290
0
176
1
 90
50
176
1
 40
0.0
176
1
 40
1.0
176
1
 90
0
176
1
 62
18
420
0
176
1
 90
50
176
1
 90
3
176
1
 62
5
420
255
176
1
290
0
176
1
 90
50
176
1
 90
50
176
1
 90
50
176
1
290
0
176
1
 90
50
176
1
 62
256
176
0
 40
1.0
176
0
 90
2
176
1
  1
strokes_ogs.tif
176
1
290
0
176
1
 40
1.0
176
1
 40
1.0
176
1
  0
DICTIONARYVAR
  5
2B6
330
2D
100
DictionaryVariables
280
0
  1
1.3.1 @ 2025-06-11T22:39:50.709342+00:00
  0
ENDSEC
  0
EOF
